<?xml version="1.0" encoding="utf-8"?>
<!-- Generator: Adobe Illustrator 18.1.1, SVG Export Plug-In . SVG Version: 6.00 Build 0)  -->
<svg version="1.1" id="Layer_1" xmlns="http://www.w3.org/2000/svg" xmlns:xlink="http://www.w3.org/1999/xlink" x="0px" y="0px"
	 viewBox="0 0 800 350" enable-background="new 0 0 800 350" xml:space="preserve">
<g id="flywire">
	<line fill="#231F20" stroke="#231F20" stroke-miterlimit="10" x1="268.8" y1="74.9" x2="404.6" y2="157.4"/>
	<circle fill="none" stroke="#231F20" stroke-miterlimit="10" cx="408.8" cy="159.6" r="5.4"/>
	<g>
		<path fill="#231F20" d="M154.7,54.7H152v-10h4.8V47h-2.1v1.5h1.9v2.2h-1.9V54.7z"/>
		<path fill="#231F20" d="M162.5,54.7h-4.7v-10h2.7v7.6h2V54.7z"/>
		<path fill="#231F20" d="M167.2,54.7h-2.7v-4.2l-2.5-5.8h2.8l0.5,1.5c0.1,0.3,0.2,0.6,0.3,0.8c0.1,0.3,0.1,0.5,0.2,0.8
			c0.1-0.2,0.1-0.5,0.2-0.8c0.1-0.3,0.2-0.5,0.3-0.8l0.5-1.5h2.8l-2.3,5.8V54.7z"/>
		<path fill="#231F20" d="M178.6,54.7H176l-0.5-3.5c0-0.2-0.1-0.3-0.1-0.5c0-0.2-0.1-0.4-0.1-0.6c0-0.2-0.1-0.4-0.1-0.7
			c0-0.3-0.1-0.6-0.1-1c-0.1,0.4-0.1,0.7-0.1,1c0,0.3-0.1,0.5-0.1,0.7c0,0.2-0.1,0.4-0.1,0.6c0,0.2,0,0.3-0.1,0.5l-0.5,3.5h-2.5
			l-2.2-10h2.6l0.5,3.1c0.1,0.4,0.1,0.9,0.2,1.4c0.1,0.5,0.1,1.1,0.2,1.8c0.1-0.8,0.2-1.5,0.3-2.1c0.1-0.7,0.2-1.3,0.3-1.8l0.4-2.4
			h2.3l0.4,2.4c0.2,1.1,0.4,2.5,0.6,4c0.1-0.7,0.1-1.3,0.2-1.8c0.1-0.5,0.1-1,0.2-1.4l0.5-3.1h2.6L178.6,54.7z"/>
		<path fill="#231F20" d="M184.2,54.7h-2.7v-10h2.7V54.7z"/>
		<path fill="#231F20" d="M192.7,54.7h-2.9l-1.5-4.1v4.1h-2.7v-10h2.6c0.7,0,1.3,0.1,1.8,0.2c0.5,0.2,0.9,0.4,1.2,0.7
			c0.3,0.3,0.5,0.6,0.7,1.1s0.2,0.9,0.2,1.4c0,1.2-0.5,2-1.5,2.5L192.7,54.7z M188.3,49.3h0.2c0.4,0,0.6-0.1,0.8-0.3
			c0.2-0.2,0.3-0.5,0.3-0.9c0-0.4-0.1-0.7-0.3-0.9c-0.2-0.2-0.5-0.3-0.8-0.3h-0.2V49.3z"/>
		<path fill="#231F20" d="M193.6,54.7v-10h5V47h-2.3v1.5h2.1v2.2h-2.1v1.5h2.3v2.4H193.6z"/>
		<path fill="#231F20" d="M154.9,61h1.3l1.1,6.1h0l0.9-6.1h1.5l-1.7,9.6h-1.4l-1.2-6.3h0l-1.1,6.3h-1.4l-1.8-9.6h1.5l1,6.1h0
			L154.9,61z"/>
		<path fill="#231F20" d="M160.8,70.5v-7.1h1.4v0.8h0c0.2-0.3,0.4-0.5,0.7-0.7c0.3-0.2,0.6-0.3,1-0.3h0.3v1.5
			c-0.1,0-0.3-0.1-0.4-0.1c-0.1,0-0.3,0-0.5,0c-0.3,0-0.5,0.1-0.7,0.2c-0.2,0.2-0.3,0.4-0.3,0.7v4.9H160.8z"/>
		<path fill="#231F20" d="M165.1,65.5c0-0.7,0.3-1.3,0.7-1.7s1-0.6,1.7-0.6c0.7,0,1.2,0.2,1.6,0.5c0.4,0.3,0.6,0.8,0.6,1.5v4.6
			c0,0.1,0,0.2,0,0.4c0,0.1,0,0.3,0.1,0.4h-1.4c0-0.1,0-0.2,0-0.3c0-0.1,0-0.2,0-0.3c-0.3,0.2-0.6,0.4-0.8,0.5
			c-0.3,0.1-0.6,0.2-0.9,0.2c-0.5,0-0.9-0.2-1.1-0.5c-0.3-0.3-0.4-0.7-0.4-1.1c0-0.4,0.1-0.7,0.2-1c0.1-0.3,0.3-0.6,0.6-0.8
			c0.3-0.3,0.6-0.5,1-0.7c0.4-0.2,0.9-0.4,1.4-0.6v-0.4c0-0.6-0.2-0.9-0.7-0.9c-0.3,0-0.6,0.1-0.7,0.3c-0.1,0.2-0.2,0.4-0.2,0.7
			H165.1z M168.1,66.9c-0.3,0.2-0.6,0.4-0.8,0.5c-0.2,0.2-0.4,0.3-0.5,0.5s-0.2,0.3-0.3,0.4c0,0.1-0.1,0.3-0.1,0.4
			c0,0.2,0.1,0.4,0.2,0.5c0.1,0.1,0.3,0.2,0.5,0.2c0.2,0,0.4-0.1,0.6-0.2s0.3-0.3,0.4-0.5V66.9z"/>
		<path fill="#231F20" d="M172.5,63.4v0.7h0c0.2-0.3,0.5-0.5,0.7-0.7c0.2-0.1,0.5-0.2,0.9-0.2c0.5,0,0.8,0.2,1.1,0.5
			s0.4,0.8,0.4,1.5v3.4c0,0.7-0.1,1.1-0.4,1.5s-0.6,0.5-1.1,0.5c-0.2,0-0.3,0-0.4,0c-0.1,0-0.2-0.1-0.4-0.1
			c-0.1-0.1-0.2-0.1-0.4-0.2s-0.2-0.2-0.4-0.3v2.9h-1.5v-9.4H172.5z M172.6,69.1c0.1,0.1,0.3,0.2,0.4,0.3c0.1,0.1,0.3,0.1,0.4,0.1
			c0.1,0,0.2,0,0.3,0c0.1,0,0.2-0.1,0.2-0.2c0.1-0.1,0.1-0.2,0.2-0.4c0-0.1,0.1-0.3,0.1-0.6v-2.6c0-0.2,0-0.4-0.1-0.6
			c0-0.1-0.1-0.3-0.2-0.4c-0.1-0.1-0.1-0.1-0.2-0.2c-0.1,0-0.2,0-0.3,0c-0.1,0-0.3,0-0.4,0.1c-0.1,0.1-0.3,0.2-0.4,0.3V69.1z"/>
		<path fill="#231F20" d="M179.7,65.4c-0.1-0.6-0.4-0.9-0.8-0.9c-0.2,0-0.4,0-0.5,0.1c-0.1,0.1-0.2,0.2-0.2,0.4s0.1,0.4,0.2,0.5
			c0.1,0.2,0.3,0.3,0.5,0.5c0.2,0.2,0.4,0.3,0.7,0.5c0.2,0.2,0.5,0.4,0.7,0.6c0.2,0.2,0.4,0.4,0.5,0.7c0.1,0.3,0.2,0.6,0.2,0.9
			c0,0.3-0.1,0.6-0.2,0.8c-0.1,0.2-0.2,0.4-0.4,0.6c-0.2,0.2-0.4,0.3-0.7,0.4s-0.5,0.1-0.8,0.1c-0.7,0-1.2-0.2-1.5-0.5
			c-0.4-0.3-0.6-0.8-0.7-1.5l1.3-0.4c0,0.3,0.1,0.6,0.3,0.8c0.1,0.2,0.4,0.3,0.7,0.3c0.2,0,0.4-0.1,0.5-0.2c0.1-0.1,0.2-0.3,0.2-0.5
			s-0.1-0.4-0.2-0.6c-0.1-0.2-0.3-0.3-0.5-0.5c-0.2-0.2-0.4-0.3-0.7-0.5c-0.2-0.2-0.5-0.4-0.7-0.6c-0.2-0.2-0.4-0.4-0.5-0.7
			c-0.1-0.2-0.2-0.5-0.2-0.9c0-0.3,0.1-0.5,0.2-0.8c0.1-0.2,0.2-0.4,0.4-0.6c0.2-0.2,0.4-0.3,0.6-0.4c0.2-0.1,0.5-0.1,0.8-0.1
			c0.6,0,1.1,0.2,1.4,0.5c0.4,0.4,0.6,0.8,0.7,1.4L179.7,65.4z"/>
		<path fill="#231F20" d="M184.5,64.6v-1.2h0.8v-1.9h1.5v1.9h1v1.2h-1v4.1c0,0.4,0.2,0.6,0.5,0.6h0.5v1.3c-0.1,0-0.2,0-0.3,0.1
			c-0.1,0-0.3,0-0.4,0c-0.6,0-1-0.1-1.3-0.4c-0.3-0.3-0.4-0.7-0.4-1.2v-4.4H184.5z"/>
		<path fill="#231F20" d="M188.8,70.5V61h1.5v3.1c0.1-0.1,0.3-0.2,0.4-0.3c0.1-0.1,0.2-0.2,0.4-0.3c0.1-0.1,0.3-0.1,0.4-0.2
			c0.2,0,0.3-0.1,0.6-0.1c0.4,0,0.7,0.1,0.9,0.4c0.2,0.3,0.3,0.6,0.3,1.1v5.8h-1.5V65c0-0.2,0-0.3-0.1-0.4c-0.1-0.1-0.2-0.1-0.4-0.1
			s-0.3,0-0.5,0.1s-0.3,0.2-0.5,0.3v5.6H188.8z"/>
		<path fill="#231F20" d="M199.2,67.3H196v1c0,0.4,0.1,0.7,0.2,0.9s0.3,0.3,0.6,0.3s0.5-0.1,0.6-0.3c0.1-0.2,0.2-0.5,0.2-0.9v-0.2
			h1.5c0,0.4-0.1,0.7-0.1,1c-0.1,0.3-0.2,0.6-0.4,0.8s-0.4,0.4-0.7,0.5c-0.3,0.1-0.6,0.2-1.1,0.2c-0.4,0-0.8-0.1-1.1-0.2
			c-0.3-0.1-0.5-0.3-0.7-0.5c-0.2-0.2-0.3-0.5-0.4-0.8c-0.1-0.3-0.1-0.7-0.1-1.1v-2.1c0-0.4,0-0.7,0.1-1.1c0.1-0.3,0.2-0.6,0.4-0.8
			c0.2-0.2,0.4-0.4,0.7-0.5c0.3-0.1,0.6-0.2,1.1-0.2s0.8,0.1,1.1,0.2c0.3,0.1,0.5,0.3,0.7,0.5c0.2,0.2,0.3,0.5,0.4,0.8
			c0.1,0.3,0.1,0.7,0.1,1.1V67.3z M197.7,66v-0.4c0-0.4-0.1-0.7-0.2-0.9c-0.1-0.2-0.3-0.3-0.6-0.3s-0.5,0.1-0.6,0.3
			c-0.1,0.2-0.2,0.5-0.2,0.9V66H197.7z"/>
		<path fill="#231F20" d="M203.3,65.5c0-0.7,0.3-1.3,0.7-1.7s1-0.6,1.7-0.6c0.7,0,1.2,0.2,1.6,0.5c0.4,0.3,0.6,0.8,0.6,1.5v4.6
			c0,0.1,0,0.2,0,0.4c0,0.1,0,0.3,0.1,0.4h-1.4c0-0.1,0-0.2,0-0.3c0-0.1,0-0.2,0-0.3c-0.3,0.2-0.6,0.4-0.8,0.5
			c-0.3,0.1-0.6,0.2-0.9,0.2c-0.5,0-0.9-0.2-1.1-0.5c-0.3-0.3-0.4-0.7-0.4-1.1c0-0.4,0.1-0.7,0.2-1c0.1-0.3,0.3-0.6,0.6-0.8
			c0.3-0.3,0.6-0.5,1-0.7c0.4-0.2,0.9-0.4,1.4-0.6v-0.4c0-0.6-0.2-0.9-0.7-0.9c-0.3,0-0.6,0.1-0.7,0.3c-0.1,0.2-0.2,0.4-0.2,0.7
			H203.3z M206.3,66.9c-0.3,0.2-0.6,0.4-0.8,0.5c-0.2,0.2-0.4,0.3-0.5,0.5s-0.2,0.3-0.3,0.4c0,0.1-0.1,0.3-0.1,0.4
			c0,0.2,0.1,0.4,0.2,0.5c0.1,0.1,0.3,0.2,0.5,0.2c0.2,0,0.4-0.1,0.6-0.2s0.3-0.3,0.4-0.5V66.9z"/>
		<path fill="#231F20" d="M209.3,70.5v-7.1h1.4v0.8h0c0.2-0.3,0.4-0.5,0.7-0.7c0.3-0.2,0.6-0.3,1-0.3h0.3v1.5
			c-0.1,0-0.3-0.1-0.4-0.1c-0.1,0-0.3,0-0.5,0c-0.3,0-0.5,0.1-0.7,0.2c-0.2,0.2-0.3,0.4-0.3,0.7v4.9H209.3z"/>
		<path fill="#231F20" d="M216.8,65.8v-0.2c0-0.4-0.1-0.7-0.2-0.9c-0.1-0.2-0.3-0.3-0.6-0.3s-0.5,0.1-0.6,0.3
			c-0.1,0.2-0.2,0.5-0.2,0.9v2.6c0,0.4,0.1,0.7,0.2,0.9s0.3,0.3,0.6,0.3s0.5-0.1,0.6-0.3c0.1-0.2,0.2-0.5,0.2-0.9v-0.4h1.5V68
			c0,0.4,0,0.7-0.1,1.1c-0.1,0.3-0.2,0.6-0.4,0.8c-0.2,0.2-0.4,0.4-0.7,0.5s-0.6,0.2-1.1,0.2s-0.8-0.1-1.1-0.2
			c-0.3-0.1-0.5-0.3-0.7-0.5c-0.2-0.2-0.3-0.5-0.4-0.8c-0.1-0.3-0.1-0.7-0.1-1.1v-2.1c0-0.4,0-0.7,0.1-1.1c0.1-0.3,0.2-0.6,0.4-0.8
			c0.2-0.2,0.4-0.4,0.7-0.5c0.3-0.1,0.6-0.2,1.1-0.2c0.4,0,0.8,0.1,1.1,0.2c0.3,0.1,0.5,0.3,0.7,0.5c0.2,0.2,0.3,0.5,0.4,0.8
			c0.1,0.3,0.1,0.7,0.1,1H216.8z"/>
		<path fill="#231F20" d="M219.6,70.5V61h1.5v3.1c0.1-0.1,0.3-0.2,0.4-0.3c0.1-0.1,0.2-0.2,0.4-0.3c0.1-0.1,0.3-0.1,0.4-0.2
			c0.2,0,0.3-0.1,0.6-0.1c0.4,0,0.7,0.1,0.9,0.4c0.2,0.3,0.3,0.6,0.3,1.1v5.8h-1.5V65c0-0.2,0-0.3-0.1-0.4c-0.1-0.1-0.2-0.1-0.4-0.1
			s-0.3,0-0.5,0.1s-0.3,0.2-0.5,0.3v5.6H219.6z"/>
		<path fill="#231F20" d="M228.7,64.6h-0.9v-1.2h0.9v-0.9c0-0.6,0.1-1,0.4-1.3c0.3-0.3,0.7-0.4,1.2-0.4h0.7v1.2h-0.4
			c-0.2,0-0.3,0-0.4,0.1s-0.1,0.2-0.1,0.4v0.9h0.8v1.2h-0.8v5.9h-1.5V64.6z"/>
		<path fill="#231F20" d="M232,65.9c0-0.4,0-0.7,0.1-1.1c0.1-0.3,0.2-0.6,0.4-0.8c0.2-0.2,0.4-0.4,0.7-0.5c0.3-0.1,0.6-0.2,1.1-0.2
			s0.8,0.1,1.1,0.2c0.3,0.1,0.5,0.3,0.7,0.5c0.2,0.2,0.3,0.5,0.4,0.8c0.1,0.3,0.1,0.7,0.1,1.1V68c0,0.4,0,0.7-0.1,1.1
			c-0.1,0.3-0.2,0.6-0.4,0.8c-0.2,0.2-0.4,0.4-0.7,0.5s-0.6,0.2-1.1,0.2s-0.8-0.1-1.1-0.2c-0.3-0.1-0.5-0.3-0.7-0.5
			c-0.2-0.2-0.3-0.5-0.4-0.8c-0.1-0.3-0.1-0.7-0.1-1.1V65.9z M235.1,65.7c0-0.4-0.1-0.7-0.2-0.9c-0.1-0.2-0.3-0.3-0.6-0.3
			s-0.5,0.1-0.6,0.3c-0.1,0.2-0.2,0.5-0.2,0.9v2.6c0,0.4,0.1,0.7,0.2,0.9s0.3,0.3,0.6,0.3s0.5-0.1,0.6-0.3c0.1-0.2,0.2-0.5,0.2-0.9
			V65.7z"/>
		<path fill="#231F20" d="M238,70.5v-7.1h1.4v0.8h0c0.2-0.3,0.4-0.5,0.7-0.7c0.3-0.2,0.6-0.3,1-0.3h0.3v1.5c-0.1,0-0.3-0.1-0.4-0.1
			c-0.1,0-0.3,0-0.5,0c-0.3,0-0.5,0.1-0.7,0.2c-0.2,0.2-0.3,0.4-0.3,0.7v4.9H238z"/>
		<path fill="#231F20" d="M245.1,65.5c0-0.7,0.3-1.3,0.7-1.7s1-0.6,1.7-0.6c0.7,0,1.2,0.2,1.6,0.5c0.4,0.3,0.6,0.8,0.6,1.5v4.6
			c0,0.1,0,0.2,0,0.4c0,0.1,0,0.3,0.1,0.4h-1.4c0-0.1,0-0.2,0-0.3c0-0.1,0-0.2,0-0.3c-0.3,0.2-0.6,0.4-0.8,0.5
			c-0.3,0.1-0.6,0.2-0.9,0.2c-0.5,0-0.9-0.2-1.1-0.5c-0.3-0.3-0.4-0.7-0.4-1.1c0-0.4,0.1-0.7,0.2-1c0.1-0.3,0.3-0.6,0.6-0.8
			c0.3-0.3,0.6-0.5,1-0.7c0.4-0.2,0.9-0.4,1.4-0.6v-0.4c0-0.6-0.2-0.9-0.7-0.9c-0.3,0-0.6,0.1-0.7,0.3c-0.1,0.2-0.2,0.4-0.2,0.7
			H245.1z M248.2,66.9c-0.3,0.2-0.6,0.4-0.8,0.5c-0.2,0.2-0.4,0.3-0.5,0.5s-0.2,0.3-0.3,0.4c0,0.1-0.1,0.3-0.1,0.4
			c0,0.2,0.1,0.4,0.2,0.5c0.1,0.1,0.3,0.2,0.5,0.2c0.2,0,0.4-0.1,0.6-0.2s0.3-0.3,0.4-0.5V66.9z"/>
		<path fill="#231F20" d="M155.1,86.4v-0.7h0c-0.2,0.3-0.5,0.5-0.7,0.7s-0.5,0.2-0.9,0.2c-0.5,0-0.8-0.2-1.1-0.5
			c-0.3-0.3-0.4-0.8-0.4-1.5v-3.4c0-0.7,0.1-1.1,0.4-1.5c0.3-0.3,0.6-0.5,1.1-0.5c0.2,0,0.3,0,0.4,0c0.1,0,0.2,0.1,0.4,0.1
			c0.1,0.1,0.2,0.1,0.3,0.2c0.1,0.1,0.2,0.2,0.4,0.3v-3h1.5v9.6H155.1z M155,80.7c-0.2-0.1-0.3-0.2-0.4-0.3
			c-0.1-0.1-0.3-0.1-0.4-0.1c-0.2,0-0.4,0.1-0.5,0.2c-0.1,0.2-0.2,0.5-0.2,0.9v2.6c0,0.5,0.1,0.8,0.2,0.9c0.1,0.2,0.3,0.2,0.5,0.2
			c0.1,0,0.3,0,0.4-0.1c0.1-0.1,0.3-0.2,0.4-0.3V80.7z"/>
		<path fill="#231F20" d="M160.7,79.3h1.5l-1.9,7.6c-0.1,0.3-0.2,0.6-0.3,0.8c-0.1,0.2-0.3,0.4-0.4,0.5c-0.2,0.1-0.4,0.2-0.6,0.3
			c-0.2,0.1-0.5,0.1-0.7,0.1h-0.6v-1.2h0.4c0.4,0,0.6-0.1,0.8-0.3s0.2-0.5,0.2-0.9c0-0.1,0-0.3,0-0.4c0-0.1-0.1-0.3-0.1-0.5l-1.5-6
			h1.5l1,4.6h0L160.7,79.3z"/>
		<path fill="#231F20" d="M163,86.4v-7.1h1.4V80c0.2-0.1,0.3-0.3,0.4-0.4c0.1-0.1,0.3-0.2,0.4-0.3s0.3-0.1,0.4-0.2
			c0.2,0,0.3-0.1,0.6-0.1c0.4,0,0.7,0.1,0.9,0.4c0.2,0.3,0.3,0.6,0.3,1.1v5.8H166v-5.5c0-0.2,0-0.3-0.1-0.4
			c-0.1-0.1-0.2-0.1-0.4-0.1s-0.3,0-0.5,0.1s-0.3,0.2-0.5,0.3v5.6H163z"/>
		<path fill="#231F20" d="M168.8,81.4c0-0.7,0.3-1.3,0.7-1.7s1-0.6,1.7-0.6c0.7,0,1.2,0.2,1.6,0.5c0.4,0.3,0.6,0.8,0.6,1.5v4.6
			c0,0.1,0,0.2,0,0.4c0,0.1,0,0.3,0.1,0.4H172c0-0.1,0-0.2,0-0.3c0-0.1,0-0.2,0-0.3c-0.3,0.2-0.6,0.4-0.8,0.5
			c-0.3,0.1-0.6,0.2-0.9,0.2c-0.5,0-0.9-0.2-1.1-0.5c-0.3-0.3-0.4-0.7-0.4-1.1c0-0.4,0.1-0.7,0.2-1c0.1-0.3,0.3-0.6,0.6-0.8
			c0.3-0.3,0.6-0.5,1-0.7c0.4-0.2,0.9-0.4,1.4-0.6v-0.4c0-0.6-0.2-0.9-0.7-0.9c-0.3,0-0.6,0.1-0.7,0.3c-0.1,0.2-0.2,0.4-0.2,0.7
			H168.8z M171.8,82.8c-0.3,0.2-0.6,0.4-0.8,0.5c-0.2,0.2-0.4,0.3-0.5,0.5s-0.2,0.3-0.3,0.4c0,0.1-0.1,0.3-0.1,0.4
			c0,0.2,0.1,0.4,0.2,0.5c0.1,0.1,0.3,0.2,0.5,0.2c0.2,0,0.4-0.1,0.6-0.2s0.3-0.3,0.4-0.5V82.8z"/>
		<path fill="#231F20" d="M177.7,86.4v-5.5c0-0.2,0-0.3-0.1-0.4c-0.1-0.1-0.2-0.1-0.4-0.1c-0.2,0-0.3,0-0.5,0.1s-0.3,0.2-0.5,0.3
			v5.6h-1.5v-7.1h1.4V80c0.2-0.1,0.3-0.3,0.4-0.4c0.1-0.1,0.2-0.2,0.4-0.3c0.1-0.1,0.3-0.1,0.4-0.2c0.1,0,0.3-0.1,0.5-0.1
			c0.4,0,0.6,0.1,0.8,0.2c0.2,0.1,0.3,0.4,0.5,0.6c0.2-0.2,0.3-0.3,0.5-0.4s0.3-0.2,0.4-0.3c0.1-0.1,0.3-0.1,0.4-0.1
			c0.1,0,0.3,0,0.4,0c0.5,0,0.8,0.1,1,0.4c0.2,0.3,0.3,0.6,0.3,1.1v5.8h-1.5v-5.5c0-0.2-0.1-0.3-0.2-0.4s-0.2-0.1-0.4-0.1
			c-0.2,0-0.3,0-0.5,0.1s-0.3,0.2-0.5,0.3v5.6H177.7z"/>
		<path fill="#231F20" d="M183.6,78.2v-1.3h1.5v1.3H183.6z M183.6,86.4v-7.1h1.5v7.1H183.6z"/>
		<path fill="#231F20" d="M189.6,81.7v-0.2c0-0.4-0.1-0.7-0.2-0.9c-0.1-0.2-0.3-0.3-0.6-0.3s-0.5,0.1-0.6,0.3
			c-0.1,0.2-0.2,0.5-0.2,0.9v2.6c0,0.4,0.1,0.7,0.2,0.9s0.3,0.3,0.6,0.3s0.5-0.1,0.6-0.3c0.1-0.2,0.2-0.5,0.2-0.9v-0.4h1.5v0.2
			c0,0.4,0,0.7-0.1,1.1c-0.1,0.3-0.2,0.6-0.4,0.8c-0.2,0.2-0.4,0.4-0.7,0.5s-0.6,0.2-1.1,0.2s-0.8-0.1-1.1-0.2
			c-0.3-0.1-0.5-0.3-0.7-0.5c-0.2-0.2-0.3-0.5-0.4-0.8c-0.1-0.3-0.1-0.7-0.1-1.1v-2.1c0-0.4,0-0.7,0.1-1.1c0.1-0.3,0.2-0.6,0.4-0.8
			c0.2-0.2,0.4-0.4,0.7-0.5c0.3-0.1,0.6-0.2,1.1-0.2c0.4,0,0.8,0.1,1.1,0.2c0.3,0.1,0.5,0.3,0.7,0.5c0.2,0.2,0.3,0.5,0.4,0.8
			c0.1,0.3,0.1,0.7,0.1,1H189.6z"/>
		<path fill="#231F20" d="M194,86.4L193,88h-0.7l0.6-1.6h-0.6v-1.6h1.6V86.4z"/>
		<path fill="#231F20" d="M198.3,86.4v-9.6h1.5v9.6H198.3z"/>
		<path fill="#231F20" d="M201.1,81.8c0-0.4,0-0.7,0.1-1.1c0.1-0.3,0.2-0.6,0.4-0.8c0.2-0.2,0.4-0.4,0.7-0.5
			c0.3-0.1,0.6-0.2,1.1-0.2s0.8,0.1,1.1,0.2c0.3,0.1,0.5,0.3,0.7,0.5c0.2,0.2,0.3,0.5,0.4,0.8c0.1,0.3,0.1,0.7,0.1,1.1v2.1
			c0,0.4,0,0.7-0.1,1.1c-0.1,0.3-0.2,0.6-0.4,0.8c-0.2,0.2-0.4,0.4-0.7,0.5s-0.6,0.2-1.1,0.2s-0.8-0.1-1.1-0.2
			c-0.3-0.1-0.5-0.3-0.7-0.5c-0.2-0.2-0.3-0.5-0.4-0.8c-0.1-0.3-0.1-0.7-0.1-1.1V81.8z M204.3,81.5c0-0.4-0.1-0.7-0.2-0.9
			c-0.1-0.2-0.3-0.3-0.6-0.3s-0.5,0.1-0.6,0.3c-0.1,0.2-0.2,0.5-0.2,0.9v2.6c0,0.4,0.1,0.7,0.2,0.9s0.3,0.3,0.6,0.3s0.5-0.1,0.6-0.3
			c0.1-0.2,0.2-0.5,0.2-0.9V81.5z"/>
		<path fill="#231F20" d="M210.1,81.7v-0.2c0-0.4-0.1-0.7-0.2-0.9c-0.1-0.2-0.3-0.3-0.6-0.3s-0.5,0.1-0.6,0.3
			c-0.1,0.2-0.2,0.5-0.2,0.9v2.6c0,0.4,0.1,0.7,0.2,0.9s0.3,0.3,0.6,0.3s0.5-0.1,0.6-0.3c0.1-0.2,0.2-0.5,0.2-0.9v-0.4h1.5v0.2
			c0,0.4,0,0.7-0.1,1.1c-0.1,0.3-0.2,0.6-0.4,0.8c-0.2,0.2-0.4,0.4-0.7,0.5s-0.6,0.2-1.1,0.2s-0.8-0.1-1.1-0.2
			c-0.3-0.1-0.5-0.3-0.7-0.5c-0.2-0.2-0.3-0.5-0.4-0.8c-0.1-0.3-0.1-0.7-0.1-1.1v-2.1c0-0.4,0-0.7,0.1-1.1c0.1-0.3,0.2-0.6,0.4-0.8
			c0.2-0.2,0.4-0.4,0.7-0.5c0.3-0.1,0.6-0.2,1.1-0.2c0.4,0,0.8,0.1,1.1,0.2c0.3,0.1,0.5,0.3,0.7,0.5c0.2,0.2,0.3,0.5,0.4,0.8
			c0.1,0.3,0.1,0.7,0.1,1H210.1z"/>
		<path fill="#231F20" d="M216.2,81.5l1.7,4.9h-1.5l-1.2-3.5h0l-0.7,1v2.5H213v-9.6h1.5v4.9h0l1.6-2.5h1.6L216.2,81.5z"/>
		<path fill="#231F20" d="M221.9,86.4v-0.7h0c-0.2,0.3-0.5,0.5-0.7,0.7s-0.5,0.2-0.9,0.2c-0.5,0-0.8-0.2-1.1-0.5
			c-0.3-0.3-0.4-0.8-0.4-1.5v-3.4c0-0.7,0.1-1.1,0.4-1.5c0.3-0.3,0.6-0.5,1.1-0.5c0.2,0,0.3,0,0.4,0c0.1,0,0.2,0.1,0.4,0.1
			c0.1,0.1,0.2,0.1,0.3,0.2c0.1,0.1,0.2,0.2,0.4,0.3v-3h1.5v9.6H221.9z M221.8,80.7c-0.2-0.1-0.3-0.2-0.4-0.3
			c-0.1-0.1-0.3-0.1-0.4-0.1c-0.2,0-0.4,0.1-0.5,0.2c-0.1,0.2-0.2,0.5-0.2,0.9v2.6c0,0.5,0.1,0.8,0.2,0.9c0.1,0.2,0.3,0.2,0.5,0.2
			c0.1,0,0.3,0,0.4-0.1c0.1-0.1,0.3-0.2,0.4-0.3V80.7z"/>
		<path fill="#231F20" d="M224.6,81.8c0-0.4,0-0.7,0.1-1.1c0.1-0.3,0.2-0.6,0.4-0.8c0.2-0.2,0.4-0.4,0.7-0.5
			c0.3-0.1,0.6-0.2,1.1-0.2s0.8,0.1,1.1,0.2c0.3,0.1,0.5,0.3,0.7,0.5c0.2,0.2,0.3,0.5,0.4,0.8c0.1,0.3,0.1,0.7,0.1,1.1v2.1
			c0,0.4,0,0.7-0.1,1.1c-0.1,0.3-0.2,0.6-0.4,0.8c-0.2,0.2-0.4,0.4-0.7,0.5s-0.6,0.2-1.1,0.2s-0.8-0.1-1.1-0.2
			c-0.3-0.1-0.5-0.3-0.7-0.5c-0.2-0.2-0.3-0.5-0.4-0.8c-0.1-0.3-0.1-0.7-0.1-1.1V81.8z M227.8,81.5c0-0.4-0.1-0.7-0.2-0.9
			c-0.1-0.2-0.3-0.3-0.6-0.3s-0.5,0.1-0.6,0.3c-0.1,0.2-0.2,0.5-0.2,0.9v2.6c0,0.4,0.1,0.7,0.2,0.9s0.3,0.3,0.6,0.3s0.5-0.1,0.6-0.3
			c0.1-0.2,0.2-0.5,0.2-0.9V81.5z"/>
		<path fill="#231F20" d="M233,79.3h1.1l0.8,4.4h0l0.8-4.4h1.4l-1.6,7.1h-1.2l-0.8-4.5h0l-1,4.5h-1.2l-1.4-7.1h1.4l0.6,4.4h0
			L233,79.3z"/>
		<path fill="#231F20" d="M238,86.4v-7.1h1.4V80c0.2-0.1,0.3-0.3,0.4-0.4c0.1-0.1,0.3-0.2,0.4-0.3s0.3-0.1,0.4-0.2
			c0.2,0,0.3-0.1,0.6-0.1c0.4,0,0.7,0.1,0.9,0.4c0.2,0.3,0.3,0.6,0.3,1.1v5.8h-1.5v-5.5c0-0.2,0-0.3-0.1-0.4
			c-0.1-0.1-0.2-0.1-0.4-0.1s-0.3,0-0.5,0.1s-0.3,0.2-0.5,0.3v5.6H238z"/>
		<path fill="#231F20" d="M246.9,80.5H246v-1.2h0.9v-0.9c0-0.6,0.1-1,0.4-1.3c0.3-0.3,0.7-0.4,1.2-0.4h0.7v1.2h-0.4
			c-0.2,0-0.3,0-0.4,0.1s-0.1,0.2-0.1,0.4v0.9h0.8v1.2h-0.8v5.9h-1.5V80.5z M249.7,78.2v-1.3h1.5v1.3H249.7z M249.7,86.4v-7.1h1.5
			v7.1H249.7z"/>
		<path fill="#231F20" d="M252.1,80.5v-1.2h0.8v-1.9h1.5v1.9h1v1.2h-1v4.1c0,0.4,0.2,0.6,0.5,0.6h0.5v1.3c-0.1,0-0.2,0-0.3,0.1
			c-0.1,0-0.3,0-0.4,0c-0.6,0-1-0.1-1.3-0.4c-0.3-0.3-0.4-0.7-0.4-1.2v-4.4H252.1z"/>
		<path fill="#231F20" d="M256.3,86.4v-1.6h1.6v1.6H256.3z"/>
	</g>
</g>
</svg>
