<?xml version="1.0" encoding="utf-8"?>
<!-- Generator: Adobe Illustrator 18.1.1, SVG Export Plug-In . SVG Version: 6.00 Build 0)  -->
<svg version="1.1" id="Layer_1" xmlns="http://www.w3.org/2000/svg" xmlns:xlink="http://www.w3.org/1999/xlink" x="0px" y="0px"
	 viewBox="0 0 800 350" enable-background="new 0 0 800 350" xml:space="preserve">
<g id="mesh">
	<line fill="none" stroke="#231F20" stroke-miterlimit="10" x1="164.6" y1="137.2" x2="292.3" y2="180.9"/>
	<circle fill="none" stroke="#231F20" stroke-miterlimit="10" cx="297.7" cy="182.4" r="5.4"/>
	<g>
		<path fill="#231F20" d="M37.9,125.2v-10h5v2.3h-2.3v1.5h2.1v2.2h-2.1v1.5h2.3v2.4L37.9,125.2L37.9,125.2z"/>
		<path fill="#231F20" d="M44,125.2v-10h2.6l1.4,3.7c0.1,0.2,0.1,0.4,0.2,0.6s0.1,0.4,0.2,0.6c0.1,0.2,0.1,0.4,0.2,0.6
			c0.1,0.2,0.1,0.4,0.1,0.5c-0.1-0.7-0.1-1.4-0.2-2c-0.1-0.6-0.1-1.1-0.1-1.5v-2.5H51v10h-2.6l-1.4-3.7c-0.3-0.8-0.5-1.5-0.7-2.1
			c0.1,0.7,0.1,1.3,0.1,1.8s0,1,0,1.4v2.5L44,125.2L44,125.2z"/>
		<path fill="#231F20" d="M56.1,119.4h3.7v0.4c0,1-0.1,1.9-0.2,2.6c-0.2,0.7-0.4,1.3-0.7,1.7s-0.7,0.8-1.1,1c-0.4,0.2-1,0.3-1.5,0.3
			c-0.6,0-1.2-0.1-1.6-0.4c-0.5-0.2-0.9-0.6-1.2-1s-0.6-1-0.8-1.6s-0.3-1.4-0.3-2.2s0.1-1.5,0.3-2.2c0.2-0.6,0.4-1.2,0.8-1.6
			c0.3-0.4,0.7-0.8,1.2-1s1-0.4,1.6-0.4c1.6,0,2.7,0.8,3.4,2.5l-2.6,1c0-0.3-0.1-0.6-0.3-0.7c-0.1-0.2-0.3-0.3-0.6-0.3
			c-0.4,0-0.6,0.2-0.8,0.7s-0.2,1.2-0.2,2.1s0.1,1.6,0.2,2.1s0.4,0.7,0.8,0.7c0.3,0,0.5-0.1,0.7-0.4s0.3-0.6,0.3-1.1h-1v-2.2H56.1z"
			/>
		<path fill="#231F20" d="M63.6,125.2h-2.7v-10h2.7V125.2z"/>
		<path fill="#231F20" d="M65,125.2v-10h2.6l1.4,3.7c0.1,0.2,0.1,0.4,0.2,0.6s0.1,0.4,0.2,0.6s0.1,0.4,0.2,0.6s0.1,0.4,0.1,0.5
			c-0.1-0.7-0.1-1.4-0.2-2s-0.1-1.1-0.1-1.5v-2.5H72v10h-2.6l-1.4-3.7c-0.3-0.8-0.5-1.5-0.7-2.1c0.1,0.7,0.1,1.3,0.1,1.8s0,1,0,1.4
			v2.5L65,125.2L65,125.2z"/>
		<path fill="#231F20" d="M73.5,125.2v-10h5v2.3h-2.3v1.5h2.1v2.2h-2.1v1.5h2.3v2.4L73.5,125.2L73.5,125.2z"/>
		<path fill="#231F20" d="M79.6,125.2v-10h5v2.3h-2.3v1.5h2.1v2.2h-2.1v1.5h2.3v2.4L79.6,125.2L79.6,125.2z"/>
		<path fill="#231F20" d="M92.9,125.2H90l-1.5-4.1v4.1h-2.7v-10h2.6c0.7,0,1.3,0.1,1.8,0.2c0.5,0.2,0.9,0.4,1.2,0.7
			c0.3,0.3,0.5,0.6,0.7,1.1s0.2,0.9,0.2,1.4c0,1.2-0.5,2-1.5,2.5L92.9,125.2z M88.5,119.8h0.2c0.4,0,0.6-0.1,0.8-0.3
			c0.2-0.2,0.3-0.5,0.3-0.9s-0.1-0.7-0.3-0.9c-0.2-0.2-0.5-0.3-0.8-0.3h-0.2V119.8z"/>
		<path fill="#231F20" d="M93.8,125.2v-10h5v2.3h-2.3v1.5h2.1v2.2h-2.1v1.5h2.3v2.4L93.8,125.2L93.8,125.2z"/>
		<path fill="#231F20" d="M99.9,115.2h2.3c0.8,0,1.4,0.1,2,0.4s1,0.6,1.4,1s0.7,1,0.8,1.6c0.2,0.6,0.3,1.3,0.3,2s-0.1,1.4-0.3,2
			c-0.2,0.6-0.4,1.1-0.8,1.6s-0.8,0.8-1.4,1s-1.2,0.4-2,0.4h-2.5v-10H99.9z M102.6,122.8c1-0.1,1.5-0.9,1.5-2.5
			c0-0.8-0.1-1.4-0.4-1.9s-0.6-0.7-1-0.7h-0.1V122.8z"/>
		<path fill="#231F20" d="M122.2,125.2h-2.8l-0.2-4.6c0-0.3,0-0.6,0-0.9s0-0.6,0-0.9c0,0.4-0.1,0.7-0.1,1s-0.1,0.6-0.2,0.9l-0.8,4.4
			h-2.2l-0.7-4.4c0-0.3-0.1-0.6-0.1-0.9s-0.1-0.7-0.1-1c0,0.3,0,0.6,0,0.9s0,0.6-0.1,0.9l-0.2,4.6h-2.9l1.2-10h3.3l0.6,3.6
			c0,0.3,0.1,0.5,0.1,0.8s0.1,0.6,0.1,0.9c0-0.3,0.1-0.6,0.1-0.9s0.1-0.6,0.1-0.8l0.7-3.6h3.3L122.2,125.2z"/>
		<path fill="#231F20" d="M123.4,125.2v-10h5v2.3h-2.3v1.5h2.1v2.2h-2.1v1.5h2.3v2.4L123.4,125.2
			C123.4,125.1,123.4,125.2,123.4,125.2z"/>
		<path fill="#231F20" d="M129.3,121.8c0.5,0.7,1.1,1.1,1.7,1.1c0.2,0,0.4-0.1,0.6-0.2s0.2-0.3,0.2-0.5c0-0.3-0.2-0.5-0.5-0.8
			l-0.4-0.3c-0.6-0.4-1-0.9-1.3-1.3s-0.4-0.9-0.4-1.5c0-0.5,0.1-0.9,0.2-1.3c0.2-0.4,0.4-0.7,0.6-1c0.3-0.3,0.6-0.5,1-0.7
			s0.8-0.3,1.2-0.3c0.6,0,1.3,0.2,1.9,0.5v3c-0.2-0.3-0.5-0.6-0.7-0.8s-0.6-0.3-0.8-0.3s-0.4,0.1-0.5,0.2s-0.2,0.3-0.2,0.4
			c0,0.3,0.2,0.5,0.5,0.8l0.4,0.3c0.6,0.4,1,0.8,1.2,1.3c0.2,0.4,0.4,0.9,0.4,1.5c0,0.5-0.1,0.9-0.2,1.4c-0.2,0.4-0.4,0.8-0.7,1.1
			s-0.6,0.5-1,0.7s-0.8,0.3-1.3,0.3c-0.6,0-1.3-0.1-2-0.4v-3.2C129.2,121.8,129.3,121.8,129.3,121.8z"/>
		<path fill="#231F20" d="M142.3,125.2h-2.7v-4h-1.3v4h-2.7v-10h2.7v3.5h1.3v-3.5h2.7V125.2z"/>
		<path fill="#231F20" d="M41.3,131.5h1.6l-2,9.6h-1.6l-2-9.6h1.6l1.2,6.6l0,0L41.3,131.5z"/>
		<path fill="#231F20" d="M48.3,137.8h-3.1v1c0,0.4,0.1,0.7,0.2,0.9s0.3,0.3,0.6,0.3s0.5-0.1,0.6-0.3s0.2-0.5,0.2-0.9v-0.2h1.5
			c0,0.4-0.1,0.7-0.1,1c-0.1,0.3-0.2,0.6-0.4,0.8s-0.4,0.4-0.7,0.5s-0.6,0.2-1.1,0.2c-0.4,0-0.8-0.1-1.1-0.2
			c-0.3-0.1-0.5-0.3-0.7-0.5s-0.3-0.5-0.4-0.8c-0.1-0.3-0.1-0.7-0.1-1.1v-2.1c0-0.4,0-0.7,0.1-1.1c0.1-0.3,0.2-0.6,0.4-0.8
			s0.4-0.4,0.7-0.5s0.6-0.2,1.1-0.2s0.8,0.1,1.1,0.2c0.3,0.1,0.5,0.3,0.7,0.5s0.3,0.5,0.4,0.8c0.1,0.3,0.1,0.7,0.1,1.1V137.8z
			 M46.8,136.5v-0.4c0-0.4-0.1-0.7-0.2-0.9c-0.1-0.2-0.3-0.3-0.6-0.3s-0.5,0.1-0.6,0.3s-0.2,0.5-0.2,0.9v0.4H46.8z"/>
		<path fill="#231F20" d="M49.6,141v-7.1H51v0.7c0.2-0.1,0.3-0.3,0.4-0.4c0.1-0.1,0.3-0.2,0.4-0.3s0.3-0.1,0.4-0.2
			c0.2,0,0.3-0.1,0.6-0.1c0.4,0,0.7,0.1,0.9,0.4c0.2,0.3,0.3,0.6,0.3,1.1v5.8h-1.5v-5.5c0-0.2,0-0.3-0.1-0.4
			c-0.1-0.1-0.2-0.1-0.4-0.1s-0.3,0-0.5,0.1s-0.3,0.2-0.5,0.3v5.6L49.6,141L49.6,141z"/>
		<path fill="#231F20" d="M54.9,135.1v-1.2h0.8V132h1.5v1.9h1v1.2h-1v4.1c0,0.4,0.2,0.6,0.5,0.6h0.5v1.3c-0.1,0-0.2,0-0.3,0.1
			c-0.1,0-0.3,0-0.4,0c-0.6,0-1-0.1-1.3-0.4c-0.3-0.3-0.4-0.7-0.4-1.2v-4.4h-0.9C54.9,135.2,54.9,135.1,54.9,135.1z"/>
		<path fill="#231F20" d="M59.2,132.8v-1.3h1.5v1.3H59.2z M59.2,141v-7.1h1.5v7.1H59.2z"/>
		<path fill="#231F20" d="M62.1,141v-9.6h1.5v9.6H62.1z"/>
		<path fill="#231F20" d="M64.9,136c0-0.7,0.3-1.3,0.7-1.7s1-0.6,1.7-0.6s1.2,0.2,1.6,0.5s0.6,0.8,0.6,1.5v4.6c0,0.1,0,0.2,0,0.4
			c0,0.1,0,0.3,0.1,0.4h-1.4c0-0.1,0-0.2,0-0.3s0-0.2,0-0.3c-0.3,0.2-0.6,0.4-0.8,0.5c-0.3,0.1-0.6,0.2-0.9,0.2
			c-0.5,0-0.9-0.2-1.1-0.5c-0.3-0.3-0.4-0.7-0.4-1.1c0-0.4,0.1-0.7,0.2-1s0.3-0.6,0.6-0.8c0.3-0.3,0.6-0.5,1-0.7s0.9-0.4,1.4-0.6
			v-0.4c0-0.6-0.2-0.9-0.7-0.9c-0.3,0-0.6,0.1-0.7,0.3s-0.2,0.4-0.2,0.7h-1.7C64.9,136.2,64.9,136,64.9,136z M68,137.4
			c-0.3,0.2-0.6,0.4-0.8,0.5c-0.2,0.2-0.4,0.3-0.5,0.5s-0.2,0.3-0.3,0.4c0,0.1-0.1,0.3-0.1,0.4c0,0.2,0.1,0.4,0.2,0.5
			s0.3,0.2,0.5,0.2s0.4-0.1,0.6-0.2s0.3-0.3,0.4-0.5C68,139.2,68,137.4,68,137.4z"/>
		<path fill="#231F20" d="M70.4,135.1v-1.2h0.8V132h1.5v1.9h1v1.2h-1v4.1c0,0.4,0.2,0.6,0.5,0.6h0.5v1.3c-0.1,0-0.2,0-0.3,0.1
			c-0.1,0-0.3,0-0.4,0c-0.6,0-1-0.1-1.3-0.4c-0.3-0.3-0.4-0.7-0.4-1.2v-4.4h-0.9C70.4,135.2,70.4,135.1,70.4,135.1z"/>
		<path fill="#231F20" d="M74.6,132.8v-1.3h1.5v1.3H74.6z M74.6,141v-7.1h1.5v7.1H74.6z"/>
		<path fill="#231F20" d="M77.5,136.4c0-0.4,0-0.7,0.1-1.1c0.1-0.3,0.2-0.6,0.4-0.8c0.2-0.2,0.4-0.4,0.7-0.5
			c0.3-0.1,0.6-0.2,1.1-0.2s0.8,0.1,1.1,0.2c0.3,0.1,0.5,0.3,0.7,0.5s0.3,0.5,0.4,0.8s0.1,0.7,0.1,1.1v2.1c0,0.4,0,0.7-0.1,1.1
			c-0.1,0.3-0.2,0.6-0.4,0.8c-0.2,0.2-0.4,0.4-0.7,0.5s-0.6,0.2-1.1,0.2s-0.8-0.1-1.1-0.2c-0.3-0.1-0.5-0.3-0.7-0.5
			s-0.3-0.5-0.4-0.8s-0.1-0.7-0.1-1.1V136.4z M80.6,136.2c0-0.4-0.1-0.7-0.2-0.9s-0.3-0.3-0.6-0.3s-0.5,0.1-0.6,0.3
			s-0.2,0.5-0.2,0.9v2.6c0,0.4,0.1,0.7,0.2,0.9s0.3,0.3,0.6,0.3s0.5-0.1,0.6-0.3s0.2-0.5,0.2-0.9V136.2z"/>
		<path fill="#231F20" d="M83.4,141v-7.1h1.4v0.7c0.2-0.1,0.3-0.3,0.4-0.4c0.1-0.1,0.3-0.2,0.4-0.3s0.3-0.1,0.4-0.2
			c0.2,0,0.3-0.1,0.6-0.1c0.4,0,0.7,0.1,0.9,0.4c0.2,0.3,0.3,0.6,0.3,1.1v5.8h-1.5v-5.5c0-0.2,0-0.3-0.1-0.4
			c-0.1-0.1-0.2-0.1-0.4-0.1s-0.3,0-0.5,0.1s-0.3,0.2-0.5,0.3v5.6L83.4,141L83.4,141z"/>
		<path fill="#231F20" d="M92.1,136c0-0.7,0.3-1.3,0.7-1.7s1-0.6,1.7-0.6s1.2,0.2,1.6,0.5s0.6,0.8,0.6,1.5v4.6c0,0.1,0,0.2,0,0.4
			c0,0.1,0,0.3,0.1,0.4h-1.4c0-0.1,0-0.2,0-0.3s0-0.2,0-0.3c-0.3,0.2-0.6,0.4-0.8,0.5c-0.3,0.1-0.6,0.2-0.9,0.2
			c-0.5,0-0.9-0.2-1.1-0.5c-0.3-0.3-0.4-0.7-0.4-1.1c0-0.4,0.1-0.7,0.2-1s0.3-0.6,0.6-0.8c0.3-0.3,0.6-0.5,1-0.7s0.9-0.4,1.4-0.6
			v-0.4c0-0.6-0.2-0.9-0.7-0.9c-0.3,0-0.6,0.1-0.7,0.3s-0.2,0.4-0.2,0.7h-1.7C92.1,136.2,92.1,136,92.1,136z M95.1,137.4
			c-0.3,0.2-0.6,0.4-0.8,0.5c-0.2,0.2-0.4,0.3-0.5,0.5s-0.2,0.3-0.3,0.4c0,0.1-0.1,0.3-0.1,0.4c0,0.2,0.1,0.4,0.2,0.5
			s0.3,0.2,0.5,0.2s0.4-0.1,0.6-0.2s0.3-0.3,0.4-0.5C95.1,139.2,95.1,137.4,95.1,137.4z"/>
		<path fill="#231F20" d="M98.1,141v-7.1h1.4v0.7c0.2-0.1,0.3-0.3,0.4-0.4c0.1-0.1,0.3-0.2,0.4-0.3s0.3-0.1,0.4-0.2
			c0.2,0,0.3-0.1,0.6-0.1c0.4,0,0.7,0.1,0.9,0.4c0.2,0.3,0.3,0.6,0.3,1.1v5.8H101v-5.5c0-0.2,0-0.3-0.1-0.4
			c-0.1-0.1-0.2-0.1-0.4-0.1s-0.3,0-0.5,0.1s-0.3,0.2-0.5,0.3v5.6L98.1,141L98.1,141z"/>
		<path fill="#231F20" d="M107,141v-0.7l0,0c-0.2,0.3-0.5,0.5-0.7,0.7s-0.5,0.2-0.9,0.2c-0.5,0-0.8-0.2-1.1-0.5
			c-0.3-0.3-0.4-0.8-0.4-1.5v-3.4c0-0.7,0.1-1.1,0.4-1.5c0.3-0.3,0.6-0.5,1.1-0.5c0.2,0,0.3,0,0.4,0s0.2,0.1,0.4,0.1
			c0.1,0.1,0.2,0.1,0.3,0.2c0.1,0.1,0.2,0.2,0.4,0.3v-3h1.5v9.6L107,141L107,141z M106.9,135.4c-0.2-0.1-0.3-0.2-0.4-0.3
			s-0.3-0.1-0.4-0.1c-0.2,0-0.4,0.1-0.5,0.2c-0.1,0.2-0.2,0.5-0.2,0.9v2.6c0,0.5,0.1,0.8,0.2,0.9c0.1,0.2,0.3,0.2,0.5,0.2
			c0.1,0,0.3,0,0.4-0.1s0.3-0.2,0.4-0.3V135.4z"/>
		<path fill="#231F20" d="M115.5,135.9c-0.1-0.6-0.4-0.9-0.8-0.9c-0.2,0-0.4,0-0.5,0.1s-0.2,0.2-0.2,0.4s0.1,0.4,0.2,0.5
			c0.1,0.2,0.3,0.3,0.5,0.5s0.4,0.3,0.7,0.5c0.2,0.2,0.5,0.4,0.7,0.6c0.2,0.2,0.4,0.4,0.5,0.7s0.2,0.6,0.2,0.9
			c0,0.3-0.1,0.6-0.2,0.8s-0.2,0.4-0.4,0.6c-0.2,0.2-0.4,0.3-0.7,0.4s-0.5,0.1-0.8,0.1c-0.7,0-1.2-0.2-1.5-0.5
			c-0.4-0.3-0.6-0.8-0.7-1.5l1.3-0.4c0,0.3,0.1,0.6,0.3,0.8c0.1,0.2,0.4,0.3,0.7,0.3c0.2,0,0.4-0.1,0.5-0.2c0.1-0.1,0.2-0.3,0.2-0.5
			s-0.1-0.4-0.2-0.6c-0.1-0.2-0.3-0.3-0.5-0.5s-0.4-0.3-0.7-0.5c-0.2-0.2-0.5-0.4-0.7-0.6c-0.2-0.2-0.4-0.4-0.5-0.7
			c-0.1-0.2-0.2-0.5-0.2-0.9c0-0.3,0.1-0.5,0.2-0.8c0.1-0.2,0.2-0.4,0.4-0.6c0.2-0.2,0.4-0.3,0.6-0.4c0.2-0.1,0.5-0.1,0.8-0.1
			c0.6,0,1.1,0.2,1.4,0.5c0.4,0.4,0.6,0.8,0.7,1.4L115.5,135.9z"/>
		<path fill="#231F20" d="M122.4,133.9v7.1H121v-0.7c-0.2,0.1-0.3,0.3-0.4,0.4c-0.1,0.1-0.3,0.2-0.4,0.3s-0.3,0.1-0.4,0.2
			s-0.3,0.1-0.6,0.1c-0.4,0-0.7-0.1-0.9-0.4c-0.2-0.3-0.3-0.6-0.3-1.1V134h1.5v5.5c0,0.2,0,0.3,0.1,0.4c0.1,0.1,0.2,0.1,0.4,0.1
			s0.3,0,0.5-0.1c0.1-0.1,0.3-0.2,0.5-0.3V134L122.4,133.9L122.4,133.9z"/>
		<path fill="#231F20" d="M125.2,133.9v0.7l0,0c0.2-0.3,0.5-0.5,0.7-0.7c0.2-0.1,0.5-0.2,0.9-0.2c0.5,0,0.8,0.2,1.1,0.5
			c0.3,0.3,0.4,0.8,0.4,1.5v3.4c0,0.7-0.1,1.1-0.4,1.5c-0.3,0.3-0.6,0.5-1.1,0.5c-0.2,0-0.3,0-0.4,0s-0.2-0.1-0.4-0.1
			c-0.1-0.1-0.2-0.1-0.4-0.2s-0.2-0.2-0.4-0.3v2.9h-1.5V134L125.2,133.9L125.2,133.9z M125.3,139.6c0.1,0.1,0.3,0.2,0.4,0.3
			s0.3,0.1,0.4,0.1s0.2,0,0.3,0c0.1,0,0.2-0.1,0.2-0.2c0.1-0.1,0.1-0.2,0.2-0.4c0-0.1,0.1-0.3,0.1-0.6v-2.6c0-0.2,0-0.4-0.1-0.6
			c0-0.1-0.1-0.3-0.2-0.4c-0.1-0.1-0.1-0.1-0.2-0.2c-0.1,0-0.2,0-0.3,0c-0.1,0-0.3,0-0.4,0.1s-0.3,0.2-0.4,0.3V139.6z"/>
		<path fill="#231F20" d="M131.1,133.9v0.7l0,0c0.2-0.3,0.5-0.5,0.7-0.7c0.2-0.1,0.5-0.2,0.9-0.2c0.5,0,0.8,0.2,1.1,0.5
			s0.4,0.8,0.4,1.5v3.4c0,0.7-0.1,1.1-0.4,1.5s-0.6,0.5-1.1,0.5c-0.2,0-0.3,0-0.4,0c-0.1,0-0.2-0.1-0.4-0.1
			c-0.1-0.1-0.2-0.1-0.4-0.2s-0.2-0.2-0.4-0.3v2.9h-1.5V134L131.1,133.9L131.1,133.9z M131.2,139.6c0.1,0.1,0.3,0.2,0.4,0.3
			c0.1,0.1,0.3,0.1,0.4,0.1c0.1,0,0.2,0,0.3,0s0.2-0.1,0.2-0.2c0.1-0.1,0.1-0.2,0.2-0.4c0-0.1,0.1-0.3,0.1-0.6v-2.6
			c0-0.2,0-0.4-0.1-0.6c0-0.1-0.1-0.3-0.2-0.4c-0.1-0.1-0.1-0.1-0.2-0.2c-0.1,0-0.2,0-0.3,0s-0.3,0-0.4,0.1
			c-0.1,0.1-0.3,0.2-0.4,0.3V139.6z"/>
		<path fill="#231F20" d="M135.5,136.4c0-0.4,0-0.7,0.1-1.1c0.1-0.3,0.2-0.6,0.4-0.8s0.4-0.4,0.7-0.5s0.6-0.2,1.1-0.2
			s0.8,0.1,1.1,0.2c0.3,0.1,0.5,0.3,0.7,0.5s0.3,0.5,0.4,0.8c0.1,0.3,0.1,0.7,0.1,1.1v2.1c0,0.4,0,0.7-0.1,1.1
			c-0.1,0.3-0.2,0.6-0.4,0.8s-0.4,0.4-0.7,0.5s-0.6,0.2-1.1,0.2s-0.8-0.1-1.1-0.2c-0.3-0.1-0.5-0.3-0.7-0.5s-0.3-0.5-0.4-0.8
			c-0.1-0.3-0.1-0.7-0.1-1.1V136.4z M138.6,136.2c0-0.4-0.1-0.7-0.2-0.9c-0.1-0.2-0.3-0.3-0.6-0.3s-0.5,0.1-0.6,0.3
			s-0.2,0.5-0.2,0.9v2.6c0,0.4,0.1,0.7,0.2,0.9s0.3,0.3,0.6,0.3s0.5-0.1,0.6-0.3s0.2-0.5,0.2-0.9V136.2z"/>
		<path fill="#231F20" d="M141.4,141v-7.1h1.4v0.8l0,0c0.2-0.3,0.4-0.5,0.7-0.7s0.6-0.3,1-0.3h0.3v1.5c-0.1,0-0.3-0.1-0.4-0.1
			c-0.1,0-0.3,0-0.5,0c-0.3,0-0.5,0.1-0.7,0.2c-0.2,0.2-0.3,0.4-0.3,0.7v4.9h-1.5V141z"/>
		<path fill="#231F20" d="M145.3,135.1v-1.2h0.8V132h1.5v1.9h1v1.2h-1v4.1c0,0.4,0.2,0.6,0.5,0.6h0.5v1.3c-0.1,0-0.2,0-0.3,0.1
			c-0.1,0-0.3,0-0.4,0c-0.6,0-1-0.1-1.3-0.4c-0.3-0.3-0.4-0.7-0.4-1.2v-4.4h-0.9L145.3,135.1L145.3,135.1z"/>
		<path fill="#231F20" d="M40.3,149.8h1.1l0.8,4.4l0,0l0.8-4.4h1.4l-1.6,7.1h-1.2l-0.8-4.5l0,0l-1,4.5h-1.2l-1.4-7.1h1.4l0.6,4.4
			l0,0L40.3,149.8z"/>
		<path fill="#231F20" d="M45.2,156.9v-9.6h1.5v3.1c0.1-0.1,0.3-0.2,0.4-0.3c0.1-0.1,0.2-0.2,0.4-0.3c0.1-0.1,0.3-0.1,0.4-0.2
			c0.2,0,0.3-0.1,0.6-0.1c0.4,0,0.7,0.1,0.9,0.4c0.2,0.3,0.3,0.6,0.3,1.1v5.8h-1.5v-5.5c0-0.2,0-0.3-0.1-0.4
			c-0.1-0.1-0.2-0.1-0.4-0.1s-0.3,0-0.5,0.1s-0.3,0.2-0.5,0.3v5.6L45.2,156.9L45.2,156.9z"/>
		<path fill="#231F20" d="M55.6,153.6h-3.1v1c0,0.4,0.1,0.7,0.2,0.9s0.3,0.3,0.6,0.3s0.5-0.1,0.6-0.3s0.2-0.5,0.2-0.9v-0.2h1.5
			c0,0.4-0.1,0.7-0.1,1c-0.1,0.3-0.2,0.6-0.4,0.8s-0.4,0.4-0.7,0.5s-0.6,0.2-1.1,0.2c-0.4,0-0.8-0.1-1.1-0.2
			c-0.3-0.1-0.5-0.3-0.7-0.5s-0.3-0.5-0.4-0.8c-0.1-0.3-0.1-0.7-0.1-1.1v-2.1c0-0.4,0-0.7,0.1-1.1c0.1-0.3,0.2-0.6,0.4-0.8
			s0.4-0.4,0.7-0.5s0.6-0.2,1.1-0.2s0.8,0.1,1.1,0.2c0.3,0.1,0.5,0.3,0.7,0.5s0.3,0.5,0.4,0.8c0.1,0.3,0.1,0.7,0.1,1.1V153.6z
			 M54.2,152.4V152c0-0.4-0.1-0.7-0.2-0.9c-0.1-0.2-0.3-0.3-0.6-0.3s-0.5,0.1-0.6,0.3s-0.2,0.5-0.2,0.9v0.4H54.2z"/>
		<path fill="#231F20" d="M57,156.9v-7.1h1.4v0.8l0,0c0.2-0.3,0.4-0.5,0.7-0.7s0.6-0.3,1-0.3h0.3v1.5c-0.1,0-0.3-0.1-0.4-0.1
			c-0.1,0-0.3,0-0.5,0c-0.3,0-0.5,0.1-0.7,0.2c-0.2,0.2-0.3,0.4-0.3,0.7v4.9H57V156.9z"/>
		<path fill="#231F20" d="M65.9,153.6h-3.1v1c0,0.4,0.1,0.7,0.2,0.9s0.3,0.3,0.6,0.3s0.5-0.1,0.6-0.3s0.2-0.5,0.2-0.9v-0.2h1.5
			c0,0.4-0.1,0.7-0.1,1c-0.1,0.3-0.2,0.6-0.4,0.8s-0.4,0.4-0.7,0.5c-0.3,0.1-0.6,0.2-1.1,0.2c-0.4,0-0.8-0.1-1.1-0.2
			c-0.3-0.1-0.5-0.3-0.7-0.5s-0.3-0.5-0.4-0.8c-0.1-0.3-0.1-0.7-0.1-1.1v-2.1c0-0.4,0-0.7,0.1-1.1c0.1-0.3,0.2-0.6,0.4-0.8
			s0.4-0.4,0.7-0.5s0.6-0.2,1.1-0.2c0.4,0,0.8,0.1,1.1,0.2c0.3,0.1,0.5,0.3,0.7,0.5s0.3,0.5,0.4,0.8s0.1,0.7,0.1,1.1V153.6z
			 M64.4,152.4V152c0-0.4-0.1-0.7-0.2-0.9s-0.3-0.3-0.6-0.3s-0.5,0.1-0.6,0.3s-0.2,0.5-0.2,0.9v0.4H64.4z"/>
		<path fill="#231F20" d="M73,149.8h1.5l-1.9,7.6c-0.1,0.3-0.2,0.6-0.3,0.8c-0.1,0.2-0.3,0.4-0.4,0.5c-0.2,0.1-0.4,0.2-0.6,0.3
			s-0.5,0.1-0.7,0.1H70v-1.2h0.4c0.4,0,0.6-0.1,0.8-0.3s0.2-0.5,0.2-0.9c0-0.1,0-0.3,0-0.4c0-0.1-0.1-0.3-0.1-0.5l-1.5-6h1.5l1,4.6
			l0,0L73,149.8z"/>
		<path fill="#231F20" d="M75.3,152.3c0-0.4,0-0.7,0.1-1.1c0.1-0.3,0.2-0.6,0.4-0.8c0.2-0.2,0.4-0.4,0.7-0.5
			c0.3-0.1,0.6-0.2,1.1-0.2s0.8,0.1,1.1,0.2c0.3,0.1,0.5,0.3,0.7,0.5s0.3,0.5,0.4,0.8s0.1,0.7,0.1,1.1v2.1c0,0.4,0,0.7-0.1,1.1
			c-0.1,0.3-0.2,0.6-0.4,0.8c-0.2,0.2-0.4,0.4-0.7,0.5S78,157,77.6,157s-0.8-0.1-1.1-0.2c-0.3-0.1-0.5-0.3-0.7-0.5s-0.3-0.5-0.4-0.8
			s-0.1-0.7-0.1-1.1V152.3z M78.4,152c0-0.4-0.1-0.7-0.2-0.9s-0.3-0.3-0.6-0.3s-0.5,0.1-0.6,0.3s-0.2,0.5-0.2,0.9v2.6
			c0,0.4,0.1,0.7,0.2,0.9s0.3,0.3,0.6,0.3s0.5-0.1,0.6-0.3s0.2-0.5,0.2-0.9V152z"/>
		<path fill="#231F20" d="M85.7,149.8v7.1h-1.4v-0.7c-0.2,0.1-0.3,0.3-0.4,0.4c-0.1,0.1-0.3,0.2-0.4,0.3s-0.3,0.1-0.4,0.2
			s-0.3,0.1-0.6,0.1c-0.4,0-0.7-0.1-0.9-0.4c-0.2-0.3-0.3-0.6-0.3-1.1v-5.8h1.5v5.5c0,0.2,0,0.3,0.1,0.4c0.1,0.1,0.2,0.1,0.4,0.1
			s0.3,0,0.5-0.1c0.1-0.1,0.3-0.2,0.5-0.3v-5.6L85.7,149.8L85.7,149.8z"/>
		<path fill="#231F20" d="M90,156.9v-7.1h1.4v0.7c0.2-0.1,0.3-0.3,0.4-0.4c0.1-0.1,0.3-0.2,0.4-0.3s0.3-0.1,0.4-0.2
			c0.2,0,0.3-0.1,0.6-0.1c0.4,0,0.7,0.1,0.9,0.4c0.2,0.3,0.3,0.6,0.3,1.1v5.8H93v-5.5c0-0.2,0-0.3-0.1-0.4c-0.1-0.1-0.2-0.1-0.4-0.1
			s-0.3,0-0.5,0.1s-0.3,0.2-0.5,0.3v5.6L90,156.9L90,156.9z"/>
		<path fill="#231F20" d="M100.4,153.6h-3.1v1c0,0.4,0.1,0.7,0.2,0.9s0.3,0.3,0.6,0.3s0.5-0.1,0.6-0.3s0.2-0.5,0.2-0.9v-0.2h1.5
			c0,0.4-0.1,0.7-0.1,1c-0.1,0.3-0.2,0.6-0.4,0.8s-0.4,0.4-0.7,0.5c-0.3,0.1-0.6,0.2-1.1,0.2c-0.4,0-0.8-0.1-1.1-0.2
			c-0.3-0.1-0.5-0.3-0.7-0.5s-0.3-0.5-0.4-0.8s-0.1-0.7-0.1-1.1v-2.1c0-0.4,0-0.7,0.1-1.1c0.1-0.3,0.2-0.6,0.4-0.8
			c0.2-0.2,0.4-0.4,0.7-0.5c0.3-0.1,0.6-0.2,1.1-0.2s0.8,0.1,1.1,0.2c0.3,0.1,0.5,0.3,0.7,0.5s0.3,0.5,0.4,0.8s0.1,0.7,0.1,1.1
			C100.4,152.2,100.4,153.6,100.4,153.6z M99,152.4V152c0-0.4-0.1-0.7-0.2-0.9s-0.3-0.3-0.6-0.3s-0.5,0.1-0.6,0.3s-0.2,0.5-0.2,0.9
			v0.4H99z"/>
		<path fill="#231F20" d="M106.3,153.6h-3.1v1c0,0.4,0.1,0.7,0.2,0.9s0.3,0.3,0.6,0.3s0.5-0.1,0.6-0.3s0.2-0.5,0.2-0.9v-0.2h1.5
			c0,0.4-0.1,0.7-0.1,1c-0.1,0.3-0.2,0.6-0.4,0.8s-0.4,0.4-0.7,0.5c-0.3,0.1-0.6,0.2-1.1,0.2c-0.4,0-0.8-0.1-1.1-0.2
			c-0.3-0.1-0.5-0.3-0.7-0.5s-0.3-0.5-0.4-0.8s-0.1-0.7-0.1-1.1v-2.1c0-0.4,0-0.7,0.1-1.1c0.1-0.3,0.2-0.6,0.4-0.8
			c0.2-0.2,0.4-0.4,0.7-0.5c0.3-0.1,0.6-0.2,1.1-0.2s0.8,0.1,1.1,0.2c0.3,0.1,0.5,0.3,0.7,0.5s0.3,0.5,0.4,0.8s0.1,0.7,0.1,1.1
			C106.3,152.2,106.3,153.6,106.3,153.6z M104.8,152.4V152c0-0.4-0.1-0.7-0.2-0.9s-0.3-0.3-0.6-0.3s-0.5,0.1-0.6,0.3
			s-0.2,0.5-0.2,0.9v0.4H104.8z"/>
		<path fill="#231F20" d="M110.7,156.9v-0.7l0,0c-0.2,0.3-0.5,0.5-0.7,0.7s-0.5,0.2-0.9,0.2c-0.5,0-0.8-0.2-1.1-0.5
			c-0.3-0.3-0.4-0.8-0.4-1.5v-3.4c0-0.7,0.1-1.1,0.4-1.5c0.3-0.3,0.6-0.5,1.1-0.5c0.2,0,0.3,0,0.4,0s0.2,0.1,0.4,0.1
			c0.1,0.1,0.2,0.1,0.3,0.2c0.1,0.1,0.2,0.2,0.4,0.3v-3h1.5v9.6L110.7,156.9L110.7,156.9z M110.6,151.2c-0.2-0.1-0.3-0.2-0.4-0.3
			s-0.3-0.1-0.4-0.1c-0.2,0-0.4,0.1-0.5,0.2c-0.1,0.2-0.2,0.5-0.2,0.9v2.6c0,0.5,0.1,0.8,0.2,0.9c0.1,0.2,0.3,0.2,0.5,0.2
			c0.1,0,0.3,0,0.4-0.1s0.3-0.2,0.4-0.3V151.2z"/>
		<path fill="#231F20" d="M116.5,148.7v-1.3h1.5v1.3H116.5z M116.5,156.9v-7.1h1.5v7.1H116.5z"/>
		<path fill="#231F20" d="M118.8,151v-1.2h0.8v-1.9h1.5v1.9h1v1.2h-1v4.1c0,0.4,0.2,0.6,0.5,0.6h0.5v1.3c-0.1,0-0.2,0-0.3,0.1
			c-0.1,0-0.3,0-0.4,0c-0.6,0-1-0.1-1.3-0.4c-0.3-0.3-0.4-0.7-0.4-1.2V151H118.8z"/>
		<path fill="#231F20" d="M129,156.9v-5.5c0-0.2,0-0.3-0.1-0.4c-0.1-0.1-0.2-0.1-0.4-0.1s-0.3,0-0.5,0.1c-0.1,0.1-0.3,0.2-0.5,0.3
			v5.6H126v-7.1h1.4v0.7c0.2-0.1,0.3-0.3,0.4-0.4c0.1-0.1,0.2-0.2,0.4-0.3c0.1-0.1,0.3-0.1,0.4-0.2c0.1,0,0.3-0.1,0.5-0.1
			c0.4,0,0.6,0.1,0.8,0.2c0.2,0.1,0.3,0.4,0.5,0.6c0.2-0.2,0.3-0.3,0.5-0.4s0.3-0.2,0.4-0.3c0.1-0.1,0.3-0.1,0.4-0.1
			c0.1,0,0.3,0,0.4,0c0.5,0,0.8,0.1,1,0.4c0.2,0.3,0.3,0.6,0.3,1.1v5.8h-1.5v-5.5c0-0.2-0.1-0.3-0.2-0.4s-0.2-0.1-0.4-0.1
			s-0.3,0-0.5,0.1s-0.3,0.2-0.5,0.3v5.6L129,156.9L129,156.9z"/>
		<path fill="#231F20" d="M134.8,152.3c0-0.4,0-0.7,0.1-1.1c0.1-0.3,0.2-0.6,0.4-0.8s0.4-0.4,0.7-0.5s0.6-0.2,1.1-0.2
			s0.8,0.1,1.1,0.2c0.3,0.1,0.5,0.3,0.7,0.5s0.3,0.5,0.4,0.8c0.1,0.3,0.1,0.7,0.1,1.1v2.1c0,0.4,0,0.7-0.1,1.1
			c-0.1,0.3-0.2,0.6-0.4,0.8s-0.4,0.4-0.7,0.5s-0.6,0.2-1.1,0.2s-0.8-0.1-1.1-0.2c-0.3-0.1-0.5-0.3-0.7-0.5s-0.3-0.5-0.4-0.8
			c-0.1-0.3-0.1-0.7-0.1-1.1V152.3z M137.9,152c0-0.4-0.1-0.7-0.2-0.9c-0.1-0.2-0.3-0.3-0.6-0.3s-0.5,0.1-0.6,0.3s-0.2,0.5-0.2,0.9
			v2.6c0,0.4,0.1,0.7,0.2,0.9s0.3,0.3,0.6,0.3s0.5-0.1,0.6-0.3s0.2-0.5,0.2-0.9V152z"/>
		<path fill="#231F20" d="M143.4,151.8c-0.1-0.6-0.4-0.9-0.8-0.9c-0.2,0-0.4,0-0.5,0.1s-0.2,0.2-0.2,0.4s0.1,0.4,0.2,0.5
			c0.1,0.2,0.3,0.3,0.5,0.5s0.4,0.3,0.7,0.5c0.2,0.2,0.5,0.4,0.7,0.6c0.2,0.2,0.4,0.4,0.5,0.7s0.2,0.6,0.2,0.9
			c0,0.3-0.1,0.6-0.2,0.8c-0.1,0.2-0.2,0.4-0.4,0.6c-0.2,0.2-0.4,0.3-0.7,0.4s-0.5,0.1-0.8,0.1c-0.7,0-1.2-0.2-1.5-0.5
			c-0.4-0.3-0.6-0.8-0.7-1.5l1.3-0.4c0,0.3,0.1,0.6,0.3,0.8c0.1,0.2,0.4,0.3,0.7,0.3c0.2,0,0.4-0.1,0.5-0.2c0.1-0.1,0.2-0.3,0.2-0.5
			s-0.1-0.4-0.2-0.6c-0.1-0.2-0.3-0.3-0.5-0.5s-0.4-0.3-0.7-0.5c-0.2-0.2-0.5-0.4-0.7-0.6c-0.2-0.2-0.4-0.4-0.5-0.7
			c-0.1-0.2-0.2-0.5-0.2-0.9c0-0.3,0.1-0.5,0.2-0.8c0.1-0.2,0.2-0.4,0.4-0.6c0.2-0.2,0.4-0.3,0.6-0.4c0.2-0.1,0.5-0.1,0.8-0.1
			c0.6,0,1.1,0.2,1.4,0.5c0.4,0.4,0.6,0.8,0.7,1.4L143.4,151.8z"/>
		<path fill="#231F20" d="M145.3,151v-1.2h0.8v-1.9h1.5v1.9h1v1.2h-1v4.1c0,0.4,0.2,0.6,0.5,0.6h0.5v1.3c-0.1,0-0.2,0-0.3,0.1
			c-0.1,0-0.3,0-0.4,0c-0.6,0-1-0.1-1.3-0.4c-0.3-0.3-0.4-0.7-0.4-1.2V151H145.3z"/>
		<path fill="#231F20" d="M149.5,156.9v-1.6h1.6v1.6H149.5z"/>
	</g>
</g>
</svg>
