<?xml version="1.0" encoding="utf-8"?>
<!-- Generator: Adobe Illustrator 18.1.1, SVG Export Plug-In . SVG Version: 6.00 Build 0)  -->
<svg version="1.1" id="Layer_1" xmlns="http://www.w3.org/2000/svg" xmlns:xlink="http://www.w3.org/1999/xlink" x="0px" y="0px"
	 viewBox="0 0 800 350" enable-background="new 0 0 800 350" xml:space="preserve">
<g id="zoom">
	<line fill="none" stroke="#231F20" stroke-miterlimit="10" x1="605.8" y1="136" x2="523.5" y2="211.8"/>
	<circle fill="none" stroke="#231F20" stroke-miterlimit="10" cx="519.2" cy="215.1" r="5.4"/>
	<g>
		<path fill="#231F20" d="M619.3,120.6v-10h2.6l1.4,3.7c0.1,0.2,0.1,0.4,0.2,0.6c0.1,0.2,0.1,0.4,0.2,0.6c0.1,0.2,0.1,0.4,0.2,0.6
			c0.1,0.2,0.1,0.4,0.1,0.5c-0.1-0.7-0.1-1.4-0.2-2c-0.1-0.6-0.1-1.1-0.1-1.5v-2.5h2.6v10h-2.6l-1.4-3.7c-0.3-0.8-0.5-1.5-0.7-2.1
			c0.1,0.7,0.1,1.3,0.1,1.8c0,0.5,0,1,0,1.4v2.5H619.3z"/>
		<path fill="#231F20" d="M630.4,120.6h-2.7v-10h2.7V120.6z"/>
		<path fill="#231F20" d="M639.1,120.6h-2.8l-1.9-4.6c0,0.2,0,0.3,0,0.5s0,0.3,0,0.5v3.6h-2.7v-10h2.7v3.4c0,0.2,0,0.3,0,0.4
			s0,0.3,0,0.4l1.7-4.3h2.8l-2.2,4.8L639.1,120.6z"/>
		<path fill="#231F20" d="M639.9,120.6v-10h5v2.3h-2.3v1.5h2.1v2.2h-2.1v1.5h2.3v2.4H639.9z"/>
		<path fill="#231F20" d="M656.4,120.6h-6.9v-0.3l2.3-5.3c0.2-0.5,0.4-1,0.6-1.3c0.2-0.3,0.3-0.6,0.5-0.8h-2.9v-2.3h6.6v0.3
			l-2.4,5.5c-0.1,0.3-0.3,0.7-0.5,1c-0.2,0.3-0.3,0.7-0.5,1c0.2-0.1,0.3-0.1,0.5-0.1c0.2,0,0.3,0,0.5,0h2.1V120.6z"/>
		<path fill="#231F20" d="M665.1,115.6c0,0.8-0.1,1.5-0.3,2.1c-0.2,0.6-0.4,1.2-0.8,1.6c-0.3,0.5-0.7,0.8-1.2,1.1s-1,0.4-1.5,0.4
			c-0.6,0-1.1-0.1-1.6-0.4c-0.5-0.2-0.9-0.6-1.2-1.1c-0.3-0.5-0.6-1-0.8-1.6s-0.3-1.3-0.3-2.1s0.1-1.5,0.3-2.1s0.4-1.2,0.8-1.6
			c0.3-0.5,0.7-0.8,1.2-1.1c0.5-0.3,1-0.4,1.6-0.4c0.6,0,1.1,0.1,1.5,0.4c0.5,0.3,0.9,0.6,1.2,1.1c0.3,0.5,0.6,1,0.8,1.6
			C665,114.1,665.1,114.8,665.1,115.6z M662.3,115.6c0-0.9-0.1-1.5-0.3-2s-0.4-0.7-0.7-0.7s-0.6,0.2-0.7,0.7c-0.2,0.5-0.3,1.1-0.3,2
			s0.1,1.5,0.3,2c0.2,0.5,0.4,0.7,0.7,0.7s0.6-0.2,0.7-0.7C662.2,117.1,662.3,116.4,662.3,115.6z"/>
		<path fill="#231F20" d="M673.5,115.6c0,0.8-0.1,1.5-0.3,2.1s-0.4,1.2-0.8,1.6c-0.3,0.5-0.7,0.8-1.2,1.1c-0.5,0.2-1,0.4-1.5,0.4
			c-0.6,0-1.1-0.1-1.6-0.4s-0.9-0.6-1.2-1.1c-0.3-0.5-0.6-1-0.8-1.6c-0.2-0.6-0.3-1.3-0.3-2.1s0.1-1.5,0.3-2.1
			c0.2-0.6,0.4-1.2,0.8-1.6c0.3-0.5,0.7-0.8,1.2-1.1c0.5-0.3,1-0.4,1.6-0.4c0.6,0,1.1,0.1,1.5,0.4c0.5,0.3,0.9,0.6,1.2,1.1
			c0.3,0.5,0.6,1,0.8,1.6S673.5,114.8,673.5,115.6z M670.8,115.6c0-0.9-0.1-1.5-0.3-2c-0.2-0.5-0.4-0.7-0.7-0.7
			c-0.3,0-0.6,0.2-0.7,0.7s-0.3,1.1-0.3,2s0.1,1.5,0.3,2c0.2,0.5,0.4,0.7,0.7,0.7c0.3,0,0.6-0.2,0.7-0.7
			C670.7,117.1,670.8,116.4,670.8,115.6z"/>
		<path fill="#231F20" d="M685,120.6h-2.8L682,116c0-0.3,0-0.6,0-0.9c0-0.3,0-0.6,0-0.9c0,0.4-0.1,0.7-0.1,1c0,0.3-0.1,0.6-0.2,0.9
			l-0.8,4.4h-2.2l-0.7-4.4c0-0.3-0.1-0.6-0.1-0.9c0-0.3-0.1-0.7-0.1-1c0,0.3,0,0.6,0,0.9c0,0.3,0,0.6-0.1,0.9l-0.2,4.6h-2.9l1.2-10
			h3.3l0.6,3.6c0,0.3,0.1,0.5,0.1,0.8c0,0.3,0.1,0.6,0.1,0.9c0-0.3,0.1-0.6,0.1-0.9s0.1-0.6,0.1-0.8l0.7-3.6h3.3L685,120.6z"/>
		<path fill="#231F20" d="M619.4,126.9h2.4c0.9,0,1.5,0.2,1.9,0.7c0.4,0.5,0.7,1.2,0.7,2.2v3.8c0,1-0.2,1.7-0.7,2.2
			c-0.4,0.5-1.1,0.7-1.9,0.7h-2.4V126.9z M621,135.1h0.6c0.4,0,0.7-0.1,0.9-0.3s0.3-0.5,0.3-1v-4.2c0-0.5-0.1-0.9-0.3-1
			c-0.2-0.2-0.5-0.3-0.9-0.3H621V135.1z"/>
		<path fill="#231F20" d="M630.4,133.2h-3.1v1c0,0.4,0.1,0.7,0.2,0.9s0.3,0.3,0.6,0.3s0.5-0.1,0.6-0.3c0.1-0.2,0.2-0.5,0.2-0.9V134
			h1.5c0,0.4-0.1,0.7-0.1,1c-0.1,0.3-0.2,0.6-0.4,0.8c-0.2,0.2-0.4,0.4-0.7,0.5c-0.3,0.1-0.6,0.2-1.1,0.2c-0.4,0-0.8-0.1-1.1-0.2
			c-0.3-0.1-0.5-0.3-0.7-0.5c-0.2-0.2-0.3-0.5-0.4-0.8c-0.1-0.3-0.1-0.7-0.1-1.1v-2.1c0-0.4,0-0.7,0.1-1.1c0.1-0.3,0.2-0.6,0.4-0.8
			c0.2-0.2,0.4-0.4,0.7-0.5c0.3-0.1,0.6-0.2,1.1-0.2s0.8,0.1,1.1,0.2c0.3,0.1,0.5,0.3,0.7,0.5c0.2,0.2,0.3,0.5,0.4,0.8
			c0.1,0.3,0.1,0.7,0.1,1.1V133.2z M628.9,132v-0.4c0-0.4-0.1-0.7-0.2-0.9c-0.1-0.2-0.3-0.3-0.6-0.3s-0.5,0.1-0.6,0.3
			c-0.1,0.2-0.2,0.5-0.2,0.9v0.4H628.9z"/>
		<path fill="#231F20" d="M631.8,136.5v-9.6h1.5v9.6H631.8z"/>
		<path fill="#231F20" d="M634.7,128.3v-1.3h1.5v1.3H634.7z M634.7,136.5v-7.1h1.5v7.1H634.7z"/>
		<path fill="#231F20" d="M640.4,129.3h1.5l-1.7,7.1h-1.4l-1.7-7.1h1.5l0.9,4.8h0L640.4,129.3z"/>
		<path fill="#231F20" d="M647.3,133.2h-3.1v1c0,0.4,0.1,0.7,0.2,0.9s0.3,0.3,0.6,0.3s0.5-0.1,0.6-0.3s0.2-0.5,0.2-0.9V134h1.5
			c0,0.4-0.1,0.7-0.1,1c-0.1,0.3-0.2,0.6-0.4,0.8c-0.2,0.2-0.4,0.4-0.7,0.5c-0.3,0.1-0.6,0.2-1.1,0.2c-0.4,0-0.8-0.1-1.1-0.2
			s-0.5-0.3-0.7-0.5c-0.2-0.2-0.3-0.5-0.4-0.8c-0.1-0.3-0.1-0.7-0.1-1.1v-2.1c0-0.4,0-0.7,0.1-1.1c0.1-0.3,0.2-0.6,0.4-0.8
			c0.2-0.2,0.4-0.4,0.7-0.5c0.3-0.1,0.6-0.2,1.1-0.2s0.8,0.1,1.1,0.2c0.3,0.1,0.5,0.3,0.7,0.5c0.2,0.2,0.3,0.5,0.4,0.8
			c0.1,0.3,0.1,0.7,0.1,1.1V133.2z M645.8,132v-0.4c0-0.4-0.1-0.7-0.2-0.9c-0.1-0.2-0.3-0.3-0.6-0.3s-0.5,0.1-0.6,0.3
			c-0.1,0.2-0.2,0.5-0.2,0.9v0.4H645.8z"/>
		<path fill="#231F20" d="M648.7,136.5v-7.1h1.4v0.8h0c0.2-0.3,0.4-0.5,0.7-0.7c0.3-0.2,0.6-0.3,1-0.3h0.3v1.5
			c-0.1,0-0.3-0.1-0.4-0.1c-0.1,0-0.3,0-0.5,0c-0.3,0-0.5,0.1-0.7,0.2c-0.2,0.2-0.3,0.4-0.3,0.7v4.9H648.7z"/>
		<path fill="#231F20" d="M655.8,131.3c-0.1-0.6-0.4-0.9-0.8-0.9c-0.2,0-0.4,0-0.5,0.1c-0.1,0.1-0.2,0.2-0.2,0.4s0.1,0.4,0.2,0.5
			c0.1,0.2,0.3,0.3,0.5,0.5c0.2,0.2,0.4,0.3,0.7,0.5c0.2,0.2,0.5,0.4,0.7,0.6c0.2,0.2,0.4,0.4,0.5,0.7c0.1,0.3,0.2,0.6,0.2,0.9
			c0,0.3-0.1,0.6-0.2,0.8c-0.1,0.2-0.2,0.4-0.4,0.6c-0.2,0.2-0.4,0.3-0.7,0.4s-0.5,0.1-0.8,0.1c-0.7,0-1.2-0.2-1.5-0.5
			c-0.4-0.3-0.6-0.8-0.7-1.5l1.3-0.4c0,0.3,0.1,0.6,0.3,0.8c0.1,0.2,0.4,0.3,0.7,0.3c0.2,0,0.4-0.1,0.5-0.2c0.1-0.1,0.2-0.3,0.2-0.5
			s-0.1-0.4-0.2-0.6c-0.1-0.2-0.3-0.3-0.5-0.5c-0.2-0.2-0.4-0.3-0.7-0.5c-0.2-0.2-0.5-0.4-0.7-0.6c-0.2-0.2-0.4-0.4-0.5-0.7
			c-0.1-0.2-0.2-0.5-0.2-0.9c0-0.3,0.1-0.5,0.2-0.8c0.1-0.2,0.2-0.4,0.4-0.6c0.2-0.2,0.4-0.3,0.6-0.4c0.2-0.1,0.5-0.1,0.8-0.1
			c0.6,0,1.1,0.2,1.4,0.5c0.4,0.4,0.6,0.8,0.7,1.4L655.8,131.3z"/>
		<path fill="#231F20" d="M665.6,129.3v7.1h-1.4v-0.7c-0.2,0.1-0.3,0.3-0.4,0.4c-0.1,0.1-0.3,0.2-0.4,0.3s-0.3,0.1-0.4,0.2
			s-0.3,0.1-0.6,0.1c-0.4,0-0.7-0.1-0.9-0.4c-0.2-0.3-0.3-0.6-0.3-1.1v-5.8h1.5v5.5c0,0.2,0,0.3,0.1,0.4c0.1,0.1,0.2,0.1,0.4,0.1
			s0.3,0,0.5-0.1c0.1-0.1,0.3-0.2,0.5-0.3v-5.6H665.6z"/>
		<path fill="#231F20" d="M667,136.5v-9.6h1.5v9.6H667z"/>
		<path fill="#231F20" d="M669.4,130.6v-1.2h0.8v-1.9h1.5v1.9h1v1.2h-1v4.1c0,0.4,0.2,0.6,0.5,0.6h0.5v1.3c-0.1,0-0.2,0-0.3,0.1
			c-0.1,0-0.3,0-0.4,0c-0.6,0-1-0.1-1.3-0.4c-0.3-0.3-0.4-0.7-0.4-1.2v-4.4H669.4z"/>
		<path fill="#231F20" d="M673.6,136.5v-7.1h1.4v0.8h0c0.2-0.3,0.4-0.5,0.7-0.7c0.3-0.2,0.6-0.3,1-0.3h0.3v1.5
			c-0.1,0-0.3-0.1-0.4-0.1c-0.1,0-0.3,0-0.5,0c-0.3,0-0.5,0.1-0.7,0.2c-0.2,0.2-0.3,0.4-0.3,0.7v4.9H673.6z"/>
		<path fill="#231F20" d="M677.9,131.4c0-0.7,0.3-1.3,0.7-1.7s1-0.6,1.7-0.6c0.7,0,1.2,0.2,1.6,0.5c0.4,0.3,0.6,0.8,0.6,1.5v4.6
			c0,0.1,0,0.2,0,0.4c0,0.1,0,0.3,0.1,0.4h-1.4c0-0.1,0-0.2,0-0.3c0-0.1,0-0.2,0-0.3c-0.3,0.2-0.6,0.4-0.8,0.5
			c-0.3,0.1-0.6,0.2-0.9,0.2c-0.5,0-0.9-0.2-1.1-0.5c-0.3-0.3-0.4-0.7-0.4-1.1c0-0.4,0.1-0.7,0.2-1c0.1-0.3,0.3-0.6,0.6-0.8
			c0.3-0.3,0.6-0.5,1-0.7c0.4-0.2,0.9-0.4,1.4-0.6v-0.4c0-0.6-0.2-0.9-0.7-0.9c-0.3,0-0.6,0.1-0.7,0.3c-0.1,0.2-0.2,0.4-0.2,0.7
			H677.9z M680.9,132.8c-0.3,0.2-0.6,0.4-0.8,0.5c-0.2,0.2-0.4,0.3-0.5,0.5s-0.2,0.3-0.3,0.4s-0.1,0.3-0.1,0.4
			c0,0.2,0.1,0.4,0.2,0.5c0.1,0.1,0.3,0.2,0.5,0.2c0.2,0,0.4-0.1,0.6-0.2s0.3-0.3,0.4-0.5V132.8z"/>
		<path fill="#231F20" d="M683.8,133.5v-1.2h3.2v1.2H683.8z"/>
		<path fill="#231F20" d="M688.3,136.5v-7.1h1.4v0.8h0c0.2-0.3,0.4-0.5,0.7-0.7c0.3-0.2,0.6-0.3,1-0.3h0.3v1.5
			c-0.1,0-0.3-0.1-0.4-0.1c-0.1,0-0.3,0-0.5,0c-0.3,0-0.5,0.1-0.7,0.2c-0.2,0.2-0.3,0.4-0.3,0.7v4.9H688.3z"/>
		<path fill="#231F20" d="M697.3,133.2h-3.1v1c0,0.4,0.1,0.7,0.2,0.9s0.3,0.3,0.6,0.3s0.5-0.1,0.6-0.3c0.1-0.2,0.2-0.5,0.2-0.9V134
			h1.5c0,0.4-0.1,0.7-0.1,1c-0.1,0.3-0.2,0.6-0.4,0.8c-0.2,0.2-0.4,0.4-0.7,0.5c-0.3,0.1-0.6,0.2-1.1,0.2c-0.4,0-0.8-0.1-1.1-0.2
			c-0.3-0.1-0.5-0.3-0.7-0.5c-0.2-0.2-0.3-0.5-0.4-0.8c-0.1-0.3-0.1-0.7-0.1-1.1v-2.1c0-0.4,0-0.7,0.1-1.1c0.1-0.3,0.2-0.6,0.4-0.8
			c0.2-0.2,0.4-0.4,0.7-0.5c0.3-0.1,0.6-0.2,1.1-0.2s0.8,0.1,1.1,0.2c0.3,0.1,0.5,0.3,0.7,0.5c0.2,0.2,0.3,0.5,0.4,0.8
			c0.1,0.3,0.1,0.7,0.1,1.1V133.2z M695.8,132v-0.4c0-0.4-0.1-0.7-0.2-0.9c-0.1-0.2-0.3-0.3-0.6-0.3s-0.5,0.1-0.6,0.3
			c-0.1,0.2-0.2,0.5-0.2,0.9v0.4H695.8z"/>
		<path fill="#231F20" d="M701.3,131.3c-0.1-0.6-0.4-0.9-0.8-0.9c-0.2,0-0.4,0-0.5,0.1c-0.1,0.1-0.2,0.2-0.2,0.4s0.1,0.4,0.2,0.5
			c0.1,0.2,0.3,0.3,0.5,0.5c0.2,0.2,0.4,0.3,0.7,0.5c0.2,0.2,0.5,0.4,0.7,0.6c0.2,0.2,0.4,0.4,0.5,0.7c0.1,0.3,0.2,0.6,0.2,0.9
			c0,0.3-0.1,0.6-0.2,0.8c-0.1,0.2-0.2,0.4-0.4,0.6c-0.2,0.2-0.4,0.3-0.7,0.4s-0.5,0.1-0.8,0.1c-0.7,0-1.2-0.2-1.5-0.5
			c-0.4-0.3-0.6-0.8-0.7-1.5l1.3-0.4c0,0.3,0.1,0.6,0.3,0.8c0.1,0.2,0.4,0.3,0.7,0.3c0.2,0,0.4-0.1,0.5-0.2c0.1-0.1,0.2-0.3,0.2-0.5
			s-0.1-0.4-0.2-0.6c-0.1-0.2-0.3-0.3-0.5-0.5c-0.2-0.2-0.4-0.3-0.7-0.5c-0.2-0.2-0.5-0.4-0.7-0.6c-0.2-0.2-0.4-0.4-0.5-0.7
			c-0.1-0.2-0.2-0.5-0.2-0.9c0-0.3,0.1-0.5,0.2-0.8c0.1-0.2,0.2-0.4,0.4-0.6c0.2-0.2,0.4-0.3,0.6-0.4c0.2-0.1,0.5-0.1,0.8-0.1
			c0.6,0,1.1,0.2,1.4,0.5c0.4,0.4,0.6,0.8,0.7,1.4L701.3,131.3z"/>
		<path fill="#231F20" d="M705.1,129.3v0.7h0c0.2-0.3,0.5-0.5,0.7-0.7c0.2-0.1,0.5-0.2,0.9-0.2c0.5,0,0.8,0.2,1.1,0.5
			s0.4,0.8,0.4,1.5v3.4c0,0.7-0.1,1.1-0.4,1.5s-0.6,0.5-1.1,0.5c-0.2,0-0.3,0-0.4,0c-0.1,0-0.2-0.1-0.4-0.1s-0.2-0.1-0.4-0.2
			s-0.2-0.2-0.4-0.3v2.9h-1.5v-9.4H705.1z M705.2,135c0.1,0.1,0.3,0.2,0.4,0.3c0.1,0.1,0.3,0.1,0.4,0.1c0.1,0,0.2,0,0.3,0
			c0.1,0,0.2-0.1,0.2-0.2c0.1-0.1,0.1-0.2,0.2-0.4c0-0.1,0.1-0.3,0.1-0.6v-2.6c0-0.2,0-0.4-0.1-0.6c0-0.1-0.1-0.3-0.2-0.4
			c-0.1-0.1-0.1-0.1-0.2-0.2c-0.1,0-0.2,0-0.3,0c-0.1,0-0.3,0-0.4,0.1c-0.1,0.1-0.3,0.2-0.4,0.3V135z"/>
		<path fill="#231F20" d="M709.5,131.9c0-0.4,0-0.7,0.1-1.1c0.1-0.3,0.2-0.6,0.4-0.8c0.2-0.2,0.4-0.4,0.7-0.5
			c0.3-0.1,0.6-0.2,1.1-0.2s0.8,0.1,1.1,0.2c0.3,0.1,0.5,0.3,0.7,0.5c0.2,0.2,0.3,0.5,0.4,0.8c0.1,0.3,0.1,0.7,0.1,1.1v2.1
			c0,0.4,0,0.7-0.1,1.1c-0.1,0.3-0.2,0.6-0.4,0.8c-0.2,0.2-0.4,0.4-0.7,0.5s-0.6,0.2-1.1,0.2s-0.8-0.1-1.1-0.2
			c-0.3-0.1-0.5-0.3-0.7-0.5c-0.2-0.2-0.3-0.5-0.4-0.8c-0.1-0.3-0.1-0.7-0.1-1.1V131.9z M712.7,131.6c0-0.4-0.1-0.7-0.2-0.9
			c-0.1-0.2-0.3-0.3-0.6-0.3s-0.5,0.1-0.6,0.3c-0.1,0.2-0.2,0.5-0.2,0.9v2.6c0,0.4,0.1,0.7,0.2,0.9s0.3,0.3,0.6,0.3s0.5-0.1,0.6-0.3
			c0.1-0.2,0.2-0.5,0.2-0.9V131.6z"/>
		<path fill="#231F20" d="M715.5,136.5v-7.1h1.4v0.7c0.2-0.1,0.3-0.3,0.4-0.4c0.1-0.1,0.3-0.2,0.4-0.3s0.3-0.1,0.4-0.2
			c0.2,0,0.3-0.1,0.6-0.1c0.4,0,0.7,0.1,0.9,0.4c0.2,0.3,0.3,0.6,0.3,1.1v5.8h-1.5v-5.5c0-0.2,0-0.3-0.1-0.4s-0.2-0.1-0.4-0.1
			s-0.3,0-0.5,0.1s-0.3,0.2-0.5,0.3v5.6H715.5z"/>
		<path fill="#231F20" d="M724.1,131.3c-0.1-0.6-0.4-0.9-0.8-0.9c-0.2,0-0.4,0-0.5,0.1c-0.1,0.1-0.2,0.2-0.2,0.4s0.1,0.4,0.2,0.5
			c0.1,0.2,0.3,0.3,0.5,0.5c0.2,0.2,0.4,0.3,0.7,0.5c0.2,0.2,0.5,0.4,0.7,0.6c0.2,0.2,0.4,0.4,0.5,0.7c0.1,0.3,0.2,0.6,0.2,0.9
			c0,0.3-0.1,0.6-0.2,0.8c-0.1,0.2-0.2,0.4-0.4,0.6c-0.2,0.2-0.4,0.3-0.7,0.4s-0.5,0.1-0.8,0.1c-0.7,0-1.2-0.2-1.5-0.5
			c-0.4-0.3-0.6-0.8-0.7-1.5l1.3-0.4c0,0.3,0.1,0.6,0.3,0.8c0.1,0.2,0.4,0.3,0.7,0.3c0.2,0,0.4-0.1,0.5-0.2c0.1-0.1,0.2-0.3,0.2-0.5
			s-0.1-0.4-0.2-0.6c-0.1-0.2-0.3-0.3-0.5-0.5c-0.2-0.2-0.4-0.3-0.7-0.5s-0.5-0.4-0.7-0.6c-0.2-0.2-0.4-0.4-0.5-0.7
			c-0.1-0.2-0.2-0.5-0.2-0.9c0-0.3,0.1-0.5,0.2-0.8c0.1-0.2,0.2-0.4,0.4-0.6c0.2-0.2,0.4-0.3,0.6-0.4c0.2-0.1,0.5-0.1,0.8-0.1
			c0.6,0,1.1,0.2,1.4,0.5c0.4,0.4,0.6,0.8,0.7,1.4L724.1,131.3z"/>
		<path fill="#231F20" d="M726.5,128.3v-1.3h1.5v1.3H726.5z M726.5,136.5v-7.1h1.5v7.1H726.5z"/>
		<path fill="#231F20" d="M732.2,129.3h1.5l-1.7,7.1h-1.4l-1.7-7.1h1.5l0.9,4.8h0L732.2,129.3z"/>
		<path fill="#231F20" d="M739.1,133.2H736v1c0,0.4,0.1,0.7,0.2,0.9s0.3,0.3,0.6,0.3s0.5-0.1,0.6-0.3s0.2-0.5,0.2-0.9V134h1.5
			c0,0.4-0.1,0.7-0.1,1c-0.1,0.3-0.2,0.6-0.4,0.8c-0.2,0.2-0.4,0.4-0.7,0.5c-0.3,0.1-0.6,0.2-1.1,0.2c-0.4,0-0.8-0.1-1.1-0.2
			s-0.5-0.3-0.7-0.5c-0.2-0.2-0.3-0.5-0.4-0.8c-0.1-0.3-0.1-0.7-0.1-1.1v-2.1c0-0.4,0-0.7,0.1-1.1c0.1-0.3,0.2-0.6,0.4-0.8
			c0.2-0.2,0.4-0.4,0.7-0.5c0.3-0.1,0.6-0.2,1.1-0.2s0.8,0.1,1.1,0.2c0.3,0.1,0.5,0.3,0.7,0.5c0.2,0.2,0.3,0.5,0.4,0.8
			c0.1,0.3,0.1,0.7,0.1,1.1V133.2z M737.6,132v-0.4c0-0.4-0.1-0.7-0.2-0.9c-0.1-0.2-0.3-0.3-0.6-0.3s-0.5,0.1-0.6,0.3
			c-0.1,0.2-0.2,0.5-0.2,0.9v0.4H737.6z"/>
		<path fill="#231F20" d="M622.3,147.6v-0.2c0-0.4-0.1-0.7-0.2-0.9c-0.1-0.2-0.3-0.3-0.6-0.3s-0.5,0.1-0.6,0.3
			c-0.1,0.2-0.2,0.5-0.2,0.9v2.6c0,0.4,0.1,0.7,0.2,0.9s0.3,0.3,0.6,0.3s0.5-0.1,0.6-0.3c0.1-0.2,0.2-0.5,0.2-0.9v-0.4h1.5v0.2
			c0,0.4,0,0.7-0.1,1.1c-0.1,0.3-0.2,0.6-0.4,0.8c-0.2,0.2-0.4,0.4-0.7,0.5s-0.6,0.2-1.1,0.2s-0.8-0.1-1.1-0.2
			c-0.3-0.1-0.5-0.3-0.7-0.5c-0.2-0.2-0.3-0.5-0.4-0.8c-0.1-0.3-0.1-0.7-0.1-1.1v-2.1c0-0.4,0-0.7,0.1-1.1c0.1-0.3,0.2-0.6,0.4-0.8
			c0.2-0.2,0.4-0.4,0.7-0.5c0.3-0.1,0.6-0.2,1.1-0.2c0.4,0,0.8,0.1,1.1,0.2c0.3,0.1,0.5,0.3,0.7,0.5c0.2,0.2,0.3,0.5,0.4,0.8
			c0.1,0.3,0.1,0.7,0.1,1H622.3z"/>
		<path fill="#231F20" d="M629.6,145.2v7.1h-1.4v-0.7c-0.2,0.1-0.3,0.3-0.4,0.4c-0.1,0.1-0.3,0.2-0.4,0.3s-0.3,0.1-0.4,0.2
			s-0.3,0.1-0.6,0.1c-0.4,0-0.7-0.1-0.9-0.4c-0.2-0.3-0.3-0.6-0.3-1.1v-5.8h1.5v5.5c0,0.2,0,0.3,0.1,0.4c0.1,0.1,0.2,0.1,0.4,0.1
			s0.3,0,0.5-0.1c0.1-0.1,0.3-0.2,0.5-0.3v-5.6H629.6z"/>
		<path fill="#231F20" d="M633.7,147.2c-0.1-0.6-0.4-0.9-0.8-0.9c-0.2,0-0.4,0-0.5,0.1c-0.1,0.1-0.2,0.2-0.2,0.4s0.1,0.4,0.2,0.5
			c0.1,0.2,0.3,0.3,0.5,0.5c0.2,0.2,0.4,0.3,0.7,0.5c0.2,0.2,0.5,0.4,0.7,0.6c0.2,0.2,0.4,0.4,0.5,0.7c0.1,0.3,0.2,0.6,0.2,0.9
			c0,0.3-0.1,0.6-0.2,0.8c-0.1,0.2-0.2,0.4-0.4,0.6c-0.2,0.2-0.4,0.3-0.7,0.4s-0.5,0.1-0.8,0.1c-0.7,0-1.2-0.2-1.5-0.5
			c-0.4-0.3-0.6-0.8-0.7-1.5l1.3-0.4c0,0.3,0.1,0.6,0.3,0.8c0.1,0.2,0.4,0.3,0.7,0.3c0.2,0,0.4-0.1,0.5-0.2c0.1-0.1,0.2-0.3,0.2-0.5
			s-0.1-0.4-0.2-0.6c-0.1-0.2-0.3-0.3-0.5-0.5c-0.2-0.2-0.4-0.3-0.7-0.5s-0.5-0.4-0.7-0.6c-0.2-0.2-0.4-0.4-0.5-0.7
			c-0.1-0.2-0.2-0.5-0.2-0.9c0-0.3,0.1-0.5,0.2-0.8c0.1-0.2,0.2-0.4,0.4-0.6c0.2-0.2,0.4-0.3,0.6-0.4c0.2-0.1,0.5-0.1,0.8-0.1
			c0.6,0,1.1,0.2,1.4,0.5c0.4,0.4,0.6,0.8,0.7,1.4L633.7,147.2z"/>
		<path fill="#231F20" d="M636.2,152.3v-9.6h1.5v3.1c0.1-0.1,0.3-0.2,0.4-0.3c0.1-0.1,0.2-0.2,0.4-0.3c0.1-0.1,0.3-0.1,0.4-0.2
			c0.2,0,0.3-0.1,0.6-0.1c0.4,0,0.7,0.1,0.9,0.4c0.2,0.3,0.3,0.6,0.3,1.1v5.8h-1.5v-5.5c0-0.2,0-0.3-0.1-0.4s-0.2-0.1-0.4-0.1
			s-0.3,0-0.5,0.1s-0.3,0.2-0.5,0.3v5.6H636.2z"/>
		<path fill="#231F20" d="M642.1,144.1v-1.3h1.5v1.3H642.1z M642.1,152.3v-7.1h1.5v7.1H642.1z"/>
		<path fill="#231F20" d="M644.9,147.7c0-0.4,0-0.7,0.1-1.1c0.1-0.3,0.2-0.6,0.4-0.8c0.2-0.2,0.4-0.4,0.7-0.5
			c0.3-0.1,0.6-0.2,1.1-0.2s0.8,0.1,1.1,0.2c0.3,0.1,0.5,0.3,0.7,0.5c0.2,0.2,0.3,0.5,0.4,0.8c0.1,0.3,0.1,0.7,0.1,1.1v2.1
			c0,0.4,0,0.7-0.1,1.1c-0.1,0.3-0.2,0.6-0.4,0.8c-0.2,0.2-0.4,0.4-0.7,0.5s-0.6,0.2-1.1,0.2s-0.8-0.1-1.1-0.2
			c-0.3-0.1-0.5-0.3-0.7-0.5c-0.2-0.2-0.3-0.5-0.4-0.8c-0.1-0.3-0.1-0.7-0.1-1.1V147.7z M648,147.5c0-0.4-0.1-0.7-0.2-0.9
			c-0.1-0.2-0.3-0.3-0.6-0.3s-0.5,0.1-0.6,0.3c-0.1,0.2-0.2,0.5-0.2,0.9v2.6c0,0.4,0.1,0.7,0.2,0.9s0.3,0.3,0.6,0.3s0.5-0.1,0.6-0.3
			c0.1-0.2,0.2-0.5,0.2-0.9V147.5z"/>
		<path fill="#231F20" d="M650.9,152.3v-7.1h1.4v0.7c0.2-0.1,0.3-0.3,0.4-0.4c0.1-0.1,0.3-0.2,0.4-0.3s0.3-0.1,0.4-0.2
			c0.2,0,0.3-0.1,0.6-0.1c0.4,0,0.7,0.1,0.9,0.4c0.2,0.3,0.3,0.6,0.3,1.1v5.8h-1.5v-5.5c0-0.2,0-0.3-0.1-0.4s-0.2-0.1-0.4-0.1
			s-0.3,0-0.5,0.1s-0.3,0.2-0.5,0.3v5.6H650.9z"/>
		<path fill="#231F20" d="M656.7,144.1v-1.3h1.5v1.3H656.7z M656.7,152.3v-7.1h1.5v7.1H656.7z"/>
		<path fill="#231F20" d="M659.7,152.3v-7.1h1.4v0.7c0.2-0.1,0.3-0.3,0.4-0.4c0.1-0.1,0.3-0.2,0.4-0.3s0.3-0.1,0.4-0.2
			c0.2,0,0.3-0.1,0.6-0.1c0.4,0,0.7,0.1,0.9,0.4c0.2,0.3,0.3,0.6,0.3,1.1v5.8h-1.5v-5.5c0-0.2,0-0.3-0.1-0.4s-0.2-0.1-0.4-0.1
			s-0.3,0-0.5,0.1s-0.3,0.2-0.5,0.3v5.6H659.7z"/>
		<path fill="#231F20" d="M670.5,146.3c0,0-0.1,0-0.1,0c0,0-0.1,0-0.1,0c-0.1,0-0.3,0-0.4,0c-0.1,0-0.2,0.1-0.3,0.2
			c0.1,0.2,0.1,0.4,0.1,0.6c0,0.2,0,0.4,0,0.5c0,0.5,0,1-0.1,1.4c-0.1,0.4-0.2,0.7-0.4,0.9s-0.4,0.4-0.7,0.5s-0.6,0.1-1,0.1h-0.5
			c-0.1,0-0.1,0.1-0.2,0.1c-0.1,0.1-0.1,0.1-0.1,0.2c0,0.2,0.1,0.3,0.3,0.3c0.2,0,0.4,0.1,0.7,0.1c0.3,0,0.6,0,0.9,0
			c0.3,0,0.6,0.1,0.9,0.2c0.3,0.1,0.5,0.3,0.7,0.5c0.2,0.2,0.3,0.5,0.3,1c0,0.6-0.3,1-0.8,1.3c-0.5,0.3-1.3,0.4-2.2,0.4
			c-0.8,0-1.3-0.1-1.7-0.3c-0.4-0.2-0.6-0.5-0.6-0.8c0-0.3,0.1-0.5,0.3-0.7c0.2-0.2,0.4-0.3,0.7-0.4v0c-0.2-0.1-0.4-0.2-0.5-0.3
			s-0.2-0.3-0.2-0.6c0-0.1,0-0.2,0.1-0.4c0.1-0.1,0.1-0.2,0.2-0.3c0.1-0.1,0.2-0.2,0.3-0.3c0.1-0.1,0.2-0.2,0.3-0.2
			c-0.2-0.1-0.3-0.3-0.5-0.4s-0.2-0.3-0.3-0.5c-0.1-0.2-0.1-0.4-0.2-0.7c0-0.3,0-0.6,0-1c0-0.5,0-0.9,0.1-1.2
			c0.1-0.3,0.2-0.6,0.4-0.8c0.2-0.2,0.4-0.4,0.7-0.4c0.3-0.1,0.6-0.1,1.1-0.1c0.3,0,0.6,0.1,0.9,0.2s0.5,0.3,0.8,0.6
			c0.1-0.1,0.2-0.3,0.3-0.4c0.1-0.1,0.2-0.2,0.3-0.2c0.1-0.1,0.2-0.1,0.3-0.1c0.1,0,0.2,0,0.4,0V146.3z M667.9,153.5
			c0.5,0,0.8,0,1-0.1c0.2-0.1,0.3-0.2,0.3-0.4c0-0.2-0.1-0.3-0.3-0.4c-0.2-0.1-0.5-0.1-1-0.1c-0.5,0-0.8,0-1,0.1
			c-0.2,0.1-0.3,0.2-0.3,0.4c0,0.2,0.1,0.3,0.3,0.4C667.1,153.5,667.4,153.5,667.9,153.5z M667.4,149.3c0.1,0,0.3,0,0.4-0.1
			c0.1,0,0.2-0.1,0.2-0.2c0.1-0.1,0.1-0.3,0.1-0.5c0-0.2,0-0.4,0-0.7c0-0.3,0-0.5,0-0.7c0-0.2-0.1-0.3-0.1-0.5
			c-0.1-0.1-0.1-0.2-0.2-0.2c-0.1,0-0.2-0.1-0.4-0.1c-0.1,0-0.2,0-0.3,0.1c-0.1,0-0.2,0.1-0.2,0.2c-0.1,0.1-0.1,0.3-0.1,0.5
			c0,0.2,0,0.4,0,0.7c0,0.3,0,0.5,0,0.7c0,0.2,0.1,0.3,0.1,0.5c0.1,0.1,0.1,0.2,0.2,0.2C667.2,149.3,667.3,149.3,667.4,149.3z"/>
		<path fill="#231F20" d="M674.6,146.4h-0.9v-1.2h0.9v-0.9c0-0.6,0.1-1,0.4-1.3c0.3-0.3,0.7-0.4,1.2-0.4h0.7v1.2h-0.4
			c-0.2,0-0.3,0-0.4,0.1c-0.1,0.1-0.1,0.2-0.1,0.4v0.9h0.8v1.2h-0.8v5.9h-1.5V146.4z"/>
		<path fill="#231F20" d="M677.9,147.7c0-0.4,0-0.7,0.1-1.1c0.1-0.3,0.2-0.6,0.4-0.8c0.2-0.2,0.4-0.4,0.7-0.5
			c0.3-0.1,0.6-0.2,1.1-0.2s0.8,0.1,1.1,0.2c0.3,0.1,0.5,0.3,0.7,0.5c0.2,0.2,0.3,0.5,0.4,0.8c0.1,0.3,0.1,0.7,0.1,1.1v2.1
			c0,0.4,0,0.7-0.1,1.1c-0.1,0.3-0.2,0.6-0.4,0.8c-0.2,0.2-0.4,0.4-0.7,0.5s-0.6,0.2-1.1,0.2s-0.8-0.1-1.1-0.2s-0.5-0.3-0.7-0.5
			c-0.2-0.2-0.3-0.5-0.4-0.8c-0.1-0.3-0.1-0.7-0.1-1.1V147.7z M681.1,147.5c0-0.4-0.1-0.7-0.2-0.9c-0.1-0.2-0.3-0.3-0.6-0.3
			s-0.5,0.1-0.6,0.3c-0.1,0.2-0.2,0.5-0.2,0.9v2.6c0,0.4,0.1,0.7,0.2,0.9s0.3,0.3,0.6,0.3s0.5-0.1,0.6-0.3s0.2-0.5,0.2-0.9V147.5z"
			/>
		<path fill="#231F20" d="M683.9,152.3v-7.1h1.4v0.8h0c0.2-0.3,0.4-0.5,0.7-0.7c0.3-0.2,0.6-0.3,1-0.3h0.3v1.5
			c-0.1,0-0.3-0.1-0.4-0.1c-0.1,0-0.3,0-0.5,0c-0.3,0-0.5,0.1-0.7,0.2c-0.2,0.2-0.3,0.4-0.3,0.7v4.9H683.9z"/>
		<path fill="#231F20" d="M691.1,147.3c0-0.7,0.3-1.3,0.7-1.7s1-0.6,1.7-0.6c0.7,0,1.2,0.2,1.6,0.5c0.4,0.3,0.6,0.8,0.6,1.5v4.6
			c0,0.1,0,0.2,0,0.4c0,0.1,0,0.3,0.1,0.4h-1.4c0-0.1,0-0.2,0-0.3s0-0.2,0-0.3c-0.3,0.2-0.6,0.4-0.8,0.5c-0.3,0.1-0.6,0.2-0.9,0.2
			c-0.5,0-0.9-0.2-1.1-0.5c-0.3-0.3-0.4-0.7-0.4-1.1c0-0.4,0.1-0.7,0.2-1c0.1-0.3,0.3-0.6,0.6-0.8c0.3-0.3,0.6-0.5,1-0.7
			c0.4-0.2,0.9-0.4,1.4-0.6v-0.4c0-0.6-0.2-0.9-0.7-0.9c-0.3,0-0.6,0.1-0.7,0.3c-0.1,0.2-0.2,0.4-0.2,0.7H691.1z M694.1,148.7
			c-0.3,0.2-0.6,0.4-0.8,0.5c-0.2,0.2-0.4,0.3-0.5,0.5s-0.2,0.3-0.3,0.4c0,0.1-0.1,0.3-0.1,0.4c0,0.2,0.1,0.4,0.2,0.5
			c0.1,0.1,0.3,0.2,0.5,0.2c0.2,0,0.4-0.1,0.6-0.2s0.3-0.3,0.4-0.5V148.7z"/>
		<path fill="#231F20" d="M704.5,145.2v9.4H703v-2.9c-0.2,0.1-0.3,0.2-0.4,0.3c-0.1,0.1-0.2,0.2-0.3,0.2s-0.2,0.1-0.4,0.1
			c-0.1,0-0.3,0-0.4,0c-0.5,0-0.8-0.2-1.1-0.5s-0.4-0.8-0.4-1.5v-3.4c0-0.7,0.1-1.1,0.4-1.5s0.6-0.5,1.1-0.5c0.4,0,0.7,0.1,0.9,0.2
			c0.2,0.1,0.5,0.4,0.7,0.7h0v-0.7H704.5z M703,146.7c-0.2-0.1-0.3-0.2-0.4-0.3c-0.1-0.1-0.3-0.1-0.4-0.1c-0.2,0-0.4,0.1-0.5,0.2
			c-0.1,0.2-0.2,0.5-0.2,0.9v2.6c0,0.5,0.1,0.8,0.2,0.9c0.1,0.2,0.3,0.2,0.5,0.2c0.1,0,0.3,0,0.4-0.1c0.1-0.1,0.3-0.2,0.4-0.3V146.7
			z"/>
		<path fill="#231F20" d="M710.4,145.2v7.1H709v-0.7c-0.2,0.1-0.3,0.3-0.4,0.4c-0.1,0.1-0.3,0.2-0.4,0.3s-0.3,0.1-0.4,0.2
			s-0.3,0.1-0.6,0.1c-0.4,0-0.7-0.1-0.9-0.4c-0.2-0.3-0.3-0.6-0.3-1.1v-5.8h1.5v5.5c0,0.2,0,0.3,0.1,0.4c0.1,0.1,0.2,0.1,0.4,0.1
			s0.3,0,0.5-0.1c0.1-0.1,0.3-0.2,0.5-0.3v-5.6H710.4z"/>
		<path fill="#231F20" d="M711.8,144.1v-1.3h1.5v1.3H711.8z M711.8,152.3v-7.1h1.5v7.1H711.8z"/>
		<path fill="#231F20" d="M717.8,147.6v-0.2c0-0.4-0.1-0.7-0.2-0.9c-0.1-0.2-0.3-0.3-0.6-0.3s-0.5,0.1-0.6,0.3
			c-0.1,0.2-0.2,0.5-0.2,0.9v2.6c0,0.4,0.1,0.7,0.2,0.9s0.3,0.3,0.6,0.3s0.5-0.1,0.6-0.3s0.2-0.5,0.2-0.9v-0.4h1.5v0.2
			c0,0.4,0,0.7-0.1,1.1c-0.1,0.3-0.2,0.6-0.4,0.8c-0.2,0.2-0.4,0.4-0.7,0.5s-0.6,0.2-1.1,0.2s-0.8-0.1-1.1-0.2s-0.5-0.3-0.7-0.5
			c-0.2-0.2-0.3-0.5-0.4-0.8c-0.1-0.3-0.1-0.7-0.1-1.1v-2.1c0-0.4,0-0.7,0.1-1.1c0.1-0.3,0.2-0.6,0.4-0.8c0.2-0.2,0.4-0.4,0.7-0.5
			c0.3-0.1,0.6-0.2,1.1-0.2c0.4,0,0.8,0.1,1.1,0.2c0.3,0.1,0.5,0.3,0.7,0.5c0.2,0.2,0.3,0.5,0.4,0.8c0.1,0.3,0.1,0.7,0.1,1H717.8z"
			/>
		<path fill="#231F20" d="M723.8,147.5l1.7,4.9H724l-1.2-3.5h0l-0.7,1v2.5h-1.5v-9.6h1.5v4.9h0l1.6-2.5h1.6L723.8,147.5z"/>
		<path fill="#231F20" d="M732.1,147.2c-0.1-0.6-0.4-0.9-0.8-0.9c-0.2,0-0.4,0-0.5,0.1c-0.1,0.1-0.2,0.2-0.2,0.4s0.1,0.4,0.2,0.5
			c0.1,0.2,0.3,0.3,0.5,0.5c0.2,0.2,0.4,0.3,0.7,0.5c0.2,0.2,0.5,0.4,0.7,0.6c0.2,0.2,0.4,0.4,0.5,0.7c0.1,0.3,0.2,0.6,0.2,0.9
			c0,0.3-0.1,0.6-0.2,0.8c-0.1,0.2-0.2,0.4-0.4,0.6c-0.2,0.2-0.4,0.3-0.7,0.4s-0.5,0.1-0.8,0.1c-0.7,0-1.2-0.2-1.5-0.5
			c-0.4-0.3-0.6-0.8-0.7-1.5l1.3-0.4c0,0.3,0.1,0.6,0.3,0.8c0.1,0.2,0.4,0.3,0.7,0.3c0.2,0,0.4-0.1,0.5-0.2c0.1-0.1,0.2-0.3,0.2-0.5
			s-0.1-0.4-0.2-0.6c-0.1-0.2-0.3-0.3-0.5-0.5c-0.2-0.2-0.4-0.3-0.7-0.5s-0.5-0.4-0.7-0.6c-0.2-0.2-0.4-0.4-0.5-0.7
			c-0.1-0.2-0.2-0.5-0.2-0.9c0-0.3,0.1-0.5,0.2-0.8c0.1-0.2,0.2-0.4,0.4-0.6c0.2-0.2,0.4-0.3,0.6-0.4c0.2-0.1,0.5-0.1,0.8-0.1
			c0.6,0,1.1,0.2,1.4,0.5c0.4,0.4,0.6,0.8,0.7,1.4L732.1,147.2z"/>
		<path fill="#231F20" d="M734,146.4v-1.2h0.8v-1.9h1.5v1.9h1v1.2h-1v4.1c0,0.4,0.2,0.6,0.5,0.6h0.5v1.3c-0.1,0-0.2,0-0.3,0.1
			c-0.1,0-0.3,0-0.4,0c-0.6,0-1-0.1-1.3-0.4c-0.3-0.3-0.4-0.7-0.4-1.2v-4.4H734z"/>
		<path fill="#231F20" d="M738.2,152.3v-7.1h1.4v0.8h0c0.2-0.3,0.4-0.5,0.7-0.7c0.3-0.2,0.6-0.3,1-0.3h0.3v1.5
			c-0.1,0-0.3-0.1-0.4-0.1c-0.1,0-0.3,0-0.5,0c-0.3,0-0.5,0.1-0.7,0.2c-0.2,0.2-0.3,0.4-0.3,0.7v4.9H738.2z"/>
		<path fill="#231F20" d="M742.7,144.1v-1.3h1.5v1.3H742.7z M742.7,152.3v-7.1h1.5v7.1H742.7z"/>
		<path fill="#231F20" d="M748.6,152.3v-0.7h0c-0.2,0.3-0.5,0.5-0.7,0.7c-0.2,0.1-0.5,0.2-0.9,0.2c-0.5,0-0.8-0.2-1.1-0.5
			s-0.4-0.8-0.4-1.5v-3.4c0-0.7,0.1-1.1,0.4-1.5s0.6-0.5,1.1-0.5c0.2,0,0.3,0,0.4,0c0.1,0,0.2,0.1,0.4,0.1s0.2,0.1,0.3,0.2
			c0.1,0.1,0.2,0.2,0.4,0.3v-3h1.5v9.6H748.6z M748.6,146.7c-0.2-0.1-0.3-0.2-0.4-0.3c-0.1-0.1-0.3-0.1-0.4-0.1
			c-0.2,0-0.4,0.1-0.5,0.2c-0.1,0.2-0.2,0.5-0.2,0.9v2.6c0,0.5,0.1,0.8,0.2,0.9c0.1,0.2,0.3,0.2,0.5,0.2c0.1,0,0.3,0,0.4-0.1
			c0.1-0.1,0.3-0.2,0.4-0.3V146.7z"/>
		<path fill="#231F20" d="M756,149h-3.1v1c0,0.4,0.1,0.7,0.2,0.9s0.3,0.3,0.6,0.3s0.5-0.1,0.6-0.3s0.2-0.5,0.2-0.9v-0.2h1.5
			c0,0.4-0.1,0.7-0.1,1c-0.1,0.3-0.2,0.6-0.4,0.8c-0.2,0.2-0.4,0.4-0.7,0.5c-0.3,0.1-0.6,0.2-1.1,0.2c-0.4,0-0.8-0.1-1.1-0.2
			s-0.5-0.3-0.7-0.5c-0.2-0.2-0.3-0.5-0.4-0.8c-0.1-0.3-0.1-0.7-0.1-1.1v-2.1c0-0.4,0-0.7,0.1-1.1c0.1-0.3,0.2-0.6,0.4-0.8
			c0.2-0.2,0.4-0.4,0.7-0.5c0.3-0.1,0.6-0.2,1.1-0.2s0.8,0.1,1.1,0.2c0.3,0.1,0.5,0.3,0.7,0.5c0.2,0.2,0.3,0.5,0.4,0.8
			c0.1,0.3,0.1,0.7,0.1,1.1V149z M754.5,147.8v-0.4c0-0.4-0.1-0.7-0.2-0.9c-0.1-0.2-0.3-0.3-0.6-0.3s-0.5,0.1-0.6,0.3
			c-0.1,0.2-0.2,0.5-0.2,0.9v0.4H754.5z"/>
		<path fill="#231F20" d="M757.3,152.3v-1.6h1.6v1.6H757.3z"/>
	</g>
</g>
</svg>
