<?xml version="1.0" encoding="utf-8"?>
<!-- Generator: Adobe Illustrator 19.1.0, SVG Export Plug-In . SVG Version: 6.00 Build 0)  -->
<svg version="1.1" id="Layer_1" xmlns="http://www.w3.org/2000/svg" xmlns:xlink="http://www.w3.org/1999/xlink" x="0px" y="0px"
	 viewBox="-399 176 800 350" style="enable-background:new -399 176 800 350;" xml:space="preserve">
<style type="text/css">
	.st0{enable-background:new    ;}
	.st1{fill:#FFFFFF;}
	.st2{fill:none;stroke:#FFFFFF;stroke-miterlimit:10;}
</style>
<g id="outsole">
	<g>
		<g class="st0">
			<path class="st1" d="M220.8,298.5l0-8.7l1.4,0l1.8,5h0l0-5l1.3,0l0,8.7l-1.3,0l-1.9-5.4h0l0,5.4L220.8,298.5z"/>
			<path class="st1" d="M227,298.5l0-8.7l1.5,0l0,8.7L227,298.5z"/>
			<path class="st1" d="M230.1,298.5l0-8.7h1.5l0,3.2h0l1.6-3.2h1.5l-1.6,3.2l1.8,5.4h-1.5l-1.2-4h0l-0.5,1l0,3.1H230.1z"/>
			<path class="st1" d="M235.5,298.5l0-8.7l4,0l0,1.3l-2.5,0l0,2.2l1.9,0l0,1.3l-1.9,0l0,2.5l2.7,0v1.3L235.5,298.5z"/>
			<path class="st1" d="M243.6,291.1l0-1.3l3.9,0l0,1.4l-2.7,6h2.7v1.3l-4.3,0v-1.4l2.8-6L243.6,291.1z"/>
			<path class="st1" d="M248.8,291.9c0-0.3,0-0.6,0.1-0.9c0.1-0.3,0.2-0.5,0.4-0.7c0.2-0.2,0.4-0.4,0.7-0.5c0.3-0.1,0.6-0.2,1-0.2
				c0.4,0,0.7,0.1,1,0.2c0.3,0.1,0.5,0.3,0.7,0.5s0.3,0.4,0.4,0.7c0.1,0.3,0.1,0.6,0.1,0.9l0,4.5c0,0.3,0,0.6-0.1,0.9
				c-0.1,0.3-0.2,0.5-0.4,0.7c-0.2,0.2-0.4,0.4-0.7,0.5c-0.3,0.1-0.6,0.2-1,0.2c-0.4,0-0.7-0.1-1-0.2c-0.3-0.1-0.5-0.3-0.7-0.5
				c-0.2-0.2-0.3-0.4-0.4-0.7c-0.1-0.3-0.1-0.6-0.1-0.9L248.8,291.9z M250.3,296.4c0,0.3,0.1,0.6,0.2,0.7c0.1,0.2,0.3,0.2,0.6,0.2
				c0.3,0,0.5-0.1,0.6-0.2c0.1-0.2,0.2-0.4,0.2-0.7l0-4.4c0-0.3-0.1-0.6-0.2-0.7c-0.1-0.2-0.3-0.2-0.6-0.2c-0.3,0-0.5,0.1-0.6,0.2
				c-0.1,0.2-0.2,0.4-0.2,0.7L250.3,296.4z"/>
			<path class="st1" d="M254.8,291.9c0-0.3,0-0.6,0.1-0.9c0.1-0.3,0.2-0.5,0.4-0.7c0.2-0.2,0.4-0.4,0.7-0.5c0.3-0.1,0.6-0.2,1-0.2
				s0.7,0.1,1,0.2c0.3,0.1,0.5,0.3,0.7,0.5s0.3,0.4,0.4,0.7c0.1,0.3,0.1,0.6,0.1,0.9l0,4.5c0,0.3,0,0.6-0.1,0.9
				c-0.1,0.3-0.2,0.5-0.4,0.7c-0.2,0.2-0.4,0.4-0.7,0.5c-0.3,0.1-0.6,0.2-1,0.2s-0.7-0.1-1-0.2c-0.3-0.1-0.5-0.3-0.7-0.5
				c-0.2-0.2-0.3-0.4-0.4-0.7c-0.1-0.3-0.1-0.6-0.1-0.9L254.8,291.9z M256.3,296.4c0,0.3,0.1,0.6,0.2,0.7c0.1,0.2,0.3,0.2,0.6,0.2
				c0.3,0,0.5-0.1,0.6-0.2c0.1-0.2,0.2-0.4,0.2-0.7l0-4.4c0-0.3-0.1-0.6-0.2-0.7c-0.1-0.2-0.3-0.2-0.6-0.2c-0.3,0-0.5,0.1-0.6,0.2
				c-0.1,0.2-0.2,0.4-0.2,0.7L256.3,296.4z"/>
			<path class="st1" d="M266.8,289.8l0,8.7h-1.3l0-6.8h0l-1.3,6.8h-0.7l-1.3-6.8h0l0,6.8l-1.3,0l0-8.7l2,0l1.1,5.1h0l1.1-5.1H266.8z
				"/>
		</g>
		<g class="st0">
			<path class="st1" d="M221.1,304.3l1.9,0c0.5,0,0.9,0.1,1.3,0.2s0.7,0.4,1,0.7c0.3,0.3,0.5,0.7,0.7,1.1c0.2,0.5,0.2,1,0.2,1.6
				c0,0.5-0.1,1-0.2,1.5c-0.1,0.4-0.4,0.8-0.6,1.1c-0.3,0.3-0.6,0.6-1,0.7c-0.4,0.2-0.9,0.3-1.4,0.3l-1.9,0L221.1,304.3z
				 M221.9,310.9h1.1c0.8,0,1.5-0.2,1.9-0.7c0.4-0.5,0.6-1.2,0.6-2.2c0-0.5-0.1-1-0.2-1.3c-0.1-0.4-0.3-0.7-0.5-0.9
				c-0.2-0.2-0.5-0.4-0.8-0.5c-0.3-0.1-0.6-0.2-1-0.2h-1.1L221.9,310.9z"/>
			<path class="st1" d="M231.4,310.4c-0.1,0.1-0.2,0.3-0.3,0.4c-0.1,0.1-0.2,0.3-0.4,0.4c-0.2,0.1-0.3,0.2-0.6,0.3s-0.5,0.1-0.8,0.1
				c-0.3,0-0.6-0.1-0.8-0.2c-0.3-0.1-0.5-0.3-0.7-0.5c-0.2-0.2-0.4-0.5-0.5-0.8c-0.1-0.3-0.2-0.7-0.2-1.2c0-0.4,0.1-0.8,0.2-1.1
				c0.1-0.3,0.2-0.6,0.4-0.8s0.4-0.4,0.7-0.5c0.3-0.1,0.6-0.2,0.9-0.2c0.3,0,0.5,0,0.8,0.1c0.2,0.1,0.5,0.2,0.6,0.4
				c0.2,0.2,0.3,0.4,0.4,0.7c0.1,0.3,0.2,0.7,0.2,1.1v0.5l-3.4,0c0,0.3,0,0.5,0.1,0.8c0.1,0.2,0.2,0.4,0.3,0.6
				c0.1,0.2,0.3,0.3,0.5,0.4c0.2,0.1,0.4,0.1,0.6,0.1c0.3,0,0.6-0.1,0.8-0.2s0.4-0.4,0.6-0.6L231.4,310.4z M230.5,308.5
				c0-0.5-0.1-0.9-0.3-1.2c-0.2-0.3-0.5-0.4-0.9-0.4c-0.4,0-0.8,0.1-1,0.4c-0.2,0.3-0.4,0.7-0.4,1.2L230.5,308.5z"/>
			<path class="st1" d="M233.5,304.3l0,7.2h-0.7l0-7.2H233.5z"/>
			<path class="st1" d="M235.6,306.3h0.7l0,5.2h-0.7L235.6,306.3z M236.3,304.2l0,0.9h-0.7l0-0.9H236.3z"/>
			<path class="st1" d="M240,311.5h-1l-1.6-5.2l0.7,0l1.3,4.3h0l1.3-4.3l0.7,0L240,311.5z"/>
			<path class="st1" d="M246.4,310.4c-0.1,0.1-0.2,0.3-0.3,0.4c-0.1,0.1-0.2,0.3-0.4,0.4c-0.2,0.1-0.3,0.2-0.6,0.3s-0.5,0.1-0.8,0.1
				c-0.3,0-0.6-0.1-0.8-0.2c-0.3-0.1-0.5-0.3-0.7-0.5c-0.2-0.2-0.4-0.5-0.5-0.8c-0.1-0.3-0.2-0.7-0.2-1.2c0-0.4,0.1-0.8,0.2-1.1
				c0.1-0.3,0.2-0.6,0.4-0.8s0.4-0.4,0.7-0.5c0.3-0.1,0.6-0.2,0.9-0.2c0.3,0,0.5,0,0.8,0.1c0.2,0.1,0.5,0.2,0.6,0.4
				c0.2,0.2,0.3,0.4,0.4,0.7c0.1,0.3,0.2,0.7,0.2,1.1v0.5l-3.4,0c0,0.3,0,0.5,0.1,0.8c0.1,0.2,0.2,0.4,0.3,0.6
				c0.1,0.2,0.3,0.3,0.5,0.4c0.2,0.1,0.4,0.1,0.6,0.1c0.3,0,0.6-0.1,0.8-0.2s0.4-0.4,0.6-0.6L246.4,310.4z M245.5,308.5
				c0-0.5-0.1-0.9-0.3-1.2c-0.2-0.3-0.5-0.4-0.9-0.4c-0.4,0-0.8,0.1-1,0.4c-0.2,0.3-0.4,0.7-0.4,1.2L245.5,308.5z"/>
			<path class="st1" d="M247.5,306.3l0.7,0l0,1h0c0.1-0.2,0.2-0.3,0.3-0.5c0.1-0.1,0.2-0.3,0.4-0.3c0.1-0.1,0.3-0.2,0.5-0.2
				c0.2,0,0.4-0.1,0.6-0.1l0,0.7c-0.5,0-0.8,0.2-1.1,0.4s-0.5,0.7-0.6,1.2l0,2.9l-0.7,0L247.5,306.3z"/>
			<path class="st1" d="M250.9,310.2c0.2,0.2,0.4,0.4,0.6,0.6s0.5,0.2,0.9,0.2c0.4,0,0.7-0.1,0.9-0.3c0.2-0.2,0.3-0.4,0.3-0.6
				c0-0.2-0.1-0.4-0.2-0.5c-0.2-0.1-0.3-0.2-0.6-0.3c-0.2-0.1-0.5-0.2-0.7-0.2c-0.3-0.1-0.5-0.2-0.7-0.3c-0.2-0.1-0.4-0.3-0.6-0.4
				c-0.1-0.2-0.2-0.4-0.2-0.8c0-0.5,0.2-0.8,0.5-1c0.3-0.2,0.7-0.4,1.2-0.4c0.2,0,0.3,0,0.5,0.1c0.2,0,0.3,0.1,0.5,0.2
				c0.2,0.1,0.3,0.2,0.4,0.3c0.1,0.1,0.2,0.2,0.3,0.4l-0.5,0.4c-0.2-0.2-0.4-0.4-0.6-0.5s-0.5-0.2-0.7-0.2c-0.3,0-0.5,0.1-0.7,0.2
				c-0.2,0.1-0.2,0.3-0.2,0.6c0,0.2,0.1,0.3,0.2,0.4c0.1,0.1,0.3,0.2,0.6,0.3c0.2,0.1,0.5,0.2,0.7,0.2c0.3,0.1,0.5,0.2,0.7,0.3
				c0.2,0.1,0.4,0.3,0.6,0.5c0.1,0.2,0.2,0.5,0.2,0.8c0,0.3-0.1,0.5-0.1,0.7c-0.1,0.2-0.2,0.3-0.4,0.5c-0.2,0.1-0.4,0.2-0.6,0.3
				s-0.4,0.1-0.7,0.1c-0.4,0-0.8-0.1-1.2-0.3c-0.4-0.2-0.7-0.4-0.9-0.7L250.9,310.2z"/>
			<path class="st1" d="M261.5,311.5v-0.7h0c-0.2,0.2-0.4,0.4-0.7,0.6c-0.3,0.2-0.5,0.2-0.8,0.2c-0.2,0-0.4,0-0.6-0.1
				c-0.2-0.1-0.3-0.1-0.5-0.3s-0.3-0.3-0.3-0.5c-0.1-0.2-0.1-0.4-0.1-0.7l0-3.8h0.7l0,3.8c0,0.3,0.1,0.6,0.2,0.7
				c0.2,0.1,0.4,0.2,0.6,0.2c0.1,0,0.3,0,0.4-0.1c0.1,0,0.3-0.1,0.4-0.2c0.1-0.1,0.3-0.2,0.4-0.3s0.2-0.2,0.3-0.3l0-3.9h0.7l0,5.2
				H261.5z"/>
			<path class="st1" d="M264.9,304.3l0,7.2l-0.7,0l0-7.2L264.9,304.3z"/>
			<path class="st1" d="M266.9,306.3l0-1.7h0.7l0,1.7l1.2,0l0,0.6l-1.2,0l0,3.7c0,0.1,0,0.2,0.1,0.3c0.1,0.1,0.2,0.1,0.5,0.1
				c0.1,0,0.2,0,0.3,0c0.1,0,0.2,0,0.3,0v0.6c-0.1,0-0.2,0-0.3,0.1c-0.1,0-0.3,0-0.5,0c-0.4,0-0.7-0.1-0.8-0.2s-0.3-0.3-0.3-0.7
				l0-3.8h-0.8l0-0.6H266.9z"/>
			<path class="st1" d="M269.9,306.3h0.7l0,1h0c0.1-0.2,0.2-0.3,0.3-0.5c0.1-0.1,0.2-0.3,0.4-0.3c0.1-0.1,0.3-0.2,0.5-0.2
				c0.2,0,0.4-0.1,0.6-0.1l0,0.7c-0.5,0-0.8,0.2-1.1,0.4c-0.3,0.3-0.5,0.7-0.6,1.2l0,2.9h-0.7L269.9,306.3z"/>
			<path class="st1" d="M273.1,307.4c0.2-0.3,0.4-0.6,0.7-0.8s0.7-0.3,1.2-0.3c0.2,0,0.4,0,0.6,0.1s0.4,0.1,0.6,0.3
				c0.2,0.1,0.3,0.3,0.4,0.5c0.1,0.2,0.2,0.4,0.2,0.7l0,2.6c0,0.3,0,0.5,0,0.7c0,0.2,0.1,0.3,0.1,0.4h-0.7l-0.1-0.7
				c-0.2,0.2-0.4,0.4-0.7,0.6c-0.3,0.2-0.6,0.3-1,0.3c-0.2,0-0.4,0-0.6-0.1c-0.2-0.1-0.3-0.1-0.5-0.3s-0.2-0.3-0.3-0.4
				s-0.1-0.4-0.1-0.6c0-0.3,0.1-0.5,0.2-0.8s0.3-0.4,0.6-0.6c0.3-0.2,0.6-0.3,1-0.4c0.4-0.1,0.9-0.2,1.5-0.3v-0.3
				c0-0.3-0.1-0.6-0.3-0.7c-0.2-0.1-0.5-0.2-0.8-0.2c-0.2,0-0.4,0-0.5,0.1c-0.1,0.1-0.3,0.1-0.4,0.2c-0.1,0.1-0.2,0.2-0.3,0.3
				s-0.1,0.2-0.2,0.3L273.1,307.4z M276.2,308.7c-1.6,0.3-2.5,0.8-2.5,1.5c0,0.1,0,0.2,0.1,0.3c0.1,0.1,0.1,0.2,0.2,0.3
				c0.1,0.1,0.2,0.1,0.3,0.2c0.1,0,0.2,0.1,0.3,0.1c0.1,0,0.3,0,0.4-0.1c0.1,0,0.3-0.1,0.4-0.2c0.1-0.1,0.3-0.2,0.4-0.3
				s0.2-0.2,0.4-0.3L276.2,308.7z"/>
			<path class="st1" d="M278,309.3v-0.6h2.5v0.6H278z"/>
			<path class="st1" d="M281.6,306.4h0.7l0,1h0c0.1-0.2,0.2-0.3,0.3-0.5c0.1-0.1,0.2-0.3,0.4-0.3c0.1-0.1,0.3-0.2,0.5-0.2
				c0.2,0,0.4-0.1,0.6-0.1l0,0.7c-0.5,0-0.8,0.2-1.1,0.4s-0.5,0.7-0.6,1.2l0,2.9h-0.7L281.6,306.4z"/>
			<path class="st1" d="M288.9,310.4c-0.1,0.1-0.2,0.3-0.3,0.4c-0.1,0.1-0.2,0.3-0.4,0.4c-0.2,0.1-0.3,0.2-0.6,0.3
				c-0.2,0.1-0.5,0.1-0.8,0.1c-0.3,0-0.6-0.1-0.8-0.2c-0.3-0.1-0.5-0.3-0.7-0.5c-0.2-0.2-0.4-0.5-0.5-0.8c-0.1-0.3-0.2-0.7-0.2-1.2
				c0-0.4,0.1-0.8,0.2-1.1c0.1-0.3,0.2-0.6,0.4-0.8s0.4-0.4,0.7-0.5c0.3-0.1,0.6-0.2,0.9-0.2c0.3,0,0.5,0,0.8,0.1
				c0.2,0.1,0.5,0.2,0.6,0.4c0.2,0.2,0.3,0.4,0.4,0.7c0.1,0.3,0.2,0.7,0.2,1.1v0.5l-3.4,0c0,0.3,0,0.5,0.1,0.8
				c0.1,0.2,0.2,0.4,0.3,0.6c0.1,0.2,0.3,0.3,0.5,0.4c0.2,0.1,0.4,0.1,0.6,0.1c0.3,0,0.6-0.1,0.8-0.2c0.2-0.2,0.4-0.4,0.6-0.6
				L288.9,310.4z M288,308.5c0-0.5-0.1-0.9-0.3-1.2c-0.2-0.3-0.5-0.4-0.9-0.4c-0.4,0-0.8,0.1-1,0.4c-0.2,0.3-0.4,0.7-0.4,1.2
				L288,308.5z"/>
			<path class="st1" d="M290,310.2c0.2,0.2,0.4,0.4,0.6,0.6c0.2,0.1,0.5,0.2,0.9,0.2c0.4,0,0.7-0.1,0.9-0.3c0.2-0.2,0.3-0.4,0.3-0.6
				c0-0.2-0.1-0.4-0.2-0.5c-0.2-0.1-0.3-0.2-0.6-0.3c-0.2-0.1-0.5-0.2-0.7-0.2c-0.3-0.1-0.5-0.2-0.7-0.3c-0.2-0.1-0.4-0.3-0.6-0.4
				c-0.1-0.2-0.2-0.4-0.2-0.8c0-0.5,0.2-0.8,0.5-1c0.3-0.2,0.7-0.4,1.2-0.4c0.2,0,0.3,0,0.5,0.1c0.2,0,0.3,0.1,0.5,0.2
				c0.2,0.1,0.3,0.2,0.4,0.3c0.1,0.1,0.2,0.2,0.3,0.4l-0.5,0.4c-0.2-0.2-0.4-0.4-0.6-0.5s-0.5-0.2-0.7-0.2c-0.3,0-0.5,0.1-0.7,0.2
				c-0.2,0.1-0.2,0.3-0.2,0.6c0,0.2,0.1,0.3,0.2,0.4c0.1,0.1,0.3,0.2,0.6,0.3c0.2,0.1,0.5,0.2,0.7,0.2c0.3,0.1,0.5,0.2,0.7,0.3
				c0.2,0.1,0.4,0.3,0.6,0.5c0.1,0.2,0.2,0.5,0.2,0.8c0,0.3-0.1,0.5-0.1,0.7c-0.1,0.2-0.2,0.3-0.4,0.5c-0.2,0.1-0.4,0.2-0.6,0.3
				s-0.4,0.1-0.7,0.1c-0.4,0-0.8-0.1-1.2-0.3c-0.4-0.2-0.7-0.4-0.9-0.7L290,310.2z"/>
			<path class="st1" d="M294.6,313.5l0-7.1h0.7l0,0.6h0c0.1-0.1,0.2-0.2,0.3-0.3c0.1-0.1,0.2-0.2,0.3-0.2s0.2-0.1,0.4-0.2
				c0.1,0,0.3-0.1,0.4-0.1c0.2,0,0.5,0,0.7,0.1c0.3,0.1,0.5,0.2,0.7,0.4c0.2,0.2,0.4,0.5,0.5,0.8c0.1,0.3,0.2,0.8,0.2,1.3
				c0,0.5-0.1,0.9-0.2,1.3c-0.1,0.3-0.3,0.6-0.5,0.8c-0.2,0.2-0.4,0.4-0.7,0.5s-0.5,0.1-0.7,0.1c-0.2,0-0.5-0.1-0.7-0.2
				c-0.2-0.1-0.5-0.2-0.6-0.4l0,0l0,2.4H294.6z M295.3,310.3c0.2,0.2,0.4,0.4,0.6,0.5c0.2,0.1,0.5,0.2,0.7,0.2c0.2,0,0.4,0,0.6-0.1
				c0.2-0.1,0.3-0.2,0.5-0.4c0.1-0.2,0.2-0.4,0.3-0.7c0.1-0.3,0.1-0.6,0.1-1c0-0.7-0.1-1.2-0.4-1.5s-0.6-0.5-1.1-0.5
				c-0.2,0-0.4,0.1-0.6,0.2c-0.2,0.1-0.4,0.3-0.7,0.5L295.3,310.3z"/>
			<path class="st1" d="M303.9,309c0,0.4,0,0.7-0.1,1.1s-0.2,0.6-0.4,0.9c-0.2,0.2-0.4,0.4-0.7,0.6c-0.3,0.1-0.6,0.2-0.9,0.2
				s-0.7-0.1-0.9-0.2s-0.5-0.3-0.7-0.6c-0.2-0.2-0.3-0.5-0.4-0.9c-0.1-0.3-0.1-0.7-0.1-1.1c0-0.4,0-0.7,0.1-1.1
				c0.1-0.3,0.2-0.6,0.4-0.9c0.2-0.2,0.4-0.4,0.7-0.6c0.3-0.1,0.6-0.2,0.9-0.2s0.7,0.1,0.9,0.2c0.3,0.1,0.5,0.3,0.7,0.6
				c0.2,0.2,0.3,0.5,0.4,0.9C303.8,308.2,303.9,308.6,303.9,309z M303.1,309c0-0.7-0.1-1.2-0.4-1.5c-0.3-0.4-0.6-0.5-1-0.5
				c-0.4,0-0.8,0.2-1,0.5c-0.3,0.4-0.4,0.9-0.4,1.5c0,0.7,0.1,1.2,0.4,1.5c0.3,0.4,0.6,0.5,1,0.5c0.4,0,0.8-0.2,1-0.5
				S303.1,309.6,303.1,309z"/>
			<path class="st1" d="M305.8,306.4l0,0.7h0c0.2-0.2,0.4-0.4,0.7-0.6c0.3-0.1,0.5-0.2,0.8-0.2c0.2,0,0.4,0,0.6,0.1
				c0.2,0.1,0.3,0.1,0.5,0.3c0.1,0.1,0.3,0.3,0.3,0.5s0.1,0.4,0.1,0.7l0,3.8h-0.7l0-3.8c0-0.3-0.1-0.6-0.2-0.7
				c-0.2-0.1-0.4-0.2-0.6-0.2c-0.1,0-0.3,0-0.4,0.1c-0.1,0.1-0.3,0.1-0.4,0.2c-0.1,0.1-0.3,0.2-0.4,0.3c-0.1,0.1-0.2,0.2-0.3,0.3
				l0,3.9h-0.7l0-5.2H305.8z"/>
			<path class="st1" d="M310.6,310.2c0.2,0.2,0.4,0.4,0.6,0.6c0.2,0.1,0.5,0.2,0.9,0.2c0.4,0,0.7-0.1,0.9-0.3
				c0.2-0.2,0.3-0.4,0.3-0.6c0-0.2-0.1-0.4-0.2-0.5c-0.2-0.1-0.3-0.2-0.6-0.3c-0.2-0.1-0.5-0.2-0.7-0.2c-0.3-0.1-0.5-0.2-0.7-0.3
				c-0.2-0.1-0.4-0.3-0.6-0.4s-0.2-0.4-0.2-0.8c0-0.5,0.2-0.8,0.5-1c0.3-0.2,0.7-0.4,1.2-0.4c0.2,0,0.3,0,0.5,0.1
				c0.2,0,0.3,0.1,0.5,0.2c0.2,0.1,0.3,0.2,0.4,0.3c0.1,0.1,0.2,0.2,0.3,0.4l-0.5,0.4c-0.2-0.2-0.4-0.4-0.6-0.5s-0.5-0.2-0.7-0.2
				c-0.3,0-0.5,0.1-0.7,0.2c-0.2,0.1-0.2,0.3-0.2,0.6c0,0.2,0.1,0.3,0.2,0.4c0.1,0.1,0.3,0.2,0.6,0.3c0.2,0.1,0.5,0.2,0.7,0.2
				c0.3,0.1,0.5,0.2,0.7,0.3c0.2,0.1,0.4,0.3,0.6,0.5c0.1,0.2,0.2,0.5,0.2,0.8c0,0.3-0.1,0.5-0.1,0.7c-0.1,0.2-0.2,0.3-0.4,0.5
				c-0.2,0.1-0.4,0.2-0.6,0.3s-0.4,0.1-0.7,0.1c-0.4,0-0.8-0.1-1.2-0.3c-0.4-0.2-0.7-0.4-0.9-0.7L310.6,310.2z"/>
			<path class="st1" d="M315.3,306.4h0.7l0,5.2h-0.7L315.3,306.4z M316,304.2l0,0.9h-0.7l0-0.9H316z"/>
			<path class="st1" d="M319.7,311.6h-1l-1.6-5.2h0.7l1.3,4.3h0l1.3-4.3h0.7L319.7,311.6z"/>
			<path class="st1" d="M326.1,310.5c-0.1,0.1-0.2,0.3-0.3,0.4c-0.1,0.1-0.2,0.3-0.4,0.4c-0.2,0.1-0.3,0.2-0.6,0.3s-0.5,0.1-0.8,0.1
				c-0.3,0-0.6-0.1-0.8-0.2c-0.3-0.1-0.5-0.3-0.7-0.5c-0.2-0.2-0.4-0.5-0.5-0.8c-0.1-0.3-0.2-0.7-0.2-1.2c0-0.4,0.1-0.8,0.2-1.1
				c0.1-0.3,0.2-0.6,0.4-0.8s0.4-0.4,0.7-0.5c0.3-0.1,0.6-0.2,0.9-0.2c0.3,0,0.5,0,0.8,0.1c0.2,0.1,0.5,0.2,0.6,0.4
				c0.2,0.2,0.3,0.4,0.4,0.7c0.1,0.3,0.2,0.7,0.2,1.1v0.5l-3.4,0c0,0.3,0,0.5,0.1,0.8c0.1,0.2,0.2,0.4,0.3,0.6
				c0.1,0.2,0.3,0.3,0.5,0.4c0.2,0.1,0.4,0.1,0.6,0.1c0.3,0,0.6-0.1,0.8-0.2s0.4-0.4,0.6-0.6L326.1,310.5z M325.2,308.5
				c0-0.5-0.1-0.9-0.3-1.2c-0.2-0.3-0.5-0.4-0.9-0.4c-0.4,0-0.8,0.1-1,0.4c-0.2,0.3-0.4,0.7-0.4,1.2L325.2,308.5z"/>
		</g>
		<g class="st0">
			<path class="st1" d="M223.8,319.9c-0.1-0.3-0.3-0.6-0.5-0.8c-0.2-0.2-0.5-0.3-0.8-0.3c-0.4,0-0.8,0.2-1,0.5
				c-0.2,0.4-0.4,0.9-0.4,1.5c0,0.7,0.1,1.2,0.4,1.5c0.2,0.4,0.6,0.5,1,0.5c0.2,0,0.3,0,0.4,0c0.1,0,0.3-0.1,0.4-0.2
				s0.2-0.2,0.3-0.3c0.1-0.1,0.2-0.3,0.3-0.5l0.6,0.3c-0.1,0.2-0.3,0.4-0.4,0.6c-0.1,0.2-0.3,0.3-0.4,0.4c-0.2,0.1-0.3,0.2-0.5,0.2
				c-0.2,0.1-0.4,0.1-0.7,0.1c-0.3,0-0.6-0.1-0.9-0.2c-0.3-0.1-0.5-0.3-0.7-0.5c-0.2-0.2-0.3-0.5-0.4-0.8c-0.1-0.3-0.1-0.7-0.1-1.1
				s0.1-0.8,0.2-1.1c0.1-0.3,0.2-0.6,0.4-0.8c0.2-0.2,0.4-0.4,0.7-0.5c0.3-0.1,0.6-0.2,0.9-0.2c0.3,0,0.5,0,0.7,0.1
				c0.2,0.1,0.4,0.2,0.5,0.3c0.1,0.1,0.3,0.3,0.4,0.5c0.1,0.2,0.2,0.4,0.3,0.6L223.8,319.9z"/>
			<path class="st1" d="M229,323.5v-0.7h0c-0.2,0.2-0.4,0.4-0.7,0.6c-0.3,0.1-0.5,0.2-0.8,0.2c-0.2,0-0.4,0-0.6-0.1
				c-0.2-0.1-0.3-0.1-0.5-0.3s-0.3-0.3-0.3-0.5c-0.1-0.2-0.1-0.4-0.1-0.7l0-3.8h0.7l0,3.8c0,0.3,0.1,0.6,0.2,0.7
				c0.2,0.1,0.4,0.2,0.6,0.2c0.1,0,0.3,0,0.4-0.1c0.1,0,0.3-0.1,0.4-0.2c0.1-0.1,0.3-0.2,0.4-0.3c0.1-0.1,0.2-0.2,0.3-0.3l0-3.9h0.7
				l0,5.2H229z"/>
			<path class="st1" d="M231.5,322.2c0.2,0.2,0.4,0.4,0.6,0.6c0.2,0.1,0.5,0.2,0.9,0.2c0.4,0,0.7-0.1,0.9-0.3
				c0.2-0.2,0.3-0.4,0.3-0.6c0-0.2-0.1-0.4-0.2-0.5c-0.2-0.1-0.3-0.2-0.6-0.3c-0.2-0.1-0.5-0.2-0.7-0.2c-0.3-0.1-0.5-0.2-0.7-0.3
				c-0.2-0.1-0.4-0.3-0.6-0.4c-0.1-0.2-0.2-0.4-0.2-0.8c0-0.5,0.2-0.8,0.5-1c0.3-0.2,0.7-0.4,1.2-0.4c0.2,0,0.3,0,0.5,0.1
				c0.2,0,0.3,0.1,0.5,0.2c0.2,0.1,0.3,0.2,0.4,0.3c0.1,0.1,0.2,0.2,0.3,0.4l-0.5,0.4c-0.2-0.2-0.4-0.4-0.6-0.5s-0.5-0.2-0.7-0.2
				c-0.3,0-0.5,0.1-0.7,0.2c-0.2,0.1-0.2,0.3-0.2,0.6c0,0.2,0.1,0.3,0.2,0.4c0.1,0.1,0.3,0.2,0.6,0.3c0.2,0.1,0.5,0.2,0.7,0.2
				c0.3,0.1,0.5,0.2,0.7,0.3c0.2,0.1,0.4,0.3,0.6,0.5c0.1,0.2,0.2,0.5,0.2,0.8c0,0.3-0.1,0.5-0.1,0.7c-0.1,0.2-0.2,0.3-0.4,0.5
				c-0.2,0.1-0.4,0.2-0.6,0.3s-0.4,0.1-0.7,0.1c-0.4,0-0.8-0.1-1.2-0.3c-0.4-0.2-0.7-0.4-0.9-0.7L231.5,322.2z"/>
			<path class="st1" d="M236.7,316.3l0,2.7h0c0.2-0.2,0.4-0.4,0.7-0.6c0.3-0.1,0.5-0.2,0.8-0.2c0.2,0,0.4,0,0.6,0.1
				c0.2,0.1,0.3,0.1,0.5,0.3c0.1,0.1,0.3,0.3,0.3,0.5s0.1,0.4,0.1,0.7l0,3.8H239l0-3.8c0-0.3-0.1-0.6-0.2-0.7
				c-0.2-0.1-0.4-0.2-0.6-0.2c-0.1,0-0.3,0-0.4,0.1c-0.1,0.1-0.3,0.1-0.4,0.2c-0.1,0.1-0.3,0.2-0.4,0.3c-0.1,0.1-0.2,0.2-0.3,0.3
				l0,3.9H236l0-7.2H236.7z"/>
			<path class="st1" d="M241.7,318.3h0.7l0,5.2h-0.7L241.7,318.3z M242.4,316.2l0,0.9h-0.7l0-0.9H242.4z"/>
			<path class="st1" d="M248.1,320.9c0,0.4,0,0.7-0.1,1.1s-0.2,0.6-0.4,0.9c-0.2,0.2-0.4,0.4-0.7,0.6c-0.3,0.1-0.6,0.2-0.9,0.2
				s-0.7-0.1-0.9-0.2s-0.5-0.3-0.7-0.6c-0.2-0.2-0.3-0.5-0.4-0.9c-0.1-0.3-0.1-0.7-0.1-1.1c0-0.4,0-0.7,0.1-1.1
				c0.1-0.3,0.2-0.6,0.4-0.9c0.2-0.2,0.4-0.4,0.7-0.6c0.3-0.1,0.6-0.2,0.9-0.2s0.7,0.1,0.9,0.2c0.3,0.1,0.5,0.3,0.7,0.6
				c0.2,0.2,0.3,0.5,0.4,0.9C248,320.2,248.1,320.6,248.1,320.9z M247.3,320.9c0-0.7-0.1-1.2-0.4-1.5c-0.3-0.4-0.6-0.5-1-0.5
				c-0.4,0-0.8,0.2-1,0.5c-0.3,0.4-0.4,0.9-0.4,1.5c0,0.7,0.1,1.2,0.4,1.5c0.3,0.4,0.6,0.5,1,0.5c0.4,0,0.8-0.2,1-0.5
				S247.3,321.6,247.3,320.9z"/>
			<path class="st1" d="M250,318.3l0,0.7h0c0.2-0.2,0.4-0.4,0.7-0.6c0.3-0.1,0.5-0.2,0.8-0.2c0.2,0,0.4,0,0.6,0.1
				c0.2,0.1,0.3,0.1,0.5,0.3c0.1,0.1,0.3,0.3,0.3,0.5s0.1,0.4,0.1,0.7l0,3.8h-0.7l0-3.8c0-0.3-0.1-0.6-0.2-0.7
				c-0.2-0.1-0.4-0.2-0.6-0.2c-0.1,0-0.3,0-0.4,0.1c-0.1,0.1-0.3,0.1-0.4,0.2c-0.1,0.1-0.3,0.2-0.4,0.3c-0.1,0.1-0.2,0.2-0.3,0.3
				l0,3.9h-0.7l0-5.2H250z"/>
			<path class="st1" d="M255,318.3h0.7l0,5.2H255L255,318.3z M255.7,316.2l0,0.9H255l0-0.9H255.7z"/>
			<path class="st1" d="M258.4,318.3l0,0.7h0c0.2-0.2,0.4-0.4,0.7-0.6c0.3-0.1,0.5-0.2,0.8-0.2c0.2,0,0.4,0,0.6,0.1
				c0.2,0.1,0.3,0.1,0.5,0.3c0.1,0.1,0.3,0.3,0.3,0.5s0.1,0.4,0.1,0.7l0,3.8l-0.7,0l0-3.8c0-0.3-0.1-0.6-0.2-0.7
				c-0.2-0.1-0.4-0.2-0.6-0.2c-0.1,0-0.3,0-0.4,0.1c-0.1,0.1-0.3,0.1-0.4,0.2c-0.1,0.1-0.3,0.2-0.4,0.3c-0.1,0.1-0.2,0.2-0.3,0.3
				l0,3.9l-0.7,0l0-5.2L258.4,318.3z"/>
			<path class="st1" d="M267.1,318.9c-0.2,0-0.3,0-0.4,0c-0.1,0-0.3,0.1-0.4,0.1c0.1,0.1,0.2,0.2,0.2,0.4s0.1,0.4,0.1,0.6
				c0,0.3-0.1,0.5-0.2,0.7c-0.1,0.2-0.2,0.4-0.4,0.6c-0.2,0.2-0.4,0.3-0.6,0.4c-0.2,0.1-0.5,0.1-0.7,0.1c-0.2,0-0.4,0-0.5,0
				c-0.1,0-0.3-0.1-0.4-0.1c-0.3,0.1-0.4,0.2-0.4,0.5c0,0.1,0,0.2,0.1,0.3s0.2,0.1,0.3,0.1c0.6,0,1.1,0,1.5,0.1
				c0.4,0.1,0.8,0.1,1,0.3s0.4,0.3,0.5,0.5c0.1,0.2,0.2,0.4,0.2,0.7c0,0.2,0,0.4-0.1,0.5c-0.1,0.2-0.2,0.3-0.4,0.4s-0.4,0.2-0.7,0.3
				c-0.3,0.1-0.6,0.1-1.1,0.1c-0.7,0-1.3-0.1-1.7-0.3c-0.4-0.2-0.6-0.5-0.6-1c0-0.3,0.1-0.5,0.2-0.6c0.2-0.2,0.4-0.3,0.6-0.4
				c-0.2-0.1-0.4-0.2-0.5-0.3c-0.1-0.1-0.2-0.3-0.2-0.4c0-0.2,0.1-0.4,0.2-0.5c0.1-0.1,0.3-0.2,0.5-0.4c-0.2-0.2-0.4-0.4-0.5-0.6
				c-0.1-0.2-0.2-0.5-0.2-0.8c0-0.3,0.1-0.5,0.1-0.7c0.1-0.2,0.2-0.4,0.4-0.6c0.2-0.2,0.4-0.3,0.6-0.4c0.2-0.1,0.5-0.1,0.8-0.1
				c0.3,0,0.5,0,0.7,0.1c0.2,0.1,0.4,0.2,0.6,0.3c0.2-0.1,0.3-0.2,0.5-0.3c0.2-0.1,0.4-0.1,0.6-0.2L267.1,318.9z M266.5,324.1
				c0-0.3-0.1-0.4-0.4-0.6c-0.3-0.1-0.7-0.2-1.4-0.2c-0.3,0-0.5,0-0.7,0.1s-0.3,0.1-0.4,0.2c-0.1,0.1-0.2,0.2-0.2,0.3
				c0,0.1-0.1,0.2-0.1,0.3c0,0.1,0,0.2,0.1,0.3s0.1,0.1,0.2,0.2c0.1,0.1,0.3,0.1,0.5,0.1c0.2,0,0.5,0,0.9,0c0.2,0,0.4,0,0.6,0
				s0.4-0.1,0.5-0.1c0.1-0.1,0.3-0.1,0.3-0.2S266.5,324.2,266.5,324.1z M266,320.1c0-0.4-0.1-0.7-0.3-0.9c-0.2-0.2-0.6-0.3-1-0.3
				c-0.4,0-0.7,0.1-0.9,0.3c-0.2,0.2-0.3,0.5-0.3,0.9c0,0.3,0.1,0.6,0.4,0.9c0.2,0.2,0.6,0.3,1,0.3c0.2,0,0.4,0,0.5-0.1
				s0.3-0.1,0.4-0.3c0.1-0.1,0.2-0.2,0.2-0.4C266,320.4,266,320.3,266,320.1z"/>
			<path class="st1" d="M271.5,323.6l0-4.6l-0.9,0l0-0.6l0.9,0v-0.6c0-0.3,0-0.6,0.1-0.8c0.1-0.2,0.1-0.4,0.2-0.5
				c0.1-0.1,0.2-0.2,0.4-0.2c0.2,0,0.3-0.1,0.6-0.1c0.1,0,0.2,0,0.3,0c0.1,0,0.2,0,0.3,0v0.6c-0.1,0-0.2,0-0.3,0s-0.2,0-0.3,0
				c-0.2,0-0.4,0-0.5,0.2c-0.1,0.1-0.2,0.3-0.2,0.6v0.8h1.1l0,0.6h-1.1l0,4.6H271.5z"/>
			<path class="st1" d="M278.3,321c0,0.4,0,0.7-0.1,1.1s-0.2,0.6-0.4,0.9c-0.2,0.2-0.4,0.4-0.7,0.6c-0.3,0.1-0.6,0.2-0.9,0.2
				s-0.7-0.1-0.9-0.2c-0.3-0.1-0.5-0.3-0.7-0.6c-0.2-0.2-0.3-0.5-0.4-0.9c-0.1-0.3-0.1-0.7-0.1-1.1c0-0.4,0-0.7,0.1-1.1
				c0.1-0.3,0.2-0.6,0.4-0.9c0.2-0.2,0.4-0.4,0.7-0.6c0.3-0.1,0.6-0.2,0.9-0.2s0.7,0.1,0.9,0.2c0.3,0.1,0.5,0.3,0.7,0.6
				c0.2,0.2,0.3,0.5,0.4,0.9C278.3,320.2,278.3,320.6,278.3,321z M277.6,321c0-0.7-0.1-1.2-0.4-1.5c-0.3-0.4-0.6-0.5-1-0.5
				c-0.4,0-0.8,0.2-1,0.5c-0.3,0.4-0.4,0.9-0.4,1.5c0,0.7,0.1,1.2,0.4,1.5c0.3,0.4,0.6,0.5,1,0.5c0.4,0,0.8-0.2,1-0.5
				S277.6,321.6,277.6,321z"/>
			<path class="st1" d="M279.4,318.4h0.7l0,1h0c0.1-0.2,0.2-0.3,0.3-0.5c0.1-0.1,0.2-0.3,0.4-0.3c0.1-0.1,0.3-0.2,0.5-0.2
				c0.2,0,0.4-0.1,0.6-0.1l0,0.7c-0.5,0-0.8,0.2-1.1,0.4c-0.3,0.3-0.5,0.7-0.6,1.2l0,2.9h-0.7L279.4,318.4z"/>
			<path class="st1" d="M285.7,319.4c0.2-0.3,0.4-0.6,0.7-0.8s0.7-0.3,1.2-0.3c0.2,0,0.4,0,0.6,0.1s0.4,0.1,0.6,0.3
				c0.2,0.1,0.3,0.3,0.4,0.5c0.1,0.2,0.2,0.4,0.2,0.7l0,2.6c0,0.3,0,0.5,0,0.7c0,0.2,0.1,0.3,0.1,0.4h-0.7l-0.1-0.7
				c-0.2,0.2-0.4,0.4-0.7,0.6c-0.3,0.2-0.6,0.3-1,0.3c-0.2,0-0.4,0-0.6-0.1c-0.2-0.1-0.3-0.1-0.5-0.3s-0.2-0.3-0.3-0.4
				s-0.1-0.4-0.1-0.6c0-0.3,0.1-0.5,0.2-0.8s0.3-0.4,0.6-0.6c0.3-0.2,0.6-0.3,1-0.4c0.4-0.1,0.9-0.2,1.5-0.3v-0.3
				c0-0.3-0.1-0.6-0.3-0.7c-0.2-0.1-0.5-0.2-0.8-0.2c-0.2,0-0.4,0-0.5,0.1c-0.1,0.1-0.3,0.1-0.4,0.2c-0.1,0.1-0.2,0.2-0.3,0.3
				s-0.1,0.2-0.2,0.3L285.7,319.4z M288.7,320.7c-1.6,0.3-2.5,0.8-2.5,1.5c0,0.1,0,0.2,0.1,0.3c0.1,0.1,0.1,0.2,0.2,0.3
				c0.1,0.1,0.2,0.1,0.3,0.2c0.1,0,0.2,0.1,0.3,0.1c0.1,0,0.3,0,0.4-0.1c0.1,0,0.3-0.1,0.4-0.2c0.1-0.1,0.3-0.2,0.4-0.3
				s0.2-0.2,0.4-0.3L288.7,320.7z"/>
			<path class="st1" d="M297.1,325.5l0-2.4l0,0c-0.2,0.2-0.4,0.3-0.6,0.4c-0.2,0.1-0.5,0.2-0.7,0.2c-0.2,0-0.5,0-0.7-0.1
				c-0.2-0.1-0.5-0.2-0.7-0.5c-0.2-0.2-0.4-0.5-0.5-0.8c-0.1-0.3-0.2-0.8-0.2-1.3c0-0.5,0.1-1,0.2-1.3c0.1-0.3,0.3-0.6,0.5-0.8
				c0.2-0.2,0.4-0.4,0.7-0.4s0.5-0.1,0.7-0.1c0.3,0,0.6,0.1,0.8,0.2s0.4,0.3,0.6,0.5l0.1-0.5l0.6,0l0,7.1L297.1,325.5z M297.1,319.6
				c-0.3-0.3-0.5-0.4-0.7-0.5c-0.2-0.1-0.4-0.2-0.6-0.2c-0.5,0-0.8,0.2-1.1,0.5c-0.3,0.3-0.4,0.9-0.4,1.5c0,0.4,0,0.7,0.1,1
				c0.1,0.3,0.2,0.5,0.3,0.7c0.1,0.2,0.3,0.3,0.5,0.4s0.4,0.1,0.6,0.1s0.4-0.1,0.7-0.2c0.2-0.1,0.4-0.3,0.6-0.5L297.1,319.6z"/>
			<path class="st1" d="M302.6,323.6v-0.7h0c-0.2,0.2-0.4,0.4-0.7,0.6c-0.3,0.2-0.5,0.2-0.8,0.2c-0.2,0-0.4,0-0.6-0.1
				c-0.2-0.1-0.3-0.1-0.5-0.3s-0.3-0.3-0.3-0.5c-0.1-0.2-0.1-0.4-0.1-0.7l0-3.8h0.7l0,3.8c0,0.3,0.1,0.6,0.2,0.7s0.4,0.2,0.6,0.2
				c0.1,0,0.3,0,0.4-0.1c0.1,0,0.3-0.1,0.4-0.2c0.1-0.1,0.3-0.2,0.4-0.3c0.1-0.1,0.2-0.2,0.3-0.3l0-3.9h0.7l0,5.2H302.6z"/>
			<path class="st1" d="M305.3,318.4h0.7l0,5.2h-0.7L305.3,318.4z M306,316.2l0,0.9h-0.7l0-0.9H306z"/>
			<path class="st1" d="M310.8,319.9c-0.1-0.3-0.3-0.6-0.5-0.8c-0.2-0.2-0.5-0.3-0.8-0.3c-0.4,0-0.8,0.2-1,0.5
				c-0.2,0.4-0.4,0.9-0.4,1.5c0,0.7,0.1,1.2,0.4,1.5c0.2,0.4,0.6,0.5,1,0.5c0.2,0,0.3,0,0.4,0c0.1,0,0.3-0.1,0.4-0.2
				s0.2-0.2,0.3-0.3c0.1-0.1,0.2-0.3,0.3-0.5l0.6,0.3c-0.1,0.2-0.3,0.4-0.4,0.6c-0.1,0.2-0.3,0.3-0.4,0.4c-0.2,0.1-0.3,0.2-0.5,0.2
				c-0.2,0.1-0.4,0.1-0.7,0.1c-0.3,0-0.6-0.1-0.9-0.2c-0.3-0.1-0.5-0.3-0.7-0.5c-0.2-0.2-0.3-0.5-0.4-0.8c-0.1-0.3-0.1-0.7-0.1-1.1
				s0.1-0.8,0.2-1.1c0.1-0.3,0.2-0.6,0.4-0.8c0.2-0.2,0.4-0.4,0.7-0.5c0.3-0.1,0.6-0.2,0.9-0.2c0.3,0,0.5,0,0.7,0.1
				c0.2,0.1,0.4,0.2,0.5,0.3c0.1,0.1,0.3,0.3,0.4,0.5c0.1,0.2,0.2,0.4,0.3,0.6L310.8,319.9z"/>
			<path class="st1" d="M312.9,316.3h0.7l0,4.6h0l2.1-2.6h0.9l-1.5,1.9l1.7,3.3h-0.9l-1.4-2.7l-1,1.1v1.6h-0.7L312.9,316.3z"/>
			<path class="st1" d="M320.9,322.2c0.2,0.2,0.4,0.4,0.6,0.6c0.2,0.1,0.5,0.2,0.9,0.2c0.4,0,0.7-0.1,0.9-0.3
				c0.2-0.2,0.3-0.4,0.3-0.6c0-0.2-0.1-0.4-0.2-0.5c-0.2-0.1-0.3-0.2-0.6-0.3c-0.2-0.1-0.5-0.2-0.7-0.2c-0.3-0.1-0.5-0.2-0.7-0.3
				c-0.2-0.1-0.4-0.3-0.6-0.4c-0.1-0.2-0.2-0.4-0.2-0.8c0-0.5,0.2-0.8,0.5-1c0.3-0.2,0.7-0.4,1.2-0.4c0.2,0,0.3,0,0.5,0.1
				c0.2,0,0.3,0.1,0.5,0.2c0.2,0.1,0.3,0.2,0.4,0.3c0.1,0.1,0.2,0.2,0.3,0.4l-0.5,0.4c-0.2-0.2-0.4-0.4-0.6-0.5s-0.5-0.2-0.7-0.2
				c-0.3,0-0.5,0.1-0.7,0.2c-0.2,0.1-0.2,0.3-0.2,0.6c0,0.2,0.1,0.3,0.2,0.4c0.1,0.1,0.3,0.2,0.6,0.3c0.2,0.1,0.5,0.2,0.7,0.2
				c0.3,0.1,0.5,0.2,0.7,0.3c0.2,0.1,0.4,0.3,0.6,0.5c0.1,0.2,0.2,0.5,0.2,0.8c0,0.3-0.1,0.5-0.1,0.7c-0.1,0.2-0.2,0.3-0.4,0.5
				c-0.2,0.1-0.4,0.2-0.6,0.3s-0.4,0.1-0.7,0.1c-0.4,0-0.8-0.1-1.2-0.3c-0.4-0.2-0.7-0.4-0.9-0.7L320.9,322.2z"/>
			<path class="st1" d="M325.6,318.4l0-1.7h0.7l0,1.7l1.2,0l0,0.6l-1.2,0l0,3.7c0,0.1,0,0.2,0.1,0.3c0.1,0.1,0.2,0.1,0.5,0.1
				c0.1,0,0.2,0,0.3,0c0.1,0,0.2,0,0.3,0v0.6c-0.1,0-0.2,0-0.3,0.1c-0.1,0-0.3,0-0.5,0c-0.4,0-0.7-0.1-0.8-0.2s-0.3-0.3-0.3-0.7
				l0-3.8h-0.8l0-0.6H325.6z"/>
			<path class="st1" d="M328.6,318.4h0.7l0,1h0c0.1-0.2,0.2-0.3,0.3-0.5c0.1-0.1,0.2-0.3,0.4-0.3c0.1-0.1,0.3-0.2,0.5-0.2
				c0.2,0,0.4-0.1,0.6-0.1l0,0.7c-0.5,0-0.8,0.2-1.1,0.4s-0.5,0.7-0.6,1.2l0,2.9h-0.7L328.6,318.4z"/>
			<path class="st1" d="M332.2,318.4h0.7l0,5.2h-0.7L332.2,318.4z M332.9,316.2l0,0.9h-0.7l0-0.9H332.9z"/>
			<path class="st1" d="M338.6,316.4l0,6.1c0,0.2,0,0.4,0,0.6c0,0.2,0,0.4,0,0.6H338l-0.1-0.5c-0.1,0.2-0.3,0.3-0.5,0.4
				c-0.2,0.1-0.5,0.2-0.8,0.2c-0.2,0-0.5,0-0.7-0.1c-0.2-0.1-0.5-0.2-0.7-0.4c-0.2-0.2-0.4-0.5-0.5-0.8c-0.1-0.3-0.2-0.8-0.2-1.3
				c0-0.5,0.1-0.9,0.2-1.3s0.3-0.6,0.5-0.8c0.2-0.2,0.4-0.4,0.7-0.5c0.2-0.1,0.5-0.1,0.7-0.1c0.2,0,0.5,0.1,0.7,0.2
				c0.2,0.1,0.5,0.2,0.6,0.4l0,0l0-2.5H338.6z M337.9,319.6c-0.2-0.2-0.4-0.4-0.6-0.5c-0.2-0.1-0.5-0.2-0.7-0.2
				c-0.2,0-0.4,0-0.6,0.1c-0.2,0.1-0.3,0.2-0.5,0.4s-0.2,0.4-0.3,0.7c-0.1,0.3-0.1,0.6-0.1,1c0,0.7,0.1,1.2,0.4,1.5
				c0.3,0.3,0.6,0.5,1.1,0.5c0.2,0,0.4-0.1,0.6-0.2s0.4-0.3,0.7-0.5L337.9,319.6z"/>
			<path class="st1" d="M344.2,322.5c-0.1,0.1-0.2,0.3-0.3,0.4c-0.1,0.1-0.2,0.3-0.4,0.4c-0.2,0.1-0.3,0.2-0.6,0.3s-0.5,0.1-0.8,0.1
				c-0.3,0-0.6-0.1-0.8-0.2c-0.3-0.1-0.5-0.3-0.7-0.5c-0.2-0.2-0.4-0.5-0.5-0.8c-0.1-0.3-0.2-0.7-0.2-1.2c0-0.4,0.1-0.8,0.2-1.1
				c0.1-0.3,0.2-0.6,0.4-0.8s0.4-0.4,0.7-0.5c0.3-0.1,0.6-0.2,0.9-0.2c0.3,0,0.5,0,0.8,0.1c0.2,0.1,0.5,0.2,0.6,0.4s0.3,0.4,0.4,0.7
				c0.1,0.3,0.2,0.7,0.2,1.1v0.5l-3.4,0c0,0.3,0,0.5,0.1,0.8c0.1,0.2,0.2,0.4,0.3,0.6c0.1,0.2,0.3,0.3,0.5,0.4
				c0.2,0.1,0.4,0.1,0.6,0.1c0.3,0,0.6-0.1,0.8-0.2s0.4-0.4,0.6-0.6L344.2,322.5z M343.3,320.5c0-0.5-0.1-0.9-0.3-1.2
				c-0.2-0.3-0.5-0.4-0.9-0.4c-0.4,0-0.8,0.1-1,0.4c-0.2,0.3-0.4,0.7-0.4,1.2H343.3z"/>
			<path class="st1" d="M346.5,322.5v1.1h-1v-1.1H346.5z"/>
		</g>
	</g>
	<line class="st2" x1="220.1" y1="284.1" x2="83.5" y2="361"/>
	<circle class="st1" cx="220.1" cy="284.1" r="1.1"/>
</g>
</svg>
