<?xml version="1.0" encoding="utf-8"?>
<!-- Generator: Adobe Illustrator 19.1.0, SVG Export Plug-In . SVG Version: 6.00 Build 0)  -->
<svg version="1.1" id="Layer_1" xmlns="http://www.w3.org/2000/svg" xmlns:xlink="http://www.w3.org/1999/xlink" x="0px" y="0px"
	 viewBox="-399 176 800 350" style="enable-background:new -399 176 800 350;" xml:space="preserve">
<style type="text/css">
	.st0{fill:none;stroke:#FFFFFF;stroke-miterlimit:10;}
	.st1{fill:#FFFFFF;}
	.st2{enable-background:new    ;}
</style>
<g id="flywire">
	<line class="st0" x1="-339.2" y1="390" x2="25.7" y2="351"/>
	<circle class="st1" cx="-339.2" cy="390" r="1.1"/>
	<g>
		<g>
			<path class="st1" d="M-340.2,405v-8.7h4.2v1.3h-2.7v2.2h2v1.3h-2v3.8h-1.5V405z"/>
			<path class="st1" d="M-334.4,405v-8.7h1.5v7.4h2.3v1.3H-334.4z"/>
			<path class="st1" d="M-327,405h-1.5v-3.6l-1.8-5.1h1.5l1,3.3l0,0l1-3.3h1.5l-1.8,5.1L-327,405L-327,405z"/>
			<path class="st1" d="M-321.2,396.3h1.2l1,5.5l0,0l0.8-5.5h1.4l-1.5,8.7h-1.2l-1.1-5.7l0,0l-1,5.7h-1.2l-1.6-8.7h1.4l0.9,5.5l0,0
				L-321.2,396.3z"/>
			<path class="st1" d="M-315,405v-8.7h1.5v8.7H-315z"/>
			<path class="st1" d="M-309.8,405h-1.5v-8.7h2.1c0.8,0,1.5,0.2,1.9,0.6c0.4,0.4,0.6,1,0.6,2c0,0.4,0,0.7-0.1,0.9s-0.1,0.5-0.2,0.6
				s-0.2,0.3-0.3,0.4c-0.1,0.1-0.2,0.2-0.4,0.2l1.3,3.9h-1.5l-1.1-3.6c-0.1,0-0.2,0-0.4,0c-0.1,0-0.3,0-0.4,0V405z M-309.8,400.2
				h0.5c0.2,0,0.4,0,0.5-0.1c0.1,0,0.3-0.1,0.3-0.2c0.1-0.1,0.2-0.2,0.2-0.4s0.1-0.4,0.1-0.6c0-0.5-0.1-0.9-0.3-1
				c-0.2-0.2-0.5-0.3-0.9-0.3h-0.5L-309.8,400.2L-309.8,400.2z"/>
			<path class="st1" d="M-304.6,405v-8.7h4v1.3h-2.5v2.2h1.9v1.3h-1.9v2.5h2.7v1.3h-4.2V405z"/>
		</g>
		<g class="st2">
			<path class="st1" d="M-340.7,409.8h0.8l1.3,5.8h0l1.4-5.8h0.7l1.4,5.8h0l1.3-5.8h0.8l-1.7,7.2h-0.7l-1.5-5.8h0l-1.4,5.8h-0.7
				L-340.7,409.8z"/>
			<path class="st1" d="M-332.1,411.8h0.7v1h0c0.1-0.2,0.2-0.3,0.3-0.5c0.1-0.1,0.2-0.3,0.4-0.3c0.1-0.1,0.3-0.2,0.5-0.2
				c0.2,0,0.4-0.1,0.6-0.1v0.7c-0.5,0-0.8,0.2-1.1,0.4s-0.5,0.7-0.6,1.2v2.9h-0.7V411.8z"/>
			<path class="st1" d="M-328.9,412.8c0.2-0.3,0.4-0.6,0.7-0.8c0.3-0.2,0.7-0.3,1.2-0.3c0.2,0,0.4,0,0.6,0.1s0.4,0.1,0.6,0.3
				c0.2,0.1,0.3,0.3,0.4,0.5c0.1,0.2,0.2,0.4,0.2,0.7v2.6c0,0.3,0,0.5,0,0.7c0,0.2,0.1,0.3,0.1,0.4h-0.7l-0.1-0.7
				c-0.2,0.2-0.4,0.4-0.7,0.6c-0.3,0.2-0.6,0.3-1,0.3c-0.2,0-0.4,0-0.6-0.1c-0.2-0.1-0.3-0.1-0.5-0.3s-0.2-0.3-0.3-0.4
				s-0.1-0.4-0.1-0.6c0-0.3,0.1-0.5,0.2-0.8s0.3-0.4,0.6-0.6c0.3-0.2,0.6-0.3,1-0.4c0.4-0.1,0.9-0.2,1.5-0.3v-0.3
				c0-0.3-0.1-0.6-0.3-0.7c-0.2-0.1-0.5-0.2-0.8-0.2c-0.2,0-0.4,0-0.5,0.1c-0.1,0.1-0.3,0.1-0.4,0.2c-0.1,0.1-0.2,0.2-0.3,0.3
				s-0.1,0.2-0.2,0.3L-328.9,412.8z M-325.9,414.2c-1.6,0.3-2.5,0.8-2.5,1.5c0,0.1,0,0.2,0.1,0.3c0.1,0.1,0.1,0.2,0.2,0.3
				c0.1,0.1,0.2,0.1,0.3,0.2c0.1,0,0.2,0.1,0.3,0.1c0.1,0,0.3,0,0.4-0.1c0.1,0,0.3-0.1,0.4-0.2c0.1-0.1,0.3-0.2,0.4-0.3
				s0.2-0.2,0.4-0.3V414.2z"/>
			<path class="st1" d="M-323.6,419v-7.1h0.7v0.6h0c0.1-0.1,0.2-0.2,0.3-0.3c0.1-0.1,0.2-0.2,0.3-0.2s0.2-0.1,0.4-0.2
				c0.1,0,0.3-0.1,0.4-0.1c0.2,0,0.5,0,0.7,0.1s0.5,0.2,0.7,0.4c0.2,0.2,0.4,0.5,0.5,0.8c0.1,0.3,0.2,0.8,0.2,1.3
				c0,0.5-0.1,0.9-0.2,1.3c-0.1,0.3-0.3,0.6-0.5,0.8c-0.2,0.2-0.4,0.4-0.7,0.5c-0.2,0.1-0.5,0.1-0.7,0.1c-0.2,0-0.5-0.1-0.7-0.2
				c-0.2-0.1-0.5-0.2-0.6-0.4l0,0v2.4H-323.6z M-322.9,415.8c0.2,0.2,0.4,0.4,0.6,0.5c0.2,0.1,0.5,0.2,0.7,0.2c0.2,0,0.4,0,0.6-0.1
				c0.2-0.1,0.3-0.2,0.5-0.4c0.1-0.2,0.2-0.4,0.3-0.7c0.1-0.3,0.1-0.6,0.1-1c0-0.7-0.1-1.2-0.4-1.5s-0.6-0.5-1.1-0.5
				c-0.2,0-0.4,0.1-0.6,0.2c-0.2,0.1-0.4,0.3-0.7,0.5V415.8z"/>
			<path class="st1" d="M-318.1,415.7c0.2,0.2,0.4,0.4,0.6,0.6c0.2,0.1,0.5,0.2,0.9,0.2c0.4,0,0.7-0.1,0.9-0.3
				c0.2-0.2,0.3-0.4,0.3-0.6s-0.1-0.4-0.2-0.5c-0.2-0.1-0.3-0.2-0.6-0.3c-0.2-0.1-0.5-0.2-0.7-0.2c-0.3-0.1-0.5-0.2-0.7-0.3
				c-0.2-0.1-0.4-0.3-0.6-0.4c-0.1-0.2-0.2-0.4-0.2-0.8c0-0.5,0.2-0.8,0.5-1c0.3-0.2,0.7-0.4,1.2-0.4c0.2,0,0.3,0,0.5,0.1
				c0.2,0,0.3,0.1,0.5,0.2c0.2,0.1,0.3,0.2,0.4,0.3s0.2,0.2,0.3,0.4l-0.5,0.4c-0.2-0.2-0.4-0.4-0.6-0.5s-0.5-0.2-0.7-0.2
				c-0.3,0-0.5,0.1-0.7,0.2c-0.2,0.1-0.2,0.3-0.2,0.6c0,0.2,0.1,0.3,0.2,0.4c0.1,0.1,0.3,0.2,0.6,0.3c0.2,0.1,0.5,0.2,0.7,0.2
				c0.3,0.1,0.5,0.2,0.7,0.3c0.2,0.1,0.4,0.3,0.6,0.5c0.1,0.2,0.2,0.5,0.2,0.8c0,0.3-0.1,0.5-0.1,0.7c-0.1,0.2-0.2,0.3-0.4,0.5
				c-0.2,0.1-0.4,0.2-0.6,0.3s-0.4,0.1-0.7,0.1c-0.4,0-0.8-0.1-1.2-0.3c-0.4-0.2-0.7-0.4-0.9-0.7L-318.1,415.7z"/>
			<path class="st1" d="M-310.4,411.8v-1.7h0.7v1.7h1.2v0.6h-1.2v3.7c0,0.1,0,0.2,0.1,0.3c0.1,0.1,0.2,0.1,0.5,0.1
				c0.1,0,0.2,0,0.3,0c0.1,0,0.2,0,0.3,0v0.6c-0.1,0-0.2,0-0.3,0.1s-0.3,0-0.5,0c-0.4,0-0.7-0.1-0.9-0.2s-0.3-0.3-0.3-0.7v-3.8h-0.8
				v-0.6H-310.4z"/>
			<path class="st1" d="M-306.5,409.8v2.7h0c0.2-0.2,0.4-0.4,0.7-0.6c0.3-0.1,0.5-0.2,0.8-0.2c0.2,0,0.4,0,0.6,0.1
				c0.2,0.1,0.3,0.1,0.5,0.3s0.3,0.3,0.3,0.5s0.1,0.4,0.1,0.7v3.8h-0.7v-3.8c0-0.3-0.1-0.6-0.2-0.7c-0.2-0.1-0.4-0.2-0.6-0.2
				c-0.1,0-0.3,0-0.4,0.1c-0.1,0.1-0.3,0.1-0.4,0.2c-0.1,0.1-0.3,0.2-0.4,0.3c-0.1,0.1-0.2,0.2-0.3,0.3v3.9h-0.7v-7.2H-306.5z"/>
			<path class="st1" d="M-297.9,415.9c-0.1,0.1-0.2,0.3-0.3,0.4c-0.1,0.1-0.2,0.3-0.4,0.4c-0.2,0.1-0.3,0.2-0.6,0.3
				s-0.5,0.1-0.8,0.1c-0.3,0-0.6-0.1-0.8-0.2c-0.3-0.1-0.5-0.3-0.7-0.5c-0.2-0.2-0.4-0.5-0.5-0.8c-0.1-0.3-0.2-0.7-0.2-1.2
				c0-0.4,0.1-0.8,0.1-1.1c0.1-0.3,0.2-0.6,0.4-0.8s0.4-0.4,0.7-0.5c0.3-0.1,0.6-0.2,0.9-0.2c0.3,0,0.5,0,0.8,0.1
				c0.2,0.1,0.5,0.2,0.6,0.4c0.2,0.2,0.3,0.4,0.4,0.7c0.1,0.3,0.2,0.7,0.2,1.1v0.5h-3.4c0,0.3,0,0.5,0.1,0.8
				c0.1,0.2,0.2,0.4,0.3,0.6c0.1,0.2,0.3,0.3,0.5,0.4c0.2,0.1,0.4,0.1,0.6,0.1c0.3,0,0.6-0.1,0.8-0.2s0.4-0.4,0.6-0.6L-297.9,415.9z
				 M-298.8,414c0-0.5-0.1-0.9-0.3-1.2c-0.2-0.3-0.5-0.4-0.9-0.4c-0.4,0-0.8,0.1-1,0.4c-0.2,0.3-0.4,0.7-0.4,1.2H-298.8z"/>
			<path class="st1" d="M-293.9,412.8c0.2-0.3,0.4-0.6,0.7-0.8c0.3-0.2,0.7-0.3,1.2-0.3c0.2,0,0.4,0,0.6,0.1s0.4,0.1,0.6,0.3
				c0.2,0.1,0.3,0.3,0.4,0.5c0.1,0.2,0.2,0.4,0.2,0.7v2.6c0,0.3,0,0.5,0,0.7c0,0.2,0.1,0.3,0.1,0.4h-0.7l-0.1-0.7
				c-0.2,0.2-0.4,0.4-0.7,0.6c-0.3,0.2-0.6,0.3-1,0.3c-0.2,0-0.4,0-0.6-0.1c-0.2-0.1-0.3-0.1-0.5-0.3s-0.2-0.3-0.3-0.4
				s-0.1-0.4-0.1-0.6c0-0.3,0.1-0.5,0.2-0.8s0.3-0.4,0.6-0.6c0.3-0.2,0.6-0.3,1-0.4c0.4-0.1,0.9-0.2,1.5-0.3v-0.3
				c0-0.3-0.1-0.6-0.3-0.7c-0.2-0.1-0.5-0.2-0.8-0.2c-0.2,0-0.4,0-0.5,0.1c-0.1,0.1-0.3,0.1-0.4,0.2c-0.1,0.1-0.2,0.2-0.3,0.3
				s-0.1,0.2-0.2,0.3L-293.9,412.8z M-290.9,414.2c-1.6,0.3-2.5,0.8-2.5,1.5c0,0.1,0,0.2,0.1,0.3c0.1,0.1,0.1,0.2,0.2,0.3
				c0.1,0.1,0.2,0.1,0.3,0.2c0.1,0,0.2,0.1,0.3,0.1c0.1,0,0.3,0,0.4-0.1c0.1,0,0.3-0.1,0.4-0.2c0.1-0.1,0.3-0.2,0.4-0.3
				s0.2-0.2,0.4-0.3V414.2z"/>
			<path class="st1" d="M-288.8,411.8h0.7v1h0c0.1-0.2,0.2-0.3,0.3-0.5c0.1-0.1,0.2-0.3,0.4-0.3c0.1-0.1,0.3-0.2,0.5-0.2
				c0.2,0,0.4-0.1,0.6-0.1v0.7c-0.5,0-0.8,0.2-1.1,0.4s-0.5,0.7-0.6,1.2v2.9h-0.7V411.8z"/>
			<path class="st1" d="M-282.4,413.4c-0.1-0.3-0.3-0.6-0.5-0.8c-0.2-0.2-0.5-0.3-0.8-0.3c-0.4,0-0.8,0.2-1,0.5
				c-0.2,0.4-0.4,0.9-0.4,1.5c0,0.7,0.1,1.2,0.4,1.5c0.2,0.4,0.6,0.5,1,0.5c0.2,0,0.3,0,0.4,0c0.1,0,0.3-0.1,0.4-0.2
				s0.2-0.2,0.3-0.3c0.1-0.1,0.2-0.3,0.3-0.5l0.6,0.3c-0.1,0.2-0.3,0.4-0.4,0.6c-0.1,0.2-0.3,0.3-0.4,0.4c-0.2,0.1-0.3,0.2-0.5,0.2
				c-0.2,0.1-0.4,0.1-0.7,0.1c-0.3,0-0.6-0.1-0.9-0.2c-0.3-0.1-0.5-0.3-0.7-0.5c-0.2-0.2-0.3-0.5-0.4-0.8c-0.1-0.3-0.1-0.7-0.1-1.1
				s0.1-0.8,0.1-1.1c0.1-0.3,0.2-0.6,0.4-0.8c0.2-0.2,0.4-0.4,0.7-0.5c0.3-0.1,0.6-0.2,0.9-0.2c0.3,0,0.5,0,0.7,0.1
				c0.2,0.1,0.4,0.2,0.5,0.3c0.1,0.1,0.3,0.3,0.4,0.5c0.1,0.2,0.2,0.4,0.3,0.6L-282.4,413.4z"/>
			<path class="st1" d="M-279.6,409.8v2.7h0c0.2-0.2,0.4-0.4,0.7-0.6c0.3-0.1,0.5-0.2,0.8-0.2c0.2,0,0.4,0,0.6,0.1
				c0.2,0.1,0.3,0.1,0.5,0.3s0.3,0.3,0.3,0.5s0.1,0.4,0.1,0.7v3.8h-0.7v-3.8c0-0.3-0.1-0.6-0.2-0.7c-0.2-0.1-0.4-0.2-0.6-0.2
				c-0.1,0-0.3,0-0.4,0.1c-0.1,0.1-0.3,0.1-0.4,0.2c-0.1,0.1-0.3,0.2-0.4,0.3c-0.1,0.1-0.2,0.2-0.3,0.3v3.9h-0.7v-7.2H-279.6z"/>
			<path class="st1" d="M-271.4,417v-4.6h-0.9v-0.6h0.9v-0.6c0-0.3,0-0.6,0.1-0.8s0.1-0.4,0.2-0.5c0.1-0.1,0.2-0.2,0.4-0.2
				c0.2,0,0.3-0.1,0.6-0.1c0.1,0,0.2,0,0.3,0c0.1,0,0.2,0,0.3,0v0.6c-0.1,0-0.2,0-0.3,0s-0.2,0-0.3,0c-0.2,0-0.4,0-0.5,0.2
				c-0.1,0.1-0.1,0.3-0.1,0.6v0.8h1.1v0.6h-1.1v4.6H-271.4z"/>
			<path class="st1" d="M-264.6,414.4c0,0.4,0,0.7-0.1,1.1c-0.1,0.3-0.2,0.6-0.4,0.9c-0.2,0.2-0.4,0.4-0.7,0.6
				c-0.3,0.1-0.6,0.2-0.9,0.2s-0.7-0.1-0.9-0.2c-0.3-0.1-0.5-0.3-0.7-0.6c-0.2-0.2-0.3-0.5-0.4-0.9c-0.1-0.3-0.1-0.7-0.1-1.1
				c0-0.4,0-0.7,0.1-1.1c0.1-0.3,0.2-0.6,0.4-0.9c0.2-0.2,0.4-0.4,0.7-0.6c0.3-0.1,0.6-0.2,0.9-0.2s0.7,0.1,0.9,0.2
				c0.3,0.1,0.5,0.3,0.7,0.6c0.2,0.2,0.3,0.5,0.4,0.9C-264.6,413.7-264.6,414.1-264.6,414.4z M-265.3,414.4c0-0.7-0.1-1.2-0.4-1.5
				c-0.3-0.4-0.6-0.5-1-0.5c-0.4,0-0.8,0.2-1,0.5c-0.3,0.4-0.4,0.9-0.4,1.5c0,0.7,0.1,1.2,0.4,1.5c0.3,0.4,0.6,0.5,1,0.5
				c0.4,0,0.8-0.2,1-0.5S-265.3,415.1-265.3,414.4z"/>
			<path class="st1" d="M-263.5,411.8h0.7v1h0c0.1-0.2,0.2-0.3,0.3-0.5c0.1-0.1,0.2-0.3,0.4-0.3c0.1-0.1,0.3-0.2,0.5-0.2
				c0.2,0,0.4-0.1,0.6-0.1v0.7c-0.5,0-0.8,0.2-1.1,0.4s-0.5,0.7-0.6,1.2v2.9h-0.7V411.8z"/>
			<path class="st1" d="M-257.3,412.8c0.2-0.3,0.4-0.6,0.7-0.8c0.3-0.2,0.7-0.3,1.2-0.3c0.2,0,0.4,0,0.6,0.1s0.4,0.1,0.6,0.3
				c0.2,0.1,0.3,0.3,0.4,0.5c0.1,0.2,0.2,0.4,0.2,0.7v2.6c0,0.3,0,0.5,0,0.7c0,0.2,0.1,0.3,0.1,0.4h-0.7l-0.1-0.7
				c-0.2,0.2-0.4,0.4-0.7,0.6c-0.3,0.2-0.6,0.3-1,0.3c-0.2,0-0.4,0-0.6-0.1c-0.2-0.1-0.3-0.1-0.5-0.3s-0.2-0.3-0.3-0.4
				s-0.1-0.4-0.1-0.6c0-0.3,0.1-0.5,0.2-0.8s0.3-0.4,0.6-0.6c0.3-0.2,0.6-0.3,1-0.4c0.4-0.1,0.9-0.2,1.5-0.3v-0.3
				c0-0.3-0.1-0.6-0.3-0.7c-0.2-0.1-0.5-0.2-0.8-0.2c-0.2,0-0.4,0-0.5,0.1c-0.1,0.1-0.3,0.1-0.4,0.2c-0.1,0.1-0.2,0.2-0.3,0.3
				s-0.1,0.2-0.2,0.3L-257.3,412.8z M-254.2,414.2c-1.6,0.3-2.5,0.8-2.5,1.5c0,0.1,0,0.2,0.1,0.3c0.1,0.1,0.1,0.2,0.2,0.3
				c0.1,0.1,0.2,0.1,0.3,0.2c0.1,0,0.2,0.1,0.3,0.1c0.1,0,0.3,0,0.4-0.1c0.1,0,0.3-0.1,0.4-0.2c0.1-0.1,0.3-0.2,0.4-0.3
				s0.2-0.2,0.4-0.3V414.2z"/>
		</g>
		<g class="st2">
			<path class="st1" d="M-336.3,421.8v6.1c0,0.2,0,0.4,0,0.6c0,0.2,0,0.4,0,0.6h-0.7l-0.1-0.5c-0.1,0.2-0.3,0.3-0.5,0.4
				c-0.2,0.1-0.5,0.2-0.8,0.2c-0.2,0-0.5,0-0.7-0.1c-0.2-0.1-0.5-0.2-0.7-0.4c-0.2-0.2-0.4-0.5-0.5-0.8s-0.2-0.8-0.2-1.3
				c0-0.5,0.1-0.9,0.2-1.3s0.3-0.6,0.5-0.8c0.2-0.2,0.4-0.4,0.7-0.5c0.2-0.1,0.5-0.1,0.7-0.1c0.2,0,0.5,0.1,0.7,0.2
				c0.2,0.1,0.5,0.2,0.6,0.4l0,0v-2.5H-336.3z M-337,425.1c-0.2-0.2-0.4-0.4-0.6-0.5c-0.2-0.1-0.5-0.2-0.7-0.2s-0.4,0-0.6,0.1
				c-0.2,0.1-0.3,0.2-0.5,0.4s-0.2,0.4-0.3,0.7c-0.1,0.3-0.1,0.6-0.1,1c0,0.7,0.1,1.2,0.4,1.5c0.3,0.3,0.6,0.5,1.1,0.5
				c0.2,0,0.4-0.1,0.6-0.2s0.4-0.3,0.7-0.5V425.1z"/>
			<path class="st1" d="M-331.1,423.8l-1.8,5.7c-0.1,0.3-0.2,0.5-0.3,0.7c-0.1,0.2-0.3,0.3-0.4,0.4s-0.3,0.2-0.5,0.2
				c-0.2,0-0.3,0.1-0.5,0.1c-0.1,0-0.2,0-0.3,0c-0.1,0-0.2,0-0.2,0v-0.6c0.1,0,0.1,0,0.2,0s0.1,0,0.2,0c0.1,0,0.2,0,0.4,0
				c0.1,0,0.3-0.1,0.4-0.2c0.1-0.1,0.2-0.2,0.4-0.4c0.1-0.2,0.2-0.4,0.3-0.7l-1.8-5.3h0.8l1.4,4h0l1.2-4H-331.1z"/>
			<path class="st1" d="M-329.4,423.8v0.7h0c0.2-0.2,0.4-0.4,0.7-0.6c0.3-0.1,0.5-0.2,0.8-0.2c0.2,0,0.4,0,0.6,0.1
				c0.2,0.1,0.3,0.1,0.5,0.3s0.3,0.3,0.3,0.5s0.1,0.4,0.1,0.7v3.8h-0.7v-3.8c0-0.3-0.1-0.6-0.2-0.7c-0.2-0.1-0.4-0.2-0.6-0.2
				c-0.1,0-0.3,0-0.4,0.1c-0.1,0.1-0.3,0.1-0.4,0.2c-0.1,0.1-0.3,0.2-0.4,0.3c-0.1,0.1-0.2,0.2-0.3,0.3v3.9h-0.7v-5.2H-329.4z"/>
			<path class="st1" d="M-324.8,424.8c0.2-0.3,0.4-0.6,0.7-0.8c0.3-0.2,0.7-0.3,1.2-0.3c0.2,0,0.4,0,0.6,0.1s0.4,0.1,0.6,0.3
				c0.2,0.1,0.3,0.3,0.4,0.5c0.1,0.2,0.2,0.4,0.2,0.7v2.6c0,0.3,0,0.5,0,0.7c0,0.2,0.1,0.3,0.1,0.4h-0.7l-0.1-0.7
				c-0.2,0.2-0.4,0.4-0.7,0.6c-0.3,0.2-0.6,0.3-1,0.3c-0.2,0-0.4,0-0.6-0.1c-0.2-0.1-0.3-0.1-0.5-0.3s-0.2-0.3-0.3-0.4
				s-0.1-0.4-0.1-0.6c0-0.3,0.1-0.5,0.2-0.8s0.3-0.4,0.6-0.6c0.3-0.2,0.6-0.3,1-0.4c0.4-0.1,0.9-0.2,1.5-0.3v-0.3
				c0-0.3-0.1-0.6-0.3-0.7c-0.2-0.1-0.5-0.2-0.8-0.2c-0.2,0-0.4,0-0.5,0.1c-0.1,0.1-0.3,0.1-0.4,0.2c-0.1,0.1-0.2,0.2-0.3,0.3
				s-0.1,0.2-0.2,0.3L-324.8,424.8z M-321.8,426.2c-1.6,0.3-2.5,0.8-2.5,1.5c0,0.1,0,0.2,0.1,0.3c0.1,0.1,0.1,0.2,0.2,0.3
				c0.1,0.1,0.2,0.1,0.3,0.2c0.1,0,0.2,0.1,0.3,0.1c0.1,0,0.3,0,0.4-0.1c0.1,0,0.3-0.1,0.4-0.2c0.1-0.1,0.3-0.2,0.4-0.3
				s0.2-0.2,0.4-0.3V426.2z"/>
			<path class="st1" d="M-319.6,429v-5.2h0.7v0.7l0,0c0.2-0.2,0.5-0.4,0.7-0.6c0.3-0.1,0.5-0.2,0.8-0.2c0.3,0,0.6,0.1,0.9,0.2
				s0.4,0.4,0.5,0.6c0.2-0.2,0.5-0.4,0.8-0.6c0.3-0.1,0.6-0.2,0.9-0.2c0.2,0,0.3,0,0.5,0.1c0.2,0,0.3,0.1,0.5,0.2
				c0.1,0.1,0.2,0.3,0.3,0.5c0.1,0.2,0.1,0.5,0.1,0.8v3.7h-0.7v-3.7c0-0.4-0.1-0.6-0.2-0.7s-0.3-0.2-0.6-0.2c-0.2,0-0.3,0-0.4,0.1
				c-0.1,0-0.3,0.1-0.4,0.2c-0.1,0.1-0.2,0.2-0.3,0.3c-0.1,0.1-0.2,0.2-0.3,0.3v3.9h-0.7v-3.7c0-0.4-0.1-0.6-0.2-0.7
				s-0.3-0.2-0.6-0.2c-0.2,0-0.3,0-0.4,0.1c-0.1,0-0.3,0.1-0.4,0.2c-0.1,0.1-0.2,0.2-0.3,0.3c-0.1,0.1-0.2,0.2-0.3,0.3v3.9H-319.6z"
				/>
			<path class="st1" d="M-310.3,421.7v0.9h-0.7v-0.9H-310.3z M-311,423.8h0.7v5.2h-0.7V423.8z"/>
			<path class="st1" d="M-305.5,425.4c-0.1-0.3-0.3-0.6-0.5-0.8c-0.2-0.2-0.5-0.3-0.8-0.3c-0.4,0-0.8,0.2-1,0.5
				c-0.2,0.4-0.4,0.9-0.4,1.5c0,0.7,0.1,1.2,0.4,1.5c0.2,0.4,0.6,0.5,1,0.5c0.2,0,0.3,0,0.4,0c0.1,0,0.3-0.1,0.4-0.2
				s0.2-0.2,0.3-0.3c0.1-0.1,0.2-0.3,0.3-0.5l0.6,0.3c-0.1,0.2-0.3,0.4-0.4,0.6c-0.1,0.2-0.3,0.3-0.4,0.4c-0.2,0.1-0.3,0.2-0.5,0.2
				c-0.2,0.1-0.4,0.1-0.7,0.1c-0.3,0-0.6-0.1-0.9-0.2c-0.3-0.1-0.5-0.3-0.7-0.5c-0.2-0.2-0.3-0.5-0.4-0.8c-0.1-0.3-0.1-0.7-0.1-1.1
				s0.1-0.8,0.1-1.1c0.1-0.3,0.2-0.6,0.4-0.8c0.2-0.2,0.4-0.4,0.7-0.5c0.3-0.1,0.6-0.2,0.9-0.2c0.3,0,0.5,0,0.7,0.1
				c0.2,0.1,0.4,0.2,0.5,0.3c0.1,0.1,0.3,0.3,0.4,0.5c0.1,0.2,0.2,0.4,0.3,0.6L-305.5,425.4z"/>
			<path class="st1" d="M-302.3,429l-0.6,1.5h-0.4l0.5-1.5h-0.4v-1.1h1V429z"/>
			<path class="st1" d="M-296.4,421.8v7.2h-0.7v-7.2H-296.4z"/>
			<path class="st1" d="M-290.8,426.4c0,0.4,0,0.7-0.1,1.1c-0.1,0.3-0.2,0.6-0.4,0.9c-0.2,0.2-0.4,0.4-0.7,0.6
				c-0.3,0.1-0.6,0.2-0.9,0.2s-0.7-0.1-0.9-0.2c-0.3-0.1-0.5-0.3-0.7-0.6c-0.2-0.2-0.3-0.5-0.4-0.9c-0.1-0.3-0.1-0.7-0.1-1.1
				c0-0.4,0-0.7,0.1-1.1c0.1-0.3,0.2-0.6,0.4-0.9c0.2-0.2,0.4-0.4,0.7-0.6c0.3-0.1,0.6-0.2,0.9-0.2s0.7,0.1,0.9,0.2
				c0.3,0.1,0.5,0.3,0.7,0.6c0.2,0.2,0.3,0.5,0.4,0.9C-290.8,425.7-290.8,426.1-290.8,426.4z M-291.5,426.4c0-0.7-0.1-1.2-0.4-1.5
				c-0.3-0.4-0.6-0.5-1-0.5c-0.4,0-0.8,0.2-1,0.5c-0.3,0.4-0.4,0.9-0.4,1.5c0,0.7,0.1,1.2,0.4,1.5c0.3,0.4,0.6,0.5,1,0.5
				c0.4,0,0.8-0.2,1-0.5S-291.5,427.1-291.5,426.4z"/>
			<path class="st1" d="M-286.7,425.4c-0.1-0.3-0.3-0.6-0.5-0.8c-0.2-0.2-0.5-0.3-0.8-0.3c-0.4,0-0.8,0.2-1,0.5
				c-0.2,0.4-0.4,0.9-0.4,1.5c0,0.7,0.1,1.2,0.4,1.5c0.2,0.4,0.6,0.5,1,0.5c0.2,0,0.3,0,0.4,0c0.1,0,0.3-0.1,0.4-0.2
				s0.2-0.2,0.3-0.3c0.1-0.1,0.2-0.3,0.3-0.5l0.6,0.3c-0.1,0.2-0.3,0.4-0.4,0.6c-0.1,0.2-0.3,0.3-0.4,0.4c-0.2,0.1-0.3,0.2-0.5,0.2
				c-0.2,0.1-0.4,0.1-0.7,0.1c-0.3,0-0.6-0.1-0.9-0.2c-0.3-0.1-0.5-0.3-0.7-0.5c-0.2-0.2-0.3-0.5-0.4-0.8c-0.1-0.3-0.1-0.7-0.1-1.1
				s0.1-0.8,0.1-1.1c0.1-0.3,0.2-0.6,0.4-0.8c0.2-0.2,0.4-0.4,0.7-0.5c0.3-0.1,0.6-0.2,0.9-0.2c0.3,0,0.5,0,0.7,0.1
				c0.2,0.1,0.4,0.2,0.5,0.3c0.1,0.1,0.3,0.3,0.4,0.5c0.1,0.2,0.2,0.4,0.3,0.6L-286.7,425.4z"/>
			<path class="st1" d="M-284.6,421.8h0.7v4.6h0l2.1-2.6h0.9l-1.5,1.9l1.7,3.3h-0.9l-1.4-2.7l-1,1.1v1.6h-0.7V421.8z"/>
			<path class="st1" d="M-275.7,421.8v6.1c0,0.2,0,0.4,0,0.6c0,0.2,0,0.4,0,0.6h-0.7l-0.1-0.5c-0.1,0.2-0.3,0.3-0.5,0.4
				c-0.2,0.1-0.5,0.2-0.8,0.2c-0.2,0-0.5,0-0.7-0.1c-0.2-0.1-0.5-0.2-0.7-0.4c-0.2-0.2-0.4-0.5-0.5-0.8s-0.2-0.8-0.2-1.3
				c0-0.5,0.1-0.9,0.2-1.3s0.3-0.6,0.5-0.8c0.2-0.2,0.4-0.4,0.7-0.5c0.2-0.1,0.5-0.1,0.7-0.1c0.2,0,0.5,0.1,0.7,0.2
				c0.2,0.1,0.5,0.2,0.6,0.4l0,0v-2.5H-275.7z M-276.5,425.1c-0.2-0.2-0.4-0.4-0.6-0.5c-0.2-0.1-0.5-0.2-0.7-0.2s-0.4,0-0.6,0.1
				c-0.2,0.1-0.3,0.2-0.5,0.4s-0.2,0.4-0.3,0.7c-0.1,0.3-0.1,0.6-0.1,1c0,0.7,0.1,1.2,0.4,1.5c0.3,0.3,0.6,0.5,1.1,0.5
				c0.2,0,0.4-0.1,0.6-0.2s0.4-0.3,0.7-0.5V425.1z"/>
			<path class="st1" d="M-270.2,426.4c0,0.4,0,0.7-0.1,1.1c-0.1,0.3-0.2,0.6-0.4,0.9c-0.2,0.2-0.4,0.4-0.7,0.6
				c-0.3,0.1-0.6,0.2-0.9,0.2s-0.7-0.1-0.9-0.2c-0.3-0.1-0.5-0.3-0.7-0.6c-0.2-0.2-0.3-0.5-0.4-0.9c-0.1-0.3-0.1-0.7-0.1-1.1
				c0-0.4,0-0.7,0.1-1.1c0.1-0.3,0.2-0.6,0.4-0.9c0.2-0.2,0.4-0.4,0.7-0.6c0.3-0.1,0.6-0.2,0.9-0.2s0.7,0.1,0.9,0.2
				c0.3,0.1,0.5,0.3,0.7,0.6c0.2,0.2,0.3,0.5,0.4,0.9C-270.3,425.7-270.2,426.1-270.2,426.4z M-270.9,426.4c0-0.7-0.1-1.2-0.4-1.5
				c-0.3-0.4-0.6-0.5-1-0.5c-0.4,0-0.8,0.2-1,0.5c-0.3,0.4-0.4,0.9-0.4,1.5c0,0.7,0.1,1.2,0.4,1.5c0.3,0.4,0.6,0.5,1,0.5
				c0.4,0,0.8-0.2,1-0.5S-270.9,427.1-270.9,426.4z"/>
			<path class="st1" d="M-269.7,423.8h0.7l1,4h0l1-4h0.7l1,4h0l1-4h0.7l-1.4,5.2h-0.7l-1-4h0l-1,4h-0.7L-269.7,423.8z"/>
			<path class="st1" d="M-261.6,423.8v0.7h0c0.2-0.2,0.4-0.4,0.7-0.6c0.3-0.1,0.5-0.2,0.8-0.2c0.2,0,0.4,0,0.6,0.1
				c0.2,0.1,0.3,0.1,0.5,0.3s0.3,0.3,0.3,0.5s0.1,0.4,0.1,0.7v3.8h-0.7v-3.8c0-0.3-0.1-0.6-0.2-0.7c-0.2-0.1-0.4-0.2-0.6-0.2
				c-0.1,0-0.3,0-0.4,0.1c-0.1,0.1-0.3,0.1-0.4,0.2c-0.1,0.1-0.3,0.2-0.4,0.3c-0.1,0.1-0.2,0.2-0.3,0.3v3.9h-0.7v-5.2H-261.6z"/>
			<path class="st1" d="M-253.6,429v-4.6h-0.9v-0.6h0.9v-0.6c0-0.3,0-0.6,0.1-0.8c0.1-0.2,0.1-0.4,0.2-0.5c0.1-0.1,0.2-0.2,0.4-0.2
				s0.3-0.1,0.6-0.1c0.1,0,0.2,0,0.3,0c0.1,0,0.2,0,0.3,0v0.6c-0.1,0-0.2,0-0.3,0s-0.2,0-0.3,0c-0.2,0-0.4,0-0.5,0.2
				c-0.1,0.1-0.1,0.3-0.1,0.6v0.8h1.1v0.6h-1.1v4.6H-253.6z M-249.9,421.7v0.9h-0.7v-0.9H-249.9z M-250.6,423.8h0.7v5.2h-0.7V423.8z
				"/>
			<path class="st1" d="M-248,423.8v-1.7h0.7v1.7h1.2v0.6h-1.2v3.7c0,0.1,0,0.2,0.1,0.3c0.1,0.1,0.2,0.1,0.5,0.1c0.1,0,0.2,0,0.3,0
				c0.1,0,0.2,0,0.3,0v0.6c-0.1,0-0.2,0-0.3,0.1s-0.3,0-0.5,0c-0.4,0-0.7-0.1-0.9-0.2s-0.3-0.3-0.3-0.7v-3.8h-0.8v-0.6H-248z"/>
			<path class="st1" d="M-243.7,427.9v1.1h-1v-1.1H-243.7z"/>
		</g>
	</g>
</g>
</svg>
