<?xml version="1.0" encoding="utf-8"?>
<!-- Generator: Adobe Illustrator 19.1.0, SVG Export Plug-In . SVG Version: 6.00 Build 0)  -->
<svg version="1.1" id="Layer_1" xmlns="http://www.w3.org/2000/svg" xmlns:xlink="http://www.w3.org/1999/xlink" x="0px" y="0px"
	 viewBox="-399 176 800 350" style="enable-background:new -399 176 800 350;" xml:space="preserve">
<style type="text/css">
	.st0{enable-background:new    ;}
	.st1{fill:#FFFFFF;}
	.st2{fill:none;stroke:#FFFFFF;stroke-miterlimit:10;}
</style>
<g id="outsole">
	<g>
		<g class="st0">
			<path class="st1" d="M240.9,423.4v-0.7c0-0.4-0.1-0.6-0.2-0.8s-0.3-0.2-0.5-0.2c-0.3,0-0.5,0.1-0.6,0.2c-0.1,0.2-0.2,0.4-0.2,0.7
				v4.4c0,0.3,0.1,0.6,0.2,0.7c0.1,0.2,0.3,0.2,0.6,0.2c0.3,0,0.5-0.1,0.6-0.2c0.1-0.2,0.2-0.4,0.2-0.6v-1h1.5v1
				c0,0.3,0,0.6-0.1,0.9c-0.1,0.3-0.2,0.5-0.4,0.7c-0.2,0.2-0.4,0.4-0.7,0.5c-0.3,0.1-0.6,0.2-1,0.2c-0.4,0-0.7-0.1-1-0.2
				c-0.3-0.1-0.5-0.3-0.7-0.5c-0.2-0.2-0.3-0.4-0.4-0.7c-0.1-0.3-0.1-0.6-0.1-0.9v-4.5c0-0.3,0-0.6,0.1-0.9c0.1-0.3,0.2-0.5,0.4-0.7
				s0.4-0.4,0.7-0.5c0.3-0.1,0.6-0.2,1-0.2c0.4,0,0.7,0.1,1,0.2c0.3,0.1,0.5,0.3,0.7,0.5c0.2,0.2,0.3,0.5,0.4,0.8
				c0.1,0.3,0.1,0.6,0.1,0.9v0.6H240.9z"/>
			<path class="st1" d="M245.3,429.1h-1.5v-8.7h2.1c0.8,0,1.5,0.2,1.9,0.6c0.4,0.4,0.6,1,0.6,2c0,0.4,0,0.7-0.1,0.9
				c-0.1,0.2-0.1,0.5-0.2,0.6s-0.2,0.3-0.3,0.4c-0.1,0.1-0.2,0.2-0.4,0.2l1.3,3.9h-1.5l-1.1-3.6c-0.1,0-0.2,0-0.4,0
				c-0.1,0-0.3,0-0.4,0V429.1z M245.3,424.4h0.5c0.2,0,0.4,0,0.5-0.1c0.1,0,0.3-0.1,0.3-0.2c0.1-0.1,0.2-0.2,0.2-0.4
				s0.1-0.4,0.1-0.6c0-0.5-0.1-0.9-0.3-1c-0.2-0.2-0.5-0.3-0.9-0.3h-0.5V424.4z"/>
			<path class="st1" d="M250.7,429.1h-1.4l1.6-8.7h1.8l1.6,8.7h-1.4l-0.3-1.9H251L250.7,429.1z M251.2,425.9h1.2l-0.6-3.7h0
				L251.2,425.9z"/>
			<path class="st1" d="M257.9,422.6c0-0.2-0.1-0.3-0.1-0.5c-0.1-0.1-0.1-0.2-0.2-0.3c-0.1-0.1-0.2-0.1-0.2-0.2c-0.1,0-0.2,0-0.3,0
				c-0.2,0-0.4,0.1-0.6,0.2c-0.1,0.1-0.2,0.4-0.2,0.6c0,0.2,0.1,0.5,0.2,0.7c0.1,0.2,0.3,0.4,0.6,0.6c0.2,0.2,0.5,0.4,0.7,0.6
				c0.3,0.2,0.5,0.4,0.7,0.7c0.2,0.3,0.4,0.5,0.6,0.8c0.1,0.3,0.2,0.7,0.2,1.1c0,0.4-0.1,0.7-0.2,1c-0.1,0.3-0.3,0.5-0.5,0.7
				c-0.2,0.2-0.5,0.3-0.7,0.4c-0.3,0.1-0.6,0.1-1,0.1c-0.3,0-0.7-0.1-0.9-0.2s-0.5-0.3-0.7-0.5s-0.3-0.5-0.4-0.8
				c-0.1-0.3-0.2-0.6-0.2-0.9l1.4-0.2c0,0.4,0.1,0.8,0.3,1c0.2,0.2,0.4,0.3,0.6,0.3c0.3,0,0.5-0.1,0.6-0.2c0.2-0.1,0.2-0.3,0.2-0.6
				c0-0.3-0.1-0.5-0.2-0.8c-0.1-0.2-0.3-0.4-0.6-0.6c-0.2-0.2-0.5-0.4-0.7-0.6c-0.3-0.2-0.5-0.4-0.7-0.7c-0.2-0.2-0.4-0.5-0.6-0.8
				c-0.1-0.3-0.2-0.7-0.2-1.1c0-0.7,0.2-1.2,0.6-1.6c0.4-0.4,1-0.6,1.7-0.6c0.3,0,0.6,0.1,0.8,0.2c0.2,0.1,0.4,0.2,0.6,0.4
				c0.2,0.2,0.3,0.4,0.4,0.7c0.1,0.3,0.2,0.5,0.2,0.8L257.9,422.6z"/>
			<path class="st1" d="M260.5,429.1v-8.7h1.5v3.5h1.6v-3.5h1.5v8.7h-1.5v-3.8H262v3.8H260.5z"/>
			<path class="st1" d="M270.7,429.1h-1.5v-8.7h2.1c0.8,0,1.5,0.2,1.9,0.6c0.4,0.4,0.6,1,0.6,2c0,0.4,0,0.7-0.1,0.9
				c-0.1,0.2-0.1,0.5-0.2,0.6s-0.2,0.3-0.3,0.4c-0.1,0.1-0.2,0.2-0.4,0.2l1.3,3.9h-1.5l-1.1-3.6c-0.1,0-0.2,0-0.4,0
				c-0.1,0-0.3,0-0.4,0V429.1z M270.7,424.4h0.5c0.2,0,0.4,0,0.5-0.1c0.1,0,0.3-0.1,0.3-0.2c0.1-0.1,0.2-0.2,0.2-0.4
				s0.1-0.4,0.1-0.6c0-0.5-0.1-0.9-0.3-1c-0.2-0.2-0.5-0.3-0.9-0.3h-0.5V424.4z"/>
			<path class="st1" d="M276,429.1h-1.4l1.6-8.7h1.8l1.6,8.7h-1.4l-0.3-1.9h-1.6L276,429.1z M276.5,425.9h1.2l-0.6-3.7h0
				L276.5,425.9z"/>
			<path class="st1" d="M280.7,429.1v-8.7h1.5v8.7H280.7z"/>
			<path class="st1" d="M283.8,429.1v-8.7h1.5v7.4h2.3v1.3H283.8z"/>
		</g>
		<g class="st0">
			<path class="st1" d="M242.9,440c-0.1,0.3-0.2,0.6-0.3,0.9s-0.3,0.5-0.5,0.7c-0.2,0.2-0.4,0.4-0.7,0.5c-0.3,0.1-0.6,0.2-1,0.2
				c-0.4,0-0.8-0.1-1.1-0.2s-0.6-0.4-0.9-0.7c-0.2-0.3-0.4-0.7-0.6-1.2s-0.2-1-0.2-1.7c0-0.6,0.1-1.1,0.2-1.6s0.3-0.8,0.5-1.2
				c0.2-0.3,0.5-0.6,0.9-0.7c0.3-0.2,0.7-0.2,1.2-0.2c0.7,0,1.2,0.2,1.6,0.6c0.4,0.4,0.7,0.9,0.8,1.5l-0.7,0.2
				c-0.1-0.3-0.1-0.5-0.2-0.7c-0.1-0.2-0.2-0.4-0.4-0.5c-0.1-0.1-0.3-0.2-0.5-0.3c-0.2-0.1-0.4-0.1-0.7-0.1c-0.3,0-0.5,0.1-0.7,0.2
				c-0.2,0.1-0.4,0.3-0.6,0.6c-0.2,0.2-0.3,0.6-0.4,0.9c-0.1,0.4-0.1,0.8-0.1,1.3c0,0.5,0,1,0.1,1.4c0.1,0.4,0.2,0.7,0.4,0.9
				c0.2,0.2,0.4,0.4,0.6,0.5s0.5,0.2,0.8,0.2c0.3,0,0.5,0,0.7-0.1c0.2-0.1,0.4-0.2,0.5-0.4c0.1-0.2,0.2-0.3,0.3-0.5
				c0.1-0.2,0.2-0.4,0.2-0.6L242.9,440z"/>
			<path class="st1" d="M247.2,442.2v-0.7h0c-0.2,0.2-0.4,0.4-0.7,0.6c-0.3,0.2-0.5,0.2-0.8,0.2c-0.2,0-0.4,0-0.6-0.1
				c-0.2-0.1-0.3-0.1-0.5-0.3s-0.3-0.3-0.3-0.5c-0.1-0.2-0.1-0.4-0.1-0.7V437h0.7v3.8c0,0.3,0.1,0.6,0.2,0.7
				c0.2,0.1,0.4,0.2,0.6,0.2c0.1,0,0.3,0,0.4-0.1c0.1,0,0.3-0.1,0.4-0.2c0.1-0.1,0.3-0.2,0.4-0.3c0.1-0.1,0.2-0.2,0.3-0.3V437h0.7
				v5.2H247.2z"/>
			<path class="st1" d="M249.6,440.8c0.2,0.2,0.4,0.4,0.6,0.6c0.2,0.1,0.5,0.2,0.9,0.2c0.4,0,0.7-0.1,0.9-0.3
				c0.2-0.2,0.3-0.4,0.3-0.6s-0.1-0.4-0.2-0.5c-0.2-0.1-0.3-0.2-0.6-0.3c-0.2-0.1-0.5-0.2-0.7-0.2c-0.3-0.1-0.5-0.2-0.7-0.3
				c-0.2-0.1-0.4-0.3-0.6-0.4c-0.1-0.2-0.2-0.4-0.2-0.8c0-0.5,0.2-0.8,0.5-1c0.3-0.2,0.7-0.4,1.2-0.4c0.2,0,0.3,0,0.5,0.1
				c0.2,0,0.3,0.1,0.5,0.2c0.2,0.1,0.3,0.2,0.4,0.3s0.2,0.2,0.3,0.4l-0.5,0.4c-0.2-0.2-0.4-0.4-0.6-0.5s-0.5-0.2-0.7-0.2
				c-0.3,0-0.5,0.1-0.7,0.2c-0.2,0.1-0.2,0.3-0.2,0.6c0,0.2,0.1,0.3,0.2,0.4c0.1,0.1,0.3,0.2,0.6,0.3c0.2,0.1,0.5,0.2,0.7,0.2
				c0.3,0.1,0.5,0.2,0.7,0.3c0.2,0.1,0.4,0.3,0.6,0.5c0.1,0.2,0.2,0.5,0.2,0.8c0,0.3-0.1,0.5-0.1,0.7c-0.1,0.2-0.2,0.3-0.4,0.5
				c-0.2,0.1-0.4,0.2-0.6,0.3s-0.4,0.1-0.7,0.1c-0.4,0-0.8-0.1-1.2-0.3c-0.4-0.2-0.7-0.4-0.9-0.7L249.6,440.8z"/>
			<path class="st1" d="M254.9,435v2.7h0c0.2-0.2,0.4-0.4,0.7-0.6c0.3-0.1,0.5-0.2,0.8-0.2c0.2,0,0.4,0,0.6,0.1
				c0.2,0.1,0.3,0.1,0.5,0.3s0.3,0.3,0.3,0.5s0.1,0.4,0.1,0.7v3.8h-0.7v-3.8c0-0.3-0.1-0.6-0.2-0.7c-0.2-0.1-0.4-0.2-0.6-0.2
				c-0.1,0-0.3,0-0.4,0.1c-0.1,0.1-0.3,0.1-0.4,0.2c-0.1,0.1-0.3,0.2-0.4,0.3c-0.1,0.1-0.2,0.2-0.3,0.3v3.9h-0.7V435H254.9z"/>
			<path class="st1" d="M260.6,434.8v0.9h-0.7v-0.9H260.6z M259.8,437h0.7v5.2h-0.7V437z"/>
			<path class="st1" d="M266.2,439.6c0,0.4,0,0.7-0.1,1.1c-0.1,0.3-0.2,0.6-0.4,0.9c-0.2,0.2-0.4,0.4-0.7,0.6
				c-0.3,0.1-0.6,0.2-0.9,0.2s-0.7-0.1-0.9-0.2c-0.3-0.1-0.5-0.3-0.7-0.6c-0.2-0.2-0.3-0.5-0.4-0.9c-0.1-0.3-0.1-0.7-0.1-1.1
				c0-0.4,0-0.7,0.1-1.1c0.1-0.3,0.2-0.6,0.4-0.9c0.2-0.2,0.4-0.4,0.7-0.6c0.3-0.1,0.6-0.2,0.9-0.2s0.7,0.1,0.9,0.2
				c0.3,0.1,0.5,0.3,0.7,0.6c0.2,0.2,0.3,0.5,0.4,0.9C266.2,438.8,266.2,439.2,266.2,439.6z M265.5,439.6c0-0.7-0.1-1.2-0.4-1.5
				c-0.3-0.4-0.6-0.5-1-0.5c-0.4,0-0.8,0.2-1,0.5c-0.3,0.4-0.4,0.9-0.4,1.5c0,0.7,0.1,1.2,0.4,1.5c0.3,0.4,0.6,0.5,1,0.5
				c0.4,0,0.8-0.2,1-0.5S265.5,440.2,265.5,439.6z"/>
			<path class="st1" d="M268.2,437v0.7h0c0.2-0.2,0.4-0.4,0.7-0.6c0.3-0.1,0.5-0.2,0.8-0.2c0.2,0,0.4,0,0.6,0.1
				c0.2,0.1,0.3,0.1,0.5,0.3s0.3,0.3,0.3,0.5s0.1,0.4,0.1,0.7v3.8h-0.7v-3.8c0-0.3-0.1-0.6-0.2-0.7c-0.2-0.1-0.4-0.2-0.6-0.2
				c-0.1,0-0.3,0-0.4,0.1c-0.1,0.1-0.3,0.1-0.4,0.2c-0.1,0.1-0.3,0.2-0.4,0.3c-0.1,0.1-0.2,0.2-0.3,0.3v3.9h-0.7V437H268.2z"/>
			<path class="st1" d="M273,440.8c0.2,0.2,0.4,0.4,0.6,0.6c0.2,0.1,0.5,0.2,0.9,0.2c0.4,0,0.7-0.1,0.9-0.3c0.2-0.2,0.3-0.4,0.3-0.6
				s-0.1-0.4-0.2-0.5c-0.2-0.1-0.3-0.2-0.6-0.3c-0.2-0.1-0.5-0.2-0.7-0.2c-0.3-0.1-0.5-0.2-0.7-0.3c-0.2-0.1-0.4-0.3-0.6-0.4
				c-0.1-0.2-0.2-0.4-0.2-0.8c0-0.5,0.2-0.8,0.5-1c0.3-0.2,0.7-0.4,1.2-0.4c0.2,0,0.3,0,0.5,0.1c0.2,0,0.3,0.1,0.5,0.2
				c0.2,0.1,0.3,0.2,0.4,0.3s0.2,0.2,0.3,0.4l-0.5,0.4c-0.2-0.2-0.4-0.4-0.6-0.5s-0.5-0.2-0.7-0.2c-0.3,0-0.5,0.1-0.7,0.2
				c-0.2,0.1-0.2,0.3-0.2,0.6c0,0.2,0.1,0.3,0.2,0.4c0.1,0.1,0.3,0.2,0.6,0.3c0.2,0.1,0.5,0.2,0.7,0.2c0.3,0.1,0.5,0.2,0.7,0.3
				c0.2,0.1,0.4,0.3,0.6,0.5c0.1,0.2,0.2,0.5,0.2,0.8c0,0.3-0.1,0.5-0.1,0.7c-0.1,0.2-0.2,0.3-0.4,0.5c-0.2,0.1-0.4,0.2-0.6,0.3
				s-0.4,0.1-0.7,0.1c-0.4,0-0.8-0.1-1.2-0.3c-0.4-0.2-0.7-0.4-0.9-0.7L273,440.8z"/>
			<path class="st1" d="M284.3,439.6c0,0.4,0,0.7-0.1,1.1c-0.1,0.3-0.2,0.6-0.4,0.9c-0.2,0.2-0.4,0.4-0.7,0.6
				c-0.3,0.1-0.6,0.2-0.9,0.2s-0.7-0.1-0.9-0.2c-0.3-0.1-0.5-0.3-0.7-0.6c-0.2-0.2-0.3-0.5-0.4-0.9c-0.1-0.3-0.1-0.7-0.1-1.1
				c0-0.4,0-0.7,0.1-1.1c0.1-0.3,0.2-0.6,0.4-0.9c0.2-0.2,0.4-0.4,0.7-0.6c0.3-0.1,0.6-0.2,0.9-0.2s0.7,0.1,0.9,0.2
				c0.3,0.1,0.5,0.3,0.7,0.6c0.2,0.2,0.3,0.5,0.4,0.9C284.2,438.8,284.3,439.2,284.3,439.6z M283.5,439.6c0-0.7-0.1-1.2-0.4-1.5
				c-0.3-0.4-0.6-0.5-1-0.5c-0.4,0-0.8,0.2-1,0.5c-0.3,0.4-0.4,0.9-0.4,1.5c0,0.7,0.1,1.2,0.4,1.5c0.3,0.4,0.6,0.5,1,0.5
				c0.4,0,0.8-0.2,1-0.5S283.5,440.2,283.5,439.6z"/>
			<path class="st1" d="M286.2,437v0.7h0c0.2-0.2,0.4-0.4,0.7-0.6c0.3-0.1,0.5-0.2,0.8-0.2c0.2,0,0.4,0,0.6,0.1
				c0.2,0.1,0.3,0.1,0.5,0.3s0.3,0.3,0.3,0.5s0.1,0.4,0.1,0.7v3.8h-0.7v-3.8c0-0.3-0.1-0.6-0.2-0.7c-0.2-0.1-0.4-0.2-0.6-0.2
				c-0.1,0-0.3,0-0.4,0.1c-0.1,0.1-0.3,0.1-0.4,0.2c-0.1,0.1-0.3,0.2-0.4,0.3c-0.1,0.1-0.2,0.2-0.3,0.3v3.9h-0.7V437H286.2z"/>
			<path class="st1" d="M297,438.5c-0.1-0.3-0.3-0.6-0.5-0.8c-0.2-0.2-0.5-0.3-0.8-0.3c-0.4,0-0.8,0.2-1,0.5
				c-0.2,0.4-0.4,0.9-0.4,1.5c0,0.7,0.1,1.2,0.4,1.5c0.2,0.4,0.6,0.5,1,0.5c0.2,0,0.3,0,0.4,0c0.1,0,0.3-0.1,0.4-0.2
				s0.2-0.2,0.3-0.3c0.1-0.1,0.2-0.3,0.3-0.5l0.6,0.3c-0.1,0.2-0.3,0.4-0.4,0.6c-0.1,0.2-0.3,0.3-0.4,0.4c-0.2,0.1-0.3,0.2-0.5,0.2
				c-0.2,0.1-0.4,0.1-0.7,0.1c-0.3,0-0.6-0.1-0.9-0.2c-0.3-0.1-0.5-0.3-0.7-0.5c-0.2-0.2-0.3-0.5-0.4-0.8c-0.1-0.3-0.1-0.7-0.1-1.1
				s0.1-0.8,0.1-1.1c0.1-0.3,0.2-0.6,0.4-0.8c0.2-0.2,0.4-0.4,0.7-0.5c0.3-0.1,0.6-0.2,0.9-0.2c0.3,0,0.5,0,0.7,0.1
				c0.2,0.1,0.4,0.2,0.5,0.3c0.1,0.1,0.3,0.3,0.4,0.5c0.1,0.2,0.2,0.4,0.3,0.6L297,438.5z"/>
			<path class="st1" d="M302.9,439.6c0,0.4,0,0.7-0.1,1.1c-0.1,0.3-0.2,0.6-0.4,0.9c-0.2,0.2-0.4,0.4-0.7,0.6
				c-0.3,0.1-0.6,0.2-0.9,0.2s-0.7-0.1-0.9-0.2c-0.3-0.1-0.5-0.3-0.7-0.6c-0.2-0.2-0.3-0.5-0.4-0.9c-0.1-0.3-0.1-0.7-0.1-1.1
				c0-0.4,0-0.7,0.1-1.1c0.1-0.3,0.2-0.6,0.4-0.9c0.2-0.2,0.4-0.4,0.7-0.6c0.3-0.1,0.6-0.2,0.9-0.2s0.7,0.1,0.9,0.2
				c0.3,0.1,0.5,0.3,0.7,0.6c0.2,0.2,0.3,0.5,0.4,0.9C302.8,438.8,302.9,439.2,302.9,439.6z M302.2,439.6c0-0.7-0.1-1.2-0.4-1.5
				c-0.3-0.4-0.6-0.5-1-0.5c-0.4,0-0.8,0.2-1,0.5c-0.3,0.4-0.4,0.9-0.4,1.5c0,0.7,0.1,1.2,0.4,1.5c0.3,0.4,0.6,0.5,1,0.5
				c0.4,0,0.8-0.2,1-0.5S302.2,440.2,302.2,439.6z"/>
			<path class="st1" d="M304.9,437v0.7h0c0.2-0.2,0.4-0.4,0.7-0.6c0.3-0.1,0.5-0.2,0.8-0.2c0.2,0,0.4,0,0.6,0.1
				c0.2,0.1,0.3,0.1,0.5,0.3s0.3,0.3,0.3,0.5s0.1,0.4,0.1,0.7v3.8h-0.7v-3.8c0-0.3-0.1-0.6-0.2-0.7c-0.2-0.1-0.4-0.2-0.6-0.2
				c-0.1,0-0.3,0-0.4,0.1c-0.1,0.1-0.3,0.1-0.4,0.2c-0.1,0.1-0.3,0.2-0.4,0.3c-0.1,0.1-0.2,0.2-0.3,0.3v3.9h-0.7V437H304.9z"/>
			<path class="st1" d="M309.8,437v-1.7h0.7v1.7h1.2v0.6h-1.2v3.7c0,0.1,0,0.2,0.1,0.3c0.1,0.1,0.2,0.1,0.5,0.1c0.1,0,0.2,0,0.3,0
				c0.1,0,0.2,0,0.3,0v0.6c-0.1,0-0.2,0-0.3,0.1s-0.3,0-0.5,0c-0.4,0-0.7-0.1-0.9-0.2s-0.3-0.3-0.3-0.7v-3.8H309V437H309.8z"/>
			<path class="st1" d="M312.7,438c0.2-0.3,0.4-0.6,0.7-0.8c0.3-0.2,0.7-0.3,1.2-0.3c0.2,0,0.4,0,0.6,0.1s0.4,0.1,0.6,0.3
				c0.2,0.1,0.3,0.3,0.4,0.5c0.1,0.2,0.2,0.4,0.2,0.7v2.6c0,0.3,0,0.5,0,0.7c0,0.2,0.1,0.3,0.1,0.4h-0.7l-0.1-0.7
				c-0.2,0.2-0.4,0.4-0.7,0.6c-0.3,0.2-0.6,0.3-1,0.3c-0.2,0-0.4,0-0.6-0.1c-0.2-0.1-0.3-0.1-0.5-0.3s-0.2-0.3-0.3-0.4
				s-0.1-0.4-0.1-0.6c0-0.3,0.1-0.5,0.2-0.8s0.3-0.4,0.6-0.6c0.3-0.2,0.6-0.3,1-0.4c0.4-0.1,0.9-0.2,1.5-0.3v-0.3
				c0-0.3-0.1-0.6-0.3-0.7c-0.2-0.1-0.5-0.2-0.8-0.2c-0.2,0-0.4,0-0.5,0.1c-0.1,0.1-0.3,0.1-0.4,0.2c-0.1,0.1-0.2,0.2-0.3,0.3
				s-0.1,0.2-0.2,0.3L312.7,438z M315.7,439.4c-1.6,0.3-2.5,0.8-2.5,1.5c0,0.1,0,0.2,0.1,0.3c0.1,0.1,0.1,0.2,0.2,0.3
				c0.1,0.1,0.2,0.1,0.3,0.2c0.1,0,0.2,0.1,0.3,0.1c0.1,0,0.3,0,0.4-0.1c0.1,0,0.3-0.1,0.4-0.2c0.1-0.1,0.3-0.2,0.4-0.3
				s0.2-0.2,0.4-0.3V439.4z"/>
			<path class="st1" d="M320.9,438.5c-0.1-0.3-0.3-0.6-0.5-0.8c-0.2-0.2-0.5-0.3-0.8-0.3c-0.4,0-0.8,0.2-1,0.5
				c-0.2,0.4-0.4,0.9-0.4,1.5c0,0.7,0.1,1.2,0.4,1.5c0.2,0.4,0.6,0.5,1,0.5c0.2,0,0.3,0,0.4,0c0.1,0,0.3-0.1,0.4-0.2
				s0.2-0.2,0.3-0.3c0.1-0.1,0.2-0.3,0.3-0.5l0.6,0.3c-0.1,0.2-0.3,0.4-0.4,0.6c-0.1,0.2-0.3,0.3-0.4,0.4c-0.2,0.1-0.3,0.2-0.5,0.2
				c-0.2,0.1-0.4,0.1-0.7,0.1c-0.3,0-0.6-0.1-0.9-0.2c-0.3-0.1-0.5-0.3-0.7-0.5c-0.2-0.2-0.3-0.5-0.4-0.8c-0.1-0.3-0.1-0.7-0.1-1.1
				s0.1-0.8,0.1-1.1c0.1-0.3,0.2-0.6,0.4-0.8c0.2-0.2,0.4-0.4,0.7-0.5c0.3-0.1,0.6-0.2,0.9-0.2c0.3,0,0.5,0,0.7,0.1
				c0.2,0.1,0.4,0.2,0.5,0.3c0.1,0.1,0.3,0.3,0.4,0.5c0.1,0.2,0.2,0.4,0.3,0.6L320.9,438.5z"/>
			<path class="st1" d="M323.2,437v-1.7h0.7v1.7h1.2v0.6h-1.2v3.7c0,0.1,0,0.2,0.1,0.3c0.1,0.1,0.2,0.1,0.5,0.1c0.1,0,0.2,0,0.3,0
				c0.1,0,0.2,0,0.3,0v0.6c-0.1,0-0.2,0-0.3,0.1s-0.3,0-0.5,0c-0.4,0-0.7-0.1-0.9-0.2s-0.3-0.3-0.3-0.7v-3.8h-0.8V437H323.2z"/>
			<path class="st1" d="M329.5,437v-1.7h0.7v1.7h1.2v0.6h-1.2v3.7c0,0.1,0,0.2,0.1,0.3c0.1,0.1,0.2,0.1,0.5,0.1c0.1,0,0.2,0,0.3,0
				c0.1,0,0.2,0,0.3,0v0.6c-0.1,0-0.2,0-0.3,0.1s-0.3,0-0.5,0c-0.4,0-0.7-0.1-0.9-0.2s-0.3-0.3-0.3-0.7v-3.8h-0.8V437H329.5z"/>
			<path class="st1" d="M336.5,439.6c0,0.4,0,0.7-0.1,1.1c-0.1,0.3-0.2,0.6-0.4,0.9c-0.2,0.2-0.4,0.4-0.7,0.6
				c-0.3,0.1-0.6,0.2-0.9,0.2s-0.7-0.1-0.9-0.2c-0.3-0.1-0.5-0.3-0.7-0.6c-0.2-0.2-0.3-0.5-0.4-0.9c-0.1-0.3-0.1-0.7-0.1-1.1
				c0-0.4,0-0.7,0.1-1.1c0.1-0.3,0.2-0.6,0.4-0.9c0.2-0.2,0.4-0.4,0.7-0.6c0.3-0.1,0.6-0.2,0.9-0.2s0.7,0.1,0.9,0.2
				c0.3,0.1,0.5,0.3,0.7,0.6c0.2,0.2,0.3,0.5,0.4,0.9C336.4,438.8,336.5,439.2,336.5,439.6z M335.8,439.6c0-0.7-0.1-1.2-0.4-1.5
				c-0.3-0.4-0.6-0.5-1-0.5c-0.4,0-0.8,0.2-1,0.5c-0.3,0.4-0.4,0.9-0.4,1.5c0,0.7,0.1,1.2,0.4,1.5c0.3,0.4,0.6,0.5,1,0.5
				c0.4,0,0.8-0.2,1-0.5S335.8,440.2,335.8,439.6z"/>
		</g>
		<g class="st0">
			<path class="st1" d="M241.8,447v6.1c0,0.2,0,0.4,0,0.6c0,0.2,0,0.4,0,0.6h-0.7l-0.1-0.5c-0.1,0.2-0.3,0.3-0.5,0.4
				c-0.2,0.1-0.5,0.2-0.8,0.2c-0.2,0-0.5,0-0.7-0.1c-0.2-0.1-0.5-0.2-0.7-0.4c-0.2-0.2-0.4-0.5-0.5-0.8s-0.2-0.8-0.2-1.3
				c0-0.5,0.1-0.9,0.2-1.3s0.3-0.6,0.5-0.8c0.2-0.2,0.4-0.4,0.7-0.5c0.2-0.1,0.5-0.1,0.7-0.1c0.2,0,0.5,0.1,0.7,0.2
				c0.2,0.1,0.5,0.2,0.6,0.4l0,0V447H241.8z M241.1,450.2c-0.2-0.2-0.4-0.4-0.6-0.5c-0.2-0.1-0.5-0.2-0.7-0.2s-0.4,0-0.6,0.1
				c-0.2,0.1-0.3,0.2-0.5,0.4s-0.2,0.4-0.3,0.7c-0.1,0.3-0.1,0.6-0.1,1c0,0.7,0.1,1.2,0.4,1.5c0.3,0.3,0.6,0.5,1.1,0.5
				c0.2,0,0.4-0.1,0.6-0.2s0.4-0.3,0.7-0.5V450.2z"/>
			<path class="st1" d="M247.4,453.1c-0.1,0.1-0.2,0.3-0.3,0.4c-0.1,0.1-0.2,0.3-0.4,0.4c-0.2,0.1-0.3,0.2-0.6,0.3s-0.5,0.1-0.8,0.1
				c-0.3,0-0.6-0.1-0.8-0.2c-0.3-0.1-0.5-0.3-0.7-0.5c-0.2-0.2-0.4-0.5-0.5-0.8c-0.1-0.3-0.2-0.7-0.2-1.2c0-0.4,0.1-0.8,0.1-1.1
				c0.1-0.3,0.2-0.6,0.4-0.8s0.4-0.4,0.7-0.5c0.3-0.1,0.6-0.2,0.9-0.2c0.3,0,0.5,0,0.8,0.1c0.2,0.1,0.5,0.2,0.6,0.4
				c0.2,0.2,0.3,0.4,0.4,0.7c0.1,0.3,0.2,0.7,0.2,1.1v0.5h-3.4c0,0.3,0,0.5,0.1,0.8c0.1,0.2,0.2,0.4,0.3,0.6
				c0.1,0.2,0.3,0.3,0.5,0.4c0.2,0.1,0.4,0.1,0.6,0.1c0.3,0,0.6-0.1,0.8-0.2s0.4-0.4,0.6-0.6L247.4,453.1z M246.5,451.1
				c0-0.5-0.1-0.9-0.3-1.2c-0.2-0.3-0.5-0.4-0.9-0.4c-0.4,0-0.8,0.1-1,0.4c-0.2,0.3-0.4,0.7-0.4,1.2H246.5z"/>
			<path class="st1" d="M249.4,447v7.2h-0.7V447H249.4z"/>
			<path class="st1" d="M252.2,446.8v0.9h-0.7v-0.9H252.2z M251.5,449h0.7v5.2h-0.7V449z"/>
			<path class="st1" d="M256,454.2h-1l-1.6-5.2h0.7l1.3,4.3h0l1.3-4.3h0.7L256,454.2z"/>
			<path class="st1" d="M262.4,453.1c-0.1,0.1-0.2,0.3-0.3,0.4c-0.1,0.1-0.2,0.3-0.4,0.4c-0.2,0.1-0.3,0.2-0.6,0.3s-0.5,0.1-0.8,0.1
				c-0.3,0-0.6-0.1-0.8-0.2c-0.3-0.1-0.5-0.3-0.7-0.5c-0.2-0.2-0.4-0.5-0.5-0.8c-0.1-0.3-0.2-0.7-0.2-1.2c0-0.4,0.1-0.8,0.1-1.1
				c0.1-0.3,0.2-0.6,0.4-0.8s0.4-0.4,0.7-0.5c0.3-0.1,0.6-0.2,0.9-0.2c0.3,0,0.5,0,0.8,0.1c0.2,0.1,0.5,0.2,0.6,0.4
				c0.2,0.2,0.3,0.4,0.4,0.7c0.1,0.3,0.2,0.7,0.2,1.1v0.5h-3.4c0,0.3,0,0.5,0.1,0.8c0.1,0.2,0.2,0.4,0.3,0.6
				c0.1,0.2,0.3,0.3,0.5,0.4c0.2,0.1,0.4,0.1,0.6,0.1c0.3,0,0.6-0.1,0.8-0.2s0.4-0.4,0.6-0.6L262.4,453.1z M261.5,451.1
				c0-0.5-0.1-0.9-0.3-1.2c-0.2-0.3-0.5-0.4-0.9-0.4c-0.4,0-0.8,0.1-1,0.4c-0.2,0.3-0.4,0.7-0.4,1.2H261.5z"/>
			<path class="st1" d="M263.4,449h0.7v1h0c0.1-0.2,0.2-0.3,0.3-0.5c0.1-0.1,0.2-0.3,0.4-0.3c0.1-0.1,0.3-0.2,0.5-0.2
				c0.2,0,0.4-0.1,0.6-0.1v0.7c-0.5,0-0.8,0.2-1.1,0.4s-0.5,0.7-0.6,1.2v2.9h-0.7V449z"/>
			<path class="st1" d="M269.6,450c0.2-0.3,0.4-0.6,0.7-0.8c0.3-0.2,0.7-0.3,1.2-0.3c0.2,0,0.4,0,0.6,0.1s0.4,0.1,0.6,0.3
				c0.2,0.1,0.3,0.3,0.4,0.5c0.1,0.2,0.2,0.4,0.2,0.7v2.6c0,0.3,0,0.5,0,0.7c0,0.2,0.1,0.3,0.1,0.4h-0.7l-0.1-0.7
				c-0.2,0.2-0.4,0.4-0.7,0.6c-0.3,0.2-0.6,0.3-1,0.3c-0.2,0-0.4,0-0.6-0.1c-0.2-0.1-0.3-0.1-0.5-0.3s-0.2-0.3-0.3-0.4
				s-0.1-0.4-0.1-0.6c0-0.3,0.1-0.5,0.2-0.8s0.3-0.4,0.6-0.6c0.3-0.2,0.6-0.3,1-0.4c0.4-0.1,0.9-0.2,1.5-0.3v-0.3
				c0-0.3-0.1-0.6-0.3-0.7c-0.2-0.1-0.5-0.2-0.8-0.2c-0.2,0-0.4,0-0.5,0.1c-0.1,0.1-0.3,0.1-0.4,0.2c-0.1,0.1-0.2,0.2-0.3,0.3
				s-0.1,0.2-0.2,0.3L269.6,450z M272.7,451.4c-1.6,0.3-2.5,0.8-2.5,1.5c0,0.1,0,0.2,0.1,0.3c0.1,0.1,0.1,0.2,0.2,0.3
				c0.1,0.1,0.2,0.1,0.3,0.2c0.1,0,0.2,0.1,0.3,0.1c0.1,0,0.3,0,0.4-0.1c0.1,0,0.3-0.1,0.4-0.2c0.1-0.1,0.3-0.2,0.4-0.3
				s0.2-0.2,0.4-0.3V451.4z"/>
			<path class="st1" d="M277.9,452.8c0.2,0.2,0.4,0.4,0.6,0.6c0.2,0.1,0.5,0.2,0.9,0.2c0.4,0,0.7-0.1,0.9-0.3
				c0.2-0.2,0.3-0.4,0.3-0.6s-0.1-0.4-0.2-0.5c-0.2-0.1-0.3-0.2-0.6-0.3c-0.2-0.1-0.5-0.2-0.7-0.2c-0.3-0.1-0.5-0.2-0.7-0.3
				c-0.2-0.1-0.4-0.3-0.6-0.4c-0.1-0.2-0.2-0.4-0.2-0.8c0-0.5,0.2-0.8,0.5-1c0.3-0.2,0.7-0.4,1.2-0.4c0.2,0,0.3,0,0.5,0.1
				c0.2,0,0.3,0.1,0.5,0.2c0.2,0.1,0.3,0.2,0.4,0.3s0.2,0.2,0.3,0.4l-0.5,0.4c-0.2-0.2-0.4-0.4-0.6-0.5s-0.5-0.2-0.7-0.2
				c-0.3,0-0.5,0.1-0.7,0.2c-0.2,0.1-0.2,0.3-0.2,0.6c0,0.2,0.1,0.3,0.2,0.4c0.1,0.1,0.3,0.2,0.6,0.3c0.2,0.1,0.5,0.2,0.7,0.2
				c0.3,0.1,0.5,0.2,0.7,0.3c0.2,0.1,0.4,0.3,0.6,0.5c0.1,0.2,0.2,0.5,0.2,0.8c0,0.3-0.1,0.5-0.1,0.7c-0.1,0.2-0.2,0.3-0.4,0.5
				c-0.2,0.1-0.4,0.2-0.6,0.3s-0.4,0.1-0.7,0.1c-0.4,0-0.8-0.1-1.2-0.3c-0.4-0.2-0.7-0.4-0.9-0.7L277.9,452.8z"/>
			<path class="st1" d="M282.4,454.2V449h0.7v0.7l0,0c0.2-0.2,0.5-0.4,0.7-0.6c0.3-0.1,0.5-0.2,0.8-0.2c0.3,0,0.6,0.1,0.9,0.2
				s0.4,0.4,0.5,0.6c0.2-0.2,0.5-0.4,0.8-0.6c0.3-0.1,0.6-0.2,0.9-0.2c0.2,0,0.3,0,0.5,0.1c0.2,0,0.3,0.1,0.5,0.2
				c0.1,0.1,0.2,0.3,0.3,0.5c0.1,0.2,0.1,0.5,0.1,0.8v3.7h-0.7v-3.7c0-0.4-0.1-0.6-0.2-0.7s-0.3-0.2-0.6-0.2c-0.2,0-0.3,0-0.4,0.1
				c-0.1,0-0.3,0.1-0.4,0.2c-0.1,0.1-0.2,0.2-0.3,0.3c-0.1,0.1-0.2,0.2-0.3,0.3v3.9h-0.7v-3.7c0-0.4-0.1-0.6-0.2-0.7
				s-0.3-0.2-0.6-0.2c-0.2,0-0.3,0-0.4,0.1c-0.1,0-0.3,0.1-0.4,0.2c-0.1,0.1-0.2,0.2-0.3,0.3c-0.1,0.1-0.2,0.2-0.3,0.3v3.9H282.4z"
				/>
			<path class="st1" d="M294.5,451.6c0,0.4,0,0.7-0.1,1.1c-0.1,0.3-0.2,0.6-0.4,0.9c-0.2,0.2-0.4,0.4-0.7,0.6
				c-0.3,0.1-0.6,0.2-0.9,0.2s-0.7-0.1-0.9-0.2c-0.3-0.1-0.5-0.3-0.7-0.6c-0.2-0.2-0.3-0.5-0.4-0.9c-0.1-0.3-0.1-0.7-0.1-1.1
				c0-0.4,0-0.7,0.1-1.1c0.1-0.3,0.2-0.6,0.4-0.9c0.2-0.2,0.4-0.4,0.7-0.6c0.3-0.1,0.6-0.2,0.9-0.2s0.7,0.1,0.9,0.2
				c0.3,0.1,0.5,0.3,0.7,0.6c0.2,0.2,0.3,0.5,0.4,0.9C294.5,450.8,294.5,451.2,294.5,451.6z M293.8,451.6c0-0.7-0.1-1.2-0.4-1.5
				c-0.3-0.4-0.6-0.5-1-0.5c-0.4,0-0.8,0.2-1,0.5c-0.3,0.4-0.4,0.9-0.4,1.5c0,0.7,0.1,1.2,0.4,1.5c0.3,0.4,0.6,0.5,1,0.5
				c0.4,0,0.8-0.2,1-0.5S293.8,452.2,293.8,451.6z"/>
			<path class="st1" d="M299.5,451.6c0,0.4,0,0.7-0.1,1.1c-0.1,0.3-0.2,0.6-0.4,0.9c-0.2,0.2-0.4,0.4-0.7,0.6
				c-0.3,0.1-0.6,0.2-0.9,0.2s-0.7-0.1-0.9-0.2c-0.3-0.1-0.5-0.3-0.7-0.6c-0.2-0.2-0.3-0.5-0.4-0.9c-0.1-0.3-0.1-0.7-0.1-1.1
				c0-0.4,0-0.7,0.1-1.1c0.1-0.3,0.2-0.6,0.4-0.9c0.2-0.2,0.4-0.4,0.7-0.6c0.3-0.1,0.6-0.2,0.9-0.2s0.7,0.1,0.9,0.2
				c0.3,0.1,0.5,0.3,0.7,0.6c0.2,0.2,0.3,0.5,0.4,0.9C299.5,450.8,299.5,451.2,299.5,451.6z M298.8,451.6c0-0.7-0.1-1.2-0.4-1.5
				c-0.3-0.4-0.6-0.5-1-0.5c-0.4,0-0.8,0.2-1,0.5c-0.3,0.4-0.4,0.9-0.4,1.5c0,0.7,0.1,1.2,0.4,1.5c0.3,0.4,0.6,0.5,1,0.5
				c0.4,0,0.8-0.2,1-0.5S298.8,452.2,298.8,451.6z"/>
			<path class="st1" d="M300.9,449v-1.7h0.7v1.7h1.2v0.6h-1.2v3.7c0,0.1,0,0.2,0.1,0.3c0.1,0.1,0.2,0.1,0.5,0.1c0.1,0,0.2,0,0.3,0
				c0.1,0,0.2,0,0.3,0v0.6c-0.1,0-0.2,0-0.3,0.1s-0.3,0-0.5,0c-0.4,0-0.7-0.1-0.9-0.2s-0.3-0.3-0.3-0.7v-3.8h-0.8V449H300.9z"/>
			<path class="st1" d="M304.8,447v2.7h0c0.2-0.2,0.4-0.4,0.7-0.6c0.3-0.1,0.5-0.2,0.8-0.2c0.2,0,0.4,0,0.6,0.1
				c0.2,0.1,0.3,0.1,0.5,0.3s0.3,0.3,0.3,0.5s0.1,0.4,0.1,0.7v3.8h-0.7v-3.8c0-0.3-0.1-0.6-0.2-0.7c-0.2-0.1-0.4-0.2-0.6-0.2
				c-0.1,0-0.3,0-0.4,0.1c-0.1,0.1-0.3,0.1-0.4,0.2c-0.1,0.1-0.3,0.2-0.4,0.3c-0.1,0.1-0.2,0.2-0.3,0.3v3.9h-0.7V447H304.8z"/>
			<path class="st1" d="M312.9,449v-1.7h0.7v1.7h1.2v0.6h-1.2v3.7c0,0.1,0,0.2,0.1,0.3c0.1,0.1,0.2,0.1,0.5,0.1c0.1,0,0.2,0,0.3,0
				c0.1,0,0.2,0,0.3,0v0.6c-0.1,0-0.2,0-0.3,0.1s-0.3,0-0.5,0c-0.4,0-0.7-0.1-0.9-0.2s-0.3-0.3-0.3-0.7v-3.8H312V449H312.9z"/>
			<path class="st1" d="M315.9,449h0.7v1h0c0.1-0.2,0.2-0.3,0.3-0.5c0.1-0.1,0.2-0.3,0.4-0.3c0.1-0.1,0.3-0.2,0.5-0.2
				c0.2,0,0.4-0.1,0.6-0.1v0.7c-0.5,0-0.8,0.2-1.1,0.4s-0.5,0.7-0.6,1.2v2.9h-0.7V449z"/>
			<path class="st1" d="M319.1,450c0.2-0.3,0.4-0.6,0.7-0.8c0.3-0.2,0.7-0.3,1.2-0.3c0.2,0,0.4,0,0.6,0.1s0.4,0.1,0.6,0.3
				c0.2,0.1,0.3,0.3,0.4,0.5c0.1,0.2,0.2,0.4,0.2,0.7v2.6c0,0.3,0,0.5,0,0.7c0,0.2,0.1,0.3,0.1,0.4h-0.7l-0.1-0.7
				c-0.2,0.2-0.4,0.4-0.7,0.6c-0.3,0.2-0.6,0.3-1,0.3c-0.2,0-0.4,0-0.6-0.1c-0.2-0.1-0.3-0.1-0.5-0.3s-0.2-0.3-0.3-0.4
				s-0.1-0.4-0.1-0.6c0-0.3,0.1-0.5,0.2-0.8s0.3-0.4,0.6-0.6c0.3-0.2,0.6-0.3,1-0.4c0.4-0.1,0.9-0.2,1.5-0.3v-0.3
				c0-0.3-0.1-0.6-0.3-0.7c-0.2-0.1-0.5-0.2-0.8-0.2c-0.2,0-0.4,0-0.5,0.1c-0.1,0.1-0.3,0.1-0.4,0.2c-0.1,0.1-0.2,0.2-0.3,0.3
				s-0.1,0.2-0.2,0.3L319.1,450z M322.1,451.4c-1.6,0.3-2.5,0.8-2.5,1.5c0,0.1,0,0.2,0.1,0.3c0.1,0.1,0.1,0.2,0.2,0.3
				c0.1,0.1,0.2,0.1,0.3,0.2c0.1,0,0.2,0.1,0.3,0.1c0.1,0,0.3,0,0.4-0.1c0.1,0,0.3-0.1,0.4-0.2c0.1-0.1,0.3-0.2,0.4-0.3
				s0.2-0.2,0.4-0.3V451.4z"/>
			<path class="st1" d="M325.1,449v0.7h0c0.2-0.2,0.4-0.4,0.7-0.6c0.3-0.1,0.5-0.2,0.8-0.2c0.2,0,0.4,0,0.6,0.1
				c0.2,0.1,0.3,0.1,0.5,0.3s0.3,0.3,0.3,0.5s0.1,0.4,0.1,0.7v3.8h-0.7v-3.8c0-0.3-0.1-0.6-0.2-0.7c-0.2-0.1-0.4-0.2-0.6-0.2
				c-0.1,0-0.3,0-0.4,0.1c-0.1,0.1-0.3,0.1-0.4,0.2c-0.1,0.1-0.3,0.2-0.4,0.3c-0.1,0.1-0.2,0.2-0.3,0.3v3.9h-0.7V449H325.1z"/>
			<path class="st1" d="M329.9,452.8c0.2,0.2,0.4,0.4,0.6,0.6c0.2,0.1,0.5,0.2,0.9,0.2c0.4,0,0.7-0.1,0.9-0.3
				c0.2-0.2,0.3-0.4,0.3-0.6s-0.1-0.4-0.2-0.5c-0.2-0.1-0.3-0.2-0.6-0.3c-0.2-0.1-0.5-0.2-0.7-0.2c-0.3-0.1-0.5-0.2-0.7-0.3
				c-0.2-0.1-0.4-0.3-0.6-0.4c-0.1-0.2-0.2-0.4-0.2-0.8c0-0.5,0.2-0.8,0.5-1c0.3-0.2,0.7-0.4,1.2-0.4c0.2,0,0.3,0,0.5,0.1
				c0.2,0,0.3,0.1,0.5,0.2c0.2,0.1,0.3,0.2,0.4,0.3s0.2,0.2,0.3,0.4l-0.5,0.4c-0.2-0.2-0.4-0.4-0.6-0.5s-0.5-0.2-0.7-0.2
				c-0.3,0-0.5,0.1-0.7,0.2c-0.2,0.1-0.2,0.3-0.2,0.6c0,0.2,0.1,0.3,0.2,0.4c0.1,0.1,0.3,0.2,0.6,0.3c0.2,0.1,0.5,0.2,0.7,0.2
				c0.3,0.1,0.5,0.2,0.7,0.3c0.2,0.1,0.4,0.3,0.6,0.5c0.1,0.2,0.2,0.5,0.2,0.8c0,0.3-0.1,0.5-0.1,0.7c-0.1,0.2-0.2,0.3-0.4,0.5
				c-0.2,0.1-0.4,0.2-0.6,0.3s-0.4,0.1-0.7,0.1c-0.4,0-0.8-0.1-1.2-0.3c-0.4-0.2-0.7-0.4-0.9-0.7L329.9,452.8z"/>
			<path class="st1" d="M335.2,446.8v0.9h-0.7v-0.9H335.2z M334.5,449h0.7v5.2h-0.7V449z"/>
			<path class="st1" d="M337.3,449v-1.7h0.7v1.7h1.2v0.6H338v3.7c0,0.1,0,0.2,0.1,0.3c0.1,0.1,0.2,0.1,0.5,0.1c0.1,0,0.2,0,0.3,0
				c0.1,0,0.2,0,0.3,0v0.6c-0.1,0-0.2,0-0.3,0.1s-0.3,0-0.5,0c-0.4,0-0.7-0.1-0.9-0.2s-0.3-0.3-0.3-0.7v-3.8h-0.8V449H337.3z"/>
			<path class="st1" d="M341.4,446.8v0.9h-0.7v-0.9H341.4z M340.6,449h0.7v5.2h-0.7V449z"/>
			<path class="st1" d="M347,451.6c0,0.4,0,0.7-0.1,1.1c-0.1,0.3-0.2,0.6-0.4,0.9c-0.2,0.2-0.4,0.4-0.7,0.6
				c-0.3,0.1-0.6,0.2-0.9,0.2s-0.7-0.1-0.9-0.2c-0.3-0.1-0.5-0.3-0.7-0.6c-0.2-0.2-0.3-0.5-0.4-0.9c-0.1-0.3-0.1-0.7-0.1-1.1
				c0-0.4,0-0.7,0.1-1.1c0.1-0.3,0.2-0.6,0.4-0.9c0.2-0.2,0.4-0.4,0.7-0.6c0.3-0.1,0.6-0.2,0.9-0.2s0.7,0.1,0.9,0.2
				c0.3,0.1,0.5,0.3,0.7,0.6c0.2,0.2,0.3,0.5,0.4,0.9C347,450.8,347,451.2,347,451.6z M346.3,451.6c0-0.7-0.1-1.2-0.4-1.5
				c-0.3-0.4-0.6-0.5-1-0.5c-0.4,0-0.8,0.2-1,0.5c-0.3,0.4-0.4,0.9-0.4,1.5c0,0.7,0.1,1.2,0.4,1.5c0.3,0.4,0.6,0.5,1,0.5
				c0.4,0,0.8-0.2,1-0.5S346.3,452.2,346.3,451.6z"/>
			<path class="st1" d="M349,449v0.7h0c0.2-0.2,0.4-0.4,0.7-0.6c0.3-0.1,0.5-0.2,0.8-0.2c0.2,0,0.4,0,0.6,0.1
				c0.2,0.1,0.3,0.1,0.5,0.3s0.3,0.3,0.3,0.5s0.1,0.4,0.1,0.7v3.8h-0.7v-3.8c0-0.3-0.1-0.6-0.2-0.7c-0.2-0.1-0.4-0.2-0.6-0.2
				c-0.1,0-0.3,0-0.4,0.1c-0.1,0.1-0.3,0.1-0.4,0.2c-0.1,0.1-0.3,0.2-0.4,0.3c-0.1,0.1-0.2,0.2-0.3,0.3v3.9h-0.7V449H349z"/>
			<path class="st1" d="M355,453.1v1.1h-1v-1.1H355z"/>
		</g>
	</g>
	<line class="st2" x1="237.1" y1="413.5" x2="119.4" y2="460.2"/>
	<circle class="st1" cx="237.1" cy="413.5" r="1.1"/>
</g>
</svg>
