<?xml version="1.0" encoding="utf-8"?>
<!-- Generator: Adobe Illustrator 18.1.1, SVG Export Plug-In . SVG Version: 6.00 Build 0)  -->
<svg version="1.1" id="Layer_1" xmlns="http://www.w3.org/2000/svg" xmlns:xlink="http://www.w3.org/1999/xlink" x="0px" y="0px"
	 viewBox="0 0 800 350" enable-background="new 0 0 800 350" xml:space="preserve">
<g id="crash_rail">
	<line fill="none" stroke="#231F20" stroke-miterlimit="10" x1="615.6" y1="273.6" x2="513" y2="288.8"/>
	<circle fill="none" stroke="#231F20" stroke-miterlimit="10" cx="507.6" cy="290.1" r="5.4"/>
	<g>
		<path fill="#231F20" d="M636.3,260.5c-0.6,0.2-1.1,0.4-1.6,0.4c-0.6,0-1.1-0.1-1.6-0.4c-0.5-0.2-0.9-0.6-1.3-1s-0.6-1-0.8-1.6
			c-0.2-0.6-0.3-1.4-0.3-2.2c0-0.8,0.1-1.5,0.3-2.1c0.2-0.6,0.5-1.2,0.9-1.6s0.8-0.8,1.4-1.1c0.5-0.3,1.1-0.4,1.8-0.4
			c0.2,0,0.5,0,0.7,0.1c0.2,0,0.4,0.1,0.7,0.2v2.8c-0.4-0.4-0.8-0.6-1.2-0.6c-0.6,0-1,0.2-1.3,0.7c-0.3,0.5-0.4,1.1-0.4,2
			c0,0.8,0.1,1.4,0.4,1.9c0.3,0.5,0.7,0.7,1.3,0.7c0.5,0,0.9-0.2,1.4-0.6L636.3,260.5z"/>
		<path fill="#231F20" d="M644.6,260.7h-2.9l-1.5-4.1v4.1h-2.7v-10h2.6c0.7,0,1.3,0.1,1.8,0.2c0.5,0.2,0.9,0.4,1.2,0.7
			s0.5,0.6,0.7,1.1s0.2,0.9,0.2,1.4c0,1.2-0.5,2-1.5,2.5L644.6,260.7z M640.2,255.3h0.2c0.4,0,0.6-0.1,0.8-0.3
			c0.2-0.2,0.3-0.5,0.3-0.9s-0.1-0.7-0.3-0.9c-0.2-0.2-0.5-0.3-0.8-0.3h-0.2V255.3z"/>
		<path fill="#231F20" d="M652.7,260.7h-2.8l-0.2-1.3h-1.8l-0.2,1.3h-2.8l2.3-10h3.2L652.7,260.7z M649.3,257.3l-0.4-2.7
			c0-0.2-0.1-0.4-0.1-0.6c0-0.2-0.1-0.5-0.1-0.9c0,0.4-0.1,0.7-0.1,0.9c0,0.2,0,0.4-0.1,0.6l-0.4,2.7H649.3z"/>
		<path fill="#231F20" d="M653.2,257.3c0.5,0.7,1.1,1.1,1.7,1.1c0.2,0,0.4-0.1,0.6-0.2s0.2-0.3,0.2-0.5c0-0.3-0.2-0.5-0.5-0.8
			l-0.4-0.3c-0.6-0.4-1-0.9-1.2-1.3c-0.3-0.4-0.4-0.9-0.4-1.5c0-0.5,0.1-0.9,0.2-1.3c0.2-0.4,0.4-0.7,0.6-1c0.3-0.3,0.6-0.5,1-0.7
			c0.4-0.2,0.8-0.3,1.2-0.3c0.6,0,1.3,0.2,1.9,0.5v3c-0.2-0.3-0.5-0.6-0.7-0.8c-0.3-0.2-0.6-0.3-0.8-0.3c-0.2,0-0.4,0.1-0.5,0.2
			c-0.1,0.1-0.2,0.3-0.2,0.4c0,0.3,0.2,0.5,0.5,0.8l0.4,0.3c0.6,0.4,1,0.8,1.2,1.3s0.4,0.9,0.4,1.5c0,0.5-0.1,0.9-0.2,1.4
			s-0.4,0.8-0.7,1.1c-0.3,0.3-0.6,0.5-1,0.7c-0.4,0.2-0.8,0.3-1.3,0.3c-0.6,0-1.3-0.1-2-0.4V257.3z"/>
		<path fill="#231F20" d="M666.1,260.7h-2.7v-4h-1.3v4h-2.7v-10h2.7v3.5h1.3v-3.5h2.7V260.7z"/>
		<path fill="#231F20" d="M678.6,260.7h-2.9l-1.5-4.1v4.1h-2.7v-10h2.6c0.7,0,1.3,0.1,1.8,0.2s0.9,0.4,1.2,0.7
			c0.3,0.3,0.5,0.6,0.7,1.1s0.2,0.9,0.2,1.4c0,1.2-0.5,2-1.5,2.5L678.6,260.7z M674.2,255.3h0.2c0.4,0,0.6-0.1,0.8-0.3
			c0.2-0.2,0.3-0.5,0.3-0.9s-0.1-0.7-0.3-0.9c-0.2-0.2-0.5-0.3-0.8-0.3h-0.2V255.3z"/>
		<path fill="#231F20" d="M686.7,260.7h-2.8l-0.2-1.3h-1.8l-0.2,1.3h-2.8l2.3-10h3.2L686.7,260.7z M683.4,257.3l-0.4-2.7
			c0-0.2-0.1-0.4-0.1-0.6c0-0.2-0.1-0.5-0.1-0.9c0,0.4-0.1,0.7-0.1,0.9c0,0.2,0,0.4-0.1,0.6l-0.4,2.7H683.4z"/>
		<path fill="#231F20" d="M690.1,260.7h-2.7v-10h2.7V260.7z"/>
		<path fill="#231F20" d="M696.2,260.7h-4.7v-10h2.7v7.6h2V260.7z"/>
		<path fill="#231F20" d="M634.3,270.2v-0.7c0-0.4-0.1-0.7-0.2-0.9s-0.3-0.3-0.6-0.3c-0.3,0-0.6,0.1-0.7,0.3
			c-0.1,0.2-0.2,0.4-0.2,0.8v4.8c0,0.4,0.1,0.6,0.2,0.8c0.1,0.2,0.4,0.3,0.7,0.3c0.3,0,0.5-0.1,0.6-0.3c0.1-0.2,0.2-0.4,0.2-0.7
			v-1.2h1.6v1.1c0,0.3-0.1,0.7-0.2,1s-0.3,0.6-0.4,0.8c-0.2,0.2-0.5,0.4-0.8,0.5c-0.3,0.1-0.7,0.2-1.1,0.2c-0.4,0-0.8-0.1-1.1-0.2
			c-0.3-0.1-0.6-0.3-0.8-0.5c-0.2-0.2-0.4-0.5-0.5-0.8c-0.1-0.3-0.2-0.6-0.2-1v-4.9c0-0.3,0.1-0.7,0.2-1c0.1-0.3,0.3-0.6,0.5-0.8
			c0.2-0.2,0.5-0.4,0.8-0.5s0.7-0.2,1.1-0.2c0.4,0,0.8,0.1,1.1,0.2s0.6,0.3,0.8,0.6c0.2,0.2,0.3,0.5,0.4,0.8c0.1,0.3,0.2,0.7,0.2,1
			v0.7H634.3z"/>
		<path fill="#231F20" d="M641.9,269.5v7.1h-1.4v-0.7c-0.2,0.1-0.3,0.3-0.4,0.4c-0.1,0.1-0.3,0.2-0.4,0.3c-0.1,0.1-0.3,0.1-0.4,0.2
			c-0.2,0-0.3,0.1-0.6,0.1c-0.4,0-0.7-0.1-0.9-0.4c-0.2-0.3-0.3-0.6-0.3-1.1v-5.8h1.5v5.5c0,0.2,0,0.3,0.1,0.4
			c0.1,0.1,0.2,0.1,0.4,0.1s0.3,0,0.5-0.1c0.1-0.1,0.3-0.2,0.5-0.3v-5.6H641.9z"/>
		<path fill="#231F20" d="M646.1,271.4c-0.1-0.6-0.4-0.9-0.8-0.9c-0.2,0-0.4,0-0.5,0.1c-0.1,0.1-0.2,0.2-0.2,0.4
			c0,0.2,0.1,0.4,0.2,0.5c0.1,0.2,0.3,0.3,0.5,0.5c0.2,0.2,0.4,0.3,0.7,0.5c0.2,0.2,0.5,0.4,0.7,0.6c0.2,0.2,0.4,0.4,0.5,0.7
			c0.1,0.3,0.2,0.6,0.2,0.9c0,0.3-0.1,0.6-0.2,0.8c-0.1,0.2-0.2,0.4-0.4,0.6c-0.2,0.2-0.4,0.3-0.7,0.4c-0.3,0.1-0.5,0.1-0.8,0.1
			c-0.7,0-1.2-0.2-1.5-0.5c-0.4-0.3-0.6-0.8-0.7-1.5l1.3-0.4c0,0.3,0.1,0.6,0.3,0.8c0.1,0.2,0.4,0.3,0.7,0.3c0.2,0,0.4-0.1,0.5-0.2
			c0.1-0.1,0.2-0.3,0.2-0.5c0-0.2-0.1-0.4-0.2-0.6c-0.1-0.2-0.3-0.3-0.5-0.5c-0.2-0.2-0.4-0.3-0.7-0.5c-0.2-0.2-0.5-0.4-0.7-0.6
			c-0.2-0.2-0.4-0.4-0.5-0.7c-0.1-0.2-0.2-0.5-0.2-0.9c0-0.3,0.1-0.5,0.2-0.8c0.1-0.2,0.2-0.4,0.4-0.6c0.2-0.2,0.4-0.3,0.6-0.4
			s0.5-0.1,0.8-0.1c0.6,0,1.1,0.2,1.4,0.5c0.4,0.4,0.6,0.8,0.7,1.4L646.1,271.4z"/>
		<path fill="#231F20" d="M648.5,276.6V267h1.5v3.1c0.1-0.1,0.3-0.2,0.4-0.3c0.1-0.1,0.2-0.2,0.4-0.3c0.1-0.1,0.3-0.1,0.4-0.2
			c0.2,0,0.3-0.1,0.6-0.1c0.4,0,0.7,0.1,0.9,0.4s0.3,0.6,0.3,1.1v5.8h-1.5v-5.5c0-0.2,0-0.3-0.1-0.4c-0.1-0.1-0.2-0.1-0.4-0.1
			s-0.3,0-0.5,0.1c-0.1,0.1-0.3,0.2-0.5,0.3v5.6H648.5z"/>
		<path fill="#231F20" d="M654.4,268.4V267h1.5v1.3H654.4z M654.4,276.6v-7.1h1.5v7.1H654.4z"/>
		<path fill="#231F20" d="M657.2,272c0-0.4,0-0.7,0.1-1.1c0.1-0.3,0.2-0.6,0.4-0.8c0.2-0.2,0.4-0.4,0.7-0.5c0.3-0.1,0.6-0.2,1.1-0.2
			s0.8,0.1,1.1,0.2c0.3,0.1,0.5,0.3,0.7,0.5c0.2,0.2,0.3,0.5,0.4,0.8c0.1,0.3,0.1,0.7,0.1,1.1v2.1c0,0.4,0,0.7-0.1,1.1
			c-0.1,0.3-0.2,0.6-0.4,0.8c-0.2,0.2-0.4,0.4-0.7,0.5c-0.3,0.1-0.6,0.2-1.1,0.2s-0.8-0.1-1.1-0.2c-0.3-0.1-0.5-0.3-0.7-0.5
			c-0.2-0.2-0.3-0.5-0.4-0.8c-0.1-0.3-0.1-0.7-0.1-1.1V272z M660.4,271.7c0-0.4-0.1-0.7-0.2-0.9c-0.1-0.2-0.3-0.3-0.6-0.3
			s-0.5,0.1-0.6,0.3s-0.2,0.5-0.2,0.9v2.6c0,0.4,0.1,0.7,0.2,0.9s0.3,0.3,0.6,0.3s0.5-0.1,0.6-0.3c0.1-0.2,0.2-0.5,0.2-0.9V271.7z"
			/>
		<path fill="#231F20" d="M663.2,276.6v-7.1h1.4v0.7c0.2-0.1,0.3-0.3,0.4-0.4s0.3-0.2,0.4-0.3c0.1-0.1,0.3-0.1,0.4-0.2
			c0.2,0,0.3-0.1,0.6-0.1c0.4,0,0.7,0.1,0.9,0.4c0.2,0.3,0.3,0.6,0.3,1.1v5.8h-1.5v-5.5c0-0.2,0-0.3-0.1-0.4
			c-0.1-0.1-0.2-0.1-0.4-0.1s-0.3,0-0.5,0.1c-0.1,0.1-0.3,0.2-0.5,0.3v5.6H663.2z"/>
		<path fill="#231F20" d="M671.8,271.4c-0.1-0.6-0.4-0.9-0.8-0.9c-0.2,0-0.4,0-0.5,0.1c-0.1,0.1-0.2,0.2-0.2,0.4
			c0,0.2,0.1,0.4,0.2,0.5c0.1,0.2,0.3,0.3,0.5,0.5c0.2,0.2,0.4,0.3,0.7,0.5s0.5,0.4,0.7,0.6c0.2,0.2,0.4,0.4,0.5,0.7
			c0.1,0.3,0.2,0.6,0.2,0.9c0,0.3-0.1,0.6-0.2,0.8c-0.1,0.2-0.2,0.4-0.4,0.6c-0.2,0.2-0.4,0.3-0.7,0.4c-0.3,0.1-0.5,0.1-0.8,0.1
			c-0.7,0-1.2-0.2-1.5-0.5c-0.4-0.3-0.6-0.8-0.7-1.5l1.3-0.4c0,0.3,0.1,0.6,0.3,0.8c0.1,0.2,0.4,0.3,0.7,0.3c0.2,0,0.4-0.1,0.5-0.2
			c0.1-0.1,0.2-0.3,0.2-0.5c0-0.2-0.1-0.4-0.2-0.6c-0.1-0.2-0.3-0.3-0.5-0.5c-0.2-0.2-0.4-0.3-0.7-0.5s-0.5-0.4-0.7-0.6
			c-0.2-0.2-0.4-0.4-0.5-0.7c-0.1-0.2-0.2-0.5-0.2-0.9c0-0.3,0.1-0.5,0.2-0.8c0.1-0.2,0.2-0.4,0.4-0.6c0.2-0.2,0.4-0.3,0.6-0.4
			c0.2-0.1,0.5-0.1,0.8-0.1c0.6,0,1.1,0.2,1.4,0.5c0.4,0.4,0.6,0.8,0.7,1.4L671.8,271.4z"/>
		<path fill="#231F20" d="M677.1,272c0-0.4,0-0.7,0.1-1.1c0.1-0.3,0.2-0.6,0.4-0.8c0.2-0.2,0.4-0.4,0.7-0.5c0.3-0.1,0.6-0.2,1.1-0.2
			s0.8,0.1,1.1,0.2c0.3,0.1,0.5,0.3,0.7,0.5c0.2,0.2,0.3,0.5,0.4,0.8c0.1,0.3,0.1,0.7,0.1,1.1v2.1c0,0.4,0,0.7-0.1,1.1
			c-0.1,0.3-0.2,0.6-0.4,0.8c-0.2,0.2-0.4,0.4-0.7,0.5c-0.3,0.1-0.6,0.2-1.1,0.2s-0.8-0.1-1.1-0.2c-0.3-0.1-0.5-0.3-0.7-0.5
			c-0.2-0.2-0.3-0.5-0.4-0.8c-0.1-0.3-0.1-0.7-0.1-1.1V272z M680.2,271.7c0-0.4-0.1-0.7-0.2-0.9c-0.1-0.2-0.3-0.3-0.6-0.3
			s-0.5,0.1-0.6,0.3s-0.2,0.5-0.2,0.9v2.6c0,0.4,0.1,0.7,0.2,0.9s0.3,0.3,0.6,0.3s0.5-0.1,0.6-0.3c0.1-0.2,0.2-0.5,0.2-0.9V271.7z"
			/>
		<path fill="#231F20" d="M683,276.6v-7.1h1.4v0.7c0.2-0.1,0.3-0.3,0.4-0.4s0.3-0.2,0.4-0.3c0.1-0.1,0.3-0.1,0.4-0.2
			c0.2,0,0.3-0.1,0.6-0.1c0.4,0,0.7,0.1,0.9,0.4c0.2,0.3,0.3,0.6,0.3,1.1v5.8H686v-5.5c0-0.2,0-0.3-0.1-0.4
			c-0.1-0.1-0.2-0.1-0.4-0.1s-0.3,0-0.5,0.1c-0.1,0.1-0.3,0.2-0.5,0.3v5.6H683z"/>
		<path fill="#231F20" d="M694.9,271.9v-0.2c0-0.4-0.1-0.7-0.2-0.9c-0.1-0.2-0.3-0.3-0.6-0.3s-0.5,0.1-0.6,0.3s-0.2,0.5-0.2,0.9v2.6
			c0,0.4,0.1,0.7,0.2,0.9s0.3,0.3,0.6,0.3s0.5-0.1,0.6-0.3c0.1-0.2,0.2-0.5,0.2-0.9v-0.4h1.5v0.2c0,0.4,0,0.7-0.1,1.1
			c-0.1,0.3-0.2,0.6-0.4,0.8c-0.2,0.2-0.4,0.4-0.7,0.5c-0.3,0.1-0.6,0.2-1.1,0.2s-0.8-0.1-1.1-0.2c-0.3-0.1-0.5-0.3-0.7-0.5
			c-0.2-0.2-0.3-0.5-0.4-0.8c-0.1-0.3-0.1-0.7-0.1-1.1V272c0-0.4,0-0.7,0.1-1.1c0.1-0.3,0.2-0.6,0.4-0.8c0.2-0.2,0.4-0.4,0.7-0.5
			c0.3-0.1,0.6-0.2,1.1-0.2c0.4,0,0.8,0.1,1.1,0.2s0.5,0.3,0.7,0.5s0.3,0.5,0.4,0.8c0.1,0.3,0.1,0.7,0.1,1H694.9z"/>
		<path fill="#231F20" d="M697.6,272c0-0.4,0-0.7,0.1-1.1c0.1-0.3,0.2-0.6,0.4-0.8c0.2-0.2,0.4-0.4,0.7-0.5c0.3-0.1,0.6-0.2,1.1-0.2
			s0.8,0.1,1.1,0.2c0.3,0.1,0.5,0.3,0.7,0.5c0.2,0.2,0.3,0.5,0.4,0.8c0.1,0.3,0.1,0.7,0.1,1.1v2.1c0,0.4,0,0.7-0.1,1.1
			c-0.1,0.3-0.2,0.6-0.4,0.8c-0.2,0.2-0.4,0.4-0.7,0.5c-0.3,0.1-0.6,0.2-1.1,0.2s-0.8-0.1-1.1-0.2c-0.3-0.1-0.5-0.3-0.7-0.5
			c-0.2-0.2-0.3-0.5-0.4-0.8c-0.1-0.3-0.1-0.7-0.1-1.1V272z M700.7,271.7c0-0.4-0.1-0.7-0.2-0.9s-0.3-0.3-0.6-0.3s-0.5,0.1-0.6,0.3
			s-0.2,0.5-0.2,0.9v2.6c0,0.4,0.1,0.7,0.2,0.9s0.3,0.3,0.6,0.3s0.5-0.1,0.6-0.3s0.2-0.5,0.2-0.9V271.7z"/>
		<path fill="#231F20" d="M703.6,276.6v-7.1h1.4v0.7c0.2-0.1,0.3-0.3,0.4-0.4s0.3-0.2,0.4-0.3c0.1-0.1,0.3-0.1,0.4-0.2
			c0.2,0,0.3-0.1,0.6-0.1c0.4,0,0.7,0.1,0.9,0.4s0.3,0.6,0.3,1.1v5.8h-1.5v-5.5c0-0.2,0-0.3-0.1-0.4c-0.1-0.1-0.2-0.1-0.4-0.1
			s-0.3,0-0.5,0.1c-0.1,0.1-0.3,0.2-0.5,0.3v5.6H703.6z"/>
		<path fill="#231F20" d="M708.9,270.7v-1.2h0.8v-1.9h1.5v1.9h1v1.2h-1v4.1c0,0.4,0.2,0.6,0.5,0.6h0.5v1.3c-0.1,0-0.2,0-0.3,0.1
			c-0.1,0-0.3,0-0.4,0c-0.6,0-1-0.1-1.3-0.4c-0.3-0.3-0.4-0.7-0.4-1.2v-4.4H708.9z"/>
		<path fill="#231F20" d="M713,271.6c0-0.7,0.3-1.3,0.7-1.7c0.4-0.4,1-0.6,1.7-0.6c0.7,0,1.2,0.2,1.6,0.5c0.4,0.3,0.6,0.8,0.6,1.5
			v4.6c0,0.1,0,0.2,0,0.4c0,0.1,0,0.3,0.1,0.4h-1.4c0-0.1,0-0.2,0-0.3c0-0.1,0-0.2,0-0.3c-0.3,0.2-0.6,0.4-0.8,0.5s-0.6,0.2-0.9,0.2
			c-0.5,0-0.9-0.2-1.1-0.5c-0.3-0.3-0.4-0.7-0.4-1.1c0-0.4,0.1-0.7,0.2-1c0.1-0.3,0.3-0.6,0.6-0.8c0.3-0.3,0.6-0.5,1-0.7
			c0.4-0.2,0.9-0.4,1.4-0.6v-0.4c0-0.6-0.2-0.9-0.7-0.9c-0.3,0-0.6,0.1-0.7,0.3c-0.1,0.2-0.2,0.4-0.2,0.7H713z M716,273
			c-0.3,0.2-0.6,0.4-0.8,0.5c-0.2,0.2-0.4,0.3-0.5,0.5s-0.2,0.3-0.3,0.4c0,0.1-0.1,0.3-0.1,0.4c0,0.2,0.1,0.4,0.2,0.5
			c0.1,0.1,0.3,0.2,0.5,0.2c0.2,0,0.4-0.1,0.6-0.2s0.3-0.3,0.4-0.5V273z"/>
		<path fill="#231F20" d="M722,271.9v-0.2c0-0.4-0.1-0.7-0.2-0.9s-0.3-0.3-0.6-0.3s-0.5,0.1-0.6,0.3s-0.2,0.5-0.2,0.9v2.6
			c0,0.4,0.1,0.7,0.2,0.9s0.3,0.3,0.6,0.3s0.5-0.1,0.6-0.3s0.2-0.5,0.2-0.9v-0.4h1.5v0.2c0,0.4,0,0.7-0.1,1.1
			c-0.1,0.3-0.2,0.6-0.4,0.8c-0.2,0.2-0.4,0.4-0.7,0.5c-0.3,0.1-0.6,0.2-1.1,0.2s-0.8-0.1-1.1-0.2c-0.3-0.1-0.5-0.3-0.7-0.5
			c-0.2-0.2-0.3-0.5-0.4-0.8c-0.1-0.3-0.1-0.7-0.1-1.1V272c0-0.4,0-0.7,0.1-1.1c0.1-0.3,0.2-0.6,0.4-0.8c0.2-0.2,0.4-0.4,0.7-0.5
			c0.3-0.1,0.6-0.2,1.1-0.2c0.4,0,0.8,0.1,1.1,0.2s0.5,0.3,0.7,0.5c0.2,0.2,0.3,0.5,0.4,0.8c0.1,0.3,0.1,0.7,0.1,1H722z"/>
		<path fill="#231F20" d="M724.3,270.7v-1.2h0.8v-1.9h1.5v1.9h1v1.2h-1v4.1c0,0.4,0.2,0.6,0.5,0.6h0.5v1.3c-0.1,0-0.2,0-0.3,0.1
			c-0.1,0-0.3,0-0.4,0c-0.6,0-1-0.1-1.3-0.4c-0.3-0.3-0.4-0.7-0.4-1.2v-4.4H724.3z"/>
		<path fill="#231F20" d="M730.9,270.7v-1.2h0.8v-1.9h1.5v1.9h1v1.2h-1v4.1c0,0.4,0.2,0.6,0.5,0.6h0.5v1.3c-0.1,0-0.2,0-0.3,0.1
			c-0.1,0-0.3,0-0.4,0c-0.6,0-1-0.1-1.3-0.4c-0.3-0.3-0.4-0.7-0.4-1.2v-4.4H730.9z"/>
		<path fill="#231F20" d="M735.1,272c0-0.4,0-0.7,0.1-1.1c0.1-0.3,0.2-0.6,0.4-0.8c0.2-0.2,0.4-0.4,0.7-0.5c0.3-0.1,0.6-0.2,1.1-0.2
			s0.8,0.1,1.1,0.2c0.3,0.1,0.5,0.3,0.7,0.5c0.2,0.2,0.3,0.5,0.4,0.8c0.1,0.3,0.1,0.7,0.1,1.1v2.1c0,0.4,0,0.7-0.1,1.1
			c-0.1,0.3-0.2,0.6-0.4,0.8c-0.2,0.2-0.4,0.4-0.7,0.5c-0.3,0.1-0.6,0.2-1.1,0.2s-0.8-0.1-1.1-0.2c-0.3-0.1-0.5-0.3-0.7-0.5
			c-0.2-0.2-0.3-0.5-0.4-0.8c-0.1-0.3-0.1-0.7-0.1-1.1V272z M738.2,271.7c0-0.4-0.1-0.7-0.2-0.9c-0.1-0.2-0.3-0.3-0.6-0.3
			s-0.5,0.1-0.6,0.3s-0.2,0.5-0.2,0.9v2.6c0,0.4,0.1,0.7,0.2,0.9s0.3,0.3,0.6,0.3s0.5-0.1,0.6-0.3c0.1-0.2,0.2-0.5,0.2-0.9V271.7z"
			/>
		<path fill="#231F20" d="M633.9,292.5v-0.7h0c-0.2,0.3-0.5,0.5-0.7,0.7c-0.2,0.1-0.5,0.2-0.9,0.2c-0.5,0-0.8-0.2-1.1-0.5
			c-0.3-0.3-0.4-0.8-0.4-1.5v-3.4c0-0.7,0.1-1.1,0.4-1.5c0.3-0.3,0.6-0.5,1.1-0.5c0.2,0,0.3,0,0.4,0c0.1,0,0.2,0.1,0.4,0.1
			c0.1,0.1,0.2,0.1,0.3,0.2c0.1,0.1,0.2,0.2,0.4,0.3v-3h1.5v9.6H633.9z M633.8,286.8c-0.1-0.1-0.3-0.2-0.4-0.3
			c-0.1-0.1-0.3-0.1-0.4-0.1c-0.2,0-0.4,0.1-0.5,0.2c-0.1,0.2-0.2,0.5-0.2,0.9v2.6c0,0.5,0.1,0.8,0.2,0.9c0.1,0.2,0.3,0.2,0.5,0.2
			c0.1,0,0.3,0,0.4-0.1c0.1-0.1,0.3-0.2,0.4-0.3V286.8z"/>
		<path fill="#231F20" d="M641.3,289.2h-3.1v1c0,0.4,0.1,0.7,0.2,0.9s0.3,0.3,0.6,0.3s0.5-0.1,0.6-0.3c0.1-0.2,0.2-0.5,0.2-0.9v-0.2
			h1.5c0,0.4-0.1,0.7-0.1,1s-0.2,0.6-0.4,0.8c-0.2,0.2-0.4,0.4-0.7,0.5c-0.3,0.1-0.6,0.2-1.1,0.2c-0.4,0-0.8-0.1-1.1-0.2
			c-0.3-0.1-0.5-0.3-0.7-0.5c-0.2-0.2-0.3-0.5-0.4-0.8c-0.1-0.3-0.1-0.7-0.1-1.1v-2.1c0-0.4,0-0.7,0.1-1.1c0.1-0.3,0.2-0.6,0.4-0.8
			c0.2-0.2,0.4-0.4,0.7-0.5c0.3-0.1,0.6-0.2,1.1-0.2s0.8,0.1,1.1,0.2s0.5,0.3,0.7,0.5s0.3,0.5,0.4,0.8c0.1,0.3,0.1,0.7,0.1,1.1
			V289.2z M639.8,288v-0.4c0-0.4-0.1-0.7-0.2-0.9c-0.1-0.2-0.3-0.3-0.6-0.3s-0.5,0.1-0.6,0.3c-0.1,0.2-0.2,0.5-0.2,0.9v0.4H639.8z"
			/>
		<path fill="#231F20" d="M642.6,292.5v-9.6h1.5v9.6H642.6z"/>
		<path fill="#231F20" d="M645.6,284.3v-1.3h1.5v1.3H645.6z M645.6,292.5v-7.1h1.5v7.1H645.6z"/>
		<path fill="#231F20" d="M651.3,285.3h1.5l-1.7,7.1h-1.4l-1.7-7.1h1.5l0.9,4.8h0L651.3,285.3z"/>
		<path fill="#231F20" d="M658.2,289.2H655v1c0,0.4,0.1,0.7,0.2,0.9s0.3,0.3,0.6,0.3s0.5-0.1,0.6-0.3s0.2-0.5,0.2-0.9v-0.2h1.5
			c0,0.4-0.1,0.7-0.1,1c-0.1,0.3-0.2,0.6-0.4,0.8c-0.2,0.2-0.4,0.4-0.7,0.5c-0.3,0.1-0.6,0.2-1.1,0.2c-0.4,0-0.8-0.1-1.1-0.2
			c-0.3-0.1-0.5-0.3-0.7-0.5c-0.2-0.2-0.3-0.5-0.4-0.8c-0.1-0.3-0.1-0.7-0.1-1.1v-2.1c0-0.4,0-0.7,0.1-1.1c0.1-0.3,0.2-0.6,0.4-0.8
			s0.4-0.4,0.7-0.5s0.6-0.2,1.1-0.2s0.8,0.1,1.1,0.2s0.5,0.3,0.7,0.5c0.2,0.2,0.3,0.5,0.4,0.8c0.1,0.3,0.1,0.7,0.1,1.1V289.2z
			 M656.7,288v-0.4c0-0.4-0.1-0.7-0.2-0.9c-0.1-0.2-0.3-0.3-0.6-0.3s-0.5,0.1-0.6,0.3c-0.1,0.2-0.2,0.5-0.2,0.9v0.4H656.7z"/>
		<path fill="#231F20" d="M659.5,292.5v-7.1h1.4v0.8h0c0.2-0.3,0.4-0.5,0.7-0.7s0.6-0.3,1-0.3h0.3v1.5c-0.1,0-0.3-0.1-0.4-0.1
			s-0.3,0-0.5,0c-0.3,0-0.5,0.1-0.7,0.2c-0.2,0.2-0.3,0.4-0.3,0.7v4.9H659.5z"/>
		<path fill="#231F20" d="M666.7,287.4c0-0.7,0.3-1.3,0.7-1.7c0.4-0.4,1-0.6,1.7-0.6c0.7,0,1.2,0.2,1.6,0.5c0.4,0.3,0.6,0.8,0.6,1.5
			v4.6c0,0.1,0,0.2,0,0.4s0,0.3,0.1,0.4h-1.4c0-0.1,0-0.2,0-0.3c0-0.1,0-0.2,0-0.3c-0.3,0.2-0.6,0.4-0.8,0.5
			c-0.3,0.1-0.6,0.2-0.9,0.2c-0.5,0-0.9-0.2-1.1-0.5s-0.4-0.7-0.4-1.1c0-0.4,0.1-0.7,0.2-1c0.1-0.3,0.3-0.6,0.6-0.8
			c0.3-0.3,0.6-0.5,1-0.7c0.4-0.2,0.9-0.4,1.4-0.6v-0.4c0-0.6-0.2-0.9-0.7-0.9c-0.3,0-0.6,0.1-0.7,0.3c-0.1,0.2-0.2,0.4-0.2,0.7
			H666.7z M669.8,288.8c-0.3,0.2-0.6,0.4-0.8,0.5c-0.2,0.2-0.4,0.3-0.5,0.5s-0.2,0.3-0.3,0.4c0,0.1-0.1,0.3-0.1,0.4
			c0,0.2,0.1,0.4,0.2,0.5c0.1,0.1,0.3,0.2,0.5,0.2c0.2,0,0.4-0.1,0.6-0.2s0.3-0.3,0.4-0.5V288.8z"/>
		<path fill="#231F20" d="M678.4,287.3c-0.1-0.6-0.4-0.9-0.8-0.9c-0.2,0-0.4,0-0.5,0.1s-0.2,0.2-0.2,0.4c0,0.2,0.1,0.4,0.2,0.5
			s0.3,0.3,0.5,0.5c0.2,0.2,0.4,0.3,0.7,0.5c0.2,0.2,0.5,0.4,0.7,0.6c0.2,0.2,0.4,0.4,0.5,0.7s0.2,0.6,0.2,0.9
			c0,0.3-0.1,0.6-0.2,0.8c-0.1,0.2-0.2,0.4-0.4,0.6s-0.4,0.3-0.7,0.4c-0.3,0.1-0.5,0.1-0.8,0.1c-0.7,0-1.2-0.2-1.5-0.5
			c-0.4-0.3-0.6-0.8-0.7-1.5l1.3-0.4c0,0.3,0.1,0.6,0.3,0.8s0.4,0.3,0.7,0.3c0.2,0,0.4-0.1,0.5-0.2s0.2-0.3,0.2-0.5
			c0-0.2-0.1-0.4-0.2-0.6s-0.3-0.3-0.5-0.5c-0.2-0.2-0.4-0.3-0.7-0.5c-0.2-0.2-0.5-0.4-0.7-0.6c-0.2-0.2-0.4-0.4-0.5-0.7
			s-0.2-0.5-0.2-0.9c0-0.3,0.1-0.5,0.2-0.8c0.1-0.2,0.2-0.4,0.4-0.6s0.4-0.3,0.6-0.4c0.2-0.1,0.5-0.1,0.8-0.1c0.6,0,1.1,0.2,1.4,0.5
			s0.6,0.8,0.7,1.4L678.4,287.3z"/>
		<path fill="#231F20" d="M683.8,292.5v-5.5c0-0.2,0-0.3-0.1-0.4c-0.1-0.1-0.2-0.1-0.4-0.1c-0.2,0-0.3,0-0.5,0.1
			c-0.1,0.1-0.3,0.2-0.5,0.3v5.6h-1.5v-7.1h1.4v0.7c0.2-0.1,0.3-0.3,0.4-0.4c0.1-0.1,0.2-0.2,0.4-0.3c0.1-0.1,0.3-0.1,0.4-0.2
			s0.3-0.1,0.5-0.1c0.4,0,0.6,0.1,0.8,0.2s0.3,0.4,0.5,0.6c0.2-0.2,0.3-0.3,0.5-0.4s0.3-0.2,0.4-0.3c0.1-0.1,0.3-0.1,0.4-0.1
			s0.3,0,0.4,0c0.5,0,0.8,0.1,1,0.4s0.3,0.6,0.3,1.1v5.8h-1.5v-5.5c0-0.2-0.1-0.3-0.2-0.4c-0.1-0.1-0.2-0.1-0.4-0.1
			c-0.2,0-0.3,0-0.5,0.1c-0.1,0.1-0.3,0.2-0.5,0.3v5.6H683.8z"/>
		<path fill="#231F20" d="M689.6,287.9c0-0.4,0-0.7,0.1-1.1c0.1-0.3,0.2-0.6,0.4-0.8c0.2-0.2,0.4-0.4,0.7-0.5
			c0.3-0.1,0.6-0.2,1.1-0.2s0.8,0.1,1.1,0.2s0.5,0.3,0.7,0.5s0.3,0.5,0.4,0.8c0.1,0.3,0.1,0.7,0.1,1.1v2.1c0,0.4,0,0.7-0.1,1.1
			c-0.1,0.3-0.2,0.6-0.4,0.8c-0.2,0.2-0.4,0.4-0.7,0.5c-0.3,0.1-0.6,0.2-1.1,0.2s-0.8-0.1-1.1-0.2c-0.3-0.1-0.5-0.3-0.7-0.5
			c-0.2-0.2-0.3-0.5-0.4-0.8c-0.1-0.3-0.1-0.7-0.1-1.1V287.9z M692.7,287.6c0-0.4-0.1-0.7-0.2-0.9c-0.1-0.2-0.3-0.3-0.6-0.3
			s-0.5,0.1-0.6,0.3c-0.1,0.2-0.2,0.5-0.2,0.9v2.6c0,0.4,0.1,0.7,0.2,0.9s0.3,0.3,0.6,0.3s0.5-0.1,0.6-0.3c0.1-0.2,0.2-0.5,0.2-0.9
			V287.6z"/>
		<path fill="#231F20" d="M695.4,287.9c0-0.4,0-0.7,0.1-1.1c0.1-0.3,0.2-0.6,0.4-0.8s0.4-0.4,0.7-0.5s0.6-0.2,1.1-0.2
			s0.8,0.1,1.1,0.2s0.5,0.3,0.7,0.5c0.2,0.2,0.3,0.5,0.4,0.8c0.1,0.3,0.1,0.7,0.1,1.1v2.1c0,0.4,0,0.7-0.1,1.1
			c-0.1,0.3-0.2,0.6-0.4,0.8c-0.2,0.2-0.4,0.4-0.7,0.5c-0.3,0.1-0.6,0.2-1.1,0.2s-0.8-0.1-1.1-0.2c-0.3-0.1-0.5-0.3-0.7-0.5
			c-0.2-0.2-0.3-0.5-0.4-0.8c-0.1-0.3-0.1-0.7-0.1-1.1V287.9z M698.6,287.6c0-0.4-0.1-0.7-0.2-0.9c-0.1-0.2-0.3-0.3-0.6-0.3
			s-0.5,0.1-0.6,0.3c-0.1,0.2-0.2,0.5-0.2,0.9v2.6c0,0.4,0.1,0.7,0.2,0.9s0.3,0.3,0.6,0.3s0.5-0.1,0.6-0.3s0.2-0.5,0.2-0.9V287.6z"
			/>
		<path fill="#231F20" d="M700.8,286.6v-1.2h0.8v-1.9h1.5v1.9h1v1.2h-1v4.1c0,0.4,0.2,0.6,0.5,0.6h0.5v1.3c-0.1,0-0.2,0-0.3,0.1
			c-0.1,0-0.3,0-0.4,0c-0.6,0-1-0.1-1.3-0.4c-0.3-0.3-0.4-0.7-0.4-1.2v-4.4H700.8z"/>
		<path fill="#231F20" d="M705.1,292.5v-9.6h1.5v3.1c0.1-0.1,0.3-0.2,0.4-0.3c0.1-0.1,0.2-0.2,0.4-0.3c0.1-0.1,0.3-0.1,0.4-0.2
			s0.3-0.1,0.6-0.1c0.4,0,0.7,0.1,0.9,0.4c0.2,0.3,0.3,0.6,0.3,1.1v5.8H708v-5.5c0-0.2,0-0.3-0.1-0.4c-0.1-0.1-0.2-0.1-0.4-0.1
			s-0.3,0-0.5,0.1c-0.1,0.1-0.3,0.2-0.5,0.3v5.6H705.1z"/>
		<path fill="#231F20" d="M713.3,286.6v-1.2h0.8v-1.9h1.5v1.9h1v1.2h-1v4.1c0,0.4,0.2,0.6,0.5,0.6h0.5v1.3c-0.1,0-0.2,0-0.3,0.1
			s-0.3,0-0.4,0c-0.6,0-1-0.1-1.3-0.4c-0.3-0.3-0.4-0.7-0.4-1.2v-4.4H713.3z"/>
		<path fill="#231F20" d="M717.5,292.5v-7.1h1.4v0.8h0c0.2-0.3,0.4-0.5,0.7-0.7s0.6-0.3,1-0.3h0.3v1.5c-0.1,0-0.3-0.1-0.4-0.1
			s-0.3,0-0.5,0c-0.3,0-0.5,0.1-0.7,0.2c-0.2,0.2-0.3,0.4-0.3,0.7v4.9H717.5z"/>
		<path fill="#231F20" d="M721.8,287.4c0-0.7,0.3-1.3,0.7-1.7c0.4-0.4,1-0.6,1.7-0.6c0.7,0,1.2,0.2,1.6,0.5c0.4,0.3,0.6,0.8,0.6,1.5
			v4.6c0,0.1,0,0.2,0,0.4s0,0.3,0.1,0.4H725c0-0.1,0-0.2,0-0.3c0-0.1,0-0.2,0-0.3c-0.3,0.2-0.6,0.4-0.8,0.5
			c-0.3,0.1-0.6,0.2-0.9,0.2c-0.5,0-0.9-0.2-1.1-0.5c-0.3-0.3-0.4-0.7-0.4-1.1c0-0.4,0.1-0.7,0.2-1s0.3-0.6,0.6-0.8s0.6-0.5,1-0.7
			c0.4-0.2,0.9-0.4,1.4-0.6v-0.4c0-0.6-0.2-0.9-0.7-0.9c-0.3,0-0.6,0.1-0.7,0.3c-0.1,0.2-0.2,0.4-0.2,0.7H721.8z M724.9,288.8
			c-0.3,0.2-0.6,0.4-0.8,0.5c-0.2,0.2-0.4,0.3-0.5,0.5s-0.2,0.3-0.3,0.4s-0.1,0.3-0.1,0.4c0,0.2,0.1,0.4,0.2,0.5
			c0.1,0.1,0.3,0.2,0.5,0.2c0.2,0,0.4-0.1,0.6-0.2s0.3-0.3,0.4-0.5V288.8z"/>
		<path fill="#231F20" d="M727.8,292.5v-7.1h1.4v0.7c0.2-0.1,0.3-0.3,0.4-0.4c0.1-0.1,0.3-0.2,0.4-0.3c0.1-0.1,0.3-0.1,0.4-0.2
			s0.3-0.1,0.6-0.1c0.4,0,0.7,0.1,0.9,0.4c0.2,0.3,0.3,0.6,0.3,1.1v5.8h-1.5v-5.5c0-0.2,0-0.3-0.1-0.4c-0.1-0.1-0.2-0.1-0.4-0.1
			s-0.3,0-0.5,0.1c-0.1,0.1-0.3,0.2-0.5,0.3v5.6H727.8z"/>
		<path fill="#231F20" d="M736.4,287.3c-0.1-0.6-0.4-0.9-0.8-0.9c-0.2,0-0.4,0-0.5,0.1s-0.2,0.2-0.2,0.4c0,0.2,0.1,0.4,0.2,0.5
			s0.3,0.3,0.5,0.5c0.2,0.2,0.4,0.3,0.7,0.5c0.2,0.2,0.5,0.4,0.7,0.6s0.4,0.4,0.5,0.7s0.2,0.6,0.2,0.9c0,0.3-0.1,0.6-0.2,0.8
			s-0.2,0.4-0.4,0.6c-0.2,0.2-0.4,0.3-0.7,0.4c-0.3,0.1-0.5,0.1-0.8,0.1c-0.7,0-1.2-0.2-1.5-0.5c-0.4-0.3-0.6-0.8-0.7-1.5l1.3-0.4
			c0,0.3,0.1,0.6,0.3,0.8s0.4,0.3,0.7,0.3c0.2,0,0.4-0.1,0.5-0.2s0.2-0.3,0.2-0.5c0-0.2-0.1-0.4-0.2-0.6s-0.3-0.3-0.5-0.5
			s-0.4-0.3-0.7-0.5s-0.5-0.4-0.7-0.6c-0.2-0.2-0.4-0.4-0.5-0.7s-0.2-0.5-0.2-0.9c0-0.3,0.1-0.5,0.2-0.8c0.1-0.2,0.2-0.4,0.4-0.6
			c0.2-0.2,0.4-0.3,0.6-0.4c0.2-0.1,0.5-0.1,0.8-0.1c0.6,0,1.1,0.2,1.4,0.5c0.4,0.4,0.6,0.8,0.7,1.4L736.4,287.3z"/>
		<path fill="#231F20" d="M738.9,284.3v-1.3h1.5v1.3H738.9z M738.9,292.5v-7.1h1.5v7.1H738.9z"/>
		<path fill="#231F20" d="M741.2,286.6v-1.2h0.8v-1.9h1.5v1.9h1v1.2h-1v4.1c0,0.4,0.2,0.6,0.5,0.6h0.5v1.3c-0.1,0-0.2,0-0.3,0.1
			s-0.3,0-0.4,0c-0.6,0-1-0.1-1.3-0.4c-0.3-0.3-0.4-0.7-0.4-1.2v-4.4H741.2z"/>
		<path fill="#231F20" d="M745.5,284.3v-1.3h1.5v1.3H745.5z M745.5,292.5v-7.1h1.5v7.1H745.5z"/>
		<path fill="#231F20" d="M748.3,287.9c0-0.4,0-0.7,0.1-1.1c0.1-0.3,0.2-0.6,0.4-0.8c0.2-0.2,0.4-0.4,0.7-0.5
			c0.3-0.1,0.6-0.2,1.1-0.2s0.8,0.1,1.1,0.2s0.5,0.3,0.7,0.5s0.3,0.5,0.4,0.8c0.1,0.3,0.1,0.7,0.1,1.1v2.1c0,0.4,0,0.7-0.1,1.1
			c-0.1,0.3-0.2,0.6-0.4,0.8c-0.2,0.2-0.4,0.4-0.7,0.5c-0.3,0.1-0.6,0.2-1.1,0.2s-0.8-0.1-1.1-0.2c-0.3-0.1-0.5-0.3-0.7-0.5
			c-0.2-0.2-0.3-0.5-0.4-0.8c-0.1-0.3-0.1-0.7-0.1-1.1V287.9z M751.4,287.6c0-0.4-0.1-0.7-0.2-0.9c-0.1-0.2-0.3-0.3-0.6-0.3
			s-0.5,0.1-0.6,0.3c-0.1,0.2-0.2,0.5-0.2,0.9v2.6c0,0.4,0.1,0.7,0.2,0.9s0.3,0.3,0.6,0.3s0.5-0.1,0.6-0.3c0.1-0.2,0.2-0.5,0.2-0.9
			V287.6z"/>
		<path fill="#231F20" d="M754.3,292.5v-7.1h1.4v0.7c0.2-0.1,0.3-0.3,0.4-0.4c0.1-0.1,0.3-0.2,0.4-0.3c0.1-0.1,0.3-0.1,0.4-0.2
			s0.3-0.1,0.6-0.1c0.4,0,0.7,0.1,0.9,0.4c0.2,0.3,0.3,0.6,0.3,1.1v5.8h-1.5v-5.5c0-0.2,0-0.3-0.1-0.4c-0.1-0.1-0.2-0.1-0.4-0.1
			s-0.3,0-0.5,0.1c-0.1,0.1-0.3,0.2-0.5,0.3v5.6H754.3z"/>
		<path fill="#231F20" d="M760.1,292.5v-1.6h1.6v1.6H760.1z"/>
	</g>
</g>
</svg>
