<?xml version="1.0" encoding="utf-8"?>
<!-- Generator: Adobe Illustrator 19.1.0, SVG Export Plug-In . SVG Version: 6.00 Build 0)  -->
<svg version="1.1" id="Layer_1" xmlns="http://www.w3.org/2000/svg" xmlns:xlink="http://www.w3.org/1999/xlink" x="0px" y="0px"
	 viewBox="-399 176 800 350" style="enable-background:new -399 176 800 350;" xml:space="preserve">
<style type="text/css">
	.st0{enable-background:new    ;}
	.st1{fill:#FFFFFF;}
	.st2{fill:none;stroke:#FFFFFF;stroke-miterlimit:10;}
</style>
<g id="outsole">
	<g>
		<g class="st0">
			<path class="st1" d="M221.9,362v-0.7c0-0.4-0.1-0.6-0.2-0.8s-0.3-0.2-0.5-0.2c-0.3,0-0.5,0.1-0.6,0.2c-0.1,0.2-0.2,0.4-0.2,0.7
				l0,4.4c0,0.3,0.1,0.6,0.2,0.7c0.1,0.2,0.3,0.2,0.6,0.2c0.3,0,0.5-0.1,0.6-0.2c0.1-0.2,0.2-0.4,0.2-0.6v-1l1.5,0v1
				c0,0.3,0,0.6-0.1,0.9c-0.1,0.3-0.2,0.5-0.4,0.7c-0.2,0.2-0.4,0.4-0.7,0.5c-0.3,0.1-0.6,0.2-1,0.2c-0.4,0-0.7-0.1-1-0.2
				c-0.3-0.1-0.5-0.3-0.7-0.5c-0.2-0.2-0.3-0.4-0.4-0.7c-0.1-0.3-0.1-0.6-0.1-0.9l0-4.5c0-0.3,0-0.6,0.1-0.9
				c0.1-0.3,0.2-0.5,0.4-0.7c0.2-0.2,0.4-0.4,0.7-0.5c0.3-0.1,0.6-0.2,1-0.2c0.4,0,0.7,0.1,1,0.2c0.3,0.1,0.5,0.3,0.7,0.5
				s0.3,0.5,0.4,0.8c0.1,0.3,0.1,0.6,0.1,0.9v0.6L221.9,362z"/>
			<path class="st1" d="M224.9,359.1h1.5l0,6.5c0,0.6,0.3,0.9,0.8,0.9s0.8-0.3,0.8-0.9l0-6.5h1.5l0,6.5c0,0.8-0.2,1.3-0.6,1.7
				c-0.4,0.4-1,0.6-1.7,0.6s-1.3-0.2-1.7-0.6c-0.4-0.4-0.6-1-0.6-1.7L224.9,359.1z"/>
			<path class="st1" d="M233.6,361.3c0-0.2-0.1-0.3-0.1-0.5c-0.1-0.1-0.1-0.2-0.2-0.3c-0.1-0.1-0.2-0.1-0.2-0.2c-0.1,0-0.2,0-0.3,0
				c-0.2,0-0.4,0.1-0.6,0.2c-0.1,0.1-0.2,0.4-0.2,0.6c0,0.2,0.1,0.5,0.2,0.7c0.1,0.2,0.3,0.4,0.6,0.6c0.2,0.2,0.5,0.4,0.7,0.6
				s0.5,0.4,0.7,0.7c0.2,0.3,0.4,0.5,0.6,0.8c0.1,0.3,0.2,0.7,0.2,1.1c0,0.4-0.1,0.7-0.2,1c-0.1,0.3-0.3,0.5-0.5,0.7
				c-0.2,0.2-0.5,0.3-0.7,0.4c-0.3,0.1-0.6,0.1-1,0.1c-0.3,0-0.7-0.1-0.9-0.2s-0.5-0.3-0.7-0.5s-0.3-0.5-0.4-0.8
				c-0.1-0.3-0.2-0.6-0.2-0.9l1.4-0.2c0,0.4,0.1,0.8,0.3,1s0.4,0.3,0.6,0.3c0.3,0,0.5-0.1,0.6-0.2c0.2-0.1,0.2-0.3,0.2-0.6
				c0-0.3-0.1-0.5-0.2-0.8c-0.1-0.2-0.3-0.4-0.6-0.6c-0.2-0.2-0.5-0.4-0.7-0.6c-0.3-0.2-0.5-0.4-0.7-0.7c-0.2-0.2-0.4-0.5-0.6-0.8
				c-0.1-0.3-0.2-0.7-0.2-1.1c0-0.7,0.2-1.2,0.6-1.6c0.4-0.4,1-0.6,1.7-0.6c0.3,0,0.6,0.1,0.8,0.2c0.2,0.1,0.4,0.2,0.6,0.4
				c0.2,0.2,0.3,0.4,0.4,0.7c0.1,0.3,0.2,0.5,0.2,0.8L233.6,361.3z"/>
			<path class="st1" d="M236.3,367.8l0-8.7l1.5,0l0,3.5h1.6l0-3.5l1.5,0l0,8.7l-1.5,0l0-3.8h-1.6l0,3.8L236.3,367.8z"/>
			<path class="st1" d="M242.2,367.8l0-8.7l1.5,0l0,7.4h2.3v1.3L242.2,367.8z"/>
			<path class="st1" d="M246.9,361.2c0-0.3,0-0.6,0.1-0.9c0.1-0.3,0.2-0.5,0.4-0.7c0.2-0.2,0.4-0.4,0.7-0.5c0.3-0.1,0.6-0.2,1-0.2
				c0.4,0,0.7,0.1,1,0.2c0.3,0.1,0.5,0.3,0.7,0.5s0.3,0.4,0.4,0.7c0.1,0.3,0.1,0.6,0.1,0.9l0,4.5c0,0.3,0,0.6-0.1,0.9
				c-0.1,0.3-0.2,0.5-0.4,0.7c-0.2,0.2-0.4,0.4-0.7,0.5c-0.3,0.1-0.6,0.2-1,0.2c-0.4,0-0.7-0.1-1-0.2c-0.3-0.1-0.5-0.3-0.7-0.5
				c-0.2-0.2-0.3-0.4-0.4-0.7c-0.1-0.3-0.1-0.6-0.1-0.9L246.9,361.2z M248.4,365.7c0,0.3,0.1,0.6,0.2,0.7c0.1,0.2,0.3,0.2,0.6,0.2
				c0.3,0,0.5-0.1,0.6-0.2c0.1-0.2,0.2-0.4,0.2-0.7l0-4.4c0-0.3-0.1-0.6-0.2-0.7c-0.1-0.2-0.3-0.2-0.6-0.2c-0.3,0-0.5,0.1-0.6,0.2
				c-0.1,0.2-0.2,0.4-0.2,0.7L248.4,365.7z"/>
			<path class="st1" d="M252.9,367.8l0-8.7h1.4l1.8,5h0l0-5h1.3l0,8.7h-1.3l-1.9-5.4h0l0,5.4H252.9z"/>
		</g>
		<g class="st0">
			<path class="st1" d="M219.3,380.8l0-7.2l0.8,0l0,6.5l3.4,0v0.7L219.3,380.8z"/>
			<path class="st1" d="M224.8,375.6h0.7l0,5.2h-0.7L224.8,375.6z M225.5,373.5l0,0.9h-0.7l0-0.9H225.5z"/>
			<path class="st1" d="M231.3,376.1c-0.2,0-0.3,0-0.4,0c-0.1,0-0.3,0.1-0.4,0.1c0.1,0.1,0.2,0.2,0.2,0.4s0.1,0.4,0.1,0.6
				c0,0.3-0.1,0.5-0.2,0.7c-0.1,0.2-0.2,0.4-0.4,0.6c-0.2,0.2-0.4,0.3-0.6,0.4c-0.2,0.1-0.5,0.1-0.7,0.1c-0.2,0-0.4,0-0.5,0
				c-0.1,0-0.3-0.1-0.4-0.1c-0.3,0.1-0.4,0.2-0.4,0.5c0,0.1,0,0.2,0.1,0.3s0.2,0.1,0.3,0.1c0.6,0,1.1,0,1.5,0.1
				c0.4,0.1,0.8,0.1,1,0.3s0.4,0.3,0.5,0.5c0.1,0.2,0.2,0.4,0.2,0.7c0,0.2,0,0.4-0.1,0.5c-0.1,0.2-0.2,0.3-0.4,0.4s-0.4,0.2-0.7,0.3
				c-0.3,0.1-0.6,0.1-1.1,0.1c-0.7,0-1.3-0.1-1.7-0.3c-0.4-0.2-0.6-0.5-0.6-1c0-0.3,0.1-0.5,0.2-0.6c0.2-0.2,0.4-0.3,0.6-0.4
				c-0.2-0.1-0.4-0.2-0.5-0.3c-0.1-0.1-0.2-0.3-0.2-0.4c0-0.2,0.1-0.4,0.2-0.5c0.1-0.1,0.3-0.2,0.5-0.4c-0.2-0.2-0.4-0.4-0.5-0.6
				c-0.1-0.2-0.2-0.5-0.2-0.8c0-0.3,0.1-0.5,0.1-0.7c0.1-0.2,0.2-0.4,0.4-0.6c0.2-0.2,0.4-0.3,0.6-0.4c0.2-0.1,0.5-0.1,0.8-0.1
				c0.3,0,0.5,0,0.7,0.1c0.2,0.1,0.4,0.2,0.6,0.3c0.2-0.1,0.3-0.2,0.5-0.3c0.2-0.1,0.4-0.1,0.6-0.2L231.3,376.1z M230.7,381.4
				c0-0.3-0.1-0.4-0.4-0.6c-0.3-0.1-0.7-0.2-1.4-0.2c-0.3,0-0.5,0-0.7,0.1s-0.3,0.1-0.4,0.2c-0.1,0.1-0.2,0.2-0.2,0.3
				c0,0.1-0.1,0.2-0.1,0.3c0,0.1,0,0.2,0.1,0.3s0.1,0.1,0.2,0.2c0.1,0.1,0.3,0.1,0.5,0.1c0.2,0,0.5,0,0.9,0c0.2,0,0.4,0,0.6,0
				c0.2,0,0.4-0.1,0.5-0.1c0.1-0.1,0.3-0.1,0.3-0.2S230.7,381.5,230.7,381.4z M230.2,377.4c0-0.4-0.1-0.7-0.3-0.9
				c-0.2-0.2-0.6-0.3-1-0.3c-0.4,0-0.7,0.1-0.9,0.3c-0.2,0.2-0.3,0.5-0.3,0.9c0,0.3,0.1,0.6,0.4,0.9c0.2,0.2,0.6,0.3,1,0.3
				c0.2,0,0.4,0,0.5-0.1s0.3-0.1,0.4-0.3c0.1-0.1,0.2-0.2,0.2-0.4C230.2,377.7,230.2,377.5,230.2,377.4z"/>
			<path class="st1" d="M233.2,373.6l0,2.7h0c0.2-0.2,0.4-0.4,0.7-0.6c0.3-0.1,0.5-0.2,0.8-0.2c0.2,0,0.4,0,0.6,0.1
				c0.2,0.1,0.3,0.1,0.5,0.3c0.1,0.1,0.3,0.3,0.3,0.5s0.1,0.4,0.1,0.7l0,3.8h-0.7l0-3.8c0-0.3-0.1-0.6-0.2-0.7
				c-0.2-0.1-0.4-0.2-0.6-0.2c-0.1,0-0.3,0-0.4,0.1c-0.1,0.1-0.3,0.1-0.4,0.2c-0.1,0.1-0.3,0.2-0.4,0.3c-0.1,0.1-0.2,0.2-0.3,0.3
				l0,3.9l-0.7,0l0-7.2L233.2,373.6z"/>
			<path class="st1" d="M238.1,375.6l0-1.7h0.7l0,1.7l1.2,0l0,0.6l-1.2,0l0,3.7c0,0.1,0,0.2,0.1,0.3c0.1,0.1,0.2,0.1,0.5,0.1
				c0.1,0,0.2,0,0.3,0c0.1,0,0.2,0,0.3,0v0.6c-0.1,0-0.2,0-0.3,0.1c-0.1,0-0.3,0-0.5,0c-0.4,0-0.7-0.1-0.8-0.2s-0.3-0.3-0.3-0.7
				l0-3.8h-0.8l0-0.6H238.1z"/>
			<path class="st1" d="M240.6,375.6h0.7l1,4h0l1-4h0.7l1,4h0l1-4h0.7l-1.4,5.2h-0.7l-1-4h0l-1,4H242L240.6,375.6z"/>
			<path class="st1" d="M251.8,379.7c-0.1,0.1-0.2,0.3-0.3,0.4c-0.1,0.1-0.2,0.3-0.4,0.4c-0.2,0.1-0.3,0.2-0.6,0.3s-0.5,0.1-0.8,0.1
				c-0.3,0-0.6-0.1-0.8-0.2c-0.3-0.1-0.5-0.3-0.7-0.5c-0.2-0.2-0.4-0.5-0.5-0.8c-0.1-0.3-0.2-0.7-0.2-1.2c0-0.4,0.1-0.8,0.2-1.1
				c0.1-0.3,0.2-0.6,0.4-0.8s0.4-0.4,0.7-0.5c0.3-0.1,0.6-0.2,0.9-0.2c0.3,0,0.5,0,0.8,0.1c0.2,0.1,0.5,0.2,0.6,0.4
				c0.2,0.2,0.3,0.4,0.4,0.7c0.1,0.3,0.2,0.7,0.2,1.1v0.5l-3.4,0c0,0.3,0,0.5,0.1,0.8c0.1,0.2,0.2,0.4,0.3,0.6
				c0.1,0.2,0.3,0.3,0.5,0.4c0.2,0.1,0.4,0.1,0.6,0.1c0.3,0,0.6-0.1,0.8-0.2s0.4-0.4,0.6-0.6L251.8,379.7z M250.9,377.7
				c0-0.5-0.1-0.9-0.3-1.2c-0.2-0.3-0.5-0.4-0.9-0.4c-0.4,0-0.8,0.1-1,0.4c-0.2,0.3-0.4,0.7-0.4,1.2L250.9,377.7z"/>
			<path class="st1" d="M253.1,375.6h0.7l0,5.2h-0.7L253.1,375.6z M253.9,373.5l0,0.9h-0.7l0-0.9H253.9z"/>
			<path class="st1" d="M259.7,376.2c-0.2,0-0.3,0-0.4,0c-0.1,0-0.3,0.1-0.4,0.1c0.1,0.1,0.2,0.2,0.2,0.4s0.1,0.4,0.1,0.6
				c0,0.3-0.1,0.5-0.2,0.7c-0.1,0.2-0.2,0.4-0.4,0.6c-0.2,0.2-0.4,0.3-0.6,0.4c-0.2,0.1-0.5,0.1-0.7,0.1c-0.2,0-0.4,0-0.5,0
				c-0.1,0-0.3-0.1-0.4-0.1c-0.3,0.1-0.4,0.2-0.4,0.5c0,0.1,0,0.2,0.1,0.3s0.2,0.1,0.3,0.1c0.6,0,1.1,0,1.5,0.1
				c0.4,0.1,0.8,0.1,1,0.3s0.4,0.3,0.5,0.5c0.1,0.2,0.2,0.4,0.2,0.7c0,0.2,0,0.4-0.1,0.5c-0.1,0.2-0.2,0.3-0.4,0.4s-0.4,0.2-0.7,0.3
				c-0.3,0.1-0.6,0.1-1.1,0.1c-0.7,0-1.3-0.1-1.7-0.3c-0.4-0.2-0.6-0.5-0.6-1c0-0.3,0.1-0.5,0.2-0.6c0.2-0.2,0.4-0.3,0.6-0.4
				c-0.2-0.1-0.4-0.2-0.5-0.3c-0.1-0.1-0.2-0.3-0.2-0.4c0-0.2,0.1-0.4,0.2-0.5c0.1-0.1,0.3-0.2,0.5-0.4c-0.2-0.2-0.4-0.4-0.5-0.6
				c-0.1-0.2-0.2-0.5-0.2-0.8c0-0.3,0.1-0.5,0.1-0.7c0.1-0.2,0.2-0.4,0.4-0.6c0.2-0.2,0.4-0.3,0.6-0.4c0.2-0.1,0.5-0.1,0.8-0.1
				c0.3,0,0.5,0,0.7,0.1c0.2,0.1,0.4,0.2,0.6,0.3c0.2-0.1,0.3-0.2,0.5-0.3c0.2-0.1,0.4-0.1,0.6-0.2L259.7,376.2z M259,381.4
				c0-0.3-0.1-0.4-0.4-0.6c-0.3-0.1-0.7-0.2-1.4-0.2c-0.3,0-0.5,0-0.7,0.1s-0.3,0.1-0.4,0.2c-0.1,0.1-0.2,0.2-0.2,0.3
				c0,0.1-0.1,0.2-0.1,0.3c0,0.1,0,0.2,0.1,0.3s0.1,0.1,0.2,0.2c0.1,0.1,0.3,0.1,0.5,0.1c0.2,0,0.5,0,0.9,0c0.2,0,0.4,0,0.6,0
				s0.4-0.1,0.5-0.1c0.1-0.1,0.3-0.1,0.3-0.2S259,381.5,259,381.4z M258.6,377.4c0-0.4-0.1-0.7-0.3-0.9c-0.2-0.2-0.6-0.3-1-0.3
				c-0.4,0-0.7,0.1-0.9,0.3c-0.2,0.2-0.3,0.5-0.3,0.9c0,0.3,0.1,0.6,0.4,0.9c0.2,0.2,0.6,0.3,1,0.3c0.2,0,0.4,0,0.5-0.1
				s0.3-0.1,0.4-0.3c0.1-0.1,0.2-0.2,0.2-0.4C258.5,377.7,258.6,377.5,258.6,377.4z"/>
			<path class="st1" d="M261.5,373.6l0,2.7h0c0.2-0.2,0.4-0.4,0.7-0.6c0.3-0.1,0.5-0.2,0.8-0.2c0.2,0,0.4,0,0.6,0.1
				c0.2,0.1,0.3,0.1,0.5,0.3c0.1,0.1,0.3,0.3,0.3,0.5s0.1,0.4,0.1,0.7l0,3.8h-0.7l0-3.8c0-0.3-0.1-0.6-0.2-0.7
				c-0.2-0.1-0.4-0.2-0.6-0.2c-0.1,0-0.3,0-0.4,0.1c-0.1,0.1-0.3,0.1-0.4,0.2c-0.1,0.1-0.3,0.2-0.4,0.3c-0.1,0.1-0.2,0.2-0.3,0.3
				l0,3.9h-0.7l0-7.2H261.5z"/>
			<path class="st1" d="M266.5,375.6l0-1.7h0.7l0,1.7h1.2l0,0.6h-1.2l0,3.7c0,0.1,0,0.2,0.1,0.3c0.1,0.1,0.2,0.1,0.5,0.1
				c0.1,0,0.2,0,0.3,0c0.1,0,0.2,0,0.3,0v0.6c-0.1,0-0.2,0-0.3,0.1c-0.1,0-0.3,0-0.5,0c-0.4,0-0.7-0.1-0.8-0.2s-0.3-0.3-0.3-0.7
				l0-3.8l-0.8,0l0-0.6L266.5,375.6z"/>
			<path class="st1" d="M270.8,380.8l-0.6,1.5h-0.4l0.5-1.5h-0.4v-1.1h1V380.8z"/>
			<path class="st1" d="M275.6,375.6l0.7,0l0,1h0c0.1-0.2,0.2-0.3,0.3-0.5c0.1-0.1,0.2-0.3,0.4-0.3c0.1-0.1,0.3-0.2,0.5-0.2
				c0.2,0,0.4-0.1,0.6-0.1l0,0.7c-0.5,0-0.8,0.2-1.1,0.4s-0.5,0.7-0.6,1.2l0,2.9l-0.7,0L275.6,375.6z"/>
			<path class="st1" d="M282.9,379.7c-0.1,0.1-0.2,0.3-0.3,0.4c-0.1,0.1-0.2,0.3-0.4,0.4c-0.2,0.1-0.3,0.2-0.6,0.3s-0.5,0.1-0.8,0.1
				c-0.3,0-0.6-0.1-0.8-0.2c-0.3-0.1-0.5-0.3-0.7-0.5c-0.2-0.2-0.4-0.5-0.5-0.8c-0.1-0.3-0.2-0.7-0.2-1.2c0-0.4,0.1-0.8,0.2-1.1
				c0.1-0.3,0.2-0.6,0.4-0.8c0.2-0.2,0.4-0.4,0.7-0.5c0.3-0.1,0.6-0.2,0.9-0.2c0.3,0,0.5,0,0.8,0.1c0.2,0.1,0.5,0.2,0.6,0.4
				c0.2,0.2,0.3,0.4,0.4,0.7c0.1,0.3,0.2,0.7,0.2,1.1v0.5l-3.4,0c0,0.3,0,0.5,0.1,0.8c0.1,0.2,0.2,0.4,0.3,0.6
				c0.1,0.2,0.3,0.3,0.5,0.4c0.2,0.1,0.4,0.1,0.6,0.1c0.3,0,0.6-0.1,0.8-0.2s0.4-0.4,0.6-0.6L282.9,379.7z M282,377.8
				c0-0.5-0.1-0.9-0.3-1.2c-0.2-0.3-0.5-0.4-0.9-0.4c-0.4,0-0.8,0.1-1,0.4c-0.2,0.3-0.4,0.7-0.4,1.2H282z"/>
			<path class="st1" d="M284,379.5c0.2,0.2,0.4,0.4,0.6,0.6c0.2,0.1,0.5,0.2,0.9,0.2c0.4,0,0.7-0.1,0.9-0.3c0.2-0.2,0.3-0.4,0.3-0.6
				c0-0.2-0.1-0.4-0.2-0.5c-0.2-0.1-0.3-0.2-0.6-0.3c-0.2-0.1-0.5-0.2-0.7-0.2c-0.3-0.1-0.5-0.2-0.7-0.3c-0.2-0.1-0.4-0.3-0.6-0.4
				c-0.1-0.2-0.2-0.4-0.2-0.8c0-0.5,0.2-0.8,0.5-1c0.3-0.2,0.7-0.4,1.2-0.4c0.2,0,0.3,0,0.5,0.1c0.2,0,0.3,0.1,0.5,0.2
				c0.2,0.1,0.3,0.2,0.4,0.3c0.1,0.1,0.2,0.2,0.3,0.4l-0.5,0.4c-0.2-0.2-0.4-0.4-0.6-0.5s-0.5-0.2-0.7-0.2c-0.3,0-0.5,0.1-0.7,0.2
				c-0.2,0.1-0.2,0.3-0.2,0.6c0,0.2,0.1,0.3,0.2,0.4c0.1,0.1,0.3,0.2,0.6,0.3c0.2,0.1,0.5,0.2,0.7,0.2c0.3,0.1,0.5,0.2,0.7,0.3
				c0.2,0.1,0.4,0.3,0.6,0.5c0.1,0.2,0.2,0.5,0.2,0.8c0,0.3-0.1,0.5-0.1,0.7c-0.1,0.2-0.2,0.3-0.4,0.5c-0.2,0.1-0.4,0.2-0.6,0.3
				s-0.4,0.1-0.7,0.1c-0.4,0-0.8-0.1-1.2-0.3c-0.4-0.2-0.7-0.4-0.9-0.7L284,379.5z"/>
			<path class="st1" d="M288.5,382.8l0-7.1l0.7,0l0,0.6h0c0.1-0.1,0.2-0.2,0.3-0.3c0.1-0.1,0.2-0.2,0.3-0.2s0.2-0.1,0.4-0.2
				c0.1,0,0.3-0.1,0.4-0.1c0.2,0,0.5,0,0.7,0.1s0.5,0.2,0.7,0.4c0.2,0.2,0.4,0.5,0.5,0.8c0.1,0.3,0.2,0.8,0.2,1.3
				c0,0.5-0.1,0.9-0.2,1.3c-0.1,0.3-0.3,0.6-0.5,0.8c-0.2,0.2-0.4,0.4-0.7,0.5c-0.2,0.1-0.5,0.1-0.7,0.1c-0.2,0-0.5-0.1-0.7-0.2
				c-0.2-0.1-0.5-0.2-0.6-0.4l0,0l0,2.4L288.5,382.8z M289.2,379.6c0.2,0.2,0.4,0.4,0.6,0.5c0.2,0.1,0.5,0.2,0.7,0.2
				c0.2,0,0.4,0,0.6-0.1c0.2-0.1,0.3-0.2,0.5-0.4c0.1-0.2,0.2-0.4,0.3-0.7c0.1-0.3,0.1-0.6,0.1-1c0-0.7-0.1-1.2-0.4-1.5
				s-0.6-0.5-1.1-0.5c-0.2,0-0.4,0.1-0.6,0.2c-0.2,0.1-0.4,0.3-0.7,0.5L289.2,379.6z"/>
			<path class="st1" d="M297.8,378.2c0,0.4,0,0.7-0.1,1.1s-0.2,0.6-0.4,0.9c-0.2,0.2-0.4,0.4-0.7,0.6c-0.3,0.1-0.6,0.2-0.9,0.2
				c-0.4,0-0.7-0.1-0.9-0.2c-0.3-0.1-0.5-0.3-0.7-0.6c-0.2-0.2-0.3-0.5-0.4-0.9c-0.1-0.3-0.1-0.7-0.1-1.1c0-0.4,0-0.7,0.1-1.1
				c0.1-0.3,0.2-0.6,0.4-0.9c0.2-0.2,0.4-0.4,0.7-0.6c0.3-0.1,0.6-0.2,0.9-0.2c0.4,0,0.7,0.1,0.9,0.2c0.3,0.1,0.5,0.3,0.7,0.6
				c0.2,0.2,0.3,0.5,0.4,0.9C297.8,377.5,297.8,377.9,297.8,378.2z M297.1,378.2c0-0.7-0.1-1.2-0.4-1.5c-0.3-0.4-0.6-0.5-1-0.5
				c-0.4,0-0.8,0.2-1,0.5c-0.3,0.4-0.4,0.9-0.4,1.5c0,0.7,0.1,1.2,0.4,1.5c0.3,0.4,0.6,0.5,1,0.5c0.4,0,0.8-0.2,1-0.5
				S297.1,378.9,297.1,378.2z"/>
			<path class="st1" d="M299.8,375.6l0,0.7h0c0.2-0.2,0.4-0.4,0.7-0.6c0.3-0.1,0.5-0.2,0.8-0.2c0.2,0,0.4,0,0.6,0.1s0.3,0.1,0.5,0.3
				c0.1,0.1,0.3,0.3,0.3,0.5s0.1,0.4,0.1,0.7l0,3.8h-0.7l0-3.8c0-0.3-0.1-0.6-0.2-0.7c-0.2-0.1-0.4-0.2-0.6-0.2
				c-0.1,0-0.3,0-0.4,0.1c-0.1,0.1-0.3,0.1-0.4,0.2c-0.1,0.1-0.3,0.2-0.4,0.3c-0.1,0.1-0.2,0.2-0.3,0.3l0,3.9h-0.7l0-5.2H299.8z"/>
			<path class="st1" d="M304.6,379.5c0.2,0.2,0.4,0.4,0.6,0.6c0.2,0.1,0.5,0.2,0.9,0.2c0.4,0,0.7-0.1,0.9-0.3
				c0.2-0.2,0.3-0.4,0.3-0.6c0-0.2-0.1-0.4-0.2-0.5c-0.2-0.1-0.3-0.2-0.6-0.3c-0.2-0.1-0.5-0.2-0.7-0.2c-0.3-0.1-0.5-0.2-0.7-0.3
				c-0.2-0.1-0.4-0.3-0.6-0.4c-0.1-0.2-0.2-0.4-0.2-0.8c0-0.5,0.2-0.8,0.5-1c0.3-0.2,0.7-0.4,1.2-0.4c0.2,0,0.3,0,0.5,0.1
				c0.2,0,0.3,0.1,0.5,0.2c0.2,0.1,0.3,0.2,0.4,0.3c0.1,0.1,0.2,0.2,0.3,0.4l-0.5,0.4c-0.2-0.2-0.4-0.4-0.6-0.5s-0.5-0.2-0.7-0.2
				c-0.3,0-0.5,0.1-0.7,0.2c-0.2,0.1-0.2,0.3-0.2,0.6c0,0.2,0.1,0.3,0.2,0.4c0.1,0.1,0.3,0.2,0.6,0.3c0.2,0.1,0.5,0.2,0.7,0.2
				c0.3,0.1,0.5,0.2,0.7,0.3c0.2,0.1,0.4,0.3,0.6,0.5c0.1,0.2,0.2,0.5,0.2,0.8c0,0.3-0.1,0.5-0.1,0.7c-0.1,0.2-0.2,0.3-0.4,0.5
				c-0.2,0.1-0.4,0.2-0.6,0.3s-0.4,0.1-0.7,0.1c-0.4,0-0.8-0.1-1.2-0.3c-0.4-0.2-0.7-0.4-0.9-0.7L304.6,379.5z"/>
			<path class="st1" d="M309.2,375.6h0.7l0,5.2h-0.7L309.2,375.6z M310,373.5l0,0.9h-0.7l0-0.9H310z"/>
			<path class="st1" d="M313.7,380.8h-1l-1.6-5.2h0.7l1.3,4.3h0l1.3-4.3l0.7,0L313.7,380.8z"/>
			<path class="st1" d="M320.1,379.7c-0.1,0.1-0.2,0.3-0.3,0.4c-0.1,0.1-0.2,0.3-0.4,0.4c-0.2,0.1-0.3,0.2-0.6,0.3s-0.5,0.1-0.8,0.1
				c-0.3,0-0.6-0.1-0.8-0.2c-0.3-0.1-0.5-0.3-0.7-0.5c-0.2-0.2-0.4-0.5-0.5-0.8c-0.1-0.3-0.2-0.7-0.2-1.2c0-0.4,0.1-0.8,0.2-1.1
				c0.1-0.3,0.2-0.6,0.4-0.8s0.4-0.4,0.7-0.5c0.3-0.1,0.6-0.2,0.9-0.2c0.3,0,0.5,0,0.8,0.1c0.2,0.1,0.5,0.2,0.6,0.4
				c0.2,0.2,0.3,0.4,0.4,0.7c0.1,0.3,0.2,0.7,0.2,1.1v0.5l-3.4,0c0,0.3,0,0.5,0.1,0.8c0.1,0.2,0.2,0.4,0.3,0.6
				c0.1,0.2,0.3,0.3,0.5,0.4c0.2,0.1,0.4,0.1,0.6,0.1c0.3,0,0.6-0.1,0.8-0.2s0.4-0.4,0.6-0.6L320.1,379.7z M319.2,377.8
				c0-0.5-0.1-0.9-0.3-1.2c-0.2-0.3-0.5-0.4-0.9-0.4c-0.4,0-0.8,0.1-1,0.4c-0.2,0.3-0.4,0.7-0.4,1.2L319.2,377.8z"/>
			<path class="st1" d="M327.2,377.2c-0.1-0.3-0.3-0.6-0.5-0.8c-0.2-0.2-0.5-0.3-0.8-0.3c-0.4,0-0.8,0.2-1,0.5
				c-0.2,0.4-0.4,0.9-0.4,1.5c0,0.7,0.1,1.2,0.4,1.5c0.2,0.4,0.6,0.5,1,0.5c0.2,0,0.3,0,0.4,0c0.1,0,0.3-0.1,0.4-0.2
				s0.2-0.2,0.3-0.3c0.1-0.1,0.2-0.3,0.3-0.5l0.6,0.3c-0.1,0.2-0.3,0.4-0.4,0.6c-0.1,0.2-0.3,0.3-0.4,0.4c-0.2,0.1-0.3,0.2-0.5,0.2
				c-0.2,0.1-0.4,0.1-0.7,0.1c-0.3,0-0.6-0.1-0.9-0.2c-0.3-0.1-0.5-0.3-0.7-0.5c-0.2-0.2-0.3-0.5-0.4-0.8c-0.1-0.3-0.1-0.7-0.1-1.1
				s0.1-0.8,0.2-1.1c0.1-0.3,0.2-0.6,0.4-0.8c0.2-0.2,0.4-0.4,0.7-0.5c0.3-0.1,0.6-0.2,0.9-0.2c0.3,0,0.5,0,0.7,0.1
				c0.2,0.1,0.4,0.2,0.5,0.3c0.1,0.1,0.3,0.3,0.4,0.5c0.1,0.2,0.2,0.4,0.3,0.6L327.2,377.2z"/>
			<path class="st1" d="M332.4,380.9v-0.7h0c-0.2,0.2-0.4,0.4-0.7,0.6c-0.3,0.1-0.5,0.2-0.8,0.2c-0.2,0-0.4,0-0.6-0.1
				c-0.2-0.1-0.3-0.1-0.5-0.3s-0.3-0.3-0.3-0.5c-0.1-0.2-0.1-0.4-0.1-0.7l0-3.8h0.7l0,3.8c0,0.3,0.1,0.6,0.2,0.7
				c0.2,0.1,0.4,0.2,0.6,0.2c0.1,0,0.3,0,0.4-0.1c0.1,0,0.3-0.1,0.4-0.2c0.1-0.1,0.3-0.2,0.4-0.3c0.1-0.1,0.2-0.2,0.3-0.3l0-3.9h0.7
				l0,5.2H332.4z"/>
			<path class="st1" d="M334.8,379.5c0.2,0.2,0.4,0.4,0.6,0.6c0.2,0.1,0.5,0.2,0.9,0.2c0.4,0,0.7-0.1,0.9-0.3
				c0.2-0.2,0.3-0.4,0.3-0.6c0-0.2-0.1-0.4-0.2-0.5c-0.2-0.1-0.3-0.2-0.6-0.3c-0.2-0.1-0.5-0.2-0.7-0.2c-0.3-0.1-0.5-0.2-0.7-0.3
				c-0.2-0.1-0.4-0.3-0.6-0.4c-0.1-0.2-0.2-0.4-0.2-0.8c0-0.5,0.2-0.8,0.5-1c0.3-0.2,0.7-0.4,1.2-0.4c0.2,0,0.3,0,0.5,0.1
				c0.2,0,0.3,0.1,0.5,0.2c0.2,0.1,0.3,0.2,0.4,0.3c0.1,0.1,0.2,0.2,0.3,0.4l-0.5,0.4c-0.2-0.2-0.4-0.4-0.6-0.5s-0.5-0.2-0.7-0.2
				c-0.3,0-0.5,0.1-0.7,0.2c-0.2,0.1-0.2,0.3-0.2,0.6c0,0.2,0.1,0.3,0.2,0.4c0.1,0.1,0.3,0.2,0.6,0.3c0.2,0.1,0.5,0.2,0.7,0.2
				c0.3,0.1,0.5,0.2,0.7,0.3c0.2,0.1,0.4,0.3,0.6,0.5c0.1,0.2,0.2,0.5,0.2,0.8c0,0.3-0.1,0.5-0.1,0.7c-0.1,0.2-0.2,0.3-0.4,0.5
				c-0.2,0.1-0.4,0.2-0.6,0.3s-0.4,0.1-0.7,0.1c-0.4,0-0.8-0.1-1.2-0.3c-0.4-0.2-0.7-0.4-0.9-0.7L334.8,379.5z"/>
			<path class="st1" d="M340.1,373.6l0,2.7h0c0.2-0.2,0.4-0.4,0.7-0.6c0.3-0.1,0.5-0.2,0.8-0.2c0.2,0,0.4,0,0.6,0.1
				c0.2,0.1,0.3,0.1,0.5,0.3c0.1,0.1,0.3,0.3,0.3,0.5s0.1,0.4,0.1,0.7l0,3.8h-0.7l0-3.8c0-0.3-0.1-0.6-0.2-0.7
				c-0.2-0.1-0.4-0.2-0.6-0.2c-0.1,0-0.3,0-0.4,0.1c-0.1,0.1-0.3,0.1-0.4,0.2c-0.1,0.1-0.3,0.2-0.4,0.3c-0.1,0.1-0.2,0.2-0.3,0.3
				l0,3.9h-0.7l0-7.2H340.1z"/>
			<path class="st1" d="M345.1,375.7h0.7l0,5.2h-0.7L345.1,375.7z M345.8,373.5l0,0.9h-0.7l0-0.9H345.8z"/>
			<path class="st1" d="M351.4,378.3c0,0.4,0,0.7-0.1,1.1c-0.1,0.3-0.2,0.6-0.4,0.9c-0.2,0.2-0.4,0.4-0.7,0.6
				c-0.3,0.1-0.6,0.2-0.9,0.2s-0.7-0.1-0.9-0.2c-0.3-0.1-0.5-0.3-0.7-0.6c-0.2-0.2-0.3-0.5-0.4-0.9c-0.1-0.3-0.1-0.7-0.1-1.1
				c0-0.4,0-0.7,0.1-1.1c0.1-0.3,0.2-0.6,0.4-0.9c0.2-0.2,0.4-0.4,0.7-0.6c0.3-0.1,0.6-0.2,0.9-0.2s0.7,0.1,0.9,0.2
				c0.3,0.1,0.5,0.3,0.7,0.6c0.2,0.2,0.3,0.5,0.4,0.9C351.4,377.5,351.4,377.9,351.4,378.3z M350.7,378.3c0-0.7-0.1-1.2-0.4-1.5
				c-0.3-0.4-0.6-0.5-1-0.5c-0.4,0-0.8,0.2-1,0.5c-0.3,0.4-0.4,0.9-0.4,1.5c0,0.7,0.1,1.2,0.4,1.5c0.3,0.4,0.6,0.5,1,0.5
				c0.4,0,0.8-0.2,1-0.5S350.7,378.9,350.7,378.3z"/>
			<path class="st1" d="M353.4,375.7l0,0.7h0c0.2-0.2,0.4-0.4,0.7-0.6c0.3-0.1,0.5-0.2,0.8-0.2c0.2,0,0.4,0,0.6,0.1
				c0.2,0.1,0.3,0.1,0.5,0.3c0.1,0.1,0.3,0.3,0.3,0.5s0.1,0.4,0.1,0.7l0,3.8h-0.7l0-3.8c0-0.3-0.1-0.6-0.2-0.7
				c-0.2-0.1-0.4-0.2-0.6-0.2c-0.1,0-0.3,0-0.4,0.1c-0.1,0.1-0.3,0.1-0.4,0.2c-0.1,0.1-0.3,0.2-0.4,0.3c-0.1,0.1-0.2,0.2-0.3,0.3
				l0,3.9h-0.7l0-5.2H353.4z"/>
			<path class="st1" d="M358.4,375.7h0.7l0,5.2h-0.7L358.4,375.7z M359.1,373.5l0,0.9h-0.7l0-0.9H359.1z"/>
			<path class="st1" d="M361.8,375.7l0,0.7h0c0.2-0.2,0.4-0.4,0.7-0.6c0.3-0.1,0.5-0.2,0.8-0.2c0.2,0,0.4,0,0.6,0.1
				c0.2,0.1,0.3,0.1,0.5,0.3c0.1,0.1,0.3,0.3,0.3,0.5s0.1,0.4,0.1,0.7l0,3.8l-0.7,0l0-3.8c0-0.3-0.1-0.6-0.2-0.7
				c-0.2-0.1-0.4-0.2-0.6-0.2c-0.1,0-0.3,0-0.4,0.1c-0.1,0.1-0.3,0.1-0.4,0.2c-0.1,0.1-0.3,0.2-0.4,0.3c-0.1,0.1-0.2,0.2-0.3,0.3
				l0,3.9l-0.7,0l0-5.2L361.8,375.7z"/>
			<path class="st1" d="M370.5,376.2c-0.2,0-0.3,0-0.4,0c-0.1,0-0.3,0.1-0.4,0.1c0.1,0.1,0.2,0.2,0.2,0.4s0.1,0.4,0.1,0.6
				c0,0.3-0.1,0.5-0.2,0.7c-0.1,0.2-0.2,0.4-0.4,0.6c-0.2,0.2-0.4,0.3-0.6,0.4c-0.2,0.1-0.5,0.1-0.7,0.1c-0.2,0-0.4,0-0.5,0
				c-0.1,0-0.3-0.1-0.4-0.1c-0.3,0.1-0.4,0.2-0.4,0.5c0,0.1,0,0.2,0.1,0.3s0.2,0.1,0.3,0.1c0.6,0,1.1,0,1.5,0.1
				c0.4,0.1,0.8,0.1,1,0.3s0.4,0.3,0.5,0.5c0.1,0.2,0.2,0.4,0.2,0.7c0,0.2,0,0.4-0.1,0.5c-0.1,0.2-0.2,0.3-0.4,0.4s-0.4,0.2-0.7,0.3
				c-0.3,0.1-0.6,0.1-1.1,0.1c-0.7,0-1.3-0.1-1.7-0.3c-0.4-0.2-0.6-0.5-0.6-1c0-0.3,0.1-0.5,0.2-0.6c0.2-0.2,0.4-0.3,0.6-0.4
				c-0.2-0.1-0.4-0.2-0.5-0.3c-0.1-0.1-0.2-0.3-0.2-0.4c0-0.2,0.1-0.4,0.2-0.5c0.1-0.1,0.3-0.2,0.5-0.4c-0.2-0.2-0.4-0.4-0.5-0.6
				c-0.1-0.2-0.2-0.5-0.2-0.8c0-0.3,0.1-0.5,0.1-0.7c0.1-0.2,0.2-0.4,0.4-0.6c0.2-0.2,0.4-0.3,0.6-0.4c0.2-0.1,0.5-0.1,0.8-0.1
				c0.3,0,0.5,0,0.7,0.1c0.2,0.1,0.4,0.2,0.6,0.3c0.2-0.1,0.3-0.2,0.5-0.3c0.2-0.1,0.4-0.1,0.6-0.2L370.5,376.2z M369.8,381.4
				c0-0.3-0.1-0.4-0.4-0.6c-0.3-0.1-0.7-0.2-1.4-0.2c-0.3,0-0.5,0-0.7,0.1s-0.3,0.1-0.4,0.2c-0.1,0.1-0.2,0.2-0.2,0.3
				c0,0.1-0.1,0.2-0.1,0.3c0,0.1,0,0.2,0.1,0.3s0.1,0.1,0.2,0.2c0.1,0.1,0.3,0.1,0.5,0.1c0.2,0,0.5,0,0.9,0c0.2,0,0.4,0,0.6,0
				s0.4-0.1,0.5-0.1c0.1-0.1,0.3-0.1,0.3-0.2S369.8,381.5,369.8,381.4z M369.4,377.4c0-0.4-0.1-0.7-0.3-0.9c-0.2-0.2-0.6-0.3-1-0.3
				c-0.4,0-0.7,0.1-0.9,0.3c-0.2,0.2-0.3,0.5-0.3,0.9c0,0.3,0.1,0.6,0.4,0.9c0.2,0.2,0.6,0.3,1,0.3c0.2,0,0.4,0,0.5-0.1
				s0.3-0.1,0.4-0.3c0.1-0.1,0.2-0.2,0.2-0.4C369.4,377.7,369.4,377.6,369.4,377.4z"/>
			<path class="st1" d="M372.7,379.8v1.1h-1v-1.1H372.7z"/>
		</g>
	</g>
	<line class="st2" x1="218.2" y1="352.1" x2="133.2" y2="393.7"/>
	<circle class="st1" cx="218.2" cy="352.1" r="1.1"/>
</g>
</svg>
