<?xml version="1.0" encoding="utf-8"?>
<!-- Generator: Adobe Illustrator 18.1.1, SVG Export Plug-In . SVG Version: 6.00 Build 0)  -->
<svg version="1.1" id="Layer_1" xmlns="http://www.w3.org/2000/svg" xmlns:xlink="http://www.w3.org/1999/xlink" x="0px" y="0px"
	 viewBox="0 0 800 350" enable-background="new 0 0 800 350" xml:space="preserve">
<g id="outsole">
	<line fill="none" stroke="#231F20" stroke-miterlimit="10" x1="155" y1="273.9" x2="176.6" y2="243.5"/>
	<circle fill="none" stroke="#231F20" stroke-miterlimit="10" cx="180" cy="238.3" r="5.4"/>
	<g>
		<path fill="#231F20" d="M35.3,263h-2.5l-0.5-3.5c0-0.2-0.1-0.3-0.1-0.5s-0.1-0.4-0.1-0.6c0-0.2-0.1-0.4-0.1-0.7s-0.1-0.6-0.1-1
			c-0.1,0.4-0.1,0.7-0.1,1c0,0.3-0.1,0.5-0.1,0.7c0,0.2-0.1,0.4-0.1,0.6c0,0.2,0,0.3-0.1,0.5l-0.5,3.5h-2.5l-2.2-10h2.6l0.5,3.1
			c0.1,0.4,0.1,0.9,0.2,1.4s0.1,1.1,0.2,1.8c0.1-0.8,0.2-1.5,0.3-2.1c0.1-0.7,0.2-1.3,0.3-1.8l0.4-2.4H33l0.4,2.4
			c0.2,1.1,0.4,2.5,0.6,4c0.1-0.7,0.1-1.3,0.2-1.8s0.1-1,0.2-1.4l0.5-3.1h2.6L35.3,263z"/>
		<path fill="#231F20" d="M45.3,263h-2.8l-0.2-1.3h-1.8l-0.2,1.3h-2.8l2.3-10H43L45.3,263z M42,259.6l-0.4-2.7
			c0-0.2-0.1-0.4-0.1-0.6c0-0.2-0.1-0.5-0.1-0.9c0,0.4-0.1,0.7-0.1,0.9c0,0.2,0,0.4-0.1,0.6l-0.4,2.7H42z"/>
		<path fill="#231F20" d="M48.8,263h-2.7v-10h4.8v2.3h-2.1v1.5h1.9v2.2h-1.9V263z"/>
		<path fill="#231F20" d="M54.6,263h-2.7v-10h4.8v2.3h-2.1v1.5h1.9v2.2h-1.9V263z"/>
		<path fill="#231F20" d="M62.4,263h-4.7v-10h2.7v7.6h2V263z"/>
		<path fill="#231F20" d="M63.2,263v-10h5v2.3h-2.3v1.5H68v2.2h-2.1v1.5h2.3v2.4H63.2z"/>
		<path fill="#231F20" d="M80.7,258c0,0.8-0.1,1.5-0.3,2.1c-0.2,0.6-0.4,1.2-0.8,1.6c-0.3,0.5-0.7,0.8-1.2,1.1
			c-0.5,0.2-1,0.4-1.5,0.4c-0.6,0-1.1-0.1-1.6-0.4c-0.5-0.2-0.9-0.6-1.2-1.1s-0.6-1-0.8-1.6c-0.2-0.6-0.3-1.3-0.3-2.1
			c0-0.8,0.1-1.5,0.3-2.1c0.2-0.6,0.4-1.2,0.8-1.6c0.3-0.5,0.7-0.8,1.2-1.1c0.5-0.3,1-0.4,1.6-0.4c0.6,0,1.1,0.1,1.5,0.4
			c0.5,0.3,0.9,0.6,1.2,1.1c0.3,0.5,0.6,1,0.8,1.6C80.6,256.6,80.7,257.3,80.7,258z M77.9,258c0-0.9-0.1-1.5-0.3-2
			c-0.2-0.5-0.4-0.7-0.7-0.7c-0.3,0-0.6,0.2-0.7,0.7c-0.2,0.5-0.3,1.1-0.3,2s0.1,1.5,0.3,2c0.2,0.5,0.4,0.7,0.7,0.7
			c0.3,0,0.6-0.2,0.7-0.7C77.8,259.6,77.9,258.9,77.9,258z"/>
		<path fill="#231F20" d="M88.6,253.1v6.7c0,0.6-0.1,1.1-0.2,1.5c-0.2,0.4-0.4,0.8-0.7,1.1s-0.7,0.5-1.1,0.7s-0.9,0.2-1.4,0.2
			c-0.5,0-1-0.1-1.4-0.2c-0.4-0.1-0.8-0.4-1.1-0.7c-0.3-0.3-0.5-0.7-0.7-1.1c-0.2-0.4-0.3-0.9-0.3-1.5v-6.7h2.7v6.4
			c0,0.4,0.1,0.8,0.2,0.9c0.1,0.2,0.3,0.3,0.5,0.3c0.3,0,0.4-0.1,0.5-0.3c0.1-0.2,0.1-0.5,0.1-0.9v-6.4H88.6z"/>
		<path fill="#231F20" d="M93.6,263h-2.7v-7.6h-1.5v-2.4h5.7v2.4h-1.5V263z"/>
		<path fill="#231F20" d="M95.8,259.7c0.5,0.7,1.1,1.1,1.7,1.1c0.2,0,0.4-0.1,0.6-0.2s0.2-0.3,0.2-0.5c0-0.3-0.2-0.5-0.5-0.8
			l-0.4-0.3c-0.6-0.4-1-0.9-1.3-1.3c-0.3-0.4-0.4-0.9-0.4-1.5c0-0.5,0.1-0.9,0.2-1.3c0.2-0.4,0.4-0.7,0.6-1c0.3-0.3,0.6-0.5,1-0.7
			c0.4-0.2,0.8-0.3,1.2-0.3c0.6,0,1.3,0.2,1.9,0.5v3c-0.2-0.3-0.5-0.6-0.7-0.8c-0.3-0.2-0.6-0.3-0.8-0.3c-0.2,0-0.4,0.1-0.5,0.2
			c-0.1,0.1-0.2,0.3-0.2,0.4c0,0.3,0.2,0.5,0.5,0.8l0.4,0.3c0.6,0.4,1,0.8,1.2,1.3c0.2,0.4,0.4,0.9,0.4,1.5c0,0.5-0.1,0.9-0.2,1.4
			c-0.2,0.4-0.4,0.8-0.7,1.1c-0.3,0.3-0.6,0.5-1,0.7c-0.4,0.2-0.8,0.3-1.3,0.3c-0.6,0-1.3-0.1-2-0.4V259.7z"/>
		<path fill="#231F20" d="M109.4,258c0,0.8-0.1,1.5-0.3,2.1c-0.2,0.6-0.4,1.2-0.8,1.6c-0.3,0.5-0.7,0.8-1.2,1.1
			c-0.5,0.2-1,0.4-1.5,0.4c-0.6,0-1.1-0.1-1.6-0.4c-0.5-0.2-0.9-0.6-1.2-1.1s-0.6-1-0.8-1.6c-0.2-0.6-0.3-1.3-0.3-2.1
			c0-0.8,0.1-1.5,0.3-2.1c0.2-0.6,0.4-1.2,0.8-1.6c0.3-0.5,0.7-0.8,1.2-1.1c0.5-0.3,1-0.4,1.6-0.4c0.6,0,1.1,0.1,1.5,0.4
			c0.5,0.3,0.9,0.6,1.2,1.1c0.3,0.5,0.6,1,0.8,1.6C109.3,256.6,109.4,257.3,109.4,258z M106.6,258c0-0.9-0.1-1.5-0.3-2
			c-0.2-0.5-0.4-0.7-0.7-0.7c-0.3,0-0.6,0.2-0.7,0.7c-0.2,0.5-0.3,1.1-0.3,2s0.1,1.5,0.3,2c0.2,0.5,0.4,0.7,0.7,0.7
			c0.3,0,0.6-0.2,0.7-0.7C106.5,259.6,106.6,258.9,106.6,258z"/>
		<path fill="#231F20" d="M115.2,263h-4.7v-10h2.7v7.6h2V263z"/>
		<path fill="#231F20" d="M116,263v-10h5v2.3h-2.3v1.5h2.1v2.2h-2.1v1.5h2.3v2.4H116z"/>
		<path fill="#231F20" d="M27,269.4h2.4c0.9,0,1.5,0.2,1.9,0.7c0.4,0.5,0.7,1.2,0.7,2.2v3.8c0,1-0.2,1.7-0.7,2.2s-1.1,0.7-1.9,0.7
			H27V269.4z M28.6,277.6h0.6c0.4,0,0.7-0.1,0.9-0.3c0.2-0.2,0.3-0.5,0.3-1V272c0-0.5-0.1-0.9-0.3-1c-0.2-0.2-0.5-0.3-0.9-0.3h-0.6
			V277.6z"/>
		<path fill="#231F20" d="M38,271.8v7.1h-1.4v-0.7c-0.2,0.1-0.3,0.3-0.4,0.4c-0.1,0.1-0.3,0.2-0.4,0.3c-0.1,0.1-0.3,0.1-0.4,0.2
			c-0.2,0-0.3,0.1-0.6,0.1c-0.4,0-0.7-0.1-0.9-0.4c-0.2-0.3-0.3-0.6-0.3-1.1v-5.8H35v5.5c0,0.2,0,0.3,0.1,0.4
			c0.1,0.1,0.2,0.1,0.4,0.1s0.3,0,0.5-0.1c0.1-0.1,0.3-0.2,0.5-0.3v-5.6H38z"/>
		<path fill="#231F20" d="M39.4,278.9v-7.1h1.4v0.8h0c0.2-0.3,0.4-0.5,0.7-0.7c0.3-0.2,0.6-0.3,1-0.3h0.3v1.5
			c-0.1,0-0.3-0.1-0.4-0.1s-0.3,0-0.5,0c-0.3,0-0.5,0.1-0.7,0.2c-0.2,0.2-0.3,0.4-0.3,0.7v4.9H39.4z"/>
		<path fill="#231F20" d="M43.7,273.9c0-0.7,0.3-1.3,0.7-1.7c0.4-0.4,1-0.6,1.7-0.6c0.7,0,1.2,0.2,1.6,0.5c0.4,0.3,0.6,0.8,0.6,1.5
			v4.6c0,0.1,0,0.2,0,0.4s0,0.3,0.1,0.4h-1.4c0-0.1,0-0.2,0-0.3c0-0.1,0-0.2,0-0.3c-0.3,0.2-0.6,0.4-0.8,0.5
			c-0.3,0.1-0.6,0.2-0.9,0.2c-0.5,0-0.9-0.2-1.1-0.5c-0.3-0.3-0.4-0.7-0.4-1.1c0-0.4,0.1-0.7,0.2-1c0.1-0.3,0.3-0.6,0.6-0.8
			c0.3-0.3,0.6-0.5,1-0.7c0.4-0.2,0.9-0.4,1.4-0.6v-0.4c0-0.6-0.2-0.9-0.7-0.9c-0.3,0-0.6,0.1-0.7,0.3c-0.1,0.2-0.2,0.4-0.2,0.7
			H43.7z M46.7,275.3c-0.3,0.2-0.6,0.4-0.8,0.5c-0.2,0.2-0.4,0.3-0.5,0.5s-0.2,0.3-0.3,0.4c0,0.1-0.1,0.3-0.1,0.4
			c0,0.2,0.1,0.4,0.2,0.5c0.1,0.1,0.3,0.2,0.5,0.2c0.2,0,0.4-0.1,0.6-0.2s0.3-0.3,0.4-0.5V275.3z"/>
		<path fill="#231F20" d="M49.7,278.9v-9.6h1.5v3c0.1-0.1,0.3-0.2,0.4-0.3c0.1-0.1,0.2-0.2,0.4-0.2c0.1-0.1,0.2-0.1,0.4-0.1
			c0.1,0,0.3,0,0.4,0c0.5,0,0.8,0.2,1.1,0.5c0.3,0.3,0.4,0.8,0.4,1.5v3.4c0,0.7-0.1,1.1-0.4,1.5c-0.3,0.3-0.6,0.5-1.1,0.5
			c-0.4,0-0.7-0.1-0.9-0.2c-0.2-0.1-0.5-0.4-0.7-0.7h0v0.7H49.7z M51.2,277.4c0.1,0.1,0.3,0.2,0.4,0.3c0.1,0.1,0.3,0.1,0.4,0.1
			c0.1,0,0.2,0,0.3,0c0.1,0,0.2-0.1,0.2-0.2c0.1-0.1,0.1-0.2,0.2-0.4c0-0.1,0.1-0.3,0.1-0.6V274c0-0.2,0-0.4-0.1-0.6
			c0-0.1-0.1-0.3-0.2-0.4c-0.1-0.1-0.1-0.1-0.2-0.2c-0.1,0-0.2,0-0.3,0c-0.1,0-0.3,0-0.4,0.1c-0.1,0.1-0.3,0.2-0.4,0.3V277.4z"/>
		<path fill="#231F20" d="M55.6,278.9v-9.6h1.5v9.6H55.6z"/>
		<path fill="#231F20" d="M63,275.6h-3.1v1c0,0.4,0.1,0.7,0.2,0.9s0.3,0.3,0.6,0.3s0.5-0.1,0.6-0.3c0.1-0.2,0.2-0.5,0.2-0.9v-0.2H63
			c0,0.4-0.1,0.7-0.1,1c-0.1,0.3-0.2,0.6-0.4,0.8c-0.2,0.2-0.4,0.4-0.7,0.5c-0.3,0.1-0.6,0.2-1.1,0.2c-0.4,0-0.8-0.1-1.1-0.2
			c-0.3-0.1-0.5-0.3-0.7-0.5c-0.2-0.2-0.3-0.5-0.4-0.8c-0.1-0.3-0.1-0.7-0.1-1.1v-2.1c0-0.4,0-0.7,0.1-1.1c0.1-0.3,0.2-0.6,0.4-0.8
			c0.2-0.2,0.4-0.4,0.7-0.5c0.3-0.1,0.6-0.2,1.1-0.2s0.8,0.1,1.1,0.2s0.5,0.3,0.7,0.5c0.2,0.2,0.3,0.5,0.4,0.8
			c0.1,0.3,0.1,0.7,0.1,1.1V275.6z M61.5,274.4V274c0-0.4-0.1-0.7-0.2-0.9c-0.1-0.2-0.3-0.3-0.6-0.3s-0.5,0.1-0.6,0.3
			c-0.1,0.2-0.2,0.5-0.2,0.9v0.4H61.5z"/>
		<path fill="#231F20" d="M65.9,278.9l-0.9,1.6h-0.7l0.6-1.6h-0.6v-1.6h1.6V278.9z"/>
		<path fill="#231F20" d="M70.2,278.9v-7.1h1.4v0.8h0c0.2-0.3,0.4-0.5,0.7-0.7c0.3-0.2,0.6-0.3,1-0.3h0.3v1.5
			c-0.1,0-0.3-0.1-0.4-0.1s-0.3,0-0.5,0c-0.3,0-0.5,0.1-0.7,0.2c-0.2,0.2-0.3,0.4-0.3,0.7v4.9H70.2z"/>
		<path fill="#231F20" d="M79.2,275.6h-3.1v1c0,0.4,0.1,0.7,0.2,0.9s0.3,0.3,0.6,0.3s0.5-0.1,0.6-0.3c0.1-0.2,0.2-0.5,0.2-0.9v-0.2
			h1.5c0,0.4-0.1,0.7-0.1,1c-0.1,0.3-0.2,0.6-0.4,0.8c-0.2,0.2-0.4,0.4-0.7,0.5c-0.3,0.1-0.6,0.2-1.1,0.2c-0.4,0-0.8-0.1-1.1-0.2
			c-0.3-0.1-0.5-0.3-0.7-0.5c-0.2-0.2-0.3-0.5-0.4-0.8c-0.1-0.3-0.1-0.7-0.1-1.1v-2.1c0-0.4,0-0.7,0.1-1.1c0.1-0.3,0.2-0.6,0.4-0.8
			c0.2-0.2,0.4-0.4,0.7-0.5c0.3-0.1,0.6-0.2,1.1-0.2s0.8,0.1,1.1,0.2s0.5,0.3,0.7,0.5c0.2,0.2,0.3,0.5,0.4,0.8
			c0.1,0.3,0.1,0.7,0.1,1.1V275.6z M77.7,274.4V274c0-0.4-0.1-0.7-0.2-0.9c-0.1-0.2-0.3-0.3-0.6-0.3s-0.5,0.1-0.6,0.3
			c-0.1,0.2-0.2,0.5-0.2,0.9v0.4H77.7z"/>
		<path fill="#231F20" d="M80.5,278.9v-9.6H82v9.6H80.5z"/>
		<path fill="#231F20" d="M83.5,270.7v-1.3H85v1.3H83.5z M83.5,278.9v-7.1H85v7.1H83.5z"/>
		<path fill="#231F20" d="M86.2,273.9c0-0.7,0.3-1.3,0.7-1.7c0.4-0.4,1-0.6,1.7-0.6c0.7,0,1.2,0.2,1.6,0.5c0.4,0.3,0.6,0.8,0.6,1.5
			v4.6c0,0.1,0,0.2,0,0.4s0,0.3,0.1,0.4h-1.4c0-0.1,0-0.2,0-0.3c0-0.1,0-0.2,0-0.3c-0.3,0.2-0.6,0.4-0.8,0.5
			c-0.3,0.1-0.6,0.2-0.9,0.2c-0.5,0-0.9-0.2-1.1-0.5c-0.3-0.3-0.4-0.7-0.4-1.1c0-0.4,0.1-0.7,0.2-1c0.1-0.3,0.3-0.6,0.6-0.8
			c0.3-0.3,0.6-0.5,1-0.7c0.4-0.2,0.9-0.4,1.4-0.6v-0.4c0-0.6-0.2-0.9-0.7-0.9c-0.3,0-0.6,0.1-0.7,0.3c-0.1,0.2-0.2,0.4-0.2,0.7
			H86.2z M89.3,275.3c-0.3,0.2-0.6,0.4-0.8,0.5c-0.2,0.2-0.4,0.3-0.5,0.5s-0.2,0.3-0.3,0.4c0,0.1-0.1,0.3-0.1,0.4
			c0,0.2,0.1,0.4,0.2,0.5c0.1,0.1,0.3,0.2,0.5,0.2c0.2,0,0.4-0.1,0.6-0.2s0.3-0.3,0.4-0.5V275.3z"/>
		<path fill="#231F20" d="M92.3,278.9v-9.6h1.5v3c0.1-0.1,0.3-0.2,0.4-0.3c0.1-0.1,0.2-0.2,0.4-0.2c0.1-0.1,0.2-0.1,0.4-0.1
			c0.1,0,0.3,0,0.4,0c0.5,0,0.8,0.2,1.1,0.5c0.3,0.3,0.4,0.8,0.4,1.5v3.4c0,0.7-0.1,1.1-0.4,1.5c-0.3,0.3-0.6,0.5-1.1,0.5
			c-0.4,0-0.7-0.1-0.9-0.2c-0.2-0.1-0.5-0.4-0.7-0.7h0v0.7H92.3z M93.8,277.4c0.1,0.1,0.3,0.2,0.4,0.3c0.1,0.1,0.3,0.1,0.4,0.1
			c0.1,0,0.2,0,0.3,0c0.1,0,0.2-0.1,0.2-0.2c0.1-0.1,0.1-0.2,0.2-0.4c0-0.1,0.1-0.3,0.1-0.6V274c0-0.2,0-0.4-0.1-0.6
			c0-0.1-0.1-0.3-0.2-0.4c-0.1-0.1-0.1-0.1-0.2-0.2c-0.1,0-0.2,0-0.3,0c-0.1,0-0.3,0-0.4,0.1c-0.1,0.1-0.3,0.2-0.4,0.3V277.4z"/>
		<path fill="#231F20" d="M98.2,278.9v-9.6h1.5v9.6H98.2z"/>
		<path fill="#231F20" d="M105.6,275.6h-3.1v1c0,0.4,0.1,0.7,0.2,0.9s0.3,0.3,0.6,0.3s0.5-0.1,0.6-0.3c0.1-0.2,0.2-0.5,0.2-0.9v-0.2
			h1.5c0,0.4-0.1,0.7-0.1,1c-0.1,0.3-0.2,0.6-0.4,0.8c-0.2,0.2-0.4,0.4-0.7,0.5c-0.3,0.1-0.6,0.2-1.1,0.2c-0.4,0-0.8-0.1-1.1-0.2
			c-0.3-0.1-0.5-0.3-0.7-0.5c-0.2-0.2-0.3-0.5-0.4-0.8c-0.1-0.3-0.1-0.7-0.1-1.1v-2.1c0-0.4,0-0.7,0.1-1.1c0.1-0.3,0.2-0.6,0.4-0.8
			c0.2-0.2,0.4-0.4,0.7-0.5c0.3-0.1,0.6-0.2,1.1-0.2s0.8,0.1,1.1,0.2s0.5,0.3,0.7,0.5c0.2,0.2,0.3,0.5,0.4,0.8
			c0.1,0.3,0.1,0.7,0.1,1.1V275.6z M104.1,274.4V274c0-0.4-0.1-0.7-0.2-0.9c-0.1-0.2-0.3-0.3-0.6-0.3s-0.5,0.1-0.6,0.3
			c-0.1,0.2-0.2,0.5-0.2,0.9v0.4H104.1z"/>
		<path fill="#231F20" d="M109.3,273v-1.2h0.8v-1.9h1.5v1.9h1v1.2h-1v4.1c0,0.4,0.2,0.6,0.5,0.6h0.5v1.3c-0.1,0-0.2,0-0.3,0.1
			c-0.1,0-0.3,0-0.4,0c-0.6,0-1-0.1-1.3-0.4c-0.3-0.3-0.4-0.7-0.4-1.2V273H109.3z"/>
		<path fill="#231F20" d="M113.6,278.9v-7.1h1.4v0.8h0c0.2-0.3,0.4-0.5,0.7-0.7c0.3-0.2,0.6-0.3,1-0.3h0.3v1.5
			c-0.1,0-0.3-0.1-0.4-0.1s-0.3,0-0.5,0c-0.3,0-0.5,0.1-0.7,0.2c-0.2,0.2-0.3,0.4-0.3,0.7v4.9H113.6z"/>
		<path fill="#231F20" d="M117.8,273.9c0-0.7,0.3-1.3,0.7-1.7c0.4-0.4,1-0.6,1.7-0.6c0.7,0,1.2,0.2,1.6,0.5c0.4,0.3,0.6,0.8,0.6,1.5
			v4.6c0,0.1,0,0.2,0,0.4s0,0.3,0.1,0.4H121c0-0.1,0-0.2,0-0.3c0-0.1,0-0.2,0-0.3c-0.3,0.2-0.6,0.4-0.8,0.5
			c-0.3,0.1-0.6,0.2-0.9,0.2c-0.5,0-0.9-0.2-1.1-0.5c-0.3-0.3-0.4-0.7-0.4-1.1c0-0.4,0.1-0.7,0.2-1c0.1-0.3,0.3-0.6,0.6-0.8
			c0.3-0.3,0.6-0.5,1-0.7c0.4-0.2,0.9-0.4,1.4-0.6v-0.4c0-0.6-0.2-0.9-0.7-0.9c-0.3,0-0.6,0.1-0.7,0.3c-0.1,0.2-0.2,0.4-0.2,0.7
			H117.8z M120.9,275.3c-0.3,0.2-0.6,0.4-0.8,0.5c-0.2,0.2-0.4,0.3-0.5,0.5s-0.2,0.3-0.3,0.4c0,0.1-0.1,0.3-0.1,0.4
			c0,0.2,0.1,0.4,0.2,0.5c0.1,0.1,0.3,0.2,0.5,0.2c0.2,0,0.4-0.1,0.6-0.2s0.3-0.3,0.4-0.5V275.3z"/>
		<path fill="#231F20" d="M126.9,274.2V274c0-0.4-0.1-0.7-0.2-0.9c-0.1-0.2-0.3-0.3-0.6-0.3s-0.5,0.1-0.6,0.3
			c-0.1,0.2-0.2,0.5-0.2,0.9v2.6c0,0.4,0.1,0.7,0.2,0.9s0.3,0.3,0.6,0.3s0.5-0.1,0.6-0.3c0.1-0.2,0.2-0.5,0.2-0.9v-0.5h1.5v0.2
			c0,0.4,0,0.7-0.1,1.1c-0.1,0.3-0.2,0.6-0.4,0.8c-0.2,0.2-0.4,0.4-0.7,0.5c-0.3,0.1-0.6,0.2-1.1,0.2s-0.8-0.1-1.1-0.2
			c-0.3-0.1-0.5-0.3-0.7-0.5c-0.2-0.2-0.3-0.5-0.4-0.8c-0.1-0.3-0.1-0.7-0.1-1.1v-2.1c0-0.4,0-0.7,0.1-1.1c0.1-0.3,0.2-0.6,0.4-0.8
			c0.2-0.2,0.4-0.4,0.7-0.5c0.3-0.1,0.6-0.2,1.1-0.2c0.4,0,0.8,0.1,1.1,0.2c0.3,0.1,0.5,0.3,0.7,0.5c0.2,0.2,0.3,0.5,0.4,0.8
			c0.1,0.3,0.1,0.7,0.1,1H126.9z"/>
		<path fill="#231F20" d="M129.1,273v-1.2h0.8v-1.9h1.5v1.9h1v1.2h-1v4.1c0,0.4,0.2,0.6,0.5,0.6h0.5v1.3c-0.1,0-0.2,0-0.3,0.1
			c-0.1,0-0.3,0-0.4,0c-0.6,0-1-0.1-1.3-0.4c-0.3-0.3-0.4-0.7-0.4-1.2V273H129.1z"/>
		<path fill="#231F20" d="M133.4,270.7v-1.3h1.5v1.3H133.4z M133.4,278.9v-7.1h1.5v7.1H133.4z"/>
		<path fill="#231F20" d="M136.3,274.3c0-0.4,0-0.7,0.1-1.1c0.1-0.3,0.2-0.6,0.4-0.8c0.2-0.2,0.4-0.4,0.7-0.5
			c0.3-0.1,0.6-0.2,1.1-0.2s0.8,0.1,1.1,0.2s0.5,0.3,0.7,0.5c0.2,0.2,0.3,0.5,0.4,0.8c0.1,0.3,0.1,0.7,0.1,1.1v2.1
			c0,0.4,0,0.7-0.1,1.1c-0.1,0.3-0.2,0.6-0.4,0.8c-0.2,0.2-0.4,0.4-0.7,0.5c-0.3,0.1-0.6,0.2-1.1,0.2s-0.8-0.1-1.1-0.2
			c-0.3-0.1-0.5-0.3-0.7-0.5c-0.2-0.2-0.3-0.5-0.4-0.8c-0.1-0.3-0.1-0.7-0.1-1.1V274.3z M139.4,274c0-0.4-0.1-0.7-0.2-0.9
			c-0.1-0.2-0.3-0.3-0.6-0.3s-0.5,0.1-0.6,0.3c-0.1,0.2-0.2,0.5-0.2,0.9v2.6c0,0.4,0.1,0.7,0.2,0.9s0.3,0.3,0.6,0.3s0.5-0.1,0.6-0.3
			c0.1-0.2,0.2-0.5,0.2-0.9V274z"/>
		<path fill="#231F20" d="M142.2,278.9v-7.1h1.4v0.7c0.2-0.1,0.3-0.3,0.4-0.4c0.1-0.1,0.3-0.2,0.4-0.3c0.1-0.1,0.3-0.1,0.4-0.2
			s0.3-0.1,0.6-0.1c0.4,0,0.7,0.1,0.9,0.4c0.2,0.3,0.3,0.6,0.3,1.1v5.8h-1.5v-5.5c0-0.2,0-0.3-0.1-0.4c-0.1-0.1-0.2-0.1-0.4-0.1
			c-0.2,0-0.3,0-0.5,0.1c-0.1,0.1-0.3,0.2-0.5,0.3v5.6H142.2z"/>
		<path fill="#231F20" d="M26.8,290.2c0-0.4,0-0.7,0.1-1.1c0.1-0.3,0.2-0.6,0.4-0.8c0.2-0.2,0.4-0.4,0.7-0.5
			c0.3-0.1,0.6-0.2,1.1-0.2s0.8,0.1,1.1,0.2c0.3,0.1,0.5,0.3,0.7,0.5c0.2,0.2,0.3,0.5,0.4,0.8s0.1,0.7,0.1,1.1v2.1
			c0,0.4,0,0.7-0.1,1.1s-0.2,0.6-0.4,0.8c-0.2,0.2-0.4,0.4-0.7,0.5c-0.3,0.1-0.6,0.2-1.1,0.2s-0.8-0.1-1.1-0.2
			c-0.3-0.1-0.5-0.3-0.7-0.5c-0.2-0.2-0.3-0.5-0.4-0.8c-0.1-0.3-0.1-0.7-0.1-1.1V290.2z M30,289.9c0-0.4-0.1-0.7-0.2-0.9
			c-0.1-0.2-0.3-0.3-0.6-0.3s-0.5,0.1-0.6,0.3s-0.2,0.5-0.2,0.9v2.6c0,0.4,0.1,0.7,0.2,0.9s0.3,0.3,0.6,0.3s0.5-0.1,0.6-0.3
			c0.1-0.2,0.2-0.5,0.2-0.9V289.9z"/>
		<path fill="#231F20" d="M32.8,294.8v-7.1h1.4v0.7c0.2-0.1,0.3-0.3,0.4-0.4s0.3-0.2,0.4-0.3c0.1-0.1,0.3-0.1,0.4-0.2
			c0.2,0,0.3-0.1,0.6-0.1c0.4,0,0.7,0.1,0.9,0.4c0.2,0.3,0.3,0.6,0.3,1.1v5.8h-1.5v-5.5c0-0.2,0-0.3-0.1-0.4
			c-0.1-0.1-0.2-0.1-0.4-0.1s-0.3,0-0.5,0.1c-0.1,0.1-0.3,0.2-0.5,0.3v5.6H32.8z"/>
		<path fill="#231F20" d="M44.6,294.8v-5.5c0-0.2,0-0.3-0.1-0.4c-0.1-0.1-0.2-0.1-0.4-0.1c-0.2,0-0.3,0-0.5,0.1
			c-0.1,0.1-0.3,0.2-0.5,0.3v5.6h-1.5v-7.1H43v0.7c0.2-0.1,0.3-0.3,0.4-0.4s0.2-0.2,0.4-0.3c0.1-0.1,0.3-0.1,0.4-0.2
			c0.1,0,0.3-0.1,0.5-0.1c0.4,0,0.6,0.1,0.8,0.2c0.2,0.1,0.3,0.4,0.5,0.6c0.2-0.2,0.3-0.3,0.5-0.4s0.3-0.2,0.4-0.3
			c0.1-0.1,0.3-0.1,0.4-0.1c0.1,0,0.3,0,0.4,0c0.5,0,0.8,0.1,1,0.4c0.2,0.3,0.3,0.6,0.3,1.1v5.8h-1.5v-5.5c0-0.2-0.1-0.3-0.2-0.4
			c-0.1-0.1-0.2-0.1-0.4-0.1c-0.2,0-0.3,0-0.5,0.1c-0.1,0.1-0.3,0.2-0.5,0.3v5.6H44.6z"/>
		<path fill="#231F20" d="M54.9,287.7v7.1h-1.4v-0.7c-0.2,0.1-0.3,0.3-0.4,0.4c-0.1,0.1-0.3,0.2-0.4,0.3c-0.1,0.1-0.3,0.1-0.4,0.2
			c-0.2,0-0.3,0.1-0.6,0.1c-0.4,0-0.7-0.1-0.9-0.4c-0.2-0.3-0.3-0.6-0.3-1.1v-5.8h1.5v5.5c0,0.2,0,0.3,0.1,0.4
			c0.1,0.1,0.2,0.1,0.4,0.1s0.3,0,0.5-0.1c0.1-0.1,0.3-0.2,0.5-0.3v-5.6H54.9z"/>
		<path fill="#231F20" d="M56.3,294.8v-9.6h1.5v9.6H56.3z"/>
		<path fill="#231F20" d="M59.3,286.6v-1.3h1.5v1.3H59.3z M59.3,294.8v-7.1h1.5v7.1H59.3z"/>
		<path fill="#231F20" d="M61.6,288.9v-1.2h0.8v-1.9h1.5v1.9h1v1.2h-1v4.1c0,0.4,0.2,0.6,0.5,0.6h0.5v1.3c-0.1,0-0.2,0-0.3,0.1
			c-0.1,0-0.3,0-0.4,0c-0.6,0-1-0.1-1.3-0.4c-0.3-0.3-0.4-0.7-0.4-1.2v-4.4H61.6z"/>
		<path fill="#231F20" d="M67.3,287.7v0.7h0c0.2-0.3,0.5-0.5,0.7-0.7c0.2-0.1,0.5-0.2,0.9-0.2c0.5,0,0.8,0.2,1.1,0.5
			c0.3,0.3,0.4,0.8,0.4,1.5v3.4c0,0.7-0.1,1.1-0.4,1.5c-0.3,0.3-0.6,0.5-1.1,0.5c-0.2,0-0.3,0-0.4,0c-0.1,0-0.2-0.1-0.4-0.1
			c-0.1-0.1-0.2-0.1-0.4-0.2c-0.1-0.1-0.2-0.2-0.4-0.3v2.9h-1.5v-9.4H67.3z M67.3,293.3c0.1,0.1,0.3,0.2,0.4,0.3
			c0.1,0.1,0.3,0.1,0.4,0.1c0.1,0,0.2,0,0.3,0s0.2-0.1,0.2-0.2c0.1-0.1,0.1-0.2,0.2-0.4c0-0.1,0.1-0.3,0.1-0.6v-2.6
			c0-0.2,0-0.4-0.1-0.6c0-0.1-0.1-0.3-0.2-0.4s-0.1-0.1-0.2-0.2s-0.2,0-0.3,0c-0.1,0-0.3,0-0.4,0.1c-0.1,0.1-0.3,0.2-0.4,0.3V293.3z
			"/>
		<path fill="#231F20" d="M71.7,294.8v-9.6h1.5v9.6H71.7z"/>
		<path fill="#231F20" d="M79.2,291.5h-3.1v1c0,0.4,0.1,0.7,0.2,0.9s0.3,0.3,0.6,0.3s0.5-0.1,0.6-0.3c0.1-0.2,0.2-0.5,0.2-0.9v-0.2
			h1.5c0,0.4-0.1,0.7-0.1,1c-0.1,0.3-0.2,0.6-0.4,0.8c-0.2,0.2-0.4,0.4-0.7,0.5s-0.6,0.2-1.1,0.2c-0.4,0-0.8-0.1-1.1-0.2
			c-0.3-0.1-0.5-0.3-0.7-0.5c-0.2-0.2-0.3-0.5-0.4-0.8s-0.1-0.7-0.1-1.1v-2.1c0-0.4,0-0.7,0.1-1.1s0.2-0.6,0.4-0.8
			c0.2-0.2,0.4-0.4,0.7-0.5c0.3-0.1,0.6-0.2,1.1-0.2s0.8,0.1,1.1,0.2c0.3,0.1,0.5,0.3,0.7,0.5c0.2,0.2,0.3,0.5,0.4,0.8
			s0.1,0.7,0.1,1.1V291.5z M77.7,290.3v-0.4c0-0.4-0.1-0.7-0.2-0.9c-0.1-0.2-0.3-0.3-0.6-0.3s-0.5,0.1-0.6,0.3s-0.2,0.5-0.2,0.9v0.4
			H77.7z"/>
		<path fill="#231F20" d="M86.2,289.6c-0.1-0.6-0.4-0.9-0.8-0.9c-0.2,0-0.4,0-0.5,0.1c-0.1,0.1-0.2,0.2-0.2,0.4
			c0,0.2,0.1,0.4,0.2,0.5c0.1,0.2,0.3,0.3,0.5,0.5c0.2,0.2,0.4,0.3,0.7,0.5c0.2,0.2,0.5,0.4,0.7,0.6c0.2,0.2,0.4,0.4,0.5,0.7
			c0.1,0.3,0.2,0.6,0.2,0.9c0,0.3-0.1,0.6-0.2,0.8c-0.1,0.2-0.2,0.4-0.4,0.6c-0.2,0.2-0.4,0.3-0.7,0.4c-0.3,0.1-0.5,0.1-0.8,0.1
			c-0.7,0-1.2-0.2-1.5-0.5c-0.4-0.3-0.6-0.8-0.7-1.5l1.3-0.4c0,0.3,0.1,0.6,0.3,0.8c0.1,0.2,0.4,0.3,0.7,0.3c0.2,0,0.4-0.1,0.5-0.2
			c0.1-0.1,0.2-0.3,0.2-0.5c0-0.2-0.1-0.4-0.2-0.6c-0.1-0.2-0.3-0.3-0.5-0.5c-0.2-0.2-0.4-0.3-0.7-0.5c-0.2-0.2-0.5-0.4-0.7-0.6
			c-0.2-0.2-0.4-0.4-0.5-0.7c-0.1-0.2-0.2-0.5-0.2-0.9c0-0.3,0.1-0.5,0.2-0.8c0.1-0.2,0.2-0.4,0.4-0.6c0.2-0.2,0.4-0.3,0.6-0.4
			c0.2-0.1,0.5-0.1,0.8-0.1c0.6,0,1.1,0.2,1.4,0.5c0.4,0.4,0.6,0.8,0.7,1.4L86.2,289.6z"/>
		<path fill="#231F20" d="M93.1,287.7v7.1h-1.4v-0.7c-0.2,0.1-0.3,0.3-0.4,0.4c-0.1,0.1-0.3,0.2-0.4,0.3c-0.1,0.1-0.3,0.1-0.4,0.2
			c-0.2,0-0.3,0.1-0.6,0.1c-0.4,0-0.7-0.1-0.9-0.4c-0.2-0.3-0.3-0.6-0.3-1.1v-5.8h1.5v5.5c0,0.2,0,0.3,0.1,0.4
			c0.1,0.1,0.2,0.1,0.4,0.1s0.3,0,0.5-0.1c0.1-0.1,0.3-0.2,0.5-0.3v-5.6H93.1z"/>
		<path fill="#231F20" d="M94.5,294.8v-7.1h1.4v0.8h0c0.2-0.3,0.4-0.5,0.7-0.7c0.3-0.2,0.6-0.3,1-0.3h0.3v1.5
			c-0.1,0-0.3-0.1-0.4-0.1c-0.1,0-0.3,0-0.5,0c-0.3,0-0.5,0.1-0.7,0.2c-0.2,0.2-0.3,0.4-0.3,0.7v4.9H94.5z"/>
		<path fill="#231F20" d="M99.2,288.9h-0.9v-1.2h0.9v-0.9c0-0.6,0.1-1,0.4-1.3c0.3-0.3,0.7-0.4,1.2-0.4h0.7v1.2h-0.4
			c-0.2,0-0.3,0-0.4,0.1c-0.1,0.1-0.1,0.2-0.1,0.4v0.9h0.8v1.2h-0.8v5.9h-1.5V288.9z"/>
		<path fill="#231F20" d="M102.4,289.8c0-0.7,0.3-1.3,0.7-1.7c0.4-0.4,1-0.6,1.7-0.6c0.7,0,1.2,0.2,1.6,0.5c0.4,0.3,0.6,0.8,0.6,1.5
			v4.6c0,0.1,0,0.2,0,0.4c0,0.1,0,0.3,0.1,0.4h-1.4c0-0.1,0-0.2,0-0.3c0-0.1,0-0.2,0-0.3c-0.3,0.2-0.6,0.4-0.8,0.5s-0.6,0.2-0.9,0.2
			c-0.5,0-0.9-0.2-1.1-0.5c-0.3-0.3-0.4-0.7-0.4-1.1c0-0.4,0.1-0.7,0.2-1c0.1-0.3,0.3-0.6,0.6-0.8c0.3-0.3,0.6-0.5,1-0.7
			c0.4-0.2,0.9-0.4,1.4-0.6v-0.4c0-0.6-0.2-0.9-0.7-0.9c-0.3,0-0.6,0.1-0.7,0.3c-0.1,0.2-0.2,0.4-0.2,0.7H102.4z M105.5,291.2
			c-0.3,0.2-0.6,0.4-0.8,0.5c-0.2,0.2-0.4,0.3-0.5,0.5s-0.2,0.3-0.3,0.4c0,0.1-0.1,0.3-0.1,0.4c0,0.2,0.1,0.4,0.2,0.5
			c0.1,0.1,0.3,0.2,0.5,0.2c0.2,0,0.4-0.1,0.6-0.2s0.3-0.3,0.4-0.5V291.2z"/>
		<path fill="#231F20" d="M111.5,290.1v-0.2c0-0.4-0.1-0.7-0.2-0.9c-0.1-0.2-0.3-0.3-0.6-0.3s-0.5,0.1-0.6,0.3s-0.2,0.5-0.2,0.9v2.6
			c0,0.4,0.1,0.7,0.2,0.9s0.3,0.3,0.6,0.3s0.5-0.1,0.6-0.3c0.1-0.2,0.2-0.5,0.2-0.9v-0.4h1.5v0.2c0,0.4,0,0.7-0.1,1.1
			s-0.2,0.6-0.4,0.8c-0.2,0.2-0.4,0.4-0.7,0.5c-0.3,0.1-0.6,0.2-1.1,0.2s-0.8-0.1-1.1-0.2c-0.3-0.1-0.5-0.3-0.7-0.5
			c-0.2-0.2-0.3-0.5-0.4-0.8s-0.1-0.7-0.1-1.1v-2.1c0-0.4,0-0.7,0.1-1.1s0.2-0.6,0.4-0.8c0.2-0.2,0.4-0.4,0.7-0.5
			c0.3-0.1,0.6-0.2,1.1-0.2c0.4,0,0.8,0.1,1.1,0.2s0.5,0.3,0.7,0.5c0.2,0.2,0.3,0.5,0.4,0.8c0.1,0.3,0.1,0.7,0.1,1H111.5z"/>
		<path fill="#231F20" d="M118.9,291.5h-3.1v1c0,0.4,0.1,0.7,0.2,0.9s0.3,0.3,0.6,0.3s0.5-0.1,0.6-0.3c0.1-0.2,0.2-0.5,0.2-0.9v-0.2
			h1.5c0,0.4-0.1,0.7-0.1,1c-0.1,0.3-0.2,0.6-0.4,0.8c-0.2,0.2-0.4,0.4-0.7,0.5s-0.6,0.2-1.1,0.2c-0.4,0-0.8-0.1-1.1-0.2
			c-0.3-0.1-0.5-0.3-0.7-0.5c-0.2-0.2-0.3-0.5-0.4-0.8s-0.1-0.7-0.1-1.1v-2.1c0-0.4,0-0.7,0.1-1.1s0.2-0.6,0.4-0.8
			c0.2-0.2,0.4-0.4,0.7-0.5c0.3-0.1,0.6-0.2,1.1-0.2s0.8,0.1,1.1,0.2c0.3,0.1,0.5,0.3,0.7,0.5c0.2,0.2,0.3,0.5,0.4,0.8
			s0.1,0.7,0.1,1.1V291.5z M117.4,290.3v-0.4c0-0.4-0.1-0.7-0.2-0.9c-0.1-0.2-0.3-0.3-0.6-0.3s-0.5,0.1-0.6,0.3s-0.2,0.5-0.2,0.9
			v0.4H117.4z"/>
		<path fill="#231F20" d="M122.9,289.6c-0.1-0.6-0.4-0.9-0.8-0.9c-0.2,0-0.4,0-0.5,0.1c-0.1,0.1-0.2,0.2-0.2,0.4
			c0,0.2,0.1,0.4,0.2,0.5c0.1,0.2,0.3,0.3,0.5,0.5c0.2,0.2,0.4,0.3,0.7,0.5c0.2,0.2,0.5,0.4,0.7,0.6c0.2,0.2,0.4,0.4,0.5,0.7
			c0.1,0.3,0.2,0.6,0.2,0.9c0,0.3-0.1,0.6-0.2,0.8c-0.1,0.2-0.2,0.4-0.4,0.6c-0.2,0.2-0.4,0.3-0.7,0.4c-0.3,0.1-0.5,0.1-0.8,0.1
			c-0.7,0-1.2-0.2-1.5-0.5c-0.4-0.3-0.6-0.8-0.7-1.5l1.3-0.4c0,0.3,0.1,0.6,0.3,0.8c0.1,0.2,0.4,0.3,0.7,0.3c0.2,0,0.4-0.1,0.5-0.2
			c0.1-0.1,0.2-0.3,0.2-0.5c0-0.2-0.1-0.4-0.2-0.6c-0.1-0.2-0.3-0.3-0.5-0.5c-0.2-0.2-0.4-0.3-0.7-0.5c-0.2-0.2-0.5-0.4-0.7-0.6
			c-0.2-0.2-0.4-0.4-0.5-0.7c-0.1-0.2-0.2-0.5-0.2-0.9c0-0.3,0.1-0.5,0.2-0.8c0.1-0.2,0.2-0.4,0.4-0.6c0.2-0.2,0.4-0.3,0.6-0.4
			c0.2-0.1,0.5-0.1,0.8-0.1c0.6,0,1.1,0.2,1.4,0.5c0.4,0.4,0.6,0.8,0.7,1.4L122.9,289.6z"/>
		<path fill="#231F20" d="M125.3,294.8v-1.6h1.6v1.6H125.3z"/>
	</g>
</g>
</svg>
