<?xml version="1.0" encoding="utf-8"?>
<!-- Generator: Adobe Illustrator 19.1.0, SVG Export Plug-In . SVG Version: 6.00 Build 0)  -->
<svg version="1.1" id="Layer_1" xmlns="http://www.w3.org/2000/svg" xmlns:xlink="http://www.w3.org/1999/xlink" x="0px" y="0px"
	 viewBox="-399 176 800 350" style="enable-background:new -399 176 800 350;" xml:space="preserve">
<style type="text/css">
	.st0{enable-background:new    ;}
	.st1{fill:#FFFFFF;}
	.st2{fill:none;stroke:#FFFFFF;stroke-miterlimit:10;}
</style>
<g id="outsole">
	<g>
		<g class="st0">
			<path class="st1" d="M-378,459.7h1.2l1,5.5h0l0.8-5.5h1.4l-1.5,8.7h-1.2l-1.1-5.7h0l-1,5.7h-1.2l-1.6-8.7h1.4l0.9,5.5h0
				L-378,459.7z"/>
			<path class="st1" d="M-372.1,468.3h-1.4l1.6-8.7h1.8l1.6,8.7h-1.4l-0.3-1.9h-1.6L-372.1,468.3z M-371.6,465.1h1.2l-0.6-3.7h0
				L-371.6,465.1z"/>
			<path class="st1" d="M-367.6,468.3v-8.7h4.2v1.3h-2.7v2.2h2v1.3h-2v3.8H-367.6z"/>
			<path class="st1" d="M-362.3,468.3v-8.7h4.2v1.3h-2.7v2.2h2v1.3h-2v3.8H-362.3z"/>
			<path class="st1" d="M-357.1,468.3v-8.7h1.5v7.4h2.3v1.3H-357.1z"/>
			<path class="st1" d="M-352.3,468.3v-8.7h4v1.3h-2.5v2.2h1.9v1.3h-1.9v2.5h2.7v1.3H-352.3z"/>
			<path class="st1" d="M-344.3,461.8c0-0.3,0-0.6,0.1-0.9c0.1-0.3,0.2-0.5,0.4-0.7s0.4-0.4,0.7-0.5c0.3-0.1,0.6-0.2,1-0.2
				s0.7,0.1,1,0.2c0.3,0.1,0.5,0.3,0.7,0.5c0.2,0.2,0.3,0.4,0.4,0.7c0.1,0.3,0.1,0.6,0.1,0.9v4.5c0,0.3,0,0.6-0.1,0.9
				c-0.1,0.3-0.2,0.5-0.4,0.7c-0.2,0.2-0.4,0.4-0.7,0.5c-0.3,0.1-0.6,0.2-1,0.2s-0.7-0.1-1-0.2c-0.3-0.1-0.5-0.3-0.7-0.5
				c-0.2-0.2-0.3-0.4-0.4-0.7c-0.1-0.3-0.1-0.6-0.1-0.9V461.8z M-342.8,466.2c0,0.3,0.1,0.6,0.2,0.7c0.1,0.2,0.3,0.2,0.6,0.2
				c0.3,0,0.5-0.1,0.6-0.2c0.1-0.2,0.2-0.4,0.2-0.7v-4.4c0-0.3-0.1-0.6-0.2-0.7c-0.1-0.2-0.3-0.2-0.6-0.2c-0.3,0-0.5,0.1-0.6,0.2
				c-0.1,0.2-0.2,0.4-0.2,0.7V466.2z"/>
			<path class="st1" d="M-338.3,459.7h1.5v6.5c0,0.6,0.3,0.9,0.8,0.9s0.8-0.3,0.8-0.9v-6.5h1.5v6.5c0,0.8-0.2,1.3-0.6,1.7
				c-0.4,0.4-1,0.6-1.7,0.6s-1.3-0.2-1.7-0.6c-0.4-0.4-0.6-1-0.6-1.7V459.7z"/>
			<path class="st1" d="M-331.5,461h-1.4v-1.3h4.4v1.3h-1.4v7.4h-1.5V461z"/>
			<path class="st1" d="M-325,461.8c0-0.2-0.1-0.3-0.1-0.5c-0.1-0.1-0.1-0.2-0.2-0.3c-0.1-0.1-0.2-0.1-0.2-0.2c-0.1,0-0.2,0-0.3,0
				c-0.2,0-0.4,0.1-0.6,0.2c-0.1,0.1-0.2,0.4-0.2,0.6c0,0.2,0.1,0.5,0.2,0.7c0.1,0.2,0.3,0.4,0.6,0.6c0.2,0.2,0.5,0.4,0.7,0.6
				c0.3,0.2,0.5,0.4,0.7,0.7c0.2,0.3,0.4,0.5,0.6,0.8c0.1,0.3,0.2,0.7,0.2,1.1c0,0.4-0.1,0.7-0.2,1c-0.1,0.3-0.3,0.5-0.5,0.7
				c-0.2,0.2-0.5,0.3-0.7,0.4c-0.3,0.1-0.6,0.1-1,0.1c-0.3,0-0.7-0.1-0.9-0.2s-0.5-0.3-0.7-0.5s-0.3-0.5-0.4-0.8
				c-0.1-0.3-0.2-0.6-0.2-0.9l1.4-0.2c0,0.4,0.1,0.8,0.3,1c0.2,0.2,0.4,0.3,0.6,0.3c0.3,0,0.5-0.1,0.6-0.2c0.2-0.1,0.2-0.3,0.2-0.6
				c0-0.3-0.1-0.5-0.2-0.8c-0.1-0.2-0.3-0.4-0.6-0.6c-0.2-0.2-0.5-0.4-0.7-0.6c-0.3-0.2-0.5-0.4-0.7-0.7c-0.2-0.2-0.4-0.5-0.6-0.8
				c-0.1-0.3-0.2-0.7-0.2-1.1c0-0.7,0.2-1.2,0.6-1.6c0.4-0.4,1-0.6,1.7-0.6c0.3,0,0.6,0.1,0.8,0.2c0.2,0.1,0.4,0.2,0.6,0.4
				c0.2,0.2,0.3,0.4,0.4,0.7c0.1,0.3,0.2,0.5,0.2,0.8L-325,461.8z"/>
			<path class="st1" d="M-322.3,461.8c0-0.3,0-0.6,0.1-0.9c0.1-0.3,0.2-0.5,0.4-0.7s0.4-0.4,0.7-0.5c0.3-0.1,0.6-0.2,1-0.2
				s0.7,0.1,1,0.2c0.3,0.1,0.5,0.3,0.7,0.5c0.2,0.2,0.3,0.4,0.4,0.7c0.1,0.3,0.1,0.6,0.1,0.9v4.5c0,0.3,0,0.6-0.1,0.9
				c-0.1,0.3-0.2,0.5-0.4,0.7c-0.2,0.2-0.4,0.4-0.7,0.5c-0.3,0.1-0.6,0.2-1,0.2s-0.7-0.1-1-0.2c-0.3-0.1-0.5-0.3-0.7-0.5
				c-0.2-0.2-0.3-0.4-0.4-0.7c-0.1-0.3-0.1-0.6-0.1-0.9V461.8z M-320.8,466.2c0,0.3,0.1,0.6,0.2,0.7c0.1,0.2,0.3,0.2,0.6,0.2
				c0.3,0,0.5-0.1,0.6-0.2c0.1-0.2,0.2-0.4,0.2-0.7v-4.4c0-0.3-0.1-0.6-0.2-0.7c-0.1-0.2-0.3-0.2-0.6-0.2c-0.3,0-0.5,0.1-0.6,0.2
				c-0.1,0.2-0.2,0.4-0.2,0.7V466.2z"/>
			<path class="st1" d="M-316.4,468.3v-8.7h1.5v7.4h2.3v1.3H-316.4z"/>
			<path class="st1" d="M-311.7,468.3v-8.7h4v1.3h-2.5v2.2h1.9v1.3h-1.9v2.5h2.7v1.3H-311.7z"/>
		</g>
		<g class="st0">
			<path class="st1" d="M-380.3,474.1h1.9c0.5,0,0.9,0.1,1.3,0.2s0.7,0.4,1,0.7c0.3,0.3,0.5,0.7,0.7,1.1s0.2,1,0.2,1.6
				c0,0.5-0.1,1-0.2,1.5c-0.1,0.4-0.4,0.8-0.6,1.1c-0.3,0.3-0.6,0.6-1,0.7c-0.4,0.2-0.9,0.3-1.4,0.3h-1.9V474.1z M-379.5,480.7h1.1
				c0.8,0,1.5-0.2,1.9-0.7s0.6-1.2,0.6-2.2c0-0.5-0.1-1-0.2-1.3c-0.1-0.4-0.3-0.7-0.5-0.9c-0.2-0.2-0.5-0.4-0.8-0.5
				c-0.3-0.1-0.6-0.2-1-0.2h-1.1V480.7z"/>
			<path class="st1" d="M-370.6,481.4v-0.7h0c-0.2,0.2-0.4,0.4-0.7,0.6c-0.3,0.2-0.5,0.2-0.8,0.2c-0.2,0-0.4,0-0.6-0.1
				c-0.2-0.1-0.3-0.1-0.5-0.3s-0.3-0.3-0.3-0.5c-0.1-0.2-0.1-0.4-0.1-0.7v-3.8h0.7v3.8c0,0.3,0.1,0.6,0.2,0.7
				c0.2,0.1,0.4,0.2,0.6,0.2c0.1,0,0.3,0,0.4-0.1c0.1,0,0.3-0.1,0.4-0.2c0.1-0.1,0.3-0.2,0.4-0.3c0.1-0.1,0.2-0.2,0.3-0.3v-3.9h0.7
				v5.2H-370.6z"/>
			<path class="st1" d="M-368.3,476.2h0.7v1h0c0.1-0.2,0.2-0.3,0.3-0.5c0.1-0.1,0.2-0.3,0.4-0.3c0.1-0.1,0.3-0.2,0.5-0.2
				c0.2,0,0.4-0.1,0.6-0.1v0.7c-0.5,0-0.8,0.2-1.1,0.4s-0.5,0.7-0.6,1.2v2.9h-0.7V476.2z"/>
			<path class="st1" d="M-365.1,477.2c0.2-0.3,0.4-0.6,0.7-0.8c0.3-0.2,0.7-0.3,1.2-0.3c0.2,0,0.4,0,0.6,0.1s0.4,0.1,0.6,0.3
				c0.2,0.1,0.3,0.3,0.4,0.5c0.1,0.2,0.2,0.4,0.2,0.7v2.6c0,0.3,0,0.5,0,0.7c0,0.2,0.1,0.3,0.1,0.4h-0.7l-0.1-0.7
				c-0.2,0.2-0.4,0.4-0.7,0.6c-0.3,0.2-0.6,0.3-1,0.3c-0.2,0-0.4,0-0.6-0.1c-0.2-0.1-0.3-0.1-0.5-0.3s-0.2-0.3-0.3-0.4
				s-0.1-0.4-0.1-0.6c0-0.3,0.1-0.5,0.2-0.8s0.3-0.4,0.6-0.6c0.3-0.2,0.6-0.3,1-0.4c0.4-0.1,0.9-0.2,1.5-0.3v-0.3
				c0-0.3-0.1-0.6-0.3-0.7c-0.2-0.1-0.5-0.2-0.8-0.2c-0.2,0-0.4,0-0.5,0.1c-0.1,0.1-0.3,0.1-0.4,0.2c-0.1,0.1-0.2,0.2-0.3,0.3
				s-0.1,0.2-0.2,0.3L-365.1,477.2z M-362.1,478.6c-1.6,0.3-2.5,0.8-2.5,1.5c0,0.1,0,0.2,0.1,0.3c0.1,0.1,0.1,0.2,0.2,0.3
				c0.1,0.1,0.2,0.1,0.3,0.2c0.1,0,0.2,0.1,0.3,0.1c0.1,0,0.3,0,0.4-0.1c0.1,0,0.3-0.1,0.4-0.2c0.1-0.1,0.3-0.2,0.4-0.3
				s0.2-0.2,0.4-0.3V478.6z"/>
			<path class="st1" d="M-359.1,474.1v2.5l0,0c0.2-0.2,0.4-0.3,0.6-0.4c0.2-0.1,0.5-0.2,0.7-0.2c0.2,0,0.5,0,0.7,0.1
				c0.2,0.1,0.5,0.2,0.7,0.5c0.2,0.2,0.4,0.5,0.5,0.8s0.2,0.8,0.2,1.3c0,0.5-0.1,1-0.2,1.3s-0.3,0.6-0.5,0.8
				c-0.2,0.2-0.4,0.4-0.7,0.4c-0.3,0.1-0.5,0.1-0.7,0.1c-0.3,0-0.6-0.1-0.8-0.2c-0.2-0.1-0.5-0.3-0.7-0.5l-0.1,0.5h-0.5
				c0-0.2,0-0.4,0-0.6c0-0.2,0-0.4,0-0.6v-6.1H-359.1z M-359.1,480.2c0.3,0.2,0.5,0.4,0.7,0.5s0.4,0.2,0.6,0.2
				c0.5,0,0.8-0.2,1.1-0.5s0.4-0.9,0.4-1.5c0-0.4,0-0.7-0.1-1c-0.1-0.3-0.2-0.5-0.3-0.7s-0.3-0.3-0.5-0.4c-0.2-0.1-0.4-0.1-0.6-0.1
				c-0.2,0-0.4,0.1-0.7,0.2c-0.2,0.1-0.4,0.3-0.6,0.5V480.2z"/>
			<path class="st1" d="M-353.4,474.1v7.2h-0.7v-7.2H-353.4z"/>
			<path class="st1" d="M-347.7,480.3c-0.1,0.1-0.2,0.3-0.3,0.4c-0.1,0.1-0.2,0.3-0.4,0.4c-0.2,0.1-0.3,0.2-0.6,0.3
				s-0.5,0.1-0.8,0.1c-0.3,0-0.6-0.1-0.8-0.2c-0.3-0.1-0.5-0.3-0.7-0.5c-0.2-0.2-0.4-0.5-0.5-0.8c-0.1-0.3-0.2-0.7-0.2-1.2
				c0-0.4,0.1-0.8,0.1-1.1c0.1-0.3,0.2-0.6,0.4-0.8s0.4-0.4,0.7-0.5c0.3-0.1,0.6-0.2,0.9-0.2c0.3,0,0.5,0,0.8,0.1
				c0.2,0.1,0.5,0.2,0.6,0.4c0.2,0.2,0.3,0.4,0.4,0.7c0.1,0.3,0.2,0.7,0.2,1.1v0.5h-3.4c0,0.3,0,0.5,0.1,0.8
				c0.1,0.2,0.2,0.4,0.3,0.6c0.1,0.2,0.3,0.3,0.5,0.4c0.2,0.1,0.4,0.1,0.6,0.1c0.3,0,0.6-0.1,0.8-0.2s0.4-0.4,0.6-0.6L-347.7,480.3z
				 M-348.6,478.3c0-0.5-0.1-0.9-0.3-1.2c-0.2-0.3-0.5-0.4-0.9-0.4c-0.4,0-0.8,0.1-1,0.4c-0.2,0.3-0.4,0.7-0.4,1.2H-348.6z"/>
			<path class="st1" d="M-345.3,481.4l-0.6,1.5h-0.4l0.5-1.5h-0.4v-1.1h1V481.4z"/>
			<path class="st1" d="M-340.6,476.2h0.7v1h0c0.1-0.2,0.2-0.3,0.3-0.5c0.1-0.1,0.2-0.3,0.4-0.3c0.1-0.1,0.3-0.2,0.5-0.2
				c0.2,0,0.4-0.1,0.6-0.1v0.7c-0.5,0-0.8,0.2-1.1,0.4s-0.5,0.7-0.6,1.2v2.9h-0.7V476.2z"/>
			<path class="st1" d="M-333.3,480.3c-0.1,0.1-0.2,0.3-0.3,0.4c-0.1,0.1-0.2,0.3-0.4,0.4c-0.2,0.1-0.3,0.2-0.6,0.3
				s-0.5,0.1-0.8,0.1c-0.3,0-0.6-0.1-0.8-0.2c-0.3-0.1-0.5-0.3-0.7-0.5c-0.2-0.2-0.4-0.5-0.5-0.8c-0.1-0.3-0.2-0.7-0.2-1.2
				c0-0.4,0.1-0.8,0.1-1.1c0.1-0.3,0.2-0.6,0.4-0.8s0.4-0.4,0.7-0.5c0.3-0.1,0.6-0.2,0.9-0.2c0.3,0,0.5,0,0.8,0.1
				c0.2,0.1,0.5,0.2,0.6,0.4c0.2,0.2,0.3,0.4,0.4,0.7c0.1,0.3,0.2,0.7,0.2,1.1v0.5h-3.4c0,0.3,0,0.5,0.1,0.8
				c0.1,0.2,0.2,0.4,0.3,0.6c0.1,0.2,0.3,0.3,0.5,0.4c0.2,0.1,0.4,0.1,0.6,0.1c0.3,0,0.6-0.1,0.8-0.2s0.4-0.4,0.6-0.6L-333.3,480.3z
				 M-334.1,478.3c0-0.5-0.1-0.9-0.3-1.2c-0.2-0.3-0.5-0.4-0.9-0.4c-0.4,0-0.8,0.1-1,0.4c-0.2,0.3-0.4,0.7-0.4,1.2H-334.1z"/>
			<path class="st1" d="M-331.2,474.1v7.2h-0.7v-7.2H-331.2z"/>
			<path class="st1" d="M-328.4,474v0.9h-0.7V474H-328.4z M-329.1,476.2h0.7v5.2h-0.7V476.2z"/>
			<path class="st1" d="M-326.8,477.2c0.2-0.3,0.4-0.6,0.7-0.8c0.3-0.2,0.7-0.3,1.2-0.3c0.2,0,0.4,0,0.6,0.1s0.4,0.1,0.6,0.3
				c0.2,0.1,0.3,0.3,0.4,0.5c0.1,0.2,0.2,0.4,0.2,0.7v2.6c0,0.3,0,0.5,0,0.7c0,0.2,0.1,0.3,0.1,0.4h-0.7l-0.1-0.7
				c-0.2,0.2-0.4,0.4-0.7,0.6c-0.3,0.2-0.6,0.3-1,0.3c-0.2,0-0.4,0-0.6-0.1c-0.2-0.1-0.3-0.1-0.5-0.3s-0.2-0.3-0.3-0.4
				s-0.1-0.4-0.1-0.6c0-0.3,0.1-0.5,0.2-0.8s0.3-0.4,0.6-0.6c0.3-0.2,0.6-0.3,1-0.4c0.4-0.1,0.9-0.2,1.5-0.3v-0.3
				c0-0.3-0.1-0.6-0.3-0.7c-0.2-0.1-0.5-0.2-0.8-0.2c-0.2,0-0.4,0-0.5,0.1c-0.1,0.1-0.3,0.1-0.4,0.2c-0.1,0.1-0.2,0.2-0.3,0.3
				s-0.1,0.2-0.2,0.3L-326.8,477.2z M-323.8,478.6c-1.6,0.3-2.5,0.8-2.5,1.5c0,0.1,0,0.2,0.1,0.3c0.1,0.1,0.1,0.2,0.2,0.3
				c0.1,0.1,0.2,0.1,0.3,0.2c0.1,0,0.2,0.1,0.3,0.1c0.1,0,0.3,0,0.4-0.1c0.1,0,0.3-0.1,0.4-0.2c0.1-0.1,0.3-0.2,0.4-0.3
				s0.2-0.2,0.4-0.3V478.6z"/>
			<path class="st1" d="M-320.8,474.1v2.5l0,0c0.2-0.2,0.4-0.3,0.6-0.4c0.2-0.1,0.5-0.2,0.7-0.2c0.2,0,0.5,0,0.7,0.1
				c0.2,0.1,0.5,0.2,0.7,0.5c0.2,0.2,0.4,0.5,0.5,0.8s0.2,0.8,0.2,1.3c0,0.5-0.1,1-0.2,1.3s-0.3,0.6-0.5,0.8
				c-0.2,0.2-0.4,0.4-0.7,0.4c-0.3,0.1-0.5,0.1-0.7,0.1c-0.3,0-0.6-0.1-0.8-0.2c-0.2-0.1-0.5-0.3-0.7-0.5l-0.1,0.5h-0.5
				c0-0.2,0-0.4,0-0.6c0-0.2,0-0.4,0-0.6v-6.1H-320.8z M-320.8,480.2c0.3,0.2,0.5,0.4,0.7,0.5s0.4,0.2,0.6,0.2
				c0.5,0,0.8-0.2,1.1-0.5s0.4-0.9,0.4-1.5c0-0.4,0-0.7-0.1-1c-0.1-0.3-0.2-0.5-0.3-0.7s-0.3-0.3-0.5-0.4c-0.2-0.1-0.4-0.1-0.6-0.1
				c-0.2,0-0.4,0.1-0.7,0.2c-0.2,0.1-0.4,0.3-0.6,0.5V480.2z"/>
			<path class="st1" d="M-315.1,474.1v7.2h-0.7v-7.2H-315.1z"/>
			<path class="st1" d="M-309.4,480.3c-0.1,0.1-0.2,0.3-0.3,0.4c-0.1,0.1-0.2,0.3-0.4,0.4c-0.2,0.1-0.3,0.2-0.6,0.3
				s-0.5,0.1-0.8,0.1c-0.3,0-0.6-0.1-0.8-0.2c-0.3-0.1-0.5-0.3-0.7-0.5c-0.2-0.2-0.4-0.5-0.5-0.8c-0.1-0.3-0.2-0.7-0.2-1.2
				c0-0.4,0.1-0.8,0.1-1.1c0.1-0.3,0.2-0.6,0.4-0.8s0.4-0.4,0.7-0.5c0.3-0.1,0.6-0.2,0.9-0.2c0.3,0,0.5,0,0.8,0.1
				c0.2,0.1,0.5,0.2,0.6,0.4c0.2,0.2,0.3,0.4,0.4,0.7c0.1,0.3,0.2,0.7,0.2,1.1v0.5h-3.4c0,0.3,0,0.5,0.1,0.8
				c0.1,0.2,0.2,0.4,0.3,0.6c0.1,0.2,0.3,0.3,0.5,0.4c0.2,0.1,0.4,0.1,0.6,0.1c0.3,0,0.6-0.1,0.8-0.2s0.4-0.4,0.6-0.6L-309.4,480.3z
				 M-310.2,478.3c0-0.5-0.1-0.9-0.3-1.2c-0.2-0.3-0.5-0.4-0.9-0.4c-0.4,0-0.8,0.1-1,0.4c-0.2,0.3-0.4,0.7-0.4,1.2H-310.2z"/>
			<path class="st1" d="M-304.9,476.2v-1.7h0.7v1.7h1.2v0.6h-1.2v3.7c0,0.1,0,0.2,0.1,0.3c0.1,0.1,0.2,0.1,0.5,0.1
				c0.1,0,0.2,0,0.3,0c0.1,0,0.2,0,0.3,0v0.6c-0.1,0-0.2,0-0.3,0.1s-0.3,0-0.5,0c-0.4,0-0.7-0.1-0.9-0.2s-0.3-0.3-0.3-0.7v-3.8h-0.8
				v-0.6H-304.9z"/>
			<path class="st1" d="M-301.9,476.2h0.7v1h0c0.1-0.2,0.2-0.3,0.3-0.5c0.1-0.1,0.2-0.3,0.4-0.3c0.1-0.1,0.3-0.2,0.5-0.2
				c0.2,0,0.4-0.1,0.6-0.1v0.7c-0.5,0-0.8,0.2-1.1,0.4s-0.5,0.7-0.6,1.2v2.9h-0.7V476.2z"/>
			<path class="st1" d="M-298.7,477.2c0.2-0.3,0.4-0.6,0.7-0.8c0.3-0.2,0.7-0.3,1.2-0.3c0.2,0,0.4,0,0.6,0.1s0.4,0.1,0.6,0.3
				c0.2,0.1,0.3,0.3,0.4,0.5c0.1,0.2,0.2,0.4,0.2,0.7v2.6c0,0.3,0,0.5,0,0.7c0,0.2,0.1,0.3,0.1,0.4h-0.7l-0.1-0.7
				c-0.2,0.2-0.4,0.4-0.7,0.6c-0.3,0.2-0.6,0.3-1,0.3c-0.2,0-0.4,0-0.6-0.1c-0.2-0.1-0.3-0.1-0.5-0.3s-0.2-0.3-0.3-0.4
				s-0.1-0.4-0.1-0.6c0-0.3,0.1-0.5,0.2-0.8s0.3-0.4,0.6-0.6c0.3-0.2,0.6-0.3,1-0.4c0.4-0.1,0.9-0.2,1.5-0.3v-0.3
				c0-0.3-0.1-0.6-0.3-0.7c-0.2-0.1-0.5-0.2-0.8-0.2c-0.2,0-0.4,0-0.5,0.1c-0.1,0.1-0.3,0.1-0.4,0.2c-0.1,0.1-0.2,0.2-0.3,0.3
				s-0.1,0.2-0.2,0.3L-298.7,477.2z M-295.7,478.6c-1.6,0.3-2.5,0.8-2.5,1.5c0,0.1,0,0.2,0.1,0.3c0.1,0.1,0.1,0.2,0.2,0.3
				c0.1,0.1,0.2,0.1,0.3,0.2c0.1,0,0.2,0.1,0.3,0.1c0.1,0,0.3,0,0.4-0.1c0.1,0,0.3-0.1,0.4-0.2c0.1-0.1,0.3-0.2,0.4-0.3
				s0.2-0.2,0.4-0.3V478.6z"/>
			<path class="st1" d="M-290.6,477.7c-0.1-0.3-0.3-0.6-0.5-0.8c-0.2-0.2-0.5-0.3-0.8-0.3c-0.4,0-0.8,0.2-1,0.5
				c-0.2,0.4-0.4,0.9-0.4,1.5c0,0.7,0.1,1.2,0.4,1.5c0.2,0.4,0.6,0.5,1,0.5c0.2,0,0.3,0,0.4,0c0.1,0,0.3-0.1,0.4-0.2
				s0.2-0.2,0.3-0.3c0.1-0.1,0.2-0.3,0.3-0.5l0.6,0.3c-0.1,0.2-0.3,0.4-0.4,0.6c-0.1,0.2-0.3,0.3-0.4,0.4c-0.2,0.1-0.3,0.2-0.5,0.2
				c-0.2,0.1-0.4,0.1-0.7,0.1c-0.3,0-0.6-0.1-0.9-0.2c-0.3-0.1-0.5-0.3-0.7-0.5c-0.2-0.2-0.3-0.5-0.4-0.8c-0.1-0.3-0.1-0.7-0.1-1.1
				s0.1-0.8,0.1-1.1c0.1-0.3,0.2-0.6,0.4-0.8c0.2-0.2,0.4-0.4,0.7-0.5c0.3-0.1,0.6-0.2,0.9-0.2c0.3,0,0.5,0,0.7,0.1
				c0.2,0.1,0.4,0.2,0.5,0.3c0.1,0.1,0.3,0.3,0.4,0.5c0.1,0.2,0.2,0.4,0.3,0.6L-290.6,477.7z"/>
			<path class="st1" d="M-288.3,476.2v-1.7h0.7v1.7h1.2v0.6h-1.2v3.7c0,0.1,0,0.2,0.1,0.3c0.1,0.1,0.2,0.1,0.5,0.1
				c0.1,0,0.2,0,0.3,0c0.1,0,0.2,0,0.3,0v0.6c-0.1,0-0.2,0-0.3,0.1s-0.3,0-0.5,0c-0.4,0-0.7-0.1-0.9-0.2s-0.3-0.3-0.3-0.7v-3.8h-0.8
				v-0.6H-288.3z"/>
			<path class="st1" d="M-284.2,474v0.9h-0.7V474H-284.2z M-285,476.2h0.7v5.2h-0.7V476.2z"/>
			<path class="st1" d="M-278.6,478.8c0,0.4,0,0.7-0.1,1.1c-0.1,0.3-0.2,0.6-0.4,0.9c-0.2,0.2-0.4,0.4-0.7,0.6
				c-0.3,0.1-0.6,0.2-0.9,0.2s-0.7-0.1-0.9-0.2c-0.3-0.1-0.5-0.3-0.7-0.6c-0.2-0.2-0.3-0.5-0.4-0.9c-0.1-0.3-0.1-0.7-0.1-1.1
				c0-0.4,0-0.7,0.1-1.1c0.1-0.3,0.2-0.6,0.4-0.9c0.2-0.2,0.4-0.4,0.7-0.6c0.3-0.1,0.6-0.2,0.9-0.2s0.7,0.1,0.9,0.2
				c0.3,0.1,0.5,0.3,0.7,0.6c0.2,0.2,0.3,0.5,0.4,0.9C-278.6,478-278.6,478.4-278.6,478.8z M-279.3,478.8c0-0.7-0.1-1.2-0.4-1.5
				c-0.3-0.4-0.6-0.5-1-0.5c-0.4,0-0.8,0.2-1,0.5c-0.3,0.4-0.4,0.9-0.4,1.5c0,0.7,0.1,1.2,0.4,1.5c0.3,0.4,0.6,0.5,1,0.5
				c0.4,0,0.8-0.2,1-0.5S-279.3,479.4-279.3,478.8z"/>
			<path class="st1" d="M-276.6,476.2v0.7h0c0.2-0.2,0.4-0.4,0.7-0.6c0.3-0.1,0.5-0.2,0.8-0.2c0.2,0,0.4,0,0.6,0.1
				c0.2,0.1,0.3,0.1,0.5,0.3s0.3,0.3,0.3,0.5s0.1,0.4,0.1,0.7v3.8h-0.7v-3.8c0-0.3-0.1-0.6-0.2-0.7c-0.2-0.1-0.4-0.2-0.6-0.2
				c-0.1,0-0.3,0-0.4,0.1c-0.1,0.1-0.3,0.1-0.4,0.2c-0.1,0.1-0.3,0.2-0.4,0.3c-0.1,0.1-0.2,0.2-0.3,0.3v3.9h-0.7v-5.2H-276.6z"/>
		</g>
		<g class="st0">
			<path class="st1" d="M-376.6,490.8c0,0.4,0,0.7-0.1,1.1c-0.1,0.3-0.2,0.6-0.4,0.9c-0.2,0.2-0.4,0.4-0.7,0.6
				c-0.3,0.1-0.6,0.2-0.9,0.2s-0.7-0.1-0.9-0.2c-0.3-0.1-0.5-0.3-0.7-0.6c-0.2-0.2-0.3-0.5-0.4-0.9c-0.1-0.3-0.1-0.7-0.1-1.1
				c0-0.4,0-0.7,0.1-1.1c0.1-0.3,0.2-0.6,0.4-0.9c0.2-0.2,0.4-0.4,0.7-0.6c0.3-0.1,0.6-0.2,0.9-0.2s0.7,0.1,0.9,0.2
				c0.3,0.1,0.5,0.3,0.7,0.6c0.2,0.2,0.3,0.5,0.4,0.9C-376.7,490-376.6,490.4-376.6,490.8z M-377.3,490.8c0-0.7-0.1-1.2-0.4-1.5
				c-0.3-0.4-0.6-0.5-1-0.5c-0.4,0-0.8,0.2-1,0.5c-0.3,0.4-0.4,0.9-0.4,1.5c0,0.7,0.1,1.2,0.4,1.5c0.3,0.4,0.6,0.5,1,0.5
				c0.4,0,0.8-0.2,1-0.5S-377.3,491.4-377.3,490.8z"/>
			<path class="st1" d="M-374.6,488.2v0.7h0c0.2-0.2,0.4-0.4,0.7-0.6c0.3-0.1,0.5-0.2,0.8-0.2c0.2,0,0.4,0,0.6,0.1
				c0.2,0.1,0.3,0.1,0.5,0.3s0.3,0.3,0.3,0.5s0.1,0.4,0.1,0.7v3.8h-0.7v-3.8c0-0.3-0.1-0.6-0.2-0.7c-0.2-0.1-0.4-0.2-0.6-0.2
				c-0.1,0-0.3,0-0.4,0.1c-0.1,0.1-0.3,0.1-0.4,0.2c-0.1,0.1-0.3,0.2-0.4,0.3c-0.1,0.1-0.2,0.2-0.3,0.3v3.9h-0.7v-5.2H-374.6z"/>
			<path class="st1" d="M-366.8,493.4v-5.2h0.7v0.7l0,0c0.2-0.2,0.5-0.4,0.7-0.6c0.3-0.1,0.5-0.2,0.8-0.2c0.3,0,0.6,0.1,0.9,0.2
				s0.4,0.4,0.5,0.6c0.2-0.2,0.5-0.4,0.8-0.6c0.3-0.1,0.6-0.2,0.9-0.2c0.2,0,0.3,0,0.5,0.1c0.2,0,0.3,0.1,0.5,0.2
				c0.1,0.1,0.2,0.3,0.3,0.5c0.1,0.2,0.1,0.5,0.1,0.8v3.7h-0.7v-3.7c0-0.4-0.1-0.6-0.2-0.7s-0.3-0.2-0.6-0.2c-0.2,0-0.3,0-0.4,0.1
				c-0.1,0-0.3,0.1-0.4,0.2c-0.1,0.1-0.2,0.2-0.3,0.3c-0.1,0.1-0.2,0.2-0.3,0.3v3.9h-0.7v-3.7c0-0.4-0.1-0.6-0.2-0.7
				s-0.3-0.2-0.6-0.2c-0.2,0-0.3,0-0.4,0.1c-0.1,0-0.3,0.1-0.4,0.2c-0.1,0.1-0.2,0.2-0.3,0.3c-0.1,0.1-0.2,0.2-0.3,0.3v3.9H-366.8z"
				/>
			<path class="st1" d="M-355.4,493.4v-0.7h0c-0.2,0.2-0.4,0.4-0.7,0.6c-0.3,0.2-0.5,0.2-0.8,0.2c-0.2,0-0.4,0-0.6-0.1
				c-0.2-0.1-0.3-0.1-0.5-0.3s-0.3-0.3-0.3-0.5c-0.1-0.2-0.1-0.4-0.1-0.7v-3.8h0.7v3.8c0,0.3,0.1,0.6,0.2,0.7
				c0.2,0.1,0.4,0.2,0.6,0.2c0.1,0,0.3,0,0.4-0.1c0.1,0,0.3-0.1,0.4-0.2c0.1-0.1,0.3-0.2,0.4-0.3c0.1-0.1,0.2-0.2,0.3-0.3v-3.9h0.7
				v5.2H-355.4z"/>
			<path class="st1" d="M-352,486.1v7.2h-0.7v-7.2H-352z"/>
			<path class="st1" d="M-349.2,486v0.9h-0.7V486H-349.2z M-349.9,488.2h0.7v5.2h-0.7V488.2z"/>
			<path class="st1" d="M-347.2,488.2v-1.7h0.7v1.7h1.2v0.6h-1.2v3.7c0,0.1,0,0.2,0.1,0.3c0.1,0.1,0.2,0.1,0.5,0.1
				c0.1,0,0.2,0,0.3,0c0.1,0,0.2,0,0.3,0v0.6c-0.1,0-0.2,0-0.3,0.1s-0.3,0-0.5,0c-0.4,0-0.7-0.1-0.9-0.2s-0.3-0.3-0.3-0.7v-3.8h-0.8
				v-0.6H-347.2z"/>
			<path class="st1" d="M-344,495.3v-7.1h0.7v0.6h0c0.1-0.1,0.2-0.2,0.3-0.3c0.1-0.1,0.2-0.2,0.3-0.2s0.2-0.1,0.4-0.2
				c0.1,0,0.3-0.1,0.4-0.1c0.2,0,0.5,0,0.7,0.1s0.5,0.2,0.7,0.4c0.2,0.2,0.4,0.5,0.5,0.8c0.1,0.3,0.2,0.8,0.2,1.3
				c0,0.5-0.1,0.9-0.2,1.3c-0.1,0.3-0.3,0.6-0.5,0.8c-0.2,0.2-0.4,0.4-0.7,0.5c-0.2,0.1-0.5,0.1-0.7,0.1c-0.2,0-0.5-0.1-0.7-0.2
				c-0.2-0.1-0.5-0.2-0.6-0.4l0,0v2.4H-344z M-343.3,492.1c0.2,0.2,0.4,0.4,0.6,0.5c0.2,0.1,0.5,0.2,0.7,0.2c0.2,0,0.4,0,0.6-0.1
				c0.2-0.1,0.3-0.2,0.5-0.4c0.1-0.2,0.2-0.4,0.3-0.7c0.1-0.3,0.1-0.6,0.1-1c0-0.7-0.1-1.2-0.4-1.5s-0.6-0.5-1.1-0.5
				c-0.2,0-0.4,0.1-0.6,0.2c-0.2,0.1-0.4,0.3-0.7,0.5V492.1z"/>
			<path class="st1" d="M-337.6,486.1v7.2h-0.7v-7.2H-337.6z"/>
			<path class="st1" d="M-331.9,492.3c-0.1,0.1-0.2,0.3-0.3,0.4c-0.1,0.1-0.2,0.3-0.4,0.4c-0.2,0.1-0.3,0.2-0.6,0.3
				s-0.5,0.1-0.8,0.1c-0.3,0-0.6-0.1-0.8-0.2c-0.3-0.1-0.5-0.3-0.7-0.5c-0.2-0.2-0.4-0.5-0.5-0.8c-0.1-0.3-0.2-0.7-0.2-1.2
				c0-0.4,0.1-0.8,0.1-1.1c0.1-0.3,0.2-0.6,0.4-0.8s0.4-0.4,0.7-0.5c0.3-0.1,0.6-0.2,0.9-0.2c0.3,0,0.5,0,0.8,0.1
				c0.2,0.1,0.5,0.2,0.6,0.4c0.2,0.2,0.3,0.4,0.4,0.7c0.1,0.3,0.2,0.7,0.2,1.1v0.5h-3.4c0,0.3,0,0.5,0.1,0.8
				c0.1,0.2,0.2,0.4,0.3,0.6c0.1,0.2,0.3,0.3,0.5,0.4c0.2,0.1,0.4,0.1,0.6,0.1c0.3,0,0.6-0.1,0.8-0.2s0.4-0.4,0.6-0.6L-331.9,492.3z
				 M-332.7,490.3c0-0.5-0.1-0.9-0.3-1.2c-0.2-0.3-0.5-0.4-0.9-0.4c-0.4,0-0.8,0.1-1,0.4c-0.2,0.3-0.4,0.7-0.4,1.2H-332.7z"/>
			<path class="st1" d="M-327.7,492c0.2,0.2,0.4,0.4,0.6,0.6c0.2,0.1,0.5,0.2,0.9,0.2c0.4,0,0.7-0.1,0.9-0.3
				c0.2-0.2,0.3-0.4,0.3-0.6s-0.1-0.4-0.2-0.5c-0.2-0.1-0.3-0.2-0.6-0.3c-0.2-0.1-0.5-0.2-0.7-0.2c-0.3-0.1-0.5-0.2-0.7-0.3
				c-0.2-0.1-0.4-0.3-0.6-0.4c-0.1-0.2-0.2-0.4-0.2-0.8c0-0.5,0.2-0.8,0.5-1c0.3-0.2,0.7-0.4,1.2-0.4c0.2,0,0.3,0,0.5,0.1
				c0.2,0,0.3,0.1,0.5,0.2c0.2,0.1,0.3,0.2,0.4,0.3s0.2,0.2,0.3,0.4l-0.5,0.4c-0.2-0.2-0.4-0.4-0.6-0.5s-0.5-0.2-0.7-0.2
				c-0.3,0-0.5,0.1-0.7,0.2c-0.2,0.1-0.2,0.3-0.2,0.6c0,0.2,0.1,0.3,0.2,0.4c0.1,0.1,0.3,0.2,0.6,0.3c0.2,0.1,0.5,0.2,0.7,0.2
				c0.3,0.1,0.5,0.2,0.7,0.3c0.2,0.1,0.4,0.3,0.6,0.5c0.1,0.2,0.2,0.5,0.2,0.8c0,0.3-0.1,0.5-0.1,0.7c-0.1,0.2-0.2,0.3-0.4,0.5
				c-0.2,0.1-0.4,0.2-0.6,0.3s-0.4,0.1-0.7,0.1c-0.4,0-0.8-0.1-1.2-0.3c-0.4-0.2-0.7-0.4-0.9-0.7L-327.7,492z"/>
			<path class="st1" d="M-320.1,493.4v-0.7h0c-0.2,0.2-0.4,0.4-0.7,0.6c-0.3,0.2-0.5,0.2-0.8,0.2c-0.2,0-0.4,0-0.6-0.1
				c-0.2-0.1-0.3-0.1-0.5-0.3s-0.3-0.3-0.3-0.5c-0.1-0.2-0.1-0.4-0.1-0.7v-3.8h0.7v3.8c0,0.3,0.1,0.6,0.2,0.7
				c0.2,0.1,0.4,0.2,0.6,0.2c0.1,0,0.3,0,0.4-0.1c0.1,0,0.3-0.1,0.4-0.2c0.1-0.1,0.3-0.2,0.4-0.3c0.1-0.1,0.2-0.2,0.3-0.3v-3.9h0.7
				v5.2H-320.1z"/>
			<path class="st1" d="M-317.8,488.2h0.7v1h0c0.1-0.2,0.2-0.3,0.3-0.5c0.1-0.1,0.2-0.3,0.4-0.3c0.1-0.1,0.3-0.2,0.5-0.2
				c0.2,0,0.4-0.1,0.6-0.1v0.7c-0.5,0-0.8,0.2-1.1,0.4s-0.5,0.7-0.6,1.2v2.9h-0.7V488.2z"/>
			<path class="st1" d="M-314,493.4v-4.6h-0.9v-0.6h0.9v-0.6c0-0.3,0-0.6,0.1-0.8s0.1-0.4,0.2-0.5c0.1-0.1,0.2-0.2,0.4-0.2
				c0.2,0,0.3-0.1,0.6-0.1c0.1,0,0.2,0,0.3,0c0.1,0,0.2,0,0.3,0v0.6c-0.1,0-0.2,0-0.3,0s-0.2,0-0.3,0c-0.2,0-0.4,0-0.5,0.2
				c-0.1,0.1-0.1,0.3-0.1,0.6v0.8h1.1v0.6h-1.1v4.6H-314z"/>
			<path class="st1" d="M-311.2,489.2c0.2-0.3,0.4-0.6,0.7-0.8c0.3-0.2,0.7-0.3,1.2-0.3c0.2,0,0.4,0,0.6,0.1s0.4,0.1,0.6,0.3
				c0.2,0.1,0.3,0.3,0.4,0.5c0.1,0.2,0.2,0.4,0.2,0.7v2.6c0,0.3,0,0.5,0,0.7c0,0.2,0.1,0.3,0.1,0.4h-0.7l-0.1-0.7
				c-0.2,0.2-0.4,0.4-0.7,0.6c-0.3,0.2-0.6,0.3-1,0.3c-0.2,0-0.4,0-0.6-0.1c-0.2-0.1-0.3-0.1-0.5-0.3s-0.2-0.3-0.3-0.4
				s-0.1-0.4-0.1-0.6c0-0.3,0.1-0.5,0.2-0.8s0.3-0.4,0.6-0.6c0.3-0.2,0.6-0.3,1-0.4c0.4-0.1,0.9-0.2,1.5-0.3v-0.3
				c0-0.3-0.1-0.6-0.3-0.7c-0.2-0.1-0.5-0.2-0.8-0.2c-0.2,0-0.4,0-0.5,0.1c-0.1,0.1-0.3,0.1-0.4,0.2c-0.1,0.1-0.2,0.2-0.3,0.3
				s-0.1,0.2-0.2,0.3L-311.2,489.2z M-308.2,490.6c-1.6,0.3-2.5,0.8-2.5,1.5c0,0.1,0,0.2,0.1,0.3c0.1,0.1,0.1,0.2,0.2,0.3
				c0.1,0.1,0.2,0.1,0.3,0.2c0.1,0,0.2,0.1,0.3,0.1c0.1,0,0.3,0,0.4-0.1c0.1,0,0.3-0.1,0.4-0.2c0.1-0.1,0.3-0.2,0.4-0.3
				s0.2-0.2,0.4-0.3V490.6z"/>
			<path class="st1" d="M-303.1,489.7c-0.1-0.3-0.3-0.6-0.5-0.8c-0.2-0.2-0.5-0.3-0.8-0.3c-0.4,0-0.8,0.2-1,0.5
				c-0.2,0.4-0.4,0.9-0.4,1.5c0,0.7,0.1,1.2,0.4,1.5c0.2,0.4,0.6,0.5,1,0.5c0.2,0,0.3,0,0.4,0c0.1,0,0.3-0.1,0.4-0.2
				s0.2-0.2,0.3-0.3c0.1-0.1,0.2-0.3,0.3-0.5l0.6,0.3c-0.1,0.2-0.3,0.4-0.4,0.6c-0.1,0.2-0.3,0.3-0.4,0.4c-0.2,0.1-0.3,0.2-0.5,0.2
				c-0.2,0.1-0.4,0.1-0.7,0.1c-0.3,0-0.6-0.1-0.9-0.2c-0.3-0.1-0.5-0.3-0.7-0.5c-0.2-0.2-0.3-0.5-0.4-0.8c-0.1-0.3-0.1-0.7-0.1-1.1
				s0.1-0.8,0.1-1.1c0.1-0.3,0.2-0.6,0.4-0.8c0.2-0.2,0.4-0.4,0.7-0.5c0.3-0.1,0.6-0.2,0.9-0.2c0.3,0,0.5,0,0.7,0.1
				c0.2,0.1,0.4,0.2,0.5,0.3c0.1,0.1,0.3,0.3,0.4,0.5c0.1,0.2,0.2,0.4,0.3,0.6L-303.1,489.7z"/>
			<path class="st1" d="M-297.2,492.3c-0.1,0.1-0.2,0.3-0.3,0.4c-0.1,0.1-0.2,0.3-0.4,0.4c-0.2,0.1-0.3,0.2-0.6,0.3
				s-0.5,0.1-0.8,0.1c-0.3,0-0.6-0.1-0.8-0.2c-0.3-0.1-0.5-0.3-0.7-0.5c-0.2-0.2-0.4-0.5-0.5-0.8c-0.1-0.3-0.2-0.7-0.2-1.2
				c0-0.4,0.1-0.8,0.1-1.1c0.1-0.3,0.2-0.6,0.4-0.8s0.4-0.4,0.7-0.5c0.3-0.1,0.6-0.2,0.9-0.2c0.3,0,0.5,0,0.8,0.1
				c0.2,0.1,0.5,0.2,0.6,0.4c0.2,0.2,0.3,0.4,0.4,0.7c0.1,0.3,0.2,0.7,0.2,1.1v0.5h-3.4c0,0.3,0,0.5,0.1,0.8
				c0.1,0.2,0.2,0.4,0.3,0.6c0.1,0.2,0.3,0.3,0.5,0.4c0.2,0.1,0.4,0.1,0.6,0.1c0.3,0,0.6-0.1,0.8-0.2s0.4-0.4,0.6-0.6L-297.2,492.3z
				 M-298,490.3c0-0.5-0.1-0.9-0.3-1.2c-0.2-0.3-0.5-0.4-0.9-0.4c-0.4,0-0.8,0.1-1,0.4c-0.2,0.3-0.4,0.7-0.4,1.2H-298z"/>
			<path class="st1" d="M-296,492c0.2,0.2,0.4,0.4,0.6,0.6c0.2,0.1,0.5,0.2,0.9,0.2c0.4,0,0.7-0.1,0.9-0.3c0.2-0.2,0.3-0.4,0.3-0.6
				s-0.1-0.4-0.2-0.5c-0.2-0.1-0.3-0.2-0.6-0.3c-0.2-0.1-0.5-0.2-0.7-0.2c-0.3-0.1-0.5-0.2-0.7-0.3c-0.2-0.1-0.4-0.3-0.6-0.4
				c-0.1-0.2-0.2-0.4-0.2-0.8c0-0.5,0.2-0.8,0.5-1c0.3-0.2,0.7-0.4,1.2-0.4c0.2,0,0.3,0,0.5,0.1c0.2,0,0.3,0.1,0.5,0.2
				c0.2,0.1,0.3,0.2,0.4,0.3s0.2,0.2,0.3,0.4l-0.5,0.4c-0.2-0.2-0.4-0.4-0.6-0.5s-0.5-0.2-0.7-0.2c-0.3,0-0.5,0.1-0.7,0.2
				c-0.2,0.1-0.2,0.3-0.2,0.6c0,0.2,0.1,0.3,0.2,0.4c0.1,0.1,0.3,0.2,0.6,0.3c0.2,0.1,0.5,0.2,0.7,0.2c0.3,0.1,0.5,0.2,0.7,0.3
				c0.2,0.1,0.4,0.3,0.6,0.5c0.1,0.2,0.2,0.5,0.2,0.8c0,0.3-0.1,0.5-0.1,0.7c-0.1,0.2-0.2,0.3-0.4,0.5c-0.2,0.1-0.4,0.2-0.6,0.3
				s-0.4,0.1-0.7,0.1c-0.4,0-0.8-0.1-1.2-0.3c-0.4-0.2-0.7-0.4-0.9-0.7L-296,492z"/>
			<path class="st1" d="M-290.4,492.3v1.1h-1v-1.1H-290.4z"/>
		</g>
	</g>
	<line class="st2" x1="-378.2" y1="451.3" x2="-224.7" y2="428.8"/>
	<circle class="st1" cx="-378.2" cy="451.3" r="1.1"/>
</g>
</svg>
