<?xml version="1.0" encoding="utf-8"?>
<!-- Generator: Adobe Illustrator 18.1.1, SVG Export Plug-In . SVG Version: 6.00 Build 0)  -->
<svg version="1.1" id="Layer_1" xmlns="http://www.w3.org/2000/svg" xmlns:xlink="http://www.w3.org/1999/xlink" x="0px" y="0px"
	 viewBox="0 0 800 350" enable-background="new 0 0 800 350" xml:space="preserve">
<g id="cushion">
	<line fill="none" stroke="#231F20" stroke-miterlimit="10" x1="593.3" y1="190" x2="545.7" y2="245.5"/>
	<path fill="none" stroke="#231F20" stroke-miterlimit="10" d="M547.5,250.1c0.2,3-2.4,5.4-5.4,5.4c-3,0-5.4-2.4-5.4-5.4
		s2.4-5.4,5.4-5.4C545.1,244.8,547.3,247.3,547.5,250.1z"/>
	<g>
		<path fill="#231F20" d="M609.1,181.1c-0.6,0.2-1.1,0.4-1.6,0.4c-0.6,0-1.1-0.1-1.6-0.4c-0.5-0.2-0.9-0.6-1.3-1s-0.6-1-0.8-1.6
			c-0.2-0.6-0.3-1.4-0.3-2.2c0-0.8,0.1-1.5,0.3-2.1c0.2-0.6,0.5-1.2,0.9-1.6s0.8-0.8,1.4-1.1c0.5-0.3,1.1-0.4,1.8-0.4
			c0.2,0,0.5,0,0.7,0.1c0.2,0,0.4,0.1,0.7,0.2v2.8c-0.4-0.4-0.8-0.6-1.2-0.6c-0.6,0-1,0.2-1.3,0.7c-0.3,0.5-0.4,1.1-0.4,2
			c0,0.8,0.1,1.4,0.4,1.9c0.3,0.5,0.7,0.7,1.3,0.7c0.5,0,0.9-0.2,1.4-0.6L609.1,181.1z"/>
		<path fill="#231F20" d="M617.1,171.3v6.7c0,0.6-0.1,1.1-0.2,1.5s-0.4,0.8-0.7,1.1s-0.7,0.5-1.1,0.7s-0.9,0.2-1.4,0.2
			c-0.5,0-1-0.1-1.4-0.2s-0.8-0.4-1.1-0.7c-0.3-0.3-0.5-0.7-0.7-1.1s-0.3-0.9-0.3-1.5v-6.7h2.7v6.4c0,0.4,0.1,0.8,0.2,0.9
			c0.1,0.2,0.3,0.3,0.5,0.3c0.3,0,0.4-0.1,0.5-0.3s0.1-0.5,0.1-0.9v-6.4H617.1z"/>
		<path fill="#231F20" d="M618.3,177.9c0.5,0.7,1.1,1.1,1.7,1.1c0.2,0,0.4-0.1,0.6-0.2s0.2-0.3,0.2-0.5c0-0.3-0.2-0.5-0.5-0.8
			l-0.4-0.3c-0.6-0.4-1-0.9-1.2-1.3c-0.3-0.4-0.4-0.9-0.4-1.5c0-0.5,0.1-0.9,0.2-1.3c0.2-0.4,0.4-0.7,0.6-1c0.3-0.3,0.6-0.5,1-0.7
			c0.4-0.2,0.8-0.3,1.2-0.3c0.6,0,1.3,0.2,1.9,0.5v3c-0.2-0.3-0.5-0.6-0.7-0.8c-0.3-0.2-0.6-0.3-0.8-0.3c-0.2,0-0.4,0.1-0.5,0.2
			c-0.1,0.1-0.2,0.3-0.2,0.4c0,0.3,0.2,0.5,0.5,0.8l0.4,0.3c0.6,0.4,1,0.8,1.2,1.3s0.4,0.9,0.4,1.5c0,0.5-0.1,0.9-0.2,1.4
			s-0.4,0.8-0.7,1.1c-0.3,0.3-0.6,0.5-1,0.7c-0.4,0.2-0.8,0.3-1.3,0.3c-0.6,0-1.3-0.1-2-0.4V177.9z"/>
		<path fill="#231F20" d="M631.2,181.3h-2.7v-4h-1.3v4h-2.7v-10h2.7v3.5h1.3v-3.5h2.7V181.3z"/>
		<path fill="#231F20" d="M637.3,181.3h-4.7v-10h2.7v7.6h2V181.3z"/>
		<path fill="#231F20" d="M645.4,176.3c0,0.8-0.1,1.5-0.3,2.1c-0.2,0.6-0.4,1.2-0.8,1.6c-0.3,0.5-0.7,0.8-1.2,1.1
			c-0.5,0.2-1,0.4-1.5,0.4c-0.6,0-1.1-0.1-1.6-0.4c-0.5-0.2-0.9-0.6-1.2-1.1c-0.3-0.5-0.6-1-0.8-1.6c-0.2-0.6-0.3-1.3-0.3-2.1
			c0-0.8,0.1-1.5,0.3-2.1c0.2-0.6,0.4-1.2,0.8-1.6c0.3-0.5,0.7-0.8,1.2-1.1c0.5-0.3,1-0.4,1.6-0.4c0.6,0,1.1,0.1,1.5,0.4
			c0.5,0.3,0.9,0.6,1.2,1.1c0.3,0.5,0.6,1,0.8,1.6C645.3,174.8,645.4,175.5,645.4,176.3z M642.6,176.3c0-0.9-0.1-1.5-0.3-2
			s-0.4-0.7-0.7-0.7s-0.6,0.2-0.7,0.7c-0.2,0.5-0.3,1.1-0.3,2s0.1,1.5,0.3,2c0.2,0.5,0.4,0.7,0.7,0.7s0.6-0.2,0.7-0.7
			S642.6,177.1,642.6,176.3z"/>
		<path fill="#231F20" d="M646.6,181.3v-10h2.6l1.4,3.7c0.1,0.2,0.1,0.4,0.2,0.6c0.1,0.2,0.1,0.4,0.2,0.6c0.1,0.2,0.1,0.4,0.2,0.6
			s0.1,0.4,0.1,0.5c-0.1-0.7-0.1-1.4-0.2-2c-0.1-0.6-0.1-1.1-0.1-1.5v-2.5h2.6v10H651l-1.4-3.7c-0.3-0.8-0.5-1.5-0.7-2.1
			c0.1,0.7,0.1,1.3,0.1,1.8c0,0.5,0,1,0,1.4v2.5H646.6z"/>
		<path fill="#231F20" d="M603.7,197.1v-9.6h1.6v8.1h2.6v1.4H603.7z"/>
		<path fill="#231F20" d="M608.8,188.9v-1.3h1.5v1.3H608.8z M608.8,197.1V190h1.5v7.1H608.8z"/>
		<path fill="#231F20" d="M616.7,191.1c0,0-0.1,0-0.1,0s-0.1,0-0.1,0c-0.1,0-0.3,0-0.4,0s-0.2,0.1-0.3,0.2c0.1,0.2,0.1,0.4,0.1,0.6
			c0,0.2,0,0.4,0,0.5c0,0.5,0,1-0.1,1.4c-0.1,0.4-0.2,0.7-0.4,0.9c-0.2,0.2-0.4,0.4-0.7,0.5c-0.3,0.1-0.6,0.1-1,0.1h-0.5
			c-0.1,0-0.1,0.1-0.2,0.1c-0.1,0.1-0.1,0.1-0.1,0.2c0,0.2,0.1,0.3,0.3,0.3c0.2,0,0.4,0.1,0.7,0.1s0.6,0,0.9,0s0.6,0.1,0.9,0.2
			c0.3,0.1,0.5,0.3,0.7,0.5c0.2,0.2,0.3,0.5,0.3,1c0,0.6-0.3,1-0.8,1.3c-0.5,0.3-1.3,0.4-2.2,0.4c-0.7,0-1.3-0.1-1.7-0.3
			s-0.6-0.5-0.6-0.8c0-0.3,0.1-0.5,0.3-0.7c0.2-0.2,0.4-0.3,0.7-0.4v0c-0.2-0.1-0.4-0.2-0.5-0.3s-0.2-0.3-0.2-0.6
			c0-0.1,0-0.2,0.1-0.4c0.1-0.1,0.1-0.2,0.2-0.3c0.1-0.1,0.2-0.2,0.3-0.3c0.1-0.1,0.2-0.2,0.3-0.2c-0.2-0.1-0.3-0.3-0.5-0.4
			c-0.1-0.1-0.2-0.3-0.3-0.5c-0.1-0.2-0.1-0.4-0.2-0.7c0-0.3,0-0.6,0-1c0-0.5,0-0.9,0.1-1.2c0.1-0.3,0.2-0.6,0.4-0.8
			c0.2-0.2,0.4-0.4,0.7-0.4c0.3-0.1,0.6-0.1,1.1-0.1c0.3,0,0.6,0.1,0.9,0.2s0.5,0.3,0.8,0.6c0.1-0.1,0.2-0.3,0.3-0.4
			c0.1-0.1,0.2-0.2,0.3-0.2c0.1-0.1,0.2-0.1,0.3-0.1s0.2,0,0.4,0V191.1z M614.1,198.3c0.5,0,0.8,0,1-0.1s0.3-0.2,0.3-0.4
			s-0.1-0.3-0.3-0.4c-0.2-0.1-0.5-0.1-1-0.1c-0.5,0-0.8,0-1,0.1c-0.2,0.1-0.3,0.2-0.3,0.4s0.1,0.3,0.3,0.4S613.6,198.3,614.1,198.3z
			 M613.7,194.1c0.1,0,0.3,0,0.4-0.1c0.1,0,0.2-0.1,0.2-0.2c0.1-0.1,0.1-0.3,0.1-0.5c0-0.2,0-0.4,0-0.7s0-0.5,0-0.7
			c0-0.2-0.1-0.3-0.1-0.5c-0.1-0.1-0.1-0.2-0.2-0.2c-0.1,0-0.2-0.1-0.4-0.1c-0.1,0-0.2,0-0.3,0.1c-0.1,0-0.2,0.1-0.2,0.2
			c-0.1,0.1-0.1,0.3-0.1,0.5c0,0.2,0,0.4,0,0.7s0,0.5,0,0.7c0,0.2,0.1,0.3,0.1,0.5c0.1,0.1,0.1,0.2,0.2,0.2
			C613.4,194.1,613.5,194.1,613.7,194.1z"/>
		<path fill="#231F20" d="M617.6,197.1v-9.6h1.5v3.1c0.1-0.1,0.3-0.2,0.4-0.3c0.1-0.1,0.2-0.2,0.4-0.3c0.1-0.1,0.3-0.1,0.4-0.2
			c0.2,0,0.3-0.1,0.6-0.1c0.4,0,0.7,0.1,0.9,0.4s0.3,0.6,0.3,1.1v5.8h-1.5v-5.5c0-0.2,0-0.3-0.1-0.4c-0.1-0.1-0.2-0.1-0.4-0.1
			s-0.3,0-0.5,0.1c-0.1,0.1-0.3,0.2-0.5,0.3v5.6H617.6z"/>
		<path fill="#231F20" d="M622.9,191.2V190h0.8v-1.9h1.5v1.9h1v1.2h-1v4.1c0,0.4,0.2,0.6,0.5,0.6h0.5v1.3c-0.1,0-0.2,0-0.3,0.1
			c-0.1,0-0.3,0-0.4,0c-0.6,0-1-0.1-1.3-0.4c-0.3-0.3-0.4-0.7-0.4-1.2v-4.4H622.9z"/>
		<path fill="#231F20" d="M629.6,190h1.1l0.8,4.4h0l0.8-4.4h1.4l-1.6,7.1h-1.2l-0.8-4.5h0l-1,4.5h-1.2l-1.4-7.1h1.4l0.6,4.4h0
			L629.6,190z"/>
		<path fill="#231F20" d="M639.1,193.9h-3.1v1c0,0.4,0.1,0.7,0.2,0.9s0.3,0.3,0.6,0.3s0.5-0.1,0.6-0.3s0.2-0.5,0.2-0.9v-0.2h1.5
			c0,0.4-0.1,0.7-0.1,1c-0.1,0.3-0.2,0.6-0.4,0.8c-0.2,0.2-0.4,0.4-0.7,0.5s-0.6,0.2-1.1,0.2c-0.4,0-0.8-0.1-1.1-0.2
			c-0.3-0.1-0.5-0.3-0.7-0.5c-0.2-0.2-0.3-0.5-0.4-0.8c-0.1-0.3-0.1-0.7-0.1-1.1v-2.1c0-0.4,0-0.7,0.1-1.1c0.1-0.3,0.2-0.6,0.4-0.8
			c0.2-0.2,0.4-0.4,0.7-0.5c0.3-0.1,0.6-0.2,1.1-0.2s0.8,0.1,1.1,0.2c0.3,0.1,0.5,0.3,0.7,0.5c0.2,0.2,0.3,0.5,0.4,0.8
			c0.1,0.3,0.1,0.7,0.1,1.1V193.9z M637.6,192.6v-0.4c0-0.4-0.1-0.7-0.2-0.9s-0.3-0.3-0.6-0.3s-0.5,0.1-0.6,0.3s-0.2,0.5-0.2,0.9
			v0.4H637.6z"/>
		<path fill="#231F20" d="M640.4,188.9v-1.3h1.5v1.3H640.4z M640.4,197.1V190h1.5v7.1H640.4z"/>
		<path fill="#231F20" d="M648.3,191.1c0,0-0.1,0-0.1,0s-0.1,0-0.1,0c-0.1,0-0.3,0-0.4,0s-0.2,0.1-0.3,0.2c0.1,0.2,0.1,0.4,0.1,0.6
			c0,0.2,0,0.4,0,0.5c0,0.5,0,1-0.1,1.4c-0.1,0.4-0.2,0.7-0.4,0.9c-0.2,0.2-0.4,0.4-0.7,0.5c-0.3,0.1-0.6,0.1-1,0.1h-0.5
			c-0.1,0-0.1,0.1-0.2,0.1c-0.1,0.1-0.1,0.1-0.1,0.2c0,0.2,0.1,0.3,0.3,0.3c0.2,0,0.4,0.1,0.7,0.1s0.6,0,0.9,0s0.6,0.1,0.9,0.2
			c0.3,0.1,0.5,0.3,0.7,0.5c0.2,0.2,0.3,0.5,0.3,1c0,0.6-0.3,1-0.8,1.3c-0.5,0.3-1.3,0.4-2.2,0.4c-0.7,0-1.3-0.1-1.7-0.3
			s-0.6-0.5-0.6-0.8c0-0.3,0.1-0.5,0.3-0.7c0.2-0.2,0.4-0.3,0.7-0.4v0c-0.2-0.1-0.4-0.2-0.5-0.3s-0.2-0.3-0.2-0.6
			c0-0.1,0-0.2,0.1-0.4c0.1-0.1,0.1-0.2,0.2-0.3c0.1-0.1,0.2-0.2,0.3-0.3c0.1-0.1,0.2-0.2,0.3-0.2c-0.2-0.1-0.3-0.3-0.5-0.4
			c-0.1-0.1-0.2-0.3-0.3-0.5c-0.1-0.2-0.1-0.4-0.2-0.7c0-0.3,0-0.6,0-1c0-0.5,0-0.9,0.1-1.2c0.1-0.3,0.2-0.6,0.4-0.8
			c0.2-0.2,0.4-0.4,0.7-0.4c0.3-0.1,0.6-0.1,1.1-0.1c0.3,0,0.6,0.1,0.9,0.2s0.5,0.3,0.8,0.6c0.1-0.1,0.2-0.3,0.3-0.4
			c0.1-0.1,0.2-0.2,0.3-0.2c0.1-0.1,0.2-0.1,0.3-0.1s0.2,0,0.4,0V191.1z M645.7,198.3c0.5,0,0.8,0,1-0.1s0.3-0.2,0.3-0.4
			s-0.1-0.3-0.3-0.4c-0.2-0.1-0.5-0.1-1-0.1c-0.5,0-0.8,0-1,0.1c-0.2,0.1-0.3,0.2-0.3,0.4s0.1,0.3,0.3,0.4S645.2,198.3,645.7,198.3z
			 M645.2,194.1c0.1,0,0.3,0,0.4-0.1c0.1,0,0.2-0.1,0.2-0.2c0.1-0.1,0.1-0.3,0.1-0.5c0-0.2,0-0.4,0-0.7s0-0.5,0-0.7
			c0-0.2-0.1-0.3-0.1-0.5c-0.1-0.1-0.1-0.2-0.2-0.2c-0.1,0-0.2-0.1-0.4-0.1c-0.1,0-0.2,0-0.3,0.1c-0.1,0-0.2,0.1-0.2,0.2
			c-0.1,0.1-0.1,0.3-0.1,0.5c0,0.2,0,0.4,0,0.7s0,0.5,0,0.7c0,0.2,0.1,0.3,0.1,0.5c0.1,0.1,0.1,0.2,0.2,0.2
			C645,194.1,645.1,194.1,645.2,194.1z"/>
		<path fill="#231F20" d="M649.2,197.1v-9.6h1.5v3.1c0.1-0.1,0.3-0.2,0.4-0.3c0.1-0.1,0.2-0.2,0.4-0.3c0.1-0.1,0.3-0.1,0.4-0.2
			c0.2,0,0.3-0.1,0.6-0.1c0.4,0,0.7,0.1,0.9,0.4s0.3,0.6,0.3,1.1v5.8h-1.5v-5.5c0-0.2,0-0.3-0.1-0.4c-0.1-0.1-0.2-0.1-0.4-0.1
			s-0.3,0-0.5,0.1c-0.1,0.1-0.3,0.2-0.5,0.3v5.6H649.2z"/>
		<path fill="#231F20" d="M654.5,191.2V190h0.8v-1.9h1.5v1.9h1v1.2h-1v4.1c0,0.4,0.2,0.6,0.5,0.6h0.5v1.3c-0.1,0-0.2,0-0.3,0.1
			c-0.1,0-0.3,0-0.4,0c-0.6,0-1-0.1-1.3-0.4c-0.3-0.3-0.4-0.7-0.4-1.2v-4.4H654.5z"/>
		<path fill="#231F20" d="M660.3,197.1l-0.9,1.6h-0.7l0.6-1.6h-0.6v-1.6h1.6V197.1z"/>
		<path fill="#231F20" d="M664.6,197.1V190h1.4v0.8h0c0.2-0.3,0.4-0.5,0.7-0.7c0.3-0.2,0.6-0.3,1-0.3h0.3v1.5
			c-0.1,0-0.3-0.1-0.4-0.1c-0.1,0-0.3,0-0.5,0c-0.3,0-0.5,0.1-0.7,0.2c-0.2,0.2-0.3,0.4-0.3,0.7v4.9H664.6z"/>
		<path fill="#231F20" d="M673.6,193.9h-3.1v1c0,0.4,0.1,0.7,0.2,0.9s0.3,0.3,0.6,0.3s0.5-0.1,0.6-0.3s0.2-0.5,0.2-0.9v-0.2h1.5
			c0,0.4-0.1,0.7-0.1,1c-0.1,0.3-0.2,0.6-0.4,0.8c-0.2,0.2-0.4,0.4-0.7,0.5s-0.6,0.2-1.1,0.2c-0.4,0-0.8-0.1-1.1-0.2
			c-0.3-0.1-0.5-0.3-0.7-0.5c-0.2-0.2-0.3-0.5-0.4-0.8c-0.1-0.3-0.1-0.7-0.1-1.1v-2.1c0-0.4,0-0.7,0.1-1.1c0.1-0.3,0.2-0.6,0.4-0.8
			c0.2-0.2,0.4-0.4,0.7-0.5c0.3-0.1,0.6-0.2,1.1-0.2s0.8,0.1,1.1,0.2c0.3,0.1,0.5,0.3,0.7,0.5c0.2,0.2,0.3,0.5,0.4,0.8
			c0.1,0.3,0.1,0.7,0.1,1.1V193.9z M672.1,192.6v-0.4c0-0.4-0.1-0.7-0.2-0.9s-0.3-0.3-0.6-0.3s-0.5,0.1-0.6,0.3s-0.2,0.5-0.2,0.9
			v0.4H672.1z"/>
		<path fill="#231F20" d="M677.6,192c-0.1-0.6-0.4-0.9-0.8-0.9c-0.2,0-0.4,0-0.5,0.1c-0.1,0.1-0.2,0.2-0.2,0.4
			c0,0.2,0.1,0.4,0.2,0.5c0.1,0.2,0.3,0.3,0.5,0.5c0.2,0.2,0.4,0.3,0.7,0.5s0.5,0.4,0.7,0.6c0.2,0.2,0.4,0.4,0.5,0.7
			c0.1,0.3,0.2,0.6,0.2,0.9c0,0.3-0.1,0.6-0.2,0.8c-0.1,0.2-0.2,0.4-0.4,0.6c-0.2,0.2-0.4,0.3-0.7,0.4c-0.3,0.1-0.5,0.1-0.8,0.1
			c-0.7,0-1.2-0.2-1.5-0.5c-0.4-0.3-0.6-0.8-0.7-1.5l1.3-0.4c0,0.3,0.1,0.6,0.3,0.8c0.1,0.2,0.4,0.3,0.7,0.3c0.2,0,0.4-0.1,0.5-0.2
			c0.1-0.1,0.2-0.3,0.2-0.5c0-0.2-0.1-0.4-0.2-0.6c-0.1-0.2-0.3-0.3-0.5-0.5c-0.2-0.2-0.4-0.3-0.7-0.5s-0.5-0.4-0.7-0.6
			c-0.2-0.2-0.4-0.4-0.5-0.7c-0.1-0.2-0.2-0.5-0.2-0.9c0-0.3,0.1-0.5,0.2-0.8c0.1-0.2,0.2-0.4,0.4-0.6c0.2-0.2,0.4-0.3,0.6-0.4
			c0.2-0.1,0.5-0.1,0.8-0.1c0.6,0,1.1,0.2,1.4,0.5c0.4,0.4,0.6,0.8,0.7,1.4L677.6,192z"/>
		<path fill="#231F20" d="M681.5,190v0.7h0c0.2-0.3,0.5-0.5,0.7-0.7c0.2-0.1,0.5-0.2,0.9-0.2c0.5,0,0.8,0.2,1.1,0.5
			c0.3,0.3,0.4,0.8,0.4,1.5v3.4c0,0.7-0.1,1.1-0.4,1.5c-0.3,0.3-0.6,0.5-1.1,0.5c-0.2,0-0.3,0-0.4,0c-0.1,0-0.2-0.1-0.4-0.1
			c-0.1-0.1-0.2-0.1-0.4-0.2c-0.1-0.1-0.2-0.2-0.4-0.3v2.9h-1.5V190H681.5z M681.6,195.7c0.1,0.1,0.3,0.2,0.4,0.3
			c0.1,0.1,0.3,0.1,0.4,0.1c0.1,0,0.2,0,0.3,0c0.1,0,0.2-0.1,0.2-0.2c0.1-0.1,0.1-0.2,0.2-0.4s0.1-0.3,0.1-0.6v-2.6
			c0-0.2,0-0.4-0.1-0.6s-0.1-0.3-0.2-0.4c-0.1-0.1-0.1-0.1-0.2-0.2c-0.1,0-0.2,0-0.3,0c-0.1,0-0.3,0-0.4,0.1
			c-0.1,0.1-0.3,0.2-0.4,0.3V195.7z"/>
		<path fill="#231F20" d="M685.9,192.5c0-0.4,0-0.7,0.1-1.1c0.1-0.3,0.2-0.6,0.4-0.8c0.2-0.2,0.4-0.4,0.7-0.5
			c0.3-0.1,0.6-0.2,1.1-0.2s0.8,0.1,1.1,0.2c0.3,0.1,0.5,0.3,0.7,0.5c0.2,0.2,0.3,0.5,0.4,0.8c0.1,0.3,0.1,0.7,0.1,1.1v2.1
			c0,0.4,0,0.7-0.1,1.1c-0.1,0.3-0.2,0.6-0.4,0.8c-0.2,0.2-0.4,0.4-0.7,0.5c-0.3,0.1-0.6,0.2-1.1,0.2s-0.8-0.1-1.1-0.2
			c-0.3-0.1-0.5-0.3-0.7-0.5c-0.2-0.2-0.3-0.5-0.4-0.8c-0.1-0.3-0.1-0.7-0.1-1.1V192.5z M689,192.3c0-0.4-0.1-0.7-0.2-0.9
			c-0.1-0.2-0.3-0.3-0.6-0.3s-0.5,0.1-0.6,0.3s-0.2,0.5-0.2,0.9v2.6c0,0.4,0.1,0.7,0.2,0.9s0.3,0.3,0.6,0.3s0.5-0.1,0.6-0.3
			c0.1-0.2,0.2-0.5,0.2-0.9V192.3z"/>
		<path fill="#231F20" d="M691.8,197.1V190h1.4v0.7c0.2-0.1,0.3-0.3,0.4-0.4s0.3-0.2,0.4-0.3c0.1-0.1,0.3-0.1,0.4-0.2
			c0.2,0,0.3-0.1,0.6-0.1c0.4,0,0.7,0.1,0.9,0.4c0.2,0.3,0.3,0.6,0.3,1.1v5.8h-1.5v-5.5c0-0.2,0-0.3-0.1-0.4
			c-0.1-0.1-0.2-0.1-0.4-0.1s-0.3,0-0.5,0.1c-0.1,0.1-0.3,0.2-0.5,0.3v5.6H691.8z"/>
		<path fill="#231F20" d="M700.4,192c-0.1-0.6-0.4-0.9-0.8-0.9c-0.2,0-0.4,0-0.5,0.1c-0.1,0.1-0.2,0.2-0.2,0.4
			c0,0.2,0.1,0.4,0.2,0.5c0.1,0.2,0.3,0.3,0.5,0.5c0.2,0.2,0.4,0.3,0.7,0.5s0.5,0.4,0.7,0.6c0.2,0.2,0.4,0.4,0.5,0.7
			c0.1,0.3,0.2,0.6,0.2,0.9c0,0.3-0.1,0.6-0.2,0.8c-0.1,0.2-0.2,0.4-0.4,0.6c-0.2,0.2-0.4,0.3-0.7,0.4c-0.3,0.1-0.5,0.1-0.8,0.1
			c-0.7,0-1.2-0.2-1.5-0.5c-0.4-0.3-0.6-0.8-0.7-1.5l1.3-0.4c0,0.3,0.1,0.6,0.3,0.8c0.1,0.2,0.4,0.3,0.7,0.3c0.2,0,0.4-0.1,0.5-0.2
			c0.1-0.1,0.2-0.3,0.2-0.5c0-0.2-0.1-0.4-0.2-0.6c-0.1-0.2-0.3-0.3-0.5-0.5c-0.2-0.2-0.4-0.3-0.7-0.5s-0.5-0.4-0.7-0.6
			c-0.2-0.2-0.4-0.4-0.5-0.7c-0.1-0.2-0.2-0.5-0.2-0.9c0-0.3,0.1-0.5,0.2-0.8c0.1-0.2,0.2-0.4,0.4-0.6c0.2-0.2,0.4-0.3,0.6-0.4
			c0.2-0.1,0.5-0.1,0.8-0.1c0.6,0,1.1,0.2,1.4,0.5c0.4,0.4,0.6,0.8,0.7,1.4L700.4,192z"/>
		<path fill="#231F20" d="M702.8,188.9v-1.3h1.5v1.3H702.8z M702.8,197.1V190h1.5v7.1H702.8z"/>
		<path fill="#231F20" d="M708.6,190h1.5l-1.7,7.1h-1.4l-1.7-7.1h1.5l0.9,4.8h0L708.6,190z"/>
		<path fill="#231F20" d="M715.4,193.9h-3.1v1c0,0.4,0.1,0.7,0.2,0.9s0.3,0.3,0.6,0.3s0.5-0.1,0.6-0.3s0.2-0.5,0.2-0.9v-0.2h1.5
			c0,0.4-0.1,0.7-0.1,1c-0.1,0.3-0.2,0.6-0.4,0.8c-0.2,0.2-0.4,0.4-0.7,0.5s-0.6,0.2-1.1,0.2c-0.4,0-0.8-0.1-1.1-0.2
			c-0.3-0.1-0.5-0.3-0.7-0.5c-0.2-0.2-0.3-0.5-0.4-0.8c-0.1-0.3-0.1-0.7-0.1-1.1v-2.1c0-0.4,0-0.7,0.1-1.1c0.1-0.3,0.2-0.6,0.4-0.8
			c0.2-0.2,0.4-0.4,0.7-0.5c0.3-0.1,0.6-0.2,1.1-0.2s0.8,0.1,1.1,0.2c0.3,0.1,0.5,0.3,0.7,0.5c0.2,0.2,0.3,0.5,0.4,0.8
			c0.1,0.3,0.1,0.7,0.1,1.1V193.9z M714,192.6v-0.4c0-0.4-0.1-0.7-0.2-0.9s-0.3-0.3-0.6-0.3s-0.5,0.1-0.6,0.3s-0.2,0.5-0.2,0.9v0.4
			H714z"/>
		<path fill="#231F20" d="M722.8,192.4v-0.2c0-0.4-0.1-0.7-0.2-0.9c-0.1-0.2-0.3-0.3-0.6-0.3s-0.5,0.1-0.6,0.3s-0.2,0.5-0.2,0.9v2.6
			c0,0.4,0.1,0.7,0.2,0.9s0.3,0.3,0.6,0.3s0.5-0.1,0.6-0.3c0.1-0.2,0.2-0.5,0.2-0.9v-0.4h1.5v0.2c0,0.4,0,0.7-0.1,1.1
			c-0.1,0.3-0.2,0.6-0.4,0.8c-0.2,0.2-0.4,0.4-0.7,0.5c-0.3,0.1-0.6,0.2-1.1,0.2s-0.8-0.1-1.1-0.2c-0.3-0.1-0.5-0.3-0.7-0.5
			c-0.2-0.2-0.3-0.5-0.4-0.8c-0.1-0.3-0.1-0.7-0.1-1.1v-2.1c0-0.4,0-0.7,0.1-1.1c0.1-0.3,0.2-0.6,0.4-0.8c0.2-0.2,0.4-0.4,0.7-0.5
			c0.3-0.1,0.6-0.2,1.1-0.2c0.4,0,0.8,0.1,1.1,0.2s0.5,0.3,0.7,0.5s0.3,0.5,0.4,0.8c0.1,0.3,0.1,0.7,0.1,1H722.8z"/>
		<path fill="#231F20" d="M730,190v7.1h-1.4v-0.7c-0.2,0.1-0.3,0.3-0.4,0.4c-0.1,0.1-0.3,0.2-0.4,0.3c-0.1,0.1-0.3,0.1-0.4,0.2
			c-0.2,0-0.3,0.1-0.6,0.1c-0.4,0-0.7-0.1-0.9-0.4c-0.2-0.3-0.3-0.6-0.3-1.1V190h1.5v5.5c0,0.2,0,0.3,0.1,0.4
			c0.1,0.1,0.2,0.1,0.4,0.1s0.3,0,0.5-0.1c0.1-0.1,0.3-0.2,0.5-0.3V190H730z"/>
		<path fill="#231F20" d="M734.2,192c-0.1-0.6-0.4-0.9-0.8-0.9c-0.2,0-0.4,0-0.5,0.1c-0.1,0.1-0.2,0.2-0.2,0.4
			c0,0.2,0.1,0.4,0.2,0.5c0.1,0.2,0.3,0.3,0.5,0.5c0.2,0.2,0.4,0.3,0.7,0.5s0.5,0.4,0.7,0.6c0.2,0.2,0.4,0.4,0.5,0.7
			c0.1,0.3,0.2,0.6,0.2,0.9c0,0.3-0.1,0.6-0.2,0.8c-0.1,0.2-0.2,0.4-0.4,0.6c-0.2,0.2-0.4,0.3-0.7,0.4c-0.3,0.1-0.5,0.1-0.8,0.1
			c-0.7,0-1.2-0.2-1.5-0.5c-0.4-0.3-0.6-0.8-0.7-1.5l1.3-0.4c0,0.3,0.1,0.6,0.3,0.8c0.1,0.2,0.4,0.3,0.7,0.3c0.2,0,0.4-0.1,0.5-0.2
			c0.1-0.1,0.2-0.3,0.2-0.5c0-0.2-0.1-0.4-0.2-0.6c-0.1-0.2-0.3-0.3-0.5-0.5c-0.2-0.2-0.4-0.3-0.7-0.5s-0.5-0.4-0.7-0.6
			c-0.2-0.2-0.4-0.4-0.5-0.7c-0.1-0.2-0.2-0.5-0.2-0.9c0-0.3,0.1-0.5,0.2-0.8c0.1-0.2,0.2-0.4,0.4-0.6c0.2-0.2,0.4-0.3,0.6-0.4
			c0.2-0.1,0.5-0.1,0.8-0.1c0.6,0,1.1,0.2,1.4,0.5c0.4,0.4,0.6,0.8,0.7,1.4L734.2,192z"/>
		<path fill="#231F20" d="M736.6,197.1v-9.6h1.5v3.1c0.1-0.1,0.3-0.2,0.4-0.3c0.1-0.1,0.2-0.2,0.4-0.3c0.1-0.1,0.3-0.1,0.4-0.2
			c0.2,0,0.3-0.1,0.6-0.1c0.4,0,0.7,0.1,0.9,0.4c0.2,0.3,0.3,0.6,0.3,1.1v5.8h-1.5v-5.5c0-0.2,0-0.3-0.1-0.4
			c-0.1-0.1-0.2-0.1-0.4-0.1s-0.3,0-0.5,0.1c-0.1,0.1-0.3,0.2-0.5,0.3v5.6H736.6z"/>
		<path fill="#231F20" d="M742.5,188.9v-1.3h1.5v1.3H742.5z M742.5,197.1V190h1.5v7.1H742.5z"/>
		<path fill="#231F20" d="M745.4,192.5c0-0.4,0-0.7,0.1-1.1c0.1-0.3,0.2-0.6,0.4-0.8c0.2-0.2,0.4-0.4,0.7-0.5
			c0.3-0.1,0.6-0.2,1.1-0.2s0.8,0.1,1.1,0.2c0.3,0.1,0.5,0.3,0.7,0.5c0.2,0.2,0.3,0.5,0.4,0.8c0.1,0.3,0.1,0.7,0.1,1.1v2.1
			c0,0.4,0,0.7-0.1,1.1c-0.1,0.3-0.2,0.6-0.4,0.8c-0.2,0.2-0.4,0.4-0.7,0.5c-0.3,0.1-0.6,0.2-1.1,0.2s-0.8-0.1-1.1-0.2
			c-0.3-0.1-0.5-0.3-0.7-0.5c-0.2-0.2-0.3-0.5-0.4-0.8c-0.1-0.3-0.1-0.7-0.1-1.1V192.5z M748.5,192.3c0-0.4-0.1-0.7-0.2-0.9
			s-0.3-0.3-0.6-0.3s-0.5,0.1-0.6,0.3s-0.2,0.5-0.2,0.9v2.6c0,0.4,0.1,0.7,0.2,0.9s0.3,0.3,0.6,0.3s0.5-0.1,0.6-0.3s0.2-0.5,0.2-0.9
			V192.3z"/>
		<path fill="#231F20" d="M751.3,197.1V190h1.4v0.7c0.2-0.1,0.3-0.3,0.4-0.4s0.3-0.2,0.4-0.3c0.1-0.1,0.3-0.1,0.4-0.2
			c0.2,0,0.3-0.1,0.6-0.1c0.4,0,0.7,0.1,0.9,0.4s0.3,0.6,0.3,1.1v5.8h-1.5v-5.5c0-0.2,0-0.3-0.1-0.4c-0.1-0.1-0.2-0.1-0.4-0.1
			s-0.3,0-0.5,0.1c-0.1,0.1-0.3,0.2-0.5,0.3v5.6H751.3z"/>
		<path fill="#231F20" d="M757.2,188.9v-1.3h1.5v1.3H757.2z M757.2,197.1V190h1.5v7.1H757.2z"/>
		<path fill="#231F20" d="M760.1,197.1V190h1.4v0.7c0.2-0.1,0.3-0.3,0.4-0.4s0.3-0.2,0.4-0.3c0.1-0.1,0.3-0.1,0.4-0.2
			c0.2,0,0.3-0.1,0.6-0.1c0.4,0,0.7,0.1,0.9,0.4c0.2,0.3,0.3,0.6,0.3,1.1v5.8h-1.5v-5.5c0-0.2,0-0.3-0.1-0.4
			c-0.1-0.1-0.2-0.1-0.4-0.1s-0.3,0-0.5,0.1c-0.1,0.1-0.3,0.2-0.5,0.3v5.6H760.1z"/>
		<path fill="#231F20" d="M770.9,191.1c0,0-0.1,0-0.1,0c0,0-0.1,0-0.1,0c-0.1,0-0.3,0-0.4,0c-0.1,0-0.2,0.1-0.3,0.2
			c0.1,0.2,0.1,0.4,0.1,0.6c0,0.2,0,0.4,0,0.5c0,0.5,0,1-0.1,1.4c-0.1,0.4-0.2,0.7-0.4,0.9c-0.2,0.2-0.4,0.4-0.7,0.5
			c-0.3,0.1-0.6,0.1-1,0.1h-0.5c-0.1,0-0.1,0.1-0.2,0.1c-0.1,0.1-0.1,0.1-0.1,0.2c0,0.2,0.1,0.3,0.3,0.3c0.2,0,0.4,0.1,0.7,0.1
			s0.6,0,0.9,0c0.3,0,0.6,0.1,0.9,0.2c0.3,0.1,0.5,0.3,0.7,0.5c0.2,0.2,0.3,0.5,0.3,1c0,0.6-0.3,1-0.8,1.3s-1.3,0.4-2.2,0.4
			c-0.8,0-1.3-0.1-1.7-0.3s-0.6-0.5-0.6-0.8c0-0.3,0.1-0.5,0.3-0.7c0.2-0.2,0.4-0.3,0.7-0.4v0c-0.2-0.1-0.4-0.2-0.5-0.3
			s-0.2-0.3-0.2-0.6c0-0.1,0-0.2,0.1-0.4c0.1-0.1,0.1-0.2,0.2-0.3s0.2-0.2,0.3-0.3c0.1-0.1,0.2-0.2,0.3-0.2
			c-0.2-0.1-0.3-0.3-0.5-0.4s-0.2-0.3-0.3-0.5c-0.1-0.2-0.1-0.4-0.2-0.7c0-0.3,0-0.6,0-1c0-0.5,0-0.9,0.1-1.2
			c0.1-0.3,0.2-0.6,0.4-0.8c0.2-0.2,0.4-0.4,0.7-0.4c0.3-0.1,0.6-0.1,1.1-0.1c0.3,0,0.6,0.1,0.9,0.2s0.5,0.3,0.8,0.6
			c0.1-0.1,0.2-0.3,0.3-0.4s0.2-0.2,0.3-0.2c0.1-0.1,0.2-0.1,0.3-0.1c0.1,0,0.2,0,0.4,0V191.1z M768.3,198.3c0.5,0,0.8,0,1-0.1
			c0.2-0.1,0.3-0.2,0.3-0.4s-0.1-0.3-0.3-0.4c-0.2-0.1-0.5-0.1-1-0.1c-0.5,0-0.8,0-1,0.1c-0.2,0.1-0.3,0.2-0.3,0.4s0.1,0.3,0.3,0.4
			C767.5,198.3,767.8,198.3,768.3,198.3z M767.9,194.1c0.1,0,0.3,0,0.4-0.1c0.1,0,0.2-0.1,0.2-0.2c0.1-0.1,0.1-0.3,0.1-0.5
			c0-0.2,0-0.4,0-0.7s0-0.5,0-0.7c0-0.2-0.1-0.3-0.1-0.5c-0.1-0.1-0.1-0.2-0.2-0.2c-0.1,0-0.2-0.1-0.4-0.1c-0.1,0-0.2,0-0.3,0.1
			c-0.1,0-0.2,0.1-0.2,0.2c-0.1,0.1-0.1,0.3-0.1,0.5c0,0.2,0,0.4,0,0.7s0,0.5,0,0.7c0,0.2,0.1,0.3,0.1,0.5c0.1,0.1,0.1,0.2,0.2,0.2
			C767.7,194.1,767.8,194.1,767.9,194.1z"/>
		<path fill="#231F20" d="M771.8,197.1v-1.6h1.6v1.6H771.8z"/>
	</g>
</g>
</svg>
