<?xml version="1.0" encoding="utf-8"?>
<!-- Generator: Adobe Illustrator 18.1.1, SVG Export Plug-In . SVG Version: 6.00 Build 0)  -->
<svg version="1.1" id="Layer_1" xmlns="http://www.w3.org/2000/svg" xmlns:xlink="http://www.w3.org/1999/xlink" x="0px" y="0px"
	 viewBox="0 0 800 350" enable-background="new 0 0 800 350" xml:space="preserve">
<g>
	<path d="M704.3,46.8c-0.6,0-1.1,0.4-1.1,1.1c0,0.6,0.5,1.1,1.1,1.1s1.1-0.4,1.1-1.1C705.4,47.3,704.9,46.8,704.3,46.8z M704.3,48.7
		c-0.5,0-0.8-0.3-0.8-0.8c0-0.4,0.3-0.8,0.8-0.8c0.5,0,0.8,0.3,0.8,0.8C705.1,48.4,704.7,48.7,704.3,48.7z"/>
	<polygon points="715.3,43 709.8,43 710.4,33.4 706.8,43 701.7,43 709.8,21.3 715.3,21.3 714.7,31 718.3,21.3 723.4,21.3 	"/>
	<polygon points="716,43 724.1,21.3 729.2,21.3 721.1,43 	"/>
	<path d="M701.1,35.5c-7.2,8.4-13.9,19.6-8,24.8c5.8,5,13,2,17.9,0.1c4.9-2,59.4-25.6,59.4-25.6c0.5-0.3,0.4-0.6-0.2-0.4
		C770,34.4,711,50.4,711,50.4C703.5,52.5,694.9,47.9,701.1,35.5z"/>
	<path d="M704.5,48c0.2,0,0.3-0.1,0.3-0.3c0-0.3-0.2-0.4-0.5-0.4h-0.4v1.2h0.3V48h0.1l0.3,0.5h0.3L704.5,48z M704.3,47.8h-0.2v-0.3
		h0.1c0.1,0,0.2,0,0.2,0.1C704.4,47.8,704.4,47.8,704.3,47.8z"/>
	<path d="M755.8,21.2c-0.6,0-1.1,0.4-1.1,1.1c0,0.6,0.5,1.1,1.1,1.1s1.1-0.4,1.1-1.1C756.9,21.7,756.4,21.2,755.8,21.2z M755.8,23.1
		c-0.5,0-0.8-0.3-0.8-0.8c0-0.4,0.3-0.8,0.8-0.8c0.5,0,0.8,0.3,0.8,0.8C756.6,22.8,756.2,23.1,755.8,23.1z"/>
	<path d="M756,22.4c0.2,0,0.3-0.1,0.3-0.3c0-0.3-0.2-0.4-0.5-0.4h-0.4v1.2h0.3v-0.5h0.1l0.3,0.5h0.3L756,22.4z M755.8,22.2h-0.2V22
		h0.1c0.1,0,0.2,0,0.2,0.1C756,22.2,755.9,22.2,755.8,22.2z"/>
	<path d="M752.4,24.9l1.4-3.6h-10.3h0h-5.3l-5.4,6.5l2.5-6.5h-5.2L722,43h5.1l3.4-9.1l0.2,9.1l15.7,0l1.5-4.2h-6l2-5.3h4.9l1.5-4
		h-4.9l1.7-4.6H752.4z M735.9,41.6l-0.3-11.3l7.8-8.5L735.9,41.6z"/>
</g>
</svg>
