<?xml version="1.0" encoding="utf-8"?>
<!-- Generator: Adobe Illustrator 19.1.0, SVG Export Plug-In . SVG Version: 6.00 Build 0)  -->
<svg version="1.1" id="Layer_1" xmlns="http://www.w3.org/2000/svg" xmlns:xlink="http://www.w3.org/1999/xlink" x="0px" y="0px"
	 viewBox="0 0 1600 700" style="enable-background:new 0 0 1600 700;" xml:space="preserve">
<style type="text/css">
	.st0{fill:#FFFFFF;}
</style>
<g>
	<g>
		<g>
			<path class="st0" d="M12.8,65.6l5.8-47.1h12L34.7,35c0.5,2,1.1,4.5,1.7,7.7l0.8,4.2c0-4,0.1-7.4,0.2-10.3
				c0.1-2.9,0.3-5.4,0.6-7.5l1.3-10.6h12l-5.8,47.1h-12l-4.2-17.3c-0.5-1.8-0.8-3.5-1.2-5.1s-0.6-3.2-0.8-4.8c0,2.1-0.1,4.4-0.2,6.9
				c-0.2,2.5-0.4,5.2-0.8,8.2l-1.5,12L12.8,65.6L12.8,65.6z"/>
			<path class="st0" d="M63.2,65.6H50.7l5.8-47.1H69L63.2,65.6z"/>
			<path class="st0" d="M102.6,65.6H89.1l-5.6-21.8l-2.4,21.8H68.6l5.8-47.1h12.5l-2.8,20.2L94,18.5h13.2L94.4,41.2L102.6,65.6z"/>
			<path class="st0" d="M105,65.6l5.8-47.1h23.3l-1.4,11.1H122l-0.9,6.9h9.7l-1.3,10.7h-9.7l-0.9,7.2h10.8l-1.4,11.3H105V65.6z"/>
			<path class="st0" d="M178.5,65.6h-13.1v-6h-8.5l-1.7,6h-12.9l16.9-47.1h15.4L178.5,65.6z M165.2,49.5V29.7
				c-0.2,1-0.4,1.7-0.5,2.2s-0.3,1-0.3,1.4l-4.5,16.1L165.2,49.5L165.2,49.5z"/>
			<path class="st0" d="M192.2,65.6h-12.5l5.8-47.1H198L192.2,65.6z"/>
			<path class="st0" d="M229.9,65.6h-13.6l-3.5-14.2c-0.5-1.8-0.9-3.6-1.2-5.4c-0.1,1.3-0.2,2.4-0.3,3.3c-0.1,0.9-0.2,1.9-0.3,2.9
				l-1.6,13.3h-12.5l5.8-47.1h12.8c10.8,0,16.2,4.5,16.2,13.4c0,6.8-2.9,11.5-8.8,14.1L229.9,65.6z M212.5,40.3h0.8
				c0.8,0,1.5-0.2,2.2-0.5c0.7-0.4,1.3-0.8,1.8-1.5c0.5-0.6,0.9-1.3,1.2-2.2s0.5-1.7,0.5-2.6c0-3-1.6-4.4-4.8-4.4h-0.4L212.5,40.3z"
				/>
			<path class="st0" d="M274,65.6h-32l0.1-1l12.8-23c1.2-2.3,2.5-4.4,3.8-6.4s2.6-3.9,3.9-5.7h-13.4l1.4-11.1h30.8l-0.2,1.3
				l-14.6,25.7c-0.2,0.5-0.6,1-1,1.6s-0.8,1.4-1.3,2.2l-3.3,5.6c1.3-0.1,2.3-0.2,3.1-0.2c0.8-0.1,1.3-0.1,1.5-0.1h9.8L274,65.6z"/>
			<path class="st0" d="M293.2,66.4c-2.2,0-4.3-0.4-6.2-1.3s-3.5-2.1-4.8-3.7c-1.3-1.6-2.4-3.6-3.1-6.1c-0.8-2.4-1.1-5.2-1.1-8.3
				c0-4.5,0.6-8.6,1.7-12.2s2.7-6.7,4.6-9.3s4.2-4.5,6.7-5.9s5.2-2.1,8-2.1c2.3,0,4.4,0.4,6.3,1.3s3.4,2.2,4.7,3.8
				c1.3,1.6,2.2,3.6,2.9,6c0.7,2.3,1,4.9,1,7.8c0,4.2-0.5,8.1-1.5,11.7s-2.4,6.8-4.3,9.5c-1.8,2.7-4,4.8-6.5,6.4
				C299,65.6,296.2,66.4,293.2,66.4z M300.9,36.8c0-4.9-1.1-7.3-3.2-7.3c-1,0-1.8,0.5-2.7,1.5c-0.8,1-1.5,2.3-2.1,3.9
				c-0.6,1.6-1.1,3.5-1.4,5.6c-0.4,2.1-0.5,4.2-0.5,6.4c0,5.1,1.1,7.7,3.4,7.7c0.9,0,1.8-0.5,2.6-1.4c0.8-1,1.5-2.2,2.1-3.9
				c0.6-1.6,1.1-3.5,1.4-5.7C300.7,41.4,300.9,39.1,300.9,36.8z"/>
			<path class="st0" d="M331.4,66.4c-2.2,0-4.3-0.4-6.2-1.3s-3.5-2.1-4.8-3.7c-1.3-1.6-2.4-3.6-3.1-6.1c-0.8-2.4-1.1-5.2-1.1-8.3
				c0-4.5,0.6-8.6,1.7-12.2s2.7-6.7,4.6-9.3s4.2-4.5,6.7-5.9s5.2-2.1,8-2.1c2.3,0,4.4,0.4,6.3,1.3s3.4,2.2,4.7,3.8
				c1.3,1.6,2.2,3.6,2.9,6c0.7,2.3,1,4.9,1,7.8c0,4.2-0.5,8.1-1.5,11.7s-2.4,6.8-4.3,9.5c-1.8,2.7-4,4.8-6.5,6.4
				C337.2,65.6,334.4,66.4,331.4,66.4z M339,36.8c0-4.9-1.1-7.3-3.2-7.3c-1,0-1.8,0.5-2.7,1.5c-0.8,1-1.5,2.3-2.1,3.9
				c-0.6,1.6-1.1,3.5-1.4,5.6c-0.4,2.1-0.5,4.2-0.5,6.4c0,5.1,1.1,7.7,3.4,7.7c0.9,0,1.8-0.5,2.6-1.4c0.8-1,1.5-2.2,2.1-3.9
				c0.6-1.6,1.1-3.5,1.4-5.7C338.9,41.4,339,39.1,339,36.8z"/>
			<path class="st0" d="M399.4,65.6h-13.1l1.7-21.5c0.1-1.5,0.3-2.9,0.4-4.3c0.1-1.4,0.3-2.8,0.3-4.3c-0.4,1.7-0.8,3.2-1.2,4.7
				c-0.4,1.5-0.8,2.9-1.2,4.3l-6.6,21h-10.2l-0.8-21c0-0.8-0.1-1.5-0.1-2.3s0-1.6,0-2.4c0-0.7,0-1.4,0-2.1c0-0.7,0-1.4,0.1-2.2
				c-0.2,1.5-0.4,2.9-0.7,4.3c-0.2,1.4-0.5,2.8-0.7,4.3l-3.8,21.5H350l11.2-47.1H377l0.8,17c0,0.3,0,0.7,0,1s0,0.7,0,1
				c0,0.9,0,1.9,0,2.9s0,2.1-0.1,3.2c0.3-1.5,0.7-2.9,1-4.2s0.7-2.6,1-3.8l5.2-17.1h15.5L399.4,65.6z"/>
		</g>
	</g>
	<g>
		<g>
			<path class="st0" d="M25.3,118.9H12.8l5.8-47.1h12.1c11.2,0,16.9,4.5,16.9,13.6c0,2.6-0.4,5-1.2,7.2s-2,4.1-3.5,5.8
				c-1.5,1.6-3.5,2.9-5.8,3.8s-4.9,1.4-7.9,1.4h-2L25.3,118.9z M28.5,92.9H29c1.7,0,3.1-0.6,4.2-1.8s1.6-2.7,1.6-4.4
				c0-1.4-0.4-2.5-1.1-3.4c-0.8-0.8-1.7-1.2-2.9-1.2h-0.9L28.5,92.9z"/>
			<path class="st0" d="M46.8,118.9l5.8-47.1h23.3l-1.4,11.1H63.7l-0.9,6.9h9.7l-1.3,10.7h-9.7l-0.9,7.2h10.8L70,119L46.8,118.9
				L46.8,118.9z"/>
			<path class="st0" d="M93.8,91.6h17.6c-0.6,5-1.4,9.3-2.5,12.8s-2.4,6.4-4.1,8.7c-1.7,2.3-3.6,3.9-5.9,5c-2.3,1-4.9,1.6-7.9,1.6
				c-4.9,0-8.7-1.6-11.3-4.9c-2.6-3.2-4-7.9-4-13.8c0-4.4,0.5-8.5,1.6-12.2s2.5-6.9,4.4-9.5c1.9-2.7,4.1-4.7,6.7-6.2
				s5.4-2.2,8.5-2.2c7.4,0,12.2,3.9,14.5,11.7l-12.7,4.5c0-3.2-1-4.8-3.1-4.8c-1.2,0-2.3,0.7-3.2,2c-0.9,1.3-1.7,3-2.3,4.9
				c-0.6,2-1.1,4.1-1.3,6.4c-0.3,2.3-0.4,4.4-0.4,6.4c0,4.3,1.2,6.4,3.7,6.4c1.3,0,2.5-0.6,3.4-1.8c0.9-1.2,1.5-2.9,1.8-5h-4.6
				L93.8,91.6z"/>
			<path class="st0" d="M144.2,118.9H131v-6h-8.5l-1.7,6h-12.9l16.9-47.1h15.4L144.2,118.9z M130.9,102.8V83c-0.2,1-0.4,1.7-0.5,2.2
				s-0.3,1-0.3,1.4l-4.5,16.1h5.3V102.8z"/>
			<path class="st0" d="M147.6,103c2,3.4,4.5,5.1,7.3,5.1c1.2,0,2.2-0.3,3-1c0.8-0.6,1.2-1.5,1.2-2.5c0-1.1-0.6-2.2-1.8-3.2
				l-1.8-1.6c-2.1-1.9-3.7-3.8-4.7-5.5c-1-1.8-1.5-3.7-1.5-5.9c0-2.2,0.4-4.4,1.3-6.5c0.9-2.1,2.1-3.9,3.5-5.5
				c1.5-1.6,3.2-2.9,5.2-3.9s4-1.5,6.1-1.5c3,0,5.9,0.8,8.8,2.4l-1.8,14.4c-0.8-1.6-1.8-2.8-3-3.8s-2.4-1.4-3.7-1.4
				c-1,0-1.9,0.3-2.6,1c-0.7,0.7-1.1,1.4-1.1,2.2c0,0.6,0.2,1.2,0.5,1.8c0.4,0.5,0.9,1.1,1.6,1.7l1.8,1.5c2,1.6,3.5,3.3,4.5,5.1
				c1,1.8,1.5,3.7,1.5,5.8c0,2.5-0.4,4.9-1.3,7.1c-0.9,2.2-2.1,4.1-3.7,5.8c-1.5,1.6-3.4,2.9-5.4,3.9c-2.1,0.9-4.3,1.4-6.7,1.4
				c-2.7,0-5.7-0.7-8.9-2L147.6,103z"/>
			<path class="st0" d="M198.4,71.8H211l-4.1,33.3c-0.2,2-0.8,3.9-1.7,5.7c-0.9,1.8-2,3.3-3.5,4.7s-3.1,2.4-5.1,3.1
				c-2,0.8-4.2,1.2-6.7,1.2c-4.5,0-8-1.1-10.6-3.3c-2.6-2.2-3.9-5.4-3.9-9.6c0-0.6,0-1.2,0-1.7c0-0.6,0.1-1.2,0.2-1.8l3.9-31.5H192
				l-3.8,30.4c-0.1,1.1-0.2,1.9-0.2,2.4c0,2.2,0.9,3.3,2.8,3.3c1.2,0,2-0.4,2.6-1.2c0.5-0.8,1-2.3,1.2-4.4L198.4,71.8z"/>
			<path class="st0" d="M211.2,103c2,3.4,4.5,5.1,7.3,5.1c1.2,0,2.2-0.3,3-1c0.8-0.6,1.2-1.5,1.2-2.5c0-1.1-0.6-2.2-1.8-3.2
				l-1.8-1.6c-2.1-1.9-3.7-3.8-4.7-5.5c-1-1.8-1.5-3.7-1.5-5.9c0-2.2,0.4-4.4,1.3-6.5c0.9-2.1,2.1-3.9,3.5-5.5
				c1.5-1.6,3.2-2.9,5.2-3.9s4-1.5,6.1-1.5c3,0,5.9,0.8,8.8,2.4L236,87.7c-0.8-1.6-1.8-2.8-3-3.8s-2.4-1.4-3.7-1.4
				c-1,0-1.9,0.3-2.6,1c-0.7,0.7-1.1,1.4-1.1,2.2c0,0.6,0.2,1.2,0.5,1.8c0.4,0.5,0.9,1.1,1.6,1.7l1.8,1.5c2,1.6,3.5,3.3,4.5,5.1
				c1,1.8,1.5,3.7,1.5,5.8c0,2.5-0.4,4.9-1.3,7.1c-0.9,2.2-2.1,4.1-3.7,5.8c-1.5,1.6-3.4,2.9-5.4,3.9c-2.1,0.9-4.3,1.4-6.7,1.4
				c-2.7,0-5.7-0.7-8.9-2L211.2,103z"/>
			<path class="st0" d="M262.2,105c0,0.3-0.1,0.6-0.1,0.8c0,0.2,0,0.4,0,0.6c0,1.9,0.9,2.9,2.6,2.9c1.2,0,2.1-0.5,2.9-1.5
				s1.1-2.2,1.1-3.7c0-2.8-1.5-4.2-4.5-4.2c-0.2,0-0.6,0-0.9,0c-0.4,0-0.8,0.1-1.2,0.1l1.2-9.9c0.3,0,0.6,0,0.8,0c0.2,0,0.4,0,0.7,0
				c3.9,0,5.8-2,5.8-5.9c0-2-0.8-3-2.3-3s-2.4,1.1-2.8,3.2l-0.1,0.6h-12.1c0.4-2.2,1.1-4.2,2.2-6c1-1.8,2.2-3.3,3.7-4.5
				c1.4-1.2,3.1-2.2,4.9-2.8c1.9-0.7,3.8-1,6-1c1.9,0,3.6,0.3,5.2,0.9s2.9,1.4,4.1,2.5c1.1,1.1,2,2.4,2.7,3.9c0.6,1.5,1,3.2,1,4.9
				c0,5-2.3,8.8-6.9,11.5c3.4,2.1,5.1,5.2,5.1,9.2c0,2.2-0.5,4.3-1.4,6.3c-0.9,1.9-2.2,3.6-3.8,5.1c-1.6,1.4-3.4,2.6-5.6,3.4
				c-2.1,0.8-4.5,1.2-7,1.2c-2,0-3.8-0.3-5.5-0.8c-1.7-0.6-3.1-1.4-4.3-2.4s-2.1-2.3-2.8-3.8s-1-3.1-1-5c0-0.5,0.1-1.4,0.2-2.7h12.1
				V105z"/>
			<path class="st0" d="M313.3,118.9h-31.9l14.8-17.2c1.8-2.1,3.4-4,4.6-5.7c1.2-1.6,2.2-3.1,2.9-4.5c0.7-1.3,1.3-2.6,1.6-3.7
				c0.3-1.1,0.5-2.2,0.5-3.3c0-1-0.2-1.7-0.7-2.3c-0.5-0.6-1-0.9-1.8-0.9c-2.2,0-3.5,2.5-3.9,7.5h-12.2c0.2-2.7,0.8-5.1,1.8-7.3
				c1-2.2,2.2-4.1,3.8-5.7c1.5-1.6,3.3-2.8,5.4-3.7c2-0.9,4.3-1.3,6.8-1.3c2,0,3.8,0.3,5.4,1c1.6,0.6,3,1.5,4.2,2.7
				c1.1,1.1,2,2.5,2.7,4.2s0.9,3.4,0.9,5.4s-0.3,4-0.8,5.9c-0.6,1.9-1.4,3.9-2.7,5.8c-1.2,2-2.8,4-4.7,6.1c-1.9,2.1-4.2,4.3-6.8,6.6
				c1.9-0.1,3.8-0.2,5.7-0.3s3.8-0.1,5.9-0.1L313.3,118.9z"/>
		</g>
	</g>
</g>
<g>
	<path class="st0" d="M20,127.6h2.7l-3.4,16.2h-2.8l-3.4-16.2H16l2,11.3l0,0L20,127.6z"/>
	<path class="st0" d="M26.1,143.9v-16.2h7.5v2.4h-4.7v4.2h3.6v2.4h-3.6v4.8h5v2.4L26.1,143.9L26.1,143.9z"/>
	<path class="st0" d="M40.7,143.9h-2.8v-16.2h3.9c1.6,0,2.7,0.4,3.5,1.1c0.8,0.7,1.2,2,1.2,3.7c0,0.7-0.1,1.2-0.2,1.7
		s-0.3,0.9-0.5,1.2s-0.4,0.6-0.6,0.8c-0.2,0.2-0.5,0.3-0.7,0.5l2.4,7.4h-2.8l-2-6.7c-0.2,0-0.4,0-0.7,0.1c-0.3,0-0.5,0-0.8,0
		L40.7,143.9L40.7,143.9z M40.7,134.9h1c0.4,0,0.7,0,1-0.1s0.5-0.2,0.6-0.4c0.2-0.2,0.3-0.5,0.4-0.8c0.1-0.3,0.1-0.7,0.1-1.2
		c0-1-0.2-1.6-0.5-2s-0.8-0.5-1.6-0.5h-1V134.9z"/>
	<path class="st0" d="M56.1,131.6c0-0.3-0.1-0.6-0.2-0.9c-0.1-0.2-0.2-0.4-0.4-0.6c-0.1-0.1-0.3-0.2-0.5-0.3s-0.3-0.1-0.5-0.1
		c-0.5,0-0.8,0.1-1,0.4c-0.2,0.3-0.4,0.7-0.4,1.2s0.1,0.9,0.4,1.3c0.3,0.4,0.6,0.8,1,1.2s0.9,0.8,1.4,1.2s1,0.8,1.4,1.3s0.8,1,1,1.6
		s0.4,1.2,0.4,2c0,0.7-0.1,1.3-0.3,1.8s-0.5,1-0.9,1.3c-0.4,0.4-0.8,0.6-1.4,0.8c-0.5,0.2-1.1,0.3-1.8,0.3s-1.2-0.1-1.7-0.4
		c-0.5-0.2-0.9-0.6-1.3-1c-0.4-0.4-0.6-0.9-0.8-1.4s-0.3-1.1-0.3-1.7l2.7-0.4c0.1,0.8,0.2,1.4,0.5,1.8c0.3,0.4,0.7,0.6,1.1,0.6
		c0.5,0,0.9-0.1,1.2-0.4c0.3-0.3,0.4-0.6,0.4-1.1s-0.1-1-0.4-1.4c-0.3-0.4-0.6-0.8-1-1.2s-0.9-0.8-1.4-1.2s-1-0.8-1.4-1.3
		s-0.8-1-1-1.6c-0.3-0.6-0.4-1.3-0.4-2c0-1.3,0.4-2.3,1.1-3s1.8-1,3.2-1c0.6,0,1.1,0.1,1.5,0.3c0.5,0.2,0.8,0.5,1.2,0.8
		c0.3,0.4,0.6,0.8,0.8,1.2c0.2,0.5,0.3,1,0.4,1.6L56.1,131.6z"/>
	<path class="st0" d="M64.4,143.9h-2.7l3-16.2h3.5l3,16.2h-2.7l-0.5-3.6h-3.1L64.4,143.9z M65.3,137.9h2.2l-1.1-7l0,0L65.3,137.9z"
		/>
	<path class="st0" d="M75.3,130.1h-2.7v-2.4h8.2v2.4h-2.7v13.8h-2.8V130.1z"/>
	<path class="st0" d="M84.7,143.9v-16.2h2.8v16.2H84.7z"/>
	<path class="st0" d="M92.2,143.9v-16.2H95v13.8h4.4v2.4H92.2z"/>
	<path class="st0" d="M102.9,143.9v-16.2h7.5v2.4h-4.7v4.2h3.6v2.4h-3.6v4.8h5v2.4L102.9,143.9L102.9,143.9z"/>
	<path class="st0" d="M131.5,136.6c-0.2,0.8-0.4,1.5-0.7,2.2s-0.6,1.4-0.9,2.1c0.2,0.2,0.5,0.4,0.7,0.5c0.3,0.1,0.5,0.2,0.8,0.3v2.5
		c-1.2,0-2.3-0.4-3.2-1.2c-0.4,0.4-0.9,0.8-1.4,0.9c-0.5,0.2-1.1,0.3-1.8,0.3c-0.6,0-1.1-0.1-1.6-0.3s-0.9-0.4-1.2-0.8
		s-0.6-0.7-0.8-1.2c-0.2-0.5-0.3-1-0.3-1.6c0-0.9,0.2-1.7,0.6-2.5s0.9-1.5,1.5-2.1c-0.3-0.7-0.6-1.4-0.9-2.2s-0.4-1.6-0.4-2.3
		c0-0.6,0.1-1.1,0.2-1.5s0.4-0.9,0.7-1.2c0.3-0.3,0.7-0.6,1.1-0.8c0.4-0.2,1-0.3,1.5-0.3c1,0,1.8,0.3,2.4,0.9
		c0.6,0.6,0.9,1.4,0.9,2.5c0,0.5-0.1,1-0.3,1.4s-0.4,0.9-0.7,1.3c-0.3,0.4-0.6,0.8-0.9,1.2s-0.7,0.7-1,1.1c0.3,0.6,0.6,1.2,0.9,1.7
		c0.3,0.6,0.7,1.1,1.1,1.6c0.2-0.5,0.4-1,0.6-1.5s0.3-1,0.4-1.5L131.5,136.6z M123.8,140c0,0.5,0.2,0.9,0.5,1.2s0.7,0.5,1.2,0.5
		c0.3,0,0.5,0,0.7-0.1s0.4-0.2,0.6-0.4c-0.4-0.5-0.8-1-1.2-1.6s-0.7-1.1-1-1.7c-0.2,0.4-0.4,0.7-0.5,0.9
		C123.9,139.2,123.8,139.5,123.8,140z M124.4,130.6c0,0.5,0.1,1.1,0.2,1.6c0.2,0.5,0.3,1.1,0.5,1.5c0.3-0.4,0.6-0.9,0.9-1.4
		s0.4-1,0.4-1.6s-0.1-1.1-0.3-1.4c-0.2-0.3-0.4-0.4-0.8-0.4c-0.3,0-0.6,0.1-0.8,0.4S124.4,130.1,124.4,130.6z"/>
	<path class="st0" d="M142.6,143.9v-16.2h7.8v2.4h-5v4.2h3.7v2.4h-3.7v7.2L142.6,143.9L142.6,143.9z"/>
	<path class="st0" d="M155.1,143.9h-2.7l3-16.2h3.5l3,16.2h-2.7l-0.5-3.6h-3.1L155.1,143.9z M156,137.9h2.2l-1.1-7l0,0L156,137.9z"
		/>
	<path class="st0" d="M170.4,131.6c0-0.3-0.1-0.6-0.2-0.9c-0.1-0.2-0.2-0.4-0.4-0.6c-0.1-0.1-0.3-0.2-0.5-0.3s-0.3-0.1-0.5-0.1
		c-0.5,0-0.8,0.1-1,0.4c-0.2,0.3-0.4,0.7-0.4,1.2s0.1,0.9,0.4,1.3c0.3,0.4,0.6,0.8,1,1.2s0.9,0.8,1.4,1.2s1,0.8,1.4,1.3s0.8,1,1,1.6
		s0.4,1.2,0.4,2c0,0.7-0.1,1.3-0.3,1.8s-0.5,1-0.9,1.3c-0.4,0.4-0.8,0.6-1.4,0.8c-0.5,0.2-1.1,0.3-1.8,0.3s-1.2-0.1-1.7-0.4
		c-0.5-0.2-0.9-0.6-1.3-1c-0.4-0.4-0.6-0.9-0.8-1.4s-0.3-1.1-0.3-1.7l2.7-0.4c0.1,0.8,0.2,1.4,0.5,1.8c0.3,0.4,0.7,0.6,1.1,0.6
		c0.5,0,0.9-0.1,1.2-0.4c0.3-0.3,0.4-0.6,0.4-1.1s-0.1-1-0.4-1.4c-0.3-0.4-0.6-0.8-1-1.2s-0.9-0.8-1.4-1.2s-1-0.8-1.4-1.3
		s-0.8-1-1-1.6c-0.3-0.6-0.4-1.3-0.4-2c0-1.3,0.4-2.3,1.1-3s1.8-1,3.2-1c0.6,0,1.1,0.1,1.5,0.3c0.5,0.2,0.8,0.5,1.2,0.8
		c0.3,0.4,0.6,0.8,0.8,1.2c0.2,0.5,0.3,1,0.4,1.6L170.4,131.6z"/>
	<path class="st0" d="M178.7,130.1H176v-2.4h8.2v2.4h-2.7v13.8h-2.8V130.1z"/>
</g>
<g>
	<g>
		<path class="st0" d="M106.7,194l-68.3,18.1c-5.7,1.5-10.3,1.3-12.9-0.6c-6.7-4.9-1.6-14.8,0.2-17.8c-3.3,3.6-6.6,7.2-9.1,11.2
			c-4,6.2-5.7,13-3,17.3c4.9,7.8,16.6,4.2,24,1.1L106.7,194z"/>
	</g>
</g>
</svg>
